<?xml version="1.0" encoding="utf-8"?>
<!-- Generator: Adobe Illustrator 24.0.1, SVG Export Plug-In . SVG Version: 6.00 Build 0)  -->
<svg version="1.1" id="Bold" xmlns="http://www.w3.org/2000/svg" xmlns:xlink="http://www.w3.org/1999/xlink" x="0px" y="0px"
	 width="40.9px" height="40.9px" viewBox="0 0 40.9 40.9" style="enable-background:new 0 0 40.9 40.9;" xml:space="preserve">
<style type="text/css">
	.st0{fill:#FFFFFF;}
</style>
<g>
	<path class="st0" d="M40.9,40.9L40.9,40.9L40.9,40.9l0-15c0-7.3-1.6-13-10.2-13c-4.1,0-6.9,2.3-8,4.4h-0.1v-3.7h-8.1v27.3h8.5V27.4
		c0-3.6,0.7-7,5.1-7c4.3,0,4.4,4.1,4.4,7.2v13.3L40.9,40.9z"/>
	<path class="st0" d="M0.7,13.6h8.5v27.3H0.7L0.7,13.6z"/>
	<path class="st0" d="M4.9,0C2.2,0,0,2.2,0,4.9s2.2,5,4.9,5s4.9-2.2,4.9-5C9.8,2.2,7.6,0,4.9,0z"/>
</g>
</svg>
