<?xml version="1.0" encoding="utf-8"?>
<!-- Generator: Adobe Illustrator 25.0.1, SVG Export Plug-In . SVG Version: 6.00 Build 0)  -->
<svg version="1.1" id="Layer_1" xmlns="http://www.w3.org/2000/svg" xmlns:xlink="http://www.w3.org/1999/xlink" x="0px" y="0px"
	 width="43.7px" height="39.9px" viewBox="0 0 43.7 39.9" style="enable-background:new 0 0 43.7 39.9;" xml:space="preserve">
<style type="text/css">
	.st0{fill:#178BFF;}
</style>
<g id="linked-in-logo-of-two-letters" transform="translate(0 -23.916)">
	<g id="Group_5445" transform="translate(0 23.916)">
		<path id="Path_4178" class="st0" d="M1.4,39.9h5.7c0.8,0,1.4-0.6,1.4-1.4V13.7c0-0.8-0.6-1.4-1.4-1.4H1.4c-0.8,0-1.4,0.6-1.4,1.4
			v24.8C0,39.3,0.6,39.9,1.4,39.9z"/>
		<path id="Path_4179" class="st0" d="M1.4,7.9h5.7c0.8,0,1.4-0.6,1.4-1.4v-5C8.5,0.6,7.9,0,7.1,0H1.4C0.6,0,0,0.6,0,1.4v5
			C0,7.2,0.6,7.9,1.4,7.9C1.4,7.9,1.4,7.9,1.4,7.9z"/>
		<path id="Path_4180" class="st0" d="M41.5,15.1c-0.9-1.2-2.2-2-3.5-2.6c-1.6-0.7-3.4-1-5.2-1c-3.7,0-7.3,1.6-9.7,4.4
			c-0.5,0.6-0.9,0.5-0.9-0.3v-1.9c0-0.8-0.6-1.4-1.4-1.4c0,0,0,0,0,0h-5.1c-0.8,0-1.4,0.6-1.4,1.4v24.8c0,0.8,0.6,1.4,1.4,1.4
			c0,0,0,0,0,0h5.7c0.8,0,1.4-0.6,1.4-1.4c0,0,0,0,0,0v-8.6c-0.1-2.5,0.1-5,0.7-7.4c0.4-1.3,1.3-2.4,2.4-3.2c1.2-0.8,2.6-1.2,4-1.2
			c1,0,2.1,0.3,3,0.8c0.8,0.6,1.5,1.4,1.8,2.4c0.4,1,0.5,3.3,0.5,6.7v10.5c0,0.8,0.6,1.4,1.4,1.4c0,0,0,0,0,0h5.7
			c0.8,0,1.4-0.6,1.4-1.4c0,0,0,0,0,0V24.4c0.1-1.9-0.1-3.8-0.5-5.7C42.9,17.4,42.3,16.2,41.5,15.1z"/>
	</g>
</g>
</svg>
