<?xml version="1.0" encoding="utf-8"?>
<!-- Generator: Adobe Illustrator 25.0.1, SVG Export Plug-In . SVG Version: 6.00 Build 0)  -->
<svg version="1.1" id="phones" xmlns="http://www.w3.org/2000/svg" xmlns:xlink="http://www.w3.org/1999/xlink" x="0px" y="0px"
	 width="60px" height="56.8px" viewBox="0 0 60 56.8" style="enable-background:new 0 0 60 56.8;" xml:space="preserve">
<style type="text/css">
	.st0{fill:#178BFF;}
</style>
<g id="_017---Headset" transform="translate(0 0)">
	<path id="Shape" class="st0" d="M56,37.8v-14h1c1.7,0,3,1.3,3,3v8c0,1.7-1.3,3-3,3H56z"/>
	<path id="Rectangle-path" class="st0" d="M8,20.8h4c1.1,0,2,0.9,2,2v16c0,1.1-0.9,2-2,2H8c-1.1,0-2-0.9-2-2v-16
		C6,21.7,6.9,20.8,8,20.8z"/>
	<path id="Shape-2" class="st0" d="M3,23.8h1v14H3c-1.7,0-3-1.3-3-3v-8C0,25.2,1.3,23.8,3,23.8z"/>
	<path id="Shape-3" class="st0" d="M47.8,18.8C46.1,9,36.8,2.4,27,4.1c-7.6,1.3-13.5,7.2-14.8,14.8h-4C10,6.8,21.2-1.5,33.2,0.2
		c9.6,1.4,17.2,9,18.6,18.6H47.8L47.8,18.8z"/>
	<path id="Shape-4" class="st0" d="M52,40.8h-1v5c0,5-4,9-9,9h-4.2c-0.4,1.2-1.6,2-2.8,2H25c-1.7,0-3-1.3-3-3s1.3-3,3-3h10
		c1.3,0,2.4,0.8,2.8,2H42c3.9,0,7-3.1,7-7v-5h-1c-1.1,0-2-0.9-2-2v-16c0-1.1,0.9-2,2-2h4c1.1,0,2,0.9,2,2v16
		C54,39.9,53.1,40.8,52,40.8z"/>
</g>
</svg>
