<?xml version="1.0" encoding="utf-8"?>
<!-- Generator: Adobe Illustrator 25.0.1, SVG Export Plug-In . SVG Version: 6.00 Build 0)  -->
<svg version="1.1" id="Layer_1" xmlns="http://www.w3.org/2000/svg" xmlns:xlink="http://www.w3.org/1999/xlink" x="0px" y="0px"
	 width="60px" height="45px" viewBox="0 0 60 45" style="enable-background:new 0 0 60 45;" xml:space="preserve">
<style type="text/css">
	.st0{fill:#178BFF;}
</style>
<g id="email" transform="translate(0 -64)">
	<g id="Group_5444" transform="translate(0 64)">
		<g id="Group_5443" transform="translate(0 0)">
			<path id="Path_4175" class="st0" d="M46.3,17.5c-7.6,0-13.7,6.2-13.7,13.8c0,7.6,6.2,13.7,13.8,13.7c2.4,0,4.8-0.6,6.9-1.8
				c0.6-0.3,0.8-1.1,0.5-1.7c-0.3-0.6-1.1-0.8-1.7-0.5c0,0,0,0,0,0c-5.4,3.1-12.3,1.3-15.4-4.1s-1.3-12.3,4.1-15.4
				s12.3-1.3,15.4,4.1c1,1.7,1.5,3.6,1.5,5.6v1.2c0,1.4-1.1,2.5-2.5,2.5s-2.5-1.1-2.5-2.5v-5c0-0.7-0.6-1.2-1.2-1.3
				c-0.3,0-0.6,0.1-0.9,0.4c-2.6-2.3-6.5-2.1-8.8,0.5c-2.3,2.6-2.1,6.5,0.5,8.8c2.6,2.3,6.5,2.1,8.8-0.5c0,0,0,0,0.1-0.1
				c1.6,2.3,4.7,2.8,7,1.2c1.3-0.9,2.1-2.5,2.1-4.1v-1.2C60,23.7,53.8,17.5,46.3,17.5z M46.3,35c-2.1,0-3.8-1.7-3.8-3.8
				s1.7-3.8,3.8-3.8s3.8,1.7,3.8,3.8l0,0C50,33.3,48.3,35,46.3,35z"/>
			<path id="Path_4176" class="st0" d="M2.1,2.9l20.6,16.8c0.1,0.1,0.1,0.1,0.2,0.1c0.3,0.1,0.6,0.2,0.9,0.2c0.4,0,0.8-0.1,1.1-0.4
				L45.4,2.9C46,2.5,46,1.7,45.6,1.1C45.5,1,45.4,1,45.3,0.9C44.5,0.3,43.5,0,42.5,0H5C4,0,3,0.3,2.1,0.9C1.6,1.3,1.4,2.1,1.8,2.6
				C1.9,2.7,2,2.8,2.1,2.9L2.1,2.9z"/>
			<path id="Path_4177" class="st0" d="M30,31.3c0-9,7.3-16.2,16.2-16.2c0.7,0,1.2-0.6,1.2-1.2c0,0,0,0,0,0V7.1
				c0-0.5-0.3-0.9-0.7-1.1c-0.4-0.2-1-0.1-1.3,0.2L26.3,21.7l-0.2,0.1c-1.5,0.9-3.4,0.9-4.8-0.1L2,6.1C1.5,5.7,0.7,5.7,0.3,6.3
				C0.1,6.5,0,6.8,0,7.1V30c0,2.8,2.2,5,5,5h24c0.7,0,1.3-0.6,1.3-1.2c0-0.1,0-0.1,0-0.2C30.1,32.8,30,32,30,31.3z"/>
		</g>
	</g>
</g>
</svg>
