<?xml version="1.0" encoding="utf-8"?>
<!-- Generator: Adobe Illustrator 24.0.1, SVG Export Plug-In . SVG Version: 6.00 Build 0)  -->
<svg version="1.1" id="logo" xmlns="http://www.w3.org/2000/svg" xmlns:xlink="http://www.w3.org/1999/xlink" x="0px" y="0px"
	 width="335px" height="56.3px" viewBox="0 0 335 56.3" style="enable-background:new 0 0 335 56.3;" xml:space="preserve">
<style type="text/css">
	.st0{fill:url(#Ellipse_6_1_);}
	.st1{fill:#FFFFFF;}
</style>
<g id="Demivolt" transform="translate(0 0)">
	
		<linearGradient id="Ellipse_6_1_" gradientUnits="userSpaceOnUse" x1="-121.0798" y1="434.7051" x2="-119.6854" y2="433.3127" gradientTransform="matrix(28.57 0 0 -28.57 3676.2639 12427.7842)">
		<stop  offset="0" style="stop-color:#2677C8"/>
		<stop  offset="1" style="stop-color:#1F4C99"/>
	</linearGradient>
	<circle id="Ellipse_6" class="st0" cx="236.9" cy="28.1" r="28.1"/>
	<path id="Path_2157" class="st1" d="M0,1.9v51.2h20.1c6.6,0.2,13-2.5,17.5-7.4c4.7-4.9,7.2-11.5,7-18.2c0.2-6.7-2.4-13.3-7-18.1
		c-4.5-4.9-10.9-7.6-17.5-7.5H0z M8.4,45.1V9.9h11.7c4.5-0.1,8.8,1.7,11.8,5c3.1,3.4,4.8,7.9,4.6,12.6c0.2,4.6-1.5,9.2-4.6,12.6
		c-3,3.3-7.3,5.1-11.8,5L8.4,45.1z M60.8,31.2h20.4v-8H60.7V9.9H83V1.9H52.4v51.2h31v-8H60.7L60.8,31.2L60.8,31.2z M131.1,1.9
		l-15.5,25.6L100.1,1.9h-9.1v51.2h8.4V16.5l15.6,25.8h1l15.6-25.7v36.5h8.4V1.9H131.1z M150.3,53.1h8.4V1.9h-8.4V53.1z M192.1,53.1
		l17.8-51.2h-9.1L187,43L173.4,1.9h-9.2L182,53.1L192.1,53.1z M279.8,1.9h-8.4v51.2h29.3v-8h-20.8V1.9z M297.7,1.9v8h14.5v43.2h8.4
		V9.9H335V1.9H297.7z"/>
	<path id="Path_2158" class="st1" d="M253.5,15c-0.3-0.4-0.3-1,0.1-1.3c0,0,0,0,0,0c0.4-0.3,1-0.3,1.3,0.1c7.9,10,6.3,24.5-3.6,32.4
		s-24.5,6.3-32.4-3.6c-7.9-10-6.3-24.5,3.6-32.4c6.2-4.9,14.4-6.3,21.8-3.8c2.4,0.8,4.6,2,6.7,3.6c0.4,0.3,0.5,0.9,0.2,1.3
		c-0.3,0.4-0.9,0.5-1.3,0.2l0,0c-1.8-1.4-3.9-2.5-6.1-3.3c-11-3.8-23,2.1-26.8,13.2s2.1,23,13.2,26.8c11,3.8,23-2.1,26.8-13.2
		C259.2,28.1,257.9,20.6,253.5,15L253.5,15z"/>
	<path id="Path_2159" class="st1" d="M249.9,9.9c0.4-0.3,1-0.2,1.3,0.2c0,0,0,0,0,0c0.3,0.4,0.2,1-0.2,1.3c0,0,0,0,0,0l-4.7,3.6
		L244.8,26l0.9,2.2c0.1,0.3,0.1,0.7-0.1,1l-3.6,4.2c-0.3,0.4-0.9,0.5-1.3,0.1c0,0,0,0,0,0l-0.1-0.1l-8.4-10.2
		c-0.1-0.1-0.2-0.3-0.2-0.4l0,0l-0.5-2.4c-0.1-0.5,0.2-1,0.7-1.1c0,0,0,0,0,0c0.5-0.1,1,0.2,1.1,0.7c0,0,0,0,0,0l0.4,2.2l7.5,9.2
		l2.5-2.9l-0.8-1.9c0-0.2,0-0.3,0-0.5l1.6-11.7c0-0.3,0.2-0.5,0.4-0.7L249.9,9.9L249.9,9.9z"/>
	<path id="Path_2160" class="st1" d="M233.8,23.9c0.4-0.4,1-0.4,1.4-0.1c0.4,0.3,0.4,0.9,0.1,1.3l-5.1,5.9l-0.5,17.6
		c0,0.5-0.4,0.9-1,0.9c0,0,0,0,0,0c-0.5,0-0.9-0.5-0.9-1l0.5-17.9c0-0.2,0.1-0.5,0.2-0.6L233.8,23.9z"/>
</g>
</svg>
