<svg id="logo" xmlns="http://www.w3.org/2000/svg" xmlns:xlink="http://www.w3.org/1999/xlink" viewBox="0 0 170 28.571">
  <defs>
    <style>
      .cls-1 {
        fill: url(#linear-gradient);
      }

      .cls-2 {
        fill: #fff;
      }
    </style>
    <linearGradient id="linear-gradient" x1="0.146" y1="0.147" x2="0.853" y2="0.853" gradientUnits="objectBoundingBox">
      <stop offset="0" stop-color="#2677c8"/>
      <stop offset="1" stop-color="#1f4c99"/>
    </linearGradient>
  </defs>
  <g id="Demivolt" transform="translate(0 0)">
    <circle id="Ellipse_6" data-name="Ellipse 6" class="cls-1" cx="14.285" cy="14.285" r="14.285" transform="translate(105.949)"/>
    <path id="Path_2157" data-name="Path 2157" class="cls-2" d="M0,1V27H10.2a11.685,11.685,0,0,0,8.875-3.749A12.985,12.985,0,0,0,22.638,14,12.852,12.852,0,0,0,19.079,4.8,11.685,11.685,0,0,0,10.2,1ZM4.271,22.917V5.1H10.2a7.745,7.745,0,0,1,5.98,2.544,8.97,8.97,0,0,1,2.335,6.379,9.046,9.046,0,0,1-2.335,6.388,7.745,7.745,0,0,1-5.98,2.525ZM30.849,15.9H41.2V11.859H30.811V5.1H42.125V1H26.577V27H42.315V22.917h-11.5V15.9ZM66.519,1,58.65,14,50.82,1h-4.6V27h4.262V8.442l7.907,13.1h.522L66.814,8.479V27h4.271V1Zm9.758,26h4.271V1H76.277Zm21.2,0L106.49,1h-4.632L94.919,21.882,88.009,1h-4.68l9.017,25.979ZM141.98,1h-4.271V27h14.845V22.917H141.98Zm9.093,0V5.081h7.347V27h4.271V5.1H170V1Z" transform="translate(0 -0.051)"/>
    <path id="Path_2158" data-name="Path 2158" class="cls-2" d="M134.434,7.732a.484.484,0,0,1,.076-.683.494.494,0,0,1,.683.076,11.706,11.706,0,1,1-5.372-3.778A11.884,11.884,0,0,1,133.2,5.159a.487.487,0,0,1-.6.769,10.84,10.84,0,0,0-3.094-1.661,10.707,10.707,0,1,0,4.926,3.465Z" transform="translate(-5.81 -0.138)"/>
    <path id="Path_2159" data-name="Path 2159" class="cls-2" d="M133.078,5.265a.484.484,0,0,1,.683.1.475.475,0,0,1-.1.674L131.3,7.856l-.769,5.619L131,14.6a.484.484,0,0,1-.076.5l-1.832,2.117a.484.484,0,0,1-.683.057l-.066-.076L124.07,12a.465.465,0,0,1-.095-.209h0l-.266-1.243a.475.475,0,0,1,.38-.57.484.484,0,0,1,.579.37l.228,1.13,3.8,4.67,1.262-1.452-.4-.949a.455.455,0,0,1,0-.256l.807-5.923a.465.465,0,0,1,.2-.361l2.515-1.9Z" transform="translate(-6.285 -0.263)"/>
    <path id="Path_2160" data-name="Path 2160" class="cls-2" d="M124.836,12.771a.488.488,0,0,1,.74.636l-2.591,3.018-.237,8.951a.484.484,0,0,1-.494.475.494.494,0,0,1-.475-.5l.237-9.1a.475.475,0,0,1,.123-.323Z" transform="translate(-6.188 -0.64)"/>
  </g>
</svg>
