<?xml version="1.0" encoding="utf-8"?>
<!-- Generator: Adobe Illustrator 25.0.1, SVG Export Plug-In . SVG Version: 6.00 Build 0)  -->
<svg version="1.1" id="Layer_1" xmlns="http://www.w3.org/2000/svg" xmlns:xlink="http://www.w3.org/1999/xlink" x="0px" y="0px"
	 width="52px" height="52px" viewBox="0 0 52 52" style="enable-background:new 0 0 52 52;" xml:space="preserve">
<style type="text/css">
	.st0{fill:#FFFFFF;}
	.st1{fill:#178BFF;}
</style>
<g>
	<circle id="Ellipse_100" class="st0" cx="26" cy="26" r="26"/>
	<path id="Path_2227" class="st1" d="M30.8,26.1c0-0.3-0.2-0.5-0.5-0.5h-7.5c-0.3,0-0.5,0.2-0.5,0.5v1.3c0,0.3,0.2,0.5,0.5,0.5h7.5
		c0.3,0,0.5-0.2,0.5-0.5V26.1z M30.3,29.4h-7.5c-0.3,0-0.5,0.2-0.5,0.5v1.3c0,0.3,0.2,0.5,0.5,0.5h7.5c0.3,0,0.5-0.2,0.5-0.5v-1.3
		C30.8,29.6,30.6,29.4,30.3,29.4z M35.1,20.9c0-0.6-0.2-1.1-0.6-1.5l-3.8-3.8c-0.4-0.4-1-0.6-1.5-0.6H20c-1.2,0-2.2,1-2.2,2.2v18.7
		c0,1.2,1,2.2,2.2,2.2h13c1.2,0,2.2-1,2.2-2.2L35.1,20.9z M29.4,17.3l3.4,3.4h-3.4V17.3z M33,35.8H20V17.1h7.2v4.7
		c0,0.6,0.5,1.1,1.1,1.1l0,0H33L33,35.8L33,35.8z"/>
</g>
</svg>
