<?xml version="1.0" encoding="utf-8"?>
<!-- Generator: Adobe Illustrator 25.0.1, SVG Export Plug-In . SVG Version: 6.00 Build 0)  -->
<svg version="1.1" id="Layer_1" xmlns="http://www.w3.org/2000/svg" xmlns:xlink="http://www.w3.org/1999/xlink" x="0px" y="0px"
	 width="18.6px" height="18.6px" viewBox="0 0 18.6 18.6" style="enable-background:new 0 0 18.6 18.6;" xml:space="preserve">
<style type="text/css">
	.st0{fill:#178BFF;}
</style>
<path id="Path_4114" class="st0" d="M11.4,11.4c1-0.9,1.5-2.2,1.5-3.5c0-1.3-0.5-2.6-1.5-3.5c-0.9-1-2.2-1.5-3.5-1.5
	c-1.3,0-2.6,0.5-3.5,1.5c-1,0.9-1.5,2.2-1.5,3.5c0,1.3,0.5,2.6,1.5,3.5c0.9,1,2.2,1.5,3.5,1.5C9.2,12.9,10.5,12.3,11.4,11.4z
	 M18.6,17.1c0,0.4-0.2,0.7-0.4,1c-0.3,0.3-0.6,0.4-1,0.4c-0.4,0-0.7-0.1-1-0.4l-3.8-3.8c-1.3,0.9-2.9,1.4-4.5,1.4
	c-1.1,0-2.1-0.2-3.1-0.6c-0.9-0.4-1.8-1-2.5-1.7c-0.7-0.7-1.3-1.6-1.7-2.5C0.2,9.9,0,8.9,0,7.9c0-1,0.2-2.1,0.6-3.1
	C1,3.9,1.6,3,2.3,2.3C3,1.6,3.9,1,4.8,0.6c1-0.4,2-0.6,3.1-0.6c1,0,2.1,0.2,3.1,0.6c0.9,0.4,1.8,1,2.5,1.7c0.7,0.7,1.3,1.6,1.7,2.5
	c0.4,1,0.6,2,0.6,3.1c0,1.6-0.5,3.2-1.4,4.5l3.8,3.8C18.4,16.4,18.6,16.8,18.6,17.1L18.6,17.1z"/>
</svg>
