<?xml version="1.0" encoding="utf-8"?>
<!-- Generator: Adobe Illustrator 25.0.1, SVG Export Plug-In . SVG Version: 6.00 Build 0)  -->
<svg version="1.1" id="Layer_1" xmlns="http://www.w3.org/2000/svg" xmlns:xlink="http://www.w3.org/1999/xlink" x="0px" y="0px"
	 width="52px" height="52px" viewBox="0 0 52 52" style="enable-background:new 0 0 52 52;" xml:space="preserve">
<style type="text/css">
	.st0{fill:#178BFF;}
	.st1{fill:#FFFFFF;}
</style>
<g id="Group_7393" transform="translate(-475 -1137)">
	<circle id="Ellipse_100" class="st0" cx="501" cy="1163" r="26"/>
	<path id="Path_2227" class="st1" d="M505.8,1163.1c0-0.3-0.2-0.5-0.5-0.5h-7.5c-0.3,0-0.5,0.2-0.5,0.5v1.3c0,0.3,0.2,0.5,0.5,0.5
		h7.5c0.3,0,0.5-0.2,0.5-0.5L505.8,1163.1z M505.3,1166.4h-7.5c-0.3,0-0.5,0.2-0.5,0.5v1.3c0,0.3,0.2,0.5,0.5,0.5h7.5
		c0.3,0,0.5-0.2,0.5-0.5v-1.3C505.8,1166.6,505.6,1166.4,505.3,1166.4z M510.1,1157.9c0-0.6-0.2-1.1-0.6-1.5l-3.8-3.8
		c-0.4-0.4-1-0.6-1.5-0.6H495c-1.2,0-2.2,1-2.2,2.2v18.7c0,1.2,1,2.2,2.2,2.2H508c1.2,0,2.2-1,2.2-2.2L510.1,1157.9z M504.4,1154.3
		l3.4,3.4h-3.4V1154.3z M508,1172.8H495v-18.7h7.2v4.7c0,0.6,0.5,1.1,1.1,1.1c0,0,0,0,0,0h4.7V1172.8z"/>
</g>
</svg>
