<?xml version="1.0" encoding="utf-8"?>
<!-- Generator: Adobe Illustrator 25.0.1, SVG Export Plug-In . SVG Version: 6.00 Build 0)  -->
<svg version="1.1" id="Layer_1" xmlns="http://www.w3.org/2000/svg" xmlns:xlink="http://www.w3.org/1999/xlink" x="0px" y="0px"
	 width="149.9px" height="150px" viewBox="0 0 149.9 150" style="enable-background:new 0 0 149.9 150;" xml:space="preserve">
<style type="text/css">
	.st0{fill:#FFFFFF;}
</style>
<g id="stroke" transform="translate(-585.374 -1317.419)">
	<path id="Path_4327" class="st0" d="M714.1,1349.5c-1.1-1.3-0.9-3.3,0.5-4.4c0,0,0,0,0,0c1.4-1,3.3-0.8,4.4,0.5
		c25.8,32.4,20.5,79.5-11.9,105.3c-32.4,25.8-79.5,20.5-105.3-11.9s-20.5-79.5,11.9-105.3c20-15.9,46.7-20.6,70.9-12.3
		c7.8,2.7,15.1,6.6,21.6,11.6c1.4,1.1,1.6,3,0.5,4.4c-1.1,1.3-3,1.6-4.4,0.5c-6-4.6-12.7-8.2-19.8-10.6c-35.9-12.2-74.9,7-87.1,42.8
		c-12.2,35.9,7,74.9,42.8,87.1s74.9-7,87.1-42.8C732.9,1392.3,728.6,1367.8,714.1,1349.5L714.1,1349.5z"/>
	<path id="Path_4328" class="st0" d="M702.5,1332.9c1.4-1,3.3-0.7,4.3,0.6c0,0,0,0,0,0c1,1.3,0.7,3.2-0.6,4.3c0,0-0.1,0-0.1,0.1
		l-15.1,11.6l-4.9,36l3,7.2c0.5,1.1,0.3,2.3-0.5,3.2l-11.7,13.6c-1.1,1.3-3.1,1.5-4.4,0.4c0,0,0,0,0,0l-0.4-0.5l-27.4-33.3
		c-0.3-0.4-0.5-0.8-0.6-1.3l0,0l-1.7-8c-0.4-1.6,0.7-3.3,2.3-3.6c0,0,0.1,0,0.1,0c1.7-0.4,3.3,0.7,3.7,2.3c0,0,0,0,0,0l1.5,7.2
		l24.3,29.9l8.1-9.3l-2.6-6.1c-0.2-0.5-0.2-1.1,0-1.6l5.2-37.9c0-0.9,0.5-1.8,1.3-2.3l16.1-12.2V1332.9z"/>
	<path id="Path_4329" class="st0" d="M650.2,1378.7c1.1-1.3,3.1-1.4,4.4-0.3c1.3,1.1,1.4,3.1,0.3,4.4l-16.6,19.3l-1.5,57.3
		c0,1.7-1.4,3.1-3.2,3c0,0,0,0,0,0c-1.7-0.1-3.1-1.5-3-3.2l1.5-58.3c0-0.8,0.3-1.5,0.8-2.1L650.2,1378.7z"/>
</g>
</svg>
