<svg xmlns="http://www.w3.org/2000/svg" viewBox="0 0 625 410">
  <defs>
    <style>
      .cls-1 {
        fill: #c2e4ef;
      }

      .cls-2 {
        fill: #34a5bf;
      }

      .cls-3 {
        fill: #178bff;
      }

      .cls-4 {
        fill: #106e8e;
      }

      .cls-5 {
        fill: #3198ff;
      }

      .cls-6 {
        fill: #fff;
      }

      .cls-7 {
        fill: #cae7ff;
      }

      .cls-8 {
        fill: #036c84;
      }

      .cls-9 {
        fill: #61b8ff;
      }

      .cls-10 {
        fill: #9fd4ff;
      }

      .cls-11 {
        fill: #3e9fff;
      }

      .cls-12 {
        fill: #014a6b;
      }

      .cls-13 {
        fill: #72a9b2;
      }

      .cls-14 {
        fill: #9dcbd6;
      }

      .cls-15 {
        fill: #f7b690;
      }

      .cls-16 {
        fill: #003547;
      }

      .cls-17 {
        fill: #1c1b20;
      }

      .cls-18 {
        fill: #93725c;
      }

      .cls-19 {
        fill: #b49a85;
      }

      .cls-20 {
        fill: #f3c130;
      }

      .cls-21 {
        fill: #f4a087;
      }

      .cls-22 {
        fill: #208ba8;
      }

      .cls-23 {
        fill: #dff7f7;
      }

      .cls-24 {
        fill: #d7f1f7;
      }

      .cls-25 {
        fill: #777;
      }
    </style>
  </defs>
  <g id="career" transform="translate(-21.263 -24.493)">
    <g id="Group_5459" data-name="Group 5459" transform="translate(544.6 261.554)">
      <g id="Group_5457" data-name="Group 5457" transform="translate(11.429 37.532)">
        <path id="Path_4183" data-name="Path 4183" class="cls-1" d="M3328.786,1811.345a21.745,21.745,0,0,0-1.373,1.724q-.507.707-.958,1.465c-3.612,6.064-4.115,13.873-8.871,19.09a32.114,32.114,0,0,1-4.271,3.674,51.074,51.074,0,0,0-7.544,6.811q-.724.836-1.372,1.722a19.253,19.253,0,0,0-2.924,5.7,29.42,29.42,0,0,0-.968,8.472,36.371,36.371,0,0,0,.209,4.477c.073.6.166,1.2.289,1.79a10.915,10.915,0,0,0,3.247,6.143,15.807,15.807,0,0,0,4.918,2.653c2.579,1,5.327,1.925,8.056,1.494,3.7-.585,6.521-3.5,9.059-6.251a57.994,57.994,0,0,0,6.616-8.11c1.355-2.141,2.429-4.46,3.875-6.542.041-.058.081-.115.122-.174.284-.4.583-.789.9-1.166a21.109,21.109,0,0,1,14.691-7.529c3.123-.2,6.4.282,9.285-.921,3.789-1.577,5.751-5.528,6.532-9.694.1-.505.174-1.014.235-1.523.088-.729.142-1.455.167-2.168.1-2.91-.051-6.057,1.612-8.45a12.556,12.556,0,0,1,2.631-2.554,119.419,119.419,0,0,0,10.255-8.687q.634-.631,1.244-1.288a36.535,36.535,0,0,0,3.233-3.981c2.221-3.184,3.882-7.228,2.631-10.906a10.84,10.84,0,0,0-2.422-3.809,15.467,15.467,0,0,0-1.521-1.438,13.145,13.145,0,0,0-1.269-.931,10.964,10.964,0,0,0-3.2-1.43,10.328,10.328,0,0,0-2.8-.321,11.673,11.673,0,0,0-1.531.135c-4.022.622-7.889,3.231-11.264,5.771a33.78,33.78,0,0,1-12.323,5.856c-.5.132-1,.259-1.508.378-1.752.421-3.584.786-5.544,1.171C3340.209,1803.318,3333.364,1806.157,3328.786,1811.345Z" transform="translate(-3300.504 -1788.687)"/>
        <path id="Path_4184" data-name="Path 4184" class="cls-2" d="M3328.458,1813.08a21.586,21.586,0,0,1,1.372-1.724l2.625,26.205L3355.2,1817.6l-1.678-16.758c.509-.122,1.01-.247,1.508-.379l1.592,15.891,22.751-19.962-.756-7.556a11.624,11.624,0,0,1,1.531-.135l.646,6.444,5.35-4.695a13.55,13.55,0,0,1,1.269.931l-18.515,16.246,16.592,3.889q-.609.654-1.244,1.288l-16.77-3.929-22.754,19.962,24.855,5.825c-.061.509-.139,1.017-.235,1.523l-26.041-6.1-22.751,19.962,18.284,4.284c-.313.377-.612.767-.9,1.166-.041.057-.083.117-.122.174l-18.686-4.379-17.086,14.992c-.124-.586-.218-1.185-.289-1.79l5.1-4.477-1.42-14.176c.431-.591.889-1.163,1.372-1.722l1.467,14.651,22.751-19.962Z" transform="translate(-3301.548 -1788.698)"/>
      </g>
      <g id="Group_5458" data-name="Group 5458">
        <path id="Path_4185" data-name="Path 4185" class="cls-3" d="M3242.249,1675.5l0,0q.73.281,1.452.5c10.581,3.241,20.089-3.14,21.539-12.635.029-.181.053-.362.075-.544.044-.358.088-.712.137-1.058,1.9-13.525,8.489-18.786,17.867-28.909q.421-.456.81-.909.788-.918,1.445-1.828c6.551-9.026,4.235-17.625,5.46-27.388.068-.532.146-1.067.235-1.606a34.42,34.42,0,0,1,1.193-4.938c1.844-5.693,7.428-15.95,5.969-22.764a8.359,8.359,0,0,0-.453-1.479c-.928-2.248-2.87-3.972-6.331-4.8q-.73-.175-1.55-.3a26.265,26.265,0,0,0-4.024-.247c-10.586.09-12.678,6.878-14.11,14.231-.146.745-.284,1.5-.422,2.246-.774,4.151-1.587,8.281-3.823,11.316-4.008,5.445-8.4,7.85-12.016,10.819-.4.331-.8.668-1.178,1.017h0c-2.954,2.706-5.241,6.126-6.128,12.562-.879,6.366-3.231,11.164-5.854,15.851q-.428.763-.865,1.528c-2.388,4.189-4.893,8.416-6.652,13.729C3231.955,1659.181,3230.571,1670.974,3242.249,1675.5Z" transform="translate(-3232.877 -1566.602)"/>
        <path id="Path_4186" data-name="Path 4186" class="cls-4" d="M3295.367,1654.361,3284.95,1637.4q.436-.763.865-1.528l10.306,16.782,12.291-27.91-10.613-17.285c.382-.35.774-.686,1.178-1.017l10.189,16.591,12.293-27.909-6.643-10.819c.14-.75.277-1.5.422-2.246l6.973,11.355,11.161-25.34q.821.122,1.55.3l-2.861,6.493,9.19-1.692a8.241,8.241,0,0,1,.453,1.479l-10.393,1.913-12.645,28.71,15.874-2.92q-.135.806-.235,1.605l-16.39,3.015-12.645,28.71,23.574-4.335q-.659.91-1.445,1.829l-22.877,4.208-12.645,28.71,16.844-3.1c-.049.347-.093.7-.137,1.058-.022.181-.046.363-.074.544l-17.383,3.2-4.156,9.437c-.482-.147-.967-.316-1.452-.5l0,0Z" transform="translate(-3276.15 -1567.822)"/>
      </g>
    </g>
    <path id="Path_4187" data-name="Path 4187" class="cls-5" d="M2675.981,1153.205l-6.738,1.188-2.851.5a36.848,36.848,0,0,0-2.366-4.09l1.859-2.217,4.4-5.237a46.753,46.753,0,0,0-16.025-13.457l-4.4,5.239L2648,1137.35a36.727,36.727,0,0,0-4.443-1.617V1126a46.992,46.992,0,0,0-20.926,0v9.733a36.738,36.738,0,0,0-4.443,1.617l-1.861-2.217-4.4-5.239a46.771,46.771,0,0,0-16.024,13.457l4.4,5.237,1.859,2.217a37,37,0,0,0-2.366,4.09l-2.851-.5-6.738-1.188a46.414,46.414,0,0,0-3.684,18.186q0,1.219.061,2.423v0l6.735,1.186,2.849.5a36.988,36.988,0,0,0,.814,4.654l-2.508,1.447-5.923,3.42a46.531,46.531,0,0,0,10.471,18.117l5.923-3.42,2.506-1.447a37.443,37.443,0,0,0,3.617,3.037l-.991,2.721-2.339,6.429a46.284,46.284,0,0,0,19.663,7.156l2.341-6.429.99-2.721q1.172.073,2.361.074t2.361-.074l.99,2.721,2.341,6.429a46.27,46.27,0,0,0,19.663-7.156l-2.339-6.429-.99-2.721a37.44,37.44,0,0,0,3.616-3.037l2.506,1.447,5.923,3.42a46.513,46.513,0,0,0,10.471-18.117l-5.923-3.42-2.508-1.447a37.042,37.042,0,0,0,.814-4.654l2.849-.5,6.735-1.186v0q.061-1.2.061-2.423A46.347,46.347,0,0,0,2675.981,1153.205Zm-42.889,2.28a15.908,15.908,0,1,1-15.908,15.908A15.907,15.907,0,0,1,2633.092,1155.485Z" transform="translate(-2150.766 -936.38)"/>
    <path id="Path_4188" data-name="Path 4188" class="cls-5" d="M3206.107,1371.26l-3.95.7-1.676.3a21.8,21.8,0,0,0-1.386-2.395l1.094-1.3,2.577-3.071a27.418,27.418,0,0,0-9.393-7.889l-2.577,3.071-1.094,1.3a21.768,21.768,0,0,0-2.6-.946v-5.711a27.557,27.557,0,0,0-12.266,0v5.711a21.683,21.683,0,0,0-2.6.946l-1.093-1.3-2.577-3.071a27.378,27.378,0,0,0-9.393,7.889l2.577,3.071,1.093,1.3a21.879,21.879,0,0,0-1.386,2.395l-1.677-.3-3.949-.7a27.21,27.21,0,0,0-2.16,10.661q0,.715.035,1.42h0l3.948.7,1.675.3a21.882,21.882,0,0,0,.477,2.724l-1.474.85-3.473,2a27.267,27.267,0,0,0,6.138,10.62l3.473-2,1.474-.85a21.747,21.747,0,0,0,2.117,1.778l-.581,1.6-1.371,3.769a27.149,27.149,0,0,0,11.526,4.194l1.372-3.769.58-1.594q.687.043,1.384.044t1.384-.044l.58,1.594,1.372,3.769a27.129,27.129,0,0,0,11.526-4.194l-1.371-3.769-.581-1.6a21.968,21.968,0,0,0,2.118-1.778l1.473.85,3.473,2a27.258,27.258,0,0,0,6.138-10.62l-3.473-2-1.474-.85a21.632,21.632,0,0,0,.477-2.724l1.675-.3,3.948-.7h0c.024-.47.035-.945.035-1.42A27.33,27.33,0,0,0,3206.107,1371.26Zm-25.141,1.337a9.324,9.324,0,1,1-9.323,9.324A9.323,9.323,0,0,1,3180.967,1372.6Z" transform="translate(-2622.456 -1127.513)"/>
    <path id="Path_4189" data-name="Path 4189" class="cls-5" d="M2873.666,1748.5l-8.683-1.79-3.674-.757a47.745,47.745,0,0,0-.9-6.057l3.3-1.781,7.8-4.208a60.574,60.574,0,0,0-12.869-23.866l-7.8,4.208-3.3,1.781a47.661,47.661,0,0,0-4.578-4.071l4.651-11.724a60.839,60.839,0,0,0-25.2-10l-4.651,11.724a47.637,47.637,0,0,0-6.125-.176l-1.182-3.559-2.792-8.411a60.568,60.568,0,0,0-25.73,8.55l2.792,8.41,1.181,3.557a48.046,48.046,0,0,0-4.8,3.8l-3.194-1.967-7.548-4.651a60.139,60.139,0,0,0-13.126,20.143q-.583,1.468-1.083,2.947v0l7.544,4.647,3.192,1.967a48.015,48.015,0,0,0-1.242,6l-3.711.544-8.769,1.289a60.3,60.3,0,0,0,3.954,26.824l8.77-1.29,3.71-.544a48.354,48.354,0,0,0,2.9,5.386l-2.493,2.8-5.89,6.627a59.975,59.975,0,0,0,20.263,18.014l5.892-6.625,2.493-2.8q1.374.649,2.807,1.217t2.878,1.039l-.108,3.748-.253,8.862a59.978,59.978,0,0,0,27.1.779l.255-8.861.106-3.749a48.225,48.225,0,0,0,5.807-1.93l2.327,2.941,5.5,6.951a60.273,60.273,0,0,0,21.269-16.816l-5.5-6.951-2.329-2.941a47.617,47.617,0,0,0,3.206-5.217l3.672.757,8.678,1.79v0q.649-1.42,1.232-2.888A60.254,60.254,0,0,0,2873.666,1748.5Zm-41.187,9.009a20.611,20.611,0,1,1-11.556-26.76A20.609,20.609,0,0,1,2832.479,1757.506Z" transform="translate(-2289.472 -1407.434)"/>
    <path id="Path_4190" data-name="Path 4190" class="cls-6" d="M2962.149,1928.338a30.089,30.089,0,1,1,30.089-30.089A30.123,30.123,0,0,1,2962.149,1928.338Zm0-59.333a29.244,29.244,0,1,0,29.244,29.244A29.277,29.277,0,0,0,2962.149,1869Z" transform="translate(-2438.298 -1555.643)"/>
    <path id="Path_4191" data-name="Path 4191" class="cls-6" d="M2721.113,1288.075a28.673,28.673,0,1,1,28.672-28.673A28.705,28.705,0,0,1,2721.113,1288.075Zm0-56.5a27.828,27.828,0,1,0,27.827,27.828A27.859,27.859,0,0,0,2721.113,1231.577Z" transform="translate(-2238.755 -1024.387)"/>
    <path id="Path_4192" data-name="Path 4192" class="cls-6" d="M3236.619,1453.028a15.979,15.979,0,1,1,15.979-15.979A16,16,0,0,1,3236.619,1453.028Zm0-31.113a15.134,15.134,0,1,0,15.134,15.134A15.15,15.15,0,0,0,3236.619,1421.915Z" transform="translate(-2678.107 -1182.72)"/>
    <path id="Path_4193" data-name="Path 4193" class="cls-7" d="M1123.459,426.816a.5.5,0,0,1,.054-.084c2.983-3.806,6.016-7.654,9.893-10.542s8.8-4.759,13.591-4c4.031.639,8.014,3.071,11.928,1.918,5.232-1.541,6.7-8.191,10.473-12.131a12.639,12.639,0,0,1,16.222-1.266c6.194,4.724,8.024,15.23,15.715,16.472,1.842.3,3.728-.049,5.589.073,6.736.439,11.881,8.166,9.824,14.556a.511.511,0,0,1-.485.357h-94.692a.508.508,0,0,1-.453-.737Z" transform="translate(-932.16 -331.025)"/>
    <path id="Path_4194" data-name="Path 4194" class="cls-7" d="M327.56,919.716a.448.448,0,0,1,.054-.085,27.2,27.2,0,0,1,4.931-5.251,9.243,9.243,0,0,1,6.8-2c2.014.319,4.007,1.534,5.964.958,2.616-.771,3.35-4.095,5.236-6.065a6.317,6.317,0,0,1,8.11-.632c3.1,2.361,4.012,7.615,7.857,8.237.921.149,1.864-.025,2.8.035a5.852,5.852,0,0,1,4.969,7.091.5.5,0,0,1-.488.365H327.041a.508.508,0,0,1-.453-.737Z" transform="translate(-271.349 -753.475)"/>
    <path id="Path_4195" data-name="Path 4195" class="cls-7" d="M2280.818,162.637a.712.712,0,0,1-.079-.046c-3.955-2.751-3.684-9.971-8.3-11.365-2.042-.617-4.33.267-6.348-.424-2.273-.779-3.461-3.257-5.4-4.669-3.935-2.861-9.966-.267-12.176,4.068-.678,1.33-1.266,2.947-2.677,3.434-1.511.521-3.045-.556-4.561-1.06-3.11-1.034-6.621.483-8.825,2.91a21.854,21.854,0,0,0-4.142,8.061.507.507,0,0,0,.482.666h53.1a.507.507,0,0,0,.217-.965Z" transform="translate(-1852.788 -120.436)"/>
    <path id="Path_4196" data-name="Path 4196" class="cls-7" d="M3211.9,604.923a.424.424,0,0,1-.076-.044c-6.317-4.367-5.876-15.879-13.234-18.1-3.25-.982-6.888.426-10.1-.674-3.616-1.239-5.506-5.182-8.6-7.429-6.261-4.553-15.859-.424-19.374,6.471-1.078,2.116-2.014,4.69-4.259,5.464-2.4.83-4.847-.886-7.258-1.687-4.948-1.644-10.537.769-14.042,4.629-3.35,3.689-5.173,8.474-6.721,13.224a.507.507,0,0,0,.483.662h86.237a.507.507,0,0,0,.216-.965Z" transform="translate(-2601.299 -479.898)"/>
    <g id="Group_5462" data-name="Group 5462" transform="translate(21.263 263.591)">
      <g id="Group_5460" data-name="Group 5460" transform="translate(29.678)">
        <path id="Path_4197" data-name="Path 4197" class="cls-3" d="M366.759,1683.179l0,0c-.466.232-.935.443-1.4.634-10.241,4.193-20.292-1.3-22.6-10.618-.046-.177-.086-.355-.123-.534-.076-.353-.152-.7-.233-1.041-3.128-13.3-10.165-17.934-20.427-27.16q-.461-.416-.889-.832-.87-.842-1.605-1.688c-7.345-8.392-5.824-17.165-7.935-26.776q-.172-.786-.38-1.577a34.189,34.189,0,0,0-1.639-4.808c-2.354-5.5-8.851-15.207-8.019-22.126a8.261,8.261,0,0,1,.318-1.512c.718-2.324,2.5-4.217,5.866-5.359q.71-.241,1.516-.436a26.606,26.606,0,0,1,3.985-.614c10.549-.875,13.251,5.694,15.349,12.886.213.728.419,1.464.625,2.2,1.149,4.063,2.336,8.1,4.837,10.921,4.489,5.056,9.079,7.051,12.952,9.68.431.292.853.592,1.266.906h0c3.189,2.425,5.776,5.624,7.247,11.952,1.455,6.258,4.235,10.823,7.275,15.25q.5.723,1,1.442c2.76,3.955,5.639,7.936,7.875,13.067C375.521,1665.988,377.975,1677.607,366.759,1683.179Z" transform="translate(-301.428 -1578.655)"/>
        <path id="Path_4198" data-name="Path 4198" class="cls-8" d="M355.3,1665.2l8.829-17.843q-.5-.72-1-1.442l-8.734,17.652-14.784-26.673,8.994-18.181q-.619-.469-1.266-.906l-8.634,17.451-14.786-26.671,5.631-11.381c-.208-.735-.414-1.47-.625-2.2l-5.91,11.943L309.59,1582.73q-.806.2-1.516.436l3.441,6.206-9.307-.847a8.4,8.4,0,0,0-.318,1.513l10.524.958,15.208,27.437-16.075-1.462c.139.527.264,1.053.38,1.577l16.6,1.509,15.208,27.437-23.871-2.17q.74.846,1.605,1.688l23.167,2.106,15.208,27.437L342.785,1675c.079.341.157.689.233,1.041.039.179.079.358.123.534l17.6,1.6,5,9.018q.7-.286,1.4-.634l0,0Z" transform="translate(-301.812 -1582.042)"/>
      </g>
      <g id="Group_5461" data-name="Group 5461" transform="translate(0 40.464)">
        <path id="Path_4199" data-name="Path 4199" class="cls-9" d="M188.534,1836.908a20.926,20.926,0,0,1,1.5,1.616q.558.667,1.065,1.389c4.058,5.775,5.148,13.525,10.28,18.369a32.236,32.236,0,0,0,4.534,3.341,51.093,51.093,0,0,1,8.034,6.223c.524.521,1.024,1.056,1.5,1.614a19.264,19.264,0,0,1,3.345,5.466,29.466,29.466,0,0,1,1.6,8.376,36.178,36.178,0,0,1,.127,4.48c-.027.608-.076,1.212-.154,1.807a10.927,10.927,0,0,1-2.775,6.371,15.776,15.776,0,0,1-4.7,3.015c-2.5,1.186-5.166,2.32-7.923,2.1-3.73-.3-6.767-3-9.5-5.552a58.06,58.06,0,0,1-7.208-7.59c-1.513-2.033-2.756-4.266-4.357-6.231l-.135-.164q-.469-.565-.98-1.095a21.115,21.115,0,0,0-15.215-6.4c-3.128.034-6.356.762-9.329-.22-3.9-1.288-6.15-5.08-7.243-9.175-.134-.5-.248-1-.348-1.5-.144-.72-.252-1.44-.33-2.15-.319-2.895-.406-6.043-2.243-8.3a12.657,12.657,0,0,0-2.816-2.349,119.276,119.276,0,0,1-10.879-7.891q-.679-.583-1.337-1.19a36.573,36.573,0,0,1-3.524-3.727c-2.454-3.008-4.416-6.916-3.444-10.677a10.864,10.864,0,0,1,2.128-3.982,15.434,15.434,0,0,1,1.408-1.548,13.211,13.211,0,0,1,1.195-1.024,10.947,10.947,0,0,1,3.079-1.667,10.294,10.294,0,0,1,2.767-.531,11.635,11.635,0,0,1,1.538.02c4.058.316,8.11,2.628,11.666,4.908a33.793,33.793,0,0,0,12.729,4.913c.5.095,1.016.182,1.531.264,1.78.287,3.633.515,5.618.75C176.539,1829.763,183.579,1832.078,188.534,1836.908Z" transform="translate(-125.818 -1818.084)"/>
        <path id="Path_4200" data-name="Path 4200" class="cls-1" d="M208.673,1838.532a21.936,21.936,0,0,0-1.5-1.616l-.646,26.329-24.187-18.195.412-16.837q-.776-.124-1.531-.264l-.392,15.965-24.187-18.193.186-7.591a11.674,11.674,0,0,0-1.538-.021l-.159,6.475-5.689-4.279a13.208,13.208,0,0,0-1.195,1.024l19.685,14.808-16.253,5.126q.657.606,1.337,1.19l16.427-5.18,24.187,18.193-24.346,7.679c.1.5.215,1,.348,1.5l25.509-8.044,24.187,18.193-17.909,5.648c.341.352.668.718.98,1.1.046.054.091.11.135.164l18.3-5.771,18.164,13.664c.079-.595.128-1.2.154-1.807l-5.423-4.079.348-14.242q-.71-.834-1.5-1.614l-.36,14.72-24.187-18.193Z" transform="translate(-144.459 -1818.092)"/>
      </g>
    </g>
    <path id="Path_4201" data-name="Path 4201" class="cls-3" d="M2128.653,867.32H2000v53.74a13.975,13.975,0,1,1,0,21.174v53.74h53.739a13.976,13.976,0,1,0,21.176,0h53.74V867.32Z" transform="translate(-1663.116 -722.238)"/>
    <path id="Path_4202" data-name="Path 4202" class="cls-10" d="M1238.74,867.32V995.973h53.74a13.975,13.975,0,1,1,21.174,0h53.739V942.234a13.976,13.976,0,1,0,0-21.176V867.32Z" transform="translate(-1030.088 -722.117)"/>
    <path id="Path_4203" data-name="Path 4203" class="cls-11" d="M1961.322,1628.58a13.976,13.976,0,1,1-21.172,0h-53.739v53.739a13.976,13.976,0,1,0,0,21.176v53.74h128.653V1628.582h-53.742Z" transform="translate(-1549.496 -1356.552)"/>
    <path id="Path_4204" data-name="Path 4204" class="cls-3" d="M1358.252,1565.341a13.922,13.922,0,0,1,9.124,3.39v-53.74h-53.74a13.976,13.976,0,1,0-21.176,0h-53.74v128.653h128.656V1589.9a13.976,13.976,0,1,1-9.124-24.561Z" transform="translate(-1030.039 -1242.962)"/>
    <path id="Path_4205" data-name="Path 4205" class="cls-12" d="M2057.774,1500.185l1.416-.362-53.941-211.111-1.416.362,1.945,7.614H1982.1l-2.038-7.977-1.416.362,53.941,211.111,1.416-.362-1.754-6.866h23.673Zm-33.178-37.2h23.674l3.456,13.523h-23.674Zm-11.161-136.329h-23.674l-3.456-13.523h23.674Zm.373,1.462,3.456,13.523h-23.674l-3.456-13.523Zm3.83,14.985,3.456,13.523h-23.674l-3.456-13.523Zm3.828,14.985,3.456,13.523h-23.673l-3.456-13.523Zm3.83,14.985,3.456,13.523h-23.673l-3.456-13.523Zm3.829,14.985,3.456,13.523h-23.674l-3.456-13.523Zm3.828,14.985,3.456,13.523h-23.674l-3.456-13.523Zm3.829,14.985,3.456,13.523h-23.673l-3.456-13.523Zm3.83,14.985,3.456,13.523h-23.674l-3.456-13.523ZM2044.44,1448l3.456,13.523h-23.673L2020.766,1448Zm-38.289-149.852,3.456,13.523h-23.674l-3.456-13.523ZM2031.88,1491.5l-3.456-13.523H2052.1l3.456,13.523Z" transform="translate(-1645.265 -1074.12)"/>
    <g id="Group_5463" data-name="Group 5463" transform="translate(137.613 182.57)">
      <path id="Path_4206" data-name="Path 4206" class="cls-1" d="M854.385,1087.81H816.34l10.351,4.68Z" transform="translate(-816.34 -1087.81)"/>
      <path id="Path_4207" data-name="Path 4207" class="cls-13" d="M911.5,1087.81l-26.43,9.863,2.309-3.567Z" transform="translate(-873.455 -1087.81)"/>
      <path id="Path_4208" data-name="Path 4208" class="cls-1" d="M922.851,1087.81l-12.79,11.418-11.331-5.122Z" transform="translate(-884.806 -1087.81)"/>
      <path id="Path_4209" data-name="Path 4209" class="cls-14" d="M877.59,1092.49l1.264,5.183,2.308-3.567,24.121-6.3Z" transform="translate(-867.239 -1087.81)"/>
    </g>
    <g id="Group_5464" data-name="Group 5464" transform="translate(63.228 193.638)">
      <path id="Path_4210" data-name="Path 4210" class="cls-13" d="M880.231,1156.247l-.671-.088c.042-.329.083-.664.117-1l.673.069C880.315,1155.569,880.275,1155.912,880.231,1156.247Z" transform="translate(-794.142 -1155.16)"/>
      <path id="Path_4211" data-name="Path 4211" class="cls-13" d="M374.863,1528.064l-.676-.034c-.035.693-.054,1.387-.057,2.064l.676,0C374.809,1529.429,374.828,1528.745,374.863,1528.064Z" transform="translate(-374.13 -1465.015)"/>
      <path id="Path_4212" data-name="Path 4212" class="cls-13" d="M376.279,1503.813l-.669-.093c-.095.681-.176,1.37-.24,2.05l.673.064C376.105,1505.163,376.186,1504.484,376.279,1503.813Z" transform="translate(-375.16 -1444.813)"/>
      <path id="Path_4213" data-name="Path 4213" class="cls-13" d="M379.8,1479.85l-.659-.15c-.152.666-.291,1.347-.414,2.021l.664.122C379.516,1481.177,379.653,1480.508,379.8,1479.85Z" transform="translate(-377.953 -1424.853)"/>
      <path id="Path_4214" data-name="Path 4214" class="cls-13" d="M385.384,1456.368l-.642-.208c-.21.647-.409,1.313-.591,1.977l.652.179C384.982,1457.659,385.178,1457.005,385.384,1456.368Z" transform="translate(-382.457 -1405.291)"/>
      <path id="Path_4215" data-name="Path 4215" class="cls-13" d="M393.1,1433.572l-.619-.272c-.272.62-.534,1.264-.779,1.913l.632.24C392.572,1434.814,392.831,1434.182,393.1,1433.572Z" transform="translate(-388.731 -1386.294)"/>
      <path id="Path_4216" data-name="Path 4216" class="cls-13" d="M403.09,1411.821l-.583-.341c-.34.583-.673,1.195-.987,1.818l.6.3C402.431,1412.992,402.755,1412.394,403.09,1411.821Z" transform="translate(-396.891 -1368.162)"/>
      <path id="Path_4217" data-name="Path 4217" class="cls-13" d="M415.611,1391.608l-.532-.417c-.417.532-.828,1.1-1.218,1.677l.561.378C414.8,1392.679,415.2,1392.128,415.611,1391.608Z" transform="translate(-407.146 -1351.301)"/>
      <path id="Path_4218" data-name="Path 4218" class="cls-13" d="M430.947,1373.67l-.455-.5c-.5.458-1,.95-1.472,1.465l.5.458C429.978,1374.593,430.46,1374.115,430.947,1373.67Z" transform="translate(-419.744 -1336.326)"/>
      <path id="Path_4219" data-name="Path 4219" class="cls-13" d="M448.6,1359.437c.218-.144.441-.284.662-.417l-.35-.58c-.23.139-.46.284-.686.432-.352.232-.7.477-1.039.732l.406.541C447.925,1359.9,448.263,1359.66,448.6,1359.437Z" transform="translate(-434.843 -1324.086)"/>
      <path id="Path_4220" data-name="Path 4220" class="cls-13" d="M470.44,1348.74l-.213-.641a18.507,18.507,0,0,0-1.937.771l.284.614A17.243,17.243,0,0,1,470.44,1348.74Z" transform="translate(-452.377 -1315.493)"/>
      <path id="Path_4221" data-name="Path 4221" class="cls-13" d="M614.505,1351.676c-.678-.005-1.36-.024-2.033-.056l-.032.676c.681.032,1.376.051,2.062.056Z" transform="translate(-572.166 -1318.418)"/>
      <path id="Path_4222" data-name="Path 4222" class="cls-13" d="M638.772,1351.854l-.049-.674c-.676.049-1.36.084-2.033.1l.022.676C637.395,1351.939,638.088,1351.9,638.772,1351.854Z" transform="translate(-592.317 -1318.053)"/>
      <path id="Path_4223" data-name="Path 4223" class="cls-13" d="M590.249,1349.708c-.632-.057-1.295-.128-2.026-.218l-.083.671c.739.09,1.408.162,2.047.22Z" transform="translate(-551.972 -1316.648)"/>
      <path id="Path_4224" data-name="Path 4224" class="cls-13" d="M662.829,1349.189l-.1-.669c-.666.1-1.345.189-2.018.264l.074.671C661.467,1349.38,662.155,1349.291,662.829,1349.189Z" transform="translate(-612.278 -1315.842)"/>
      <path id="Path_4225" data-name="Path 4225" class="cls-13" d="M566.213,1346.5l-1.252-.177-.776-.11-.095.669.776.11,1.254.177Z" transform="translate(-531.987 -1313.922)"/>
      <path id="Path_4226" data-name="Path 4226" class="cls-13" d="M686.663,1344.649l-.154-.659c-.656.154-1.325.3-1.989.422l.127.664C685.319,1344.948,686,1344.8,686.663,1344.649Z" transform="translate(-632.064 -1312.078)"/>
      <path id="Path_4227" data-name="Path 4227" class="cls-13" d="M493.778,1343.593l-.073-.673a20.165,20.165,0,0,0-2.055.328l.14.661A19.465,19.465,0,0,1,493.778,1343.593Z" transform="translate(-471.789 -1311.189)"/>
      <path id="Path_4228" data-name="Path 4228" class="cls-13" d="M542.249,1343.442c-.752-.1-1.421-.172-2.045-.232l-.064.673c.617.059,1.279.134,2.025.23Z" transform="translate(-512.084 -1311.429)"/>
      <path id="Path_4229" data-name="Path 4229" class="cls-13" d="M518.15,1342.14c-.505-.024-1-.035-1.469-.035-.2,0-.4,0-.6.007l.015.676c.2,0,.4-.007.586-.007.46,0,.943.012,1.438.036Z" transform="translate(-492.09 -1310.51)"/>
      <path id="Path_4230" data-name="Path 4230" class="cls-13" d="M710.095,1338.244l-.206-.644c-.641.2-1.3.4-1.949.58l.179.652C708.782,1338.649,709.446,1338.452,710.095,1338.244Z" transform="translate(-651.526 -1306.767)"/>
      <path id="Path_4231" data-name="Path 4231" class="cls-13" d="M733.01,1329.954l-.259-.624c-.62.257-1.256.505-1.891.738l.233.635C731.735,1330.467,732.381,1330.216,733.01,1329.954Z" transform="translate(-670.573 -1299.895)"/>
      <path id="Path_4232" data-name="Path 4232" class="cls-13" d="M755.171,1319.758l-.313-.6c-.6.311-1.208.615-1.818.9l.286.612C753.946,1320.382,754.566,1320.074,755.171,1319.758Z" transform="translate(-689.004 -1291.444)"/>
      <path id="Path_4233" data-name="Path 4233" class="cls-13" d="M776.406,1307.618l-.368-.568c-.561.363-1.142.722-1.727,1.063l.34.585C775.245,1308.351,775.836,1307.988,776.406,1307.618Z" transform="translate(-706.68 -1281.381)"/>
      <path id="Path_4234" data-name="Path 4234" class="cls-13" d="M796.476,1293.547l-.423-.527c-.522.419-1.066.831-1.614,1.227l.4.548C795.393,1294.394,795.944,1293.973,796.476,1293.547Z" transform="translate(-723.408 -1269.722)"/>
      <path id="Path_4235" data-name="Path 4235" class="cls-13" d="M815.1,1277.53l-.477-.48c-.475.471-.972.94-1.477,1.389l.45.505C814.115,1278.487,814.62,1278.01,815.1,1277.53Z" transform="translate(-738.956 -1256.451)"/>
      <path id="Path_4236" data-name="Path 4236" class="cls-13" d="M832,1259.632l-.527-.422c-.419.522-.86,1.043-1.312,1.546l.5.451C831.123,1260.7,831.573,1260.167,832,1259.632Z" transform="translate(-753.091 -1241.625)"/>
      <path id="Path_4237" data-name="Path 4237" class="cls-13" d="M846.825,1239.977l-.575-.357c-.353.57-.73,1.139-1.12,1.692l.553.39C846.08,1241.139,846.465,1240.558,846.825,1239.977Z" transform="translate(-765.531 -1225.346)"/>
      <path id="Path_4238" data-name="Path 4238" class="cls-13" d="M859.3,1218.782l-.613-.282c-.281.61-.585,1.22-.9,1.813l.595.321C858.7,1220.028,859.01,1219.406,859.3,1218.782Z" transform="translate(-776.043 -1207.796)"/>
      <path id="Path_4239" data-name="Path 4239" class="cls-13" d="M869.118,1196.365l-.644-.2c-.2.642-.431,1.284-.674,1.91l.63.245C868.679,1197.676,868.91,1197.02,869.118,1196.365Z" transform="translate(-784.37 -1189.231)"/>
      <path id="Path_4240" data-name="Path 4240" class="cls-13" d="M876.182,1173.047l-.664-.127c-.127.662-.274,1.328-.438,1.979l.656.166C875.9,1174.4,876.053,1173.723,876.182,1173.047Z" transform="translate(-790.419 -1169.918)"/>
      <path id="Path_4241" data-name="Path 4241" class="cls-13" d="M374.463,1553.6c-.025-.333-.046-.676-.063-1.021l.676-.032c.017.338.037.676.061,1Z" transform="translate(-374.354 -1485.391)"/>
    </g>
    <path id="Path_4242" data-name="Path 4242" class="cls-11" d="M554.772,1911.28v43.267H472.44v46.059H637.105V1911.28Z" transform="translate(-392.598 -1591.475)"/>
    <g id="Group_5465" data-name="Group 5465" transform="translate(164.604 243.756)">
      <path id="Path_4243" data-name="Path 4243" class="cls-15" d="M1136.845,1502.916c.134-1.264.625-2.52.667-3.764.025-.742-.537-.833-.977-1.267a3.252,3.252,0,0,1-.9-1.81c-.2-1.034-.538-3.59.85-3.625.821-.022,1.222.318,2.04-.039.685-.3,1.391-.394,2.065-.673a5.436,5.436,0,0,1,4.894.025c.433.227.782,1.494.923,2a10.22,10.22,0,0,1,.21,2.9,3.916,3.916,0,0,1-3.265,3.941c-1.149.145-1.854.338-2.646-.684.01,1-.084,1.93-.029,2.908.047.823.554,1.9.33,2.709-.269.972-1.58,1.244-2.42,1.266a2.093,2.093,0,0,1-2.248-1.075C1135.844,1504.878,1135.865,1503.374,1136.845,1502.916Z" transform="translate(-1108.6 -1485.025)"/>
      <path id="Path_4244" data-name="Path 4244" class="cls-15" d="M1191.39,1579.138c.654.554,1.024,1.244,1.984,1.332a5.415,5.415,0,0,0,1.545.046,20.724,20.724,0,0,0,2.373-1.016,12.35,12.35,0,0,0,1.658-.815,1.9,1.9,0,0,1,.564-1.957c.485-.458,1.224-1.043,1.752-.522a5.274,5.274,0,0,1,.708.978c.216.343.622.671.745,1.068.294.943-.465,1.457-1.141,1.751a8.213,8.213,0,0,1-1.257.5c-.542.132-.485-.029-.9-.333a11.824,11.824,0,0,1-5.895,4.511,6.806,6.806,0,0,1-2.209.127,4.792,4.792,0,0,1-2.684-1.822,5.363,5.363,0,0,1,.232-.85A8.659,8.659,0,0,1,1191.39,1579.138Z" transform="translate(-1152.799 -1555.521)"/>
      <path id="Path_4245" data-name="Path 4245" class="cls-16" d="M1273.256,1845.772c-.625.554.916,2.655.916,2.655l5.955-5.288h0a1.675,1.675,0,0,0-1.666-.852c-1.778.286-3.956,2.376-3.956,2.376Z" transform="translate(-1222.999 -1776.789)"/>
      <path id="Path_4246" data-name="Path 4246" class="cls-15" d="M1263.49,1839.647l1.724,2.756a1.991,1.991,0,0,0,1.68-1.511l-1.715-2.743Z" transform="translate(-1215.007 -1773.367)"/>
      <path id="Path_4247" data-name="Path 4247" class="cls-16" d="M978.968,1858.876c-.01-.923-2.358-.639-2.358-.639l.1,8.788h0a1.814,1.814,0,0,0,1.568-1.119,14.339,14.339,0,0,0,.713-5.185Z" transform="translate(-976.61 -1790.025)"/>
      <path id="Path_4248" data-name="Path 4248" class="cls-15" d="M991.974,1861.27l-2.9.081a2.679,2.679,0,0,0,.041,2.489l2.89-.081Z" transform="translate(-986.72 -1792.579)"/>
      <path id="Path_4249" data-name="Path 4249" class="cls-16" d="M1032.971,1676.777s-2.2,30.292-3,31.346-14.723,4.659-23.129,2l-.029-2.645a40.259,40.259,0,0,1,18.331-4.288s-5.394-7.544-2.689-24.414l1.063-1.741,8.46-.764Z" transform="translate(-1001.706 -1638.844)"/>
      <path id="Path_4250" data-name="Path 4250" class="cls-12" d="M1109.889,1673.636s8.891,6.081,10.248,6.522,3.938,5.171,8.915,20.55l-1.925,1.656s-8.051-11.859-8.619-14.3c0,0-17.191,1.322-19.138-12.428l.87-2.912,8.465-.23Z" transform="translate(-1078.624 -1635.703)"/>
      <path id="Path_4251" data-name="Path 4251" class="cls-3" d="M1103.192,1563.41a8.316,8.316,0,0,0-2.912-2.74c-.848-.481-2.74-1.861-3.693-1.806a2.692,2.692,0,0,1-3.243,1.773c-1.665-.448-1.171-2.072-.86-3.084-3.743-1.431-8.342-.149-10.424.929,1.737,1.349.755,3.625.336,5.376a30.5,30.5,0,0,1,3.776.059c1.621.286.661,1.514.095,2.6a18.511,18.511,0,0,0-1.7,7.755,21.115,21.115,0,0,0,.412,4.987c1.371-.72,3.463-.412,5.038-.7.913-.171,1.876-.085,2.79-.265.938-.186,1.771-.657,2.694-.832-.01-.923-.2-2.126-.213-3.049-.034-3.126.409-6.255,2.521-8.58.5.539,1.766,1.687,2.449,1.641.527-.7.588-1.364,1.129-2.043A18.2,18.2,0,0,1,1103.192,1563.41Z" transform="translate(-1064.239 -1539.662)"/>
      <path id="Path_4252" data-name="Path 4252" class="cls-17" d="M1126.609,1463.955c-.659-.5-1.6-1.507-2.332-.5s.037,2.359.651,3.206c.4.551.667.593,1.349.6.064,1.083.054,2.087-1.046,2.484a2.32,2.32,0,0,1-2.9-.622,2.584,2.584,0,0,1-.382-1.709c.1-.608.571-1.164.421-1.844-.147-.661-.793-1.011-1.041-1.617a2.544,2.544,0,0,1-.01-2.145,5.462,5.462,0,0,1,2.129-2.133c.911-.659.583-1.146.826-2.162.22-.912,1.063-2.126,2.07-2.026.891.09,1.626,1.173,2.606.884,1.061-.313,1.644-1.69,2.956-1.545,1.239.139,1.215,1.572,2.557,1.693,1.279.117,3.1-.794,3.478.99a3.9,3.9,0,0,1-.742,3.49c-.752.8-2.188.815-3.174,1.044s-1.837-.434-2.87-.427C1130.363,1461.624,1125.73,1462.789,1126.609,1463.955Z" transform="translate(-1096.667 -1454.816)"/>
      <path id="Path_4253" data-name="Path 4253" class="cls-18" d="M1040.028,1670.61l-17.388,6.8,1.036,3.044a2.7,2.7,0,0,0,3.537,1.712l12.175-4.759a3,3,0,0,0,1.676-3.749Z" transform="translate(-1014.861 -1634.141)"/>
      <path id="Path_4254" data-name="Path 4254" class="cls-18" d="M1041.532,1648.507a1.282,1.282,0,0,1-.593-.128,1.354,1.354,0,0,1-.693-.8l-.532-1.562a1.467,1.467,0,0,1,.818-1.83l4.722-1.845a1.279,1.279,0,0,1,1.033.039,1.355,1.355,0,0,1,.693.8l.532,1.562a1.466,1.466,0,0,1-.818,1.83h0l-4.722,1.846A1.344,1.344,0,0,1,1041.532,1648.507Zm4.171-5.3a.451.451,0,0,0-.147.03l-4.722,1.845a.488.488,0,0,0-.272.61l.532,1.562a.455.455,0,0,0,.231.265.43.43,0,0,0,.345.014l4.722-1.846h0a.488.488,0,0,0,.272-.61l-.532-1.562a.456.456,0,0,0-.232-.265A.429.429,0,0,0,1045.7,1643.2Z" transform="translate(-1028.984 -1610.578)"/>
      <path id="Path_4255" data-name="Path 4255" class="cls-19" d="M1034.9,1650.145l-17.728,6.929-1.036-3.044a3,3,0,0,1,1.677-3.748l12.514-4.891a2.694,2.694,0,0,1,3.537,1.712Z" transform="translate(-1009.32 -1613.031)"/>
      <path id="Path_4256" data-name="Path 4256" class="cls-15" d="M1049.427,1572.04a3.253,3.253,0,0,0-1.59.483,5.4,5.4,0,0,0-1.744,1.977,7.419,7.419,0,0,0-1.082,4.064.836.836,0,0,1,1.024.068,2.315,2.315,0,0,1,.617.94,9.066,9.066,0,0,1,.526,1.543.507.507,0,0,1,.015.213c-.032.142-.174.22-.3.281a20.244,20.244,0,0,0-2.2,1.244.752.752,0,0,1-.411.166c-.235-.007-.4-.235-.52-.446a9.806,9.806,0,0,1-.845-1.94.759.759,0,0,1-.034-.5c.113-.284.5-.325.679-.568-.2.123-.791-2-.843-2.2-.475-1.815-.678-4.031.279-5.738a8.778,8.778,0,0,1,3.086-3.292,8.921,8.921,0,0,1,3.116-1.344C1050.661,1568.3,1049.849,1570.375,1049.427,1572.04Z" transform="translate(-1031.22 -1548.033)"/>
      <path id="Path_4257" data-name="Path 4257" class="cls-20" d="M1070.852,1691.328l-1.168.456a.493.493,0,0,1-.647-.312l-.024-.068a.547.547,0,0,1,.306-.684l1.168-.456a.493.493,0,0,1,.647.313l.024.068A.546.546,0,0,1,1070.852,1691.328Z" transform="translate(-1053.373 -1650.445)"/>
    </g>
    <g id="Group_5468" data-name="Group 5468" transform="translate(84.075 277.541)">
      <path id="Path_4258" data-name="Path 4258" class="cls-16" d="M668.524,2560.65c-1.472,0-1.122,4.935-1.122,4.935l14.029-.01h0a3.884,3.884,0,0,0-1.717-3.315c-2.966-1.837-8.244-1.612-8.244-1.612Z" transform="translate(-638.656 -2408.633)"/>
      <path id="Path_4259" data-name="Path 4259" class="cls-15" d="M673.44,2524.7l0,6.1a3.4,3.4,0,0,0,3.977-.03l0-6.069Z" transform="translate(-643.704 -2378.769)"/>
      <path id="Path_4260" data-name="Path 4260" class="cls-16" d="M552.314,2560.65c-1.472,0-1.122,4.935-1.122,4.935l14.029-.01h0a3.885,3.885,0,0,0-1.717-3.315c-2.966-1.837-8.244-1.612-8.244-1.612Z" transform="translate(-542.085 -2408.633)"/>
      <path id="Path_4261" data-name="Path 4261" class="cls-15" d="M557.23,2524.7l0,6.1a3.4,3.4,0,0,0,3.977-.03l0-6.069Z" transform="translate(-547.133 -2378.769)"/>
      <path id="Path_4262" data-name="Path 4262" class="cls-16" d="M542.944,2130.47s-1.922,16.749,3.2,24.691c0,0-4.453,25.081-1.266,39.892h4.369s14.3-43.752,7.869-68.773Z" transform="translate(-534.968 -2047.682)"/>
      <path id="Path_4263" data-name="Path 4263" class="cls-12" d="M544.68,2130.469s2.733,22.279,16.05,24.928c0,0-.512,26.987,5.635,39.656h4.162s3.863-35.118,2.327-40.79-4.44-17.4-14-27.983Z" transform="translate(-536.705 -2047.681)"/>
      <path id="Path_4264" data-name="Path 4264" class="cls-15" d="M597.007,1785.51s8.388,18.945-8.46,18.489a15.518,15.518,0,0,0,.85,5.013c.857,2.045-7,.566-7,.566l.57-6.829,6.427-16.05Z" transform="translate(-568.05 -1764.502)"/>
      <path id="Path_4265" data-name="Path 4265" class="cls-21" d="M660.093,1785.51s1.281,13.88-16.9,25.233l9.263,3.116s14.226-4.58,10.549-28.35Z" transform="translate(-618.566 -1764.502)"/>
      <g id="Group_5467" data-name="Group 5467" transform="translate(32.363)">
        <g id="Group_5466" data-name="Group 5466" transform="translate(0 1.029)">
          <rect id="Rectangle_16816" data-name="Rectangle 16816" class="cls-16" width="2.966" height="2.966" transform="matrix(0.882, -0.471, 0.471, 0.882, 0, 22.527)"/>
          <path id="Path_4266" data-name="Path 4266" class="cls-3" d="M732.895,1667.29l3.51,5.455,2.584,5.95-33.741,12.393-1.408-2.636Z" transform="translate(-701.329 -1667.29)"/>
        </g>
        <path id="Path_4267" data-name="Path 4267" class="cls-22" d="M877.592,1674.459a1.023,1.023,0,0,1-1.443-.4.977.977,0,0,1-.095-.426,5.793,5.793,0,0,0-.3-2.019,33.782,33.782,0,0,0-3.843-7.191,5.762,5.762,0,0,0-1.513-1.369.98.98,0,0,1-.3-.316,1.024,1.024,0,0,1,.47-1.423c.553-.272,1.9-.559,5.224,5.656S878.126,1674.149,877.592,1674.459Zm-6.18-11.358,0,0Z" transform="translate(-839.381 -1661.201)"/>
      </g>
      <path id="Path_4268" data-name="Path 4268" class="cls-15" d="M706.8,1770.2s27.206,4.313,19.694-33.771c0,0-.057-2.555,1.011-3.323s2.134-2.6,1.409-3.8-1.922-3.586-3.159-2.647a7.139,7.139,0,0,1-1.751,1.2c-.2.079-.733,1.288-1.665,1.423a2.133,2.133,0,0,0-1.543.907.4.4,0,0,0,.051.512c.679.661,2.4,3.01-.428,4.659,0,0,.3,1.249,2.432,1.377,0,0,1.916,23.731-16.778,24.48Z" transform="translate(-670.82 -1715.418)"/>
      <path id="Path_4269" data-name="Path 4269" class="cls-20" d="M519.635,1958.2a34.948,34.948,0,0,1-14.172,4.189s-10.245-28.777-7.512-32.7.853-7.342,34.491-4.781a12.607,12.607,0,0,1,1.366,10.153s-9.391-1.171-10.757,2.363S520.318,1946.243,519.635,1958.2Z" transform="translate(-497.488 -1879.598)"/>
      <path id="Path_4270" data-name="Path 4270" class="cls-17" d="M545.5,1723.174a.64.64,0,0,0-.3-.625c-3.858-2.278-3.85-8.974,2.239-5.864l.911.113s.8-4.212,4.553-4.668,6.581-5.016,5.236-8.764c-1.594-4.44-6.829-7.057-10.7-4.894-2.562,1.432-7.845,7.578-8.987,8.83s-4.708,3.12-7.973,5.236c-4.1,2.658-3.059,10.066-1.594,12.912C530.682,1728.94,538.787,1736.378,545.5,1723.174Z" transform="translate(-522.502 -1691.531)"/>
      <path id="Path_4271" data-name="Path 4271" class="cls-15" d="M737.024,1732.111a2.465,2.465,0,0,0,.835.578,1.087,1.087,0,0,0,.982-.08c.441-.3.51-.96.931-1.291s1.055-.235,1.489-.544c.379-.27.51-.779.85-1.095a3.825,3.825,0,0,1,.9-.5,1.692,1.692,0,0,0,1.012-1.607,2.376,2.376,0,0,0-.975-1.352l-1.325-1.125a1.3,1.3,0,0,0-2.087-.031q-1.047.857-2.092,1.712a4.826,4.826,0,0,0-1.749,2.114C735.366,1730.255,736.073,1731.188,737.024,1732.111Z" transform="translate(-695.413 -1713.852)"/>
    </g>
    <g id="Group_5469" data-name="Group 5469" transform="translate(412.124 282.415)">
      <path id="Path_4272" data-name="Path 4272" class="cls-16" d="M2622.944,2562.191c-1.506,0-1.147,4.556-1.147,4.556l14.341-.01h0a3.5,3.5,0,0,0-1.756-3.06c-3.032-1.7-8.428-1.487-8.428-1.487Z" transform="translate(-2592.019 -2414.789)"/>
      <path id="Path_4273" data-name="Path 4273" class="cls-15" d="M2627.97,2528.983l0,5.629a3.77,3.77,0,0,0,4.065-.029l0-5.6Z" transform="translate(-2597.18 -2387.199)"/>
      <path id="Path_4274" data-name="Path 4274" class="cls-16" d="M2504.124,2562.191c-1.506,0-1.148,4.556-1.148,4.556l14.343-.01h0a3.5,3.5,0,0,0-1.756-3.06c-3.032-1.7-8.428-1.487-8.428-1.487Z" transform="translate(-2493.28 -2414.789)"/>
      <path id="Path_4275" data-name="Path 4275" class="cls-15" d="M2509.16,2528.983l0,5.629a3.77,3.77,0,0,0,4.064-.029l0-5.6Z" transform="translate(-2498.449 -2387.199)"/>
      <path id="Path_4276" data-name="Path 4276" class="cls-16" d="M2519.68,2125.016s3.561,28.816,17.177,31.26c0,0-5.237,25.7,1.048,37.4h4.255s7.012-32.876,6.412-38.311c-.565-5.1-1.834-21.7-11.609-31.481Z" transform="translate(-2507.191 -2050.561)"/>
      <path id="Path_4277" data-name="Path 4277" class="cls-12" d="M2506.592,2125.024s-1.2,23.711,4.041,31.042c0,0-9.266,23.94-6.008,37.615h4.467s21.358-46.69,14.783-69.79Z" transform="translate(-2494.104 -2050.57)"/>
      <path id="Path_4278" data-name="Path 4278" class="cls-15" d="M2542.915,1755.195s8.894,17.857-5.158,14.715v6.633a4.21,4.21,0,0,1-6.023,0l-.174-7.331,1.31-16.672Z" transform="translate(-2517.064 -1741.977)"/>
      <path id="Path_4279" data-name="Path 4279" class="cls-17" d="M2511.952,1710.465s-3.142-3.23-2.182-4.539c.95-1.295,3.263-1.649,3.736,1.545a.445.445,0,0,0,.085.2l.323.429a.448.448,0,0,0,.357.177h0a.444.444,0,0,0,.445-.468c-.058-1.093-.118-3.762.642-4.245.96-.612,6.547,1.31,6.983-4.189s-1.834-9.339-2.444-9.339-1.834.436-2.618,3.666-6.983,3.142-8.117,3.23-6.2,0-6.023,5.585.436,15.1,4.8,14.75S2512.211,1715.934,2511.952,1710.465Z" transform="translate(-2493.442 -1690.04)"/>
      <path id="Path_4280" data-name="Path 4280" class="cls-6" d="M2476.6,1913.833s.35,14.052-1.048,19.028l-17.282,1.134s-11.783-7.652-12.307-17.282c-.294-5.4-1.92-22.607,14.488-22.607a4.211,4.211,0,0,0,6.023,0s8.991-1.134,12.22,4.539,11.259,12.394,9.775,3.23l3.754-.262S2499.12,1925.441,2476.6,1913.833Z" transform="translate(-2445.782 -1859.541)"/>
      <path id="Path_4281" data-name="Path 4281" class="cls-15" d="M2524.48,2116.16l2.609,2.085a1.114,1.114,0,0,0,1.247.24c.642-.364,1.193-1.134,1.949-.612s3.637,3,2.851,4.073-1.076.7-1.25,1.279a2.064,2.064,0,0,1-.757,1.164,1.254,1.254,0,0,0-.64.641c-.088.291-2.472.174-3.694-1.4s-.612-1.746-.757-2.3-3.956-3.062-3.956-3.062Z" transform="translate(-2509.186 -2044.145)"/>
      <path id="Path_4282" data-name="Path 4282" class="cls-5" d="M2497.907,2003.5a.088.088,0,0,1-.066-.031.087.087,0,0,1,.009-.123l3.157-2.755c-5.023-4.637-7.556-9.336-7.527-13.969a13.2,13.2,0,0,1,3.875-9.052.087.087,0,1,1,.117.13,13.022,13.022,0,0,0-3.818,8.927c-.027,4.6,2.51,9.281,7.542,13.9a.087.087,0,0,1,.029.066.083.083,0,0,1-.03.064l-3.229,2.819A.092.092,0,0,1,2497.907,2003.5Z" transform="translate(-2485.418 -1928.96)"/>
      <path id="Path_4283" data-name="Path 4283" class="cls-16" d="M2677.057,1836.923l-1.744.2a2.272,2.272,0,0,1-2.515-2l-1.558-13.616,4-.458Z" transform="translate(-2633.137 -1798.909)"/>
      <path id="Path_4284" data-name="Path 4284" class="cls-12" d="M2675.143,1753.34l1.644,14.365-21.618-1.609-1.192-.088a.266.266,0,0,1-.245-.235l-.612-5.342a.268.268,0,0,1,.186-.286l1.141-.355Z" transform="translate(-2618.079 -1742.642)"/>
      <rect id="Rectangle_16817" data-name="Rectangle 16817" class="cls-16" width="1.78" height="5.031" transform="translate(33.282 18.167) rotate(-6.529)"/>
      <path id="Path_4285" data-name="Path 4285" class="cls-1" d="M2782.081,1765.312a.611.611,0,0,1-.607-.541l-1.645-14.365a.611.611,0,0,1,1.214-.138l1.644,14.365a.61.61,0,0,1-.537.676C2782.128,1765.31,2782.1,1765.312,2782.081,1765.312Z" transform="translate(-2723.372 -1739.639)"/>
      <path id="Path_4286" data-name="Path 4286" class="cls-15" d="M2685.664,1863.725l.176,1.528-.723.083-.3,4.223,3.331-.233s-.35-11.886-1.354-12.8-2.27-1.614-3.012-1.31-2.1.786-1.964,1.44.228.742.331,1.178-.323,1.222,0,1.614a1.8,1.8,0,0,1,.279,1.354c-.044.436.83.854,1.572.911C2685.174,1861.806,2685.354,1862.679,2685.664,1863.725Z" transform="translate(-2641.919 -1827.24)"/>
    </g>
    <g id="Group_5470" data-name="Group 5470" transform="translate(509.184 291.822)">
      <path id="Path_4287" data-name="Path 4287" class="cls-15" d="M3395.14,2552.4l.252,1.832a2.208,2.208,0,0,0,3.087,0l-.308-1.834Z" transform="translate(-3332.301 -2416.068)"/>
      <path id="Path_4288" data-name="Path 4288" class="cls-16" d="M3362.179,2563.2c1.448,0,.446,4.387.446,4.387h-.686l-.179-1.793a.406.406,0,0,0-.427-.4h-.007c-.316,1.288-1.051,2.192-2.378,2.19l-7.958-.009h0a3.379,3.379,0,0,1,1.7-2.954,12.963,12.963,0,0,1,5.43-1.411c.708-.037,1.157-.013,1.157-.013l2.51,0Z" transform="translate(-3295.612 -2425.04)"/>
      <path id="Path_4289" data-name="Path 4289" class="cls-16" d="M3266.719,2563.2c1.448,0,.446,4.387.446,4.387h-.686l-.179-1.793a.406.406,0,0,0-.427-.4h-.007c-.316,1.288-1.051,2.192-2.378,2.19l-7.958-.009h0a3.378,3.378,0,0,1,1.7-2.954,12.962,12.962,0,0,1,5.43-1.411c.708-.037,1.158-.013,1.158-.013l2.51,0Z" transform="translate(-3216.284 -2425.04)"/>
      <path id="Path_4290" data-name="Path 4290" class="cls-15" d="M3299.69,2552.4l.252,1.832a2.208,2.208,0,0,0,3.088,0l-.307-1.834Z" transform="translate(-3252.982 -2416.068)"/>
      <path id="Path_4291" data-name="Path 4291" class="cls-16" d="M3307.654,2133.6s5.656,7.646-3.83,30.248c0,0,11.029,38.7,10.885,40.53h-3.725s-15.768-34.7-15.1-45.348-1.649-25.429-1.649-25.429Z" transform="translate(-3248.453 -2068.046)"/>
      <path id="Path_4292" data-name="Path 4292" class="cls-12" d="M3242.849,2164.407c.592,3.449,6.424,33.8,9.373,39.97h3.4c-.466-6.182-2.134-39.13-3.255-40.614,0,0,19.158-19.913,12.548-30.163H3251.5S3242.177,2160.486,3242.849,2164.407Z" transform="translate(-3205.719 -2068.045)"/>
      <path id="Path_4293" data-name="Path 4293" class="cls-15" d="M3284.257,1779.025s-6.051,17.98,5.208,16.3c0,0,1.512,4.032,0,7.394h5.881v-16.8l-5.377-6.89-3.192-1.335Z" transform="translate(-3238.808 -1772.284)"/>
      <path id="Path_4294" data-name="Path 4294" class="cls-17" d="M3292.24,1752.444s12.266,1.344,10.083,23.694,6.89,18.82,8.4,18.653,6.89-2.185,10.25-.84,17.307,2.689,10.755-7.73-9.073-7.9-10.083-14.451-1.68-6.218-4.369-8.57-7.73-6.535-8.906-12.09S3292.24,1741.887,3292.24,1752.444Z" transform="translate(-3246.791 -1745.703)"/>
      <path id="Path_4295" data-name="Path 4295" class="cls-15" d="M3060.694,1826.464s-15.375-2.444-21.678-16.14c0,0,.252-3.323-1.26-4.93-1.344-1.428-2.437-2.829-5.119-3.079-.623-.058-1.027.743-.417.892.007,0,.292.169.3.171.755.167,2.3.728,2.3,1.9s-.925,1.092-1.6,1.176-3.949,0-4.79-.588-2.856-2.353-3.949-2.353-1.764,0-.421,1.176,5.8,5.126,6.554,5.462,3.865.421,5.293,1.092,7.782,29.223,25.989,23.939S3060.694,1826.464,3060.694,1826.464Z" transform="translate(-3023.311 -1792.746)"/>
      <path id="Path_4296" data-name="Path 4296" class="cls-23" d="M3242.86,1923.539s5.18-4.455,13.906-3.775,18.135.231,23.513,10.649l-7.619,4.816s-2.241-3.361-5.6-3.809c0,0-1.428,10.419-2.1,24.422h-13.414s-.057-15.758-.338-16.168-3.417-3.679-1.623-6.909l-5.266.559C3244.315,1933.326,3244.763,1926.3,3242.86,1923.539Z" transform="translate(-3205.756 -1890.289)"/>
      <rect id="Rectangle_16818" data-name="Rectangle 16818" class="cls-18" width="15.376" height="25.756" transform="translate(57.288 76.618) rotate(160.713)"/>
      <path id="Path_4297" data-name="Path 4297" class="cls-19" d="M3250.824,2063.424l.49,1.4,5.9-2.063-.49-1.4a.264.264,0,0,0-.336-.162l-.989.346a.264.264,0,0,1-.336-.16.262.262,0,0,0-.336-.162l-2.428.85a.262.262,0,0,0-.161.336.263.263,0,0,1-.161.336l-.989.346A.258.258,0,0,0,3250.824,2063.424Zm2.653-1.112a.267.267,0,1,1,.267.269A.267.267,0,0,1,3253.478,2062.312Z" transform="translate(-3212.362 -2007.867)"/>
      <path id="Path_4298" data-name="Path 4298" class="cls-15" d="M3329.772,1989.184l6.791-4.294s5.624,20.539-17.061,24.459c0,0-1.457.225-1.457,1.065a2.152,2.152,0,0,1-1.793,2.241c-1.512.448-2.016.729-2.3,0s0-.9-.336-1.232-1.229-.882-.921-1.442-.48-1.19-.7-1.359-.225-1.232-.448-1.512-1.009-1.232.617-2.128,3.248-.9,3.865.056,1.457,2.185,2.3,1.849S3332.312,2000.664,3329.772,1989.184Z" transform="translate(-3262.514 -1944.467)"/>
    </g>
    <g id="Group_5471" data-name="Group 5471" transform="translate(250.097 290.878)">
      <path id="Path_4299" data-name="Path 4299" class="cls-16" d="M1704.231,2559.548c-1.5,0-.46,5-.46,5l.708,0,.184-2.045a.44.44,0,0,1,.441-.455s.007,0,.007,0c.326,1.469,1.087,2.5,2.455,2.5l8.219-.009h0a3.94,3.94,0,0,0-1.759-3.37,13.142,13.142,0,0,0-6.8-1.624Z" transform="translate(-1666.377 -2421.055)"/>
      <path id="Path_4300" data-name="Path 4300" class="cls-16" d="M1622.931,2559.548c-1.5,0-.459,5-.459,5l.708,0,.184-2.045a.44.44,0,0,1,.441-.455s.007,0,.007,0c.326,1.469,1.087,2.5,2.456,2.5l8.219-.009h0a3.941,3.941,0,0,0-1.759-3.37,13.142,13.142,0,0,0-6.8-1.624Z" transform="translate(-1598.817 -2421.055)"/>
      <path id="Path_4301" data-name="Path 4301" class="cls-15" d="M1677.724,1797.14s4.61,18.522-6.265,14.82a5.206,5.206,0,0,0,0,5.207c1.5,3.123-5.207,0-5.207,0s-.578-12.611,2.893-15.041A82.672,82.672,0,0,1,1677.724,1797.14Z" transform="translate(-1635.459 -1787.503)"/>
      <path id="Path_4302" data-name="Path 4302" class="cls-21" d="M1642.477,2208.66s10.066,9.268-10.035,46.071c0,0-2.143,1.876-3.5-.008,0,0,5.239-25.284,6.92-33.832a4.008,4.008,0,0,0-.678-3.138c-1.4-1.895-2.721-6.9-3.206-8.712-2.425-9.081-2-14.885-1.91-16.226S1642.477,2208.66,1642.477,2208.66Z" transform="translate(-1604.482 -2116.247)"/>
      <path id="Path_4303" data-name="Path 4303" class="cls-15" d="M1652.887,2197.755s2.4,31.311-.81,48.08c0,0-1.879,2.3-3.789,0,0,0-1.306-36.531-3.383-39.84-1.766-2.812-9.285-23.956-9.285-23.956Z" transform="translate(-1610.033 -2107.355)"/>
      <path id="Path_4304" data-name="Path 4304" class="cls-12" d="M1643.545,2108.05s6.305,1.6,3.355,30.44l-16.488.032s-7.549-23.126,1.562-28.684S1643.545,2108.05,1643.545,2108.05Z" transform="translate(-1603.265 -2044.831)"/>
      <path id="Path_4305" data-name="Path 4305" class="cls-15" d="M1748.206,1776.723s14.935-1.636,19.793-13.611l1.756-5.545a5.436,5.436,0,0,1,1.526-2.383l4.09-3.727a3.672,3.672,0,0,1,1.546-.838h0a.3.3,0,0,1,.362.4l-.128.341a3.64,3.64,0,0,1-.8,1.261l-3.052,3.132s3.324,5.389.6,6.836-4.57,2.082-4.918,4.223-2.371,20.248-19.437,18.57S1748.206,1776.723,1748.206,1776.723Z" transform="translate(-1698.1 -1748.836)"/>
      <path id="Path_4306" data-name="Path 4306" class="cls-24" d="M1644.248,1903.21s-17.008-.453-22.33,2.724-8.648,17.706.955,34.829c0,0,6.912-.066,11.771-1.917,0,0-1.041-12.614-.463-14.35s3.934-3.23,1.389-9.077l10.529-2.608S1647.486,1907.491,1644.248,1903.21Z" transform="translate(-1594.363 -1875.629)"/>
      <path id="Path_4307" data-name="Path 4307" class="cls-17" d="M1526.483,1749.754s-10.547,8.11-10.316,14.127.115,22.445-4.166,23.371-10.529-1.967-14-1.272-17.008,2.314-13.074-7.752,14.578-7.521,15.156-15.041,1.619-8.561,3.7-9.256,3.934-4.975,4.512-7.174,3.934-7.635,10.529-6.479S1526.617,1745.924,1526.483,1749.754Z" transform="translate(-1484.218 -1740.117)"/>
    </g>
    <g id="Group_5472" data-name="Group 5472" transform="translate(434.758 118.792)">
      <path id="Path_4308" data-name="Path 4308" class="cls-13" d="M2583.917,710.437c-.333-.02-.667-.035-1-.042l.021-.845c.34.008.686.024,1.029.044Z" transform="translate(-2582.92 -709.55)"/>
      <path id="Path_4309" data-name="Path 4309" class="cls-13" d="M2781.274,850.369l-.412-.737a19.369,19.369,0,0,0,1.683-1.061l.487.691A20.422,20.422,0,0,1,2781.274,850.369Zm3.392-2.388-.554-.639c.5-.433.982-.9,1.44-1.379l.614.581C2785.688,847.048,2785.185,847.53,2784.666,847.981Zm2.851-3.008-.666-.52c.407-.522.794-1.07,1.151-1.628l.713.455C2788.344,843.861,2787.941,844.431,2787.517,844.973Zm2.228-3.493-.752-.384c.3-.591.578-1.2.819-1.817l.786.309C2790.346,840.228,2790.059,840.863,2789.745,841.48Zm1.518-3.858-.813-.23a19.516,19.516,0,0,0,.443-1.94l.833.145A20.221,20.221,0,0,1,2791.262,837.622Zm.71-4.088-.844-.056c.025-.392.039-.788.039-1.176,0-.12,0-.24,0-.36q-.005-.226-.015-.451l.845-.036q.01.236.015.472c0,.127,0,.252,0,.377C2792.013,832.709,2792,833.125,2791.972,833.534Zm-1.009-4.024c-.093-.649-.221-1.306-.378-1.957l.822-.2c.164.676.3,1.36.394,2.035Zm-.938-3.872c-.211-.62-.455-1.247-.723-1.864l.774-.338c.279.637.531,1.286.749,1.928Zm-1.6-3.666c-.31-.58-.647-1.163-1.006-1.734l.715-.45c.37.588.719,1.188,1.036,1.786Zm-2.131-3.393c-.389-.534-.8-1.066-1.234-1.585l.651-.539c.441.531.867,1.078,1.266,1.628Zm-2.562-3.091c-.453-.483-.929-.963-1.418-1.425l.581-.613c.5.473.987.963,1.452,1.46Zm-2.915-2.765c-.5-.426-1.033-.852-1.568-1.264l.513-.671c.548.421,1.085.853,1.6,1.288Zm-3.194-2.454c-.537-.377-1.1-.755-1.675-1.126l.458-.71c.583.377,1.156.76,1.7,1.144Zm-3.392-2.19c-.561-.336-1.151-.676-1.751-1.011l.412-.739c.607.34,1.2.684,1.773,1.024Zm-3.53-1.977c-.571-.3-1.178-.612-1.8-.926l.378-.755c.629.316,1.24.63,1.817.933Zm-3.624-1.82q-.915-.441-1.833-.87l.358-.766q.922.433,1.842.875Zm-3.676-1.725-1.742-.8-.1-.047.352-.769.1.047q.872.4,1.746.8Zm-3.7-1.7q-.925-.423-1.851-.842l.348-.769q.928.421,1.852.843Zm-3.7-1.678q-.928-.416-1.857-.826l.342-.772q.932.411,1.86.828Zm-3.718-1.639q-.933-.4-1.867-.8l.328-.779q.938.4,1.874.8Zm-3.742-1.575c-.63-.259-1.264-.512-1.883-.755l.309-.786c.622.245,1.259.5,1.893.76Zm-3.775-1.485c-.642-.243-1.283-.478-1.9-.7l.286-.8c.624.225,1.269.461,1.915.706Zm-3.816-1.371c-.647-.22-1.294-.433-1.925-.634l.257-.8c.635.2,1.288.417,1.94.639Zm-3.862-1.229c-.617-.184-1.254-.367-1.949-.563l.228-.813c.7.2,1.34.382,1.961.566Zm-3.906-1.1c-.654-.177-1.308-.352-1.964-.527l.218-.816q.984.261,1.967.527Zm-3.929-1.049q-.984-.264-1.967-.531l.223-.815q.981.269,1.962.529Zm-3.931-1.078c-.694-.2-1.335-.385-1.958-.575l.245-.81c.62.188,1.256.373,1.945.571Zm-3.907-1.186c-.664-.216-1.317-.438-1.937-.657l.282-.8c.614.218,1.259.436,1.915.651Zm-3.856-1.371c-.634-.245-1.271-.505-1.9-.769l.329-.779c.618.262,1.249.517,1.874.76Zm-3.771-1.594c-.617-.282-1.239-.578-1.849-.879l.375-.757c.6.3,1.215.59,1.825.869Zm-3.669-1.813c-.6-.319-1.205-.652-1.793-.987l.418-.735c.582.331,1.176.659,1.771.975Zm-3.558-2.025c-.582-.353-1.164-.72-1.732-1.09l.46-.708c.561.365,1.137.727,1.712,1.077Zm-3.432-2.229c-.559-.387-1.121-.788-1.665-1.19l.5-.681c.539.4,1.092.793,1.644,1.176Zm-12.356-1.487c-.218,0-.434,0-.651-.007l.017-.845c.211,0,.423.007.634.007h.149c.416,0,.826-.012,1.224-.03l.041.843c-.409.019-.832.03-1.258.032Zm-2.706-.11c-.676-.056-1.365-.132-2.045-.23l.12-.837c.664.095,1.335.171,1.994.225Zm6.178-.1-.108-.838c.676-.088,1.337-.206,1.96-.352l.191.823A20.69,20.69,0,0,1,2694.249,776.736ZM2684,776.258c-.664-.135-1.339-.291-2-.465l.213-.818c.651.171,1.31.323,1.958.455Zm15.84-.259q-.348-.276-.69-.558c-.281.12-.568.233-.859.338l-.287-.794q.21-.076.416-.157c-.054-.046-.108-.093-.162-.14l.553-.639c.155.135.314.27.475.406.177-.083.355-.171.529-.262l.391.749-.2.1c.12.1.242.194.364.292Zm-19.821-.779c-.645-.206-1.3-.433-1.942-.673l.3-.791c.63.237,1.271.458,1.9.659Zm21.972-1.352-.476-.7a19.865,19.865,0,0,0,1.585-1.207l.542.647C2703.095,773.069,2702.541,773.493,2701.99,773.868Zm-25.82-.088c-.62-.267-1.249-.554-1.867-.854l.369-.76c.608.294,1.225.576,1.833.838Zm20.562-.468c-.505-.477-1-.965-1.458-1.448l.61-.585c.453.473.935.951,1.428,1.42Zm-24.258-1.318c-.595-.319-1.2-.657-1.788-1.007l.429-.728c.583.343,1.175.676,1.76.99Zm32.693-.777-.593-.6c.34-.336.688-.7,1.032-1.071.117-.127.233-.255.346-.384l.632.561c-.118.132-.237.264-.356.394C2705.875,770.5,2705.518,770.872,2705.167,771.216Zm-11.276-.877c-.453-.529-.887-1.068-1.291-1.605l.675-.509c.394.522.818,1.048,1.259,1.563Zm-24.953-.428c-.566-.362-1.139-.745-1.707-1.136l.48-.695c.558.387,1.124.762,1.682,1.12Zm38.966-1.778-.667-.519c.412-.532.808-1.08,1.173-1.626l.7.47C2708.736,767.024,2708.329,767.586,2707.9,768.134Zm-42.338-.553c-.542-.4-1.088-.821-1.626-1.246l.524-.662c.531.419,1.07.833,1.6,1.23Zm25.849-.534c-.38-.585-.737-1.181-1.06-1.773l.742-.4c.313.573.657,1.151,1.026,1.717Zm-29.059-2.006c-.516-.434-1.036-.885-1.547-1.34l.563-.63c.5.45,1.019.9,1.528,1.325Zm47.839-.34-.737-.416c.332-.586.637-1.186.909-1.78l.767.352C2710.854,763.475,2710.538,764.093,2710.195,764.7Zm-20.75-1.286c-.28-.641-.529-1.291-.74-1.937l.8-.264c.2.62.443,1.246.712,1.861Zm-30.144-1.1c-.49-.461-.985-.94-1.47-1.421l.595-.6c.48.477.969.948,1.455,1.406Zm52.613-1.381-.8-.281a19.875,19.875,0,0,0,.566-1.908l.821.2A20.407,20.407,0,0,1,2711.913,760.938Zm-23.755-1.462a19.088,19.088,0,0,1-.333-2.052l.84-.09a18.655,18.655,0,0,0,.319,1.962Zm-31.76-.035c-.463-.482-.935-.982-1.4-1.485l.62-.575c.463.5.931,1,1.389,1.474Zm56.481-2.54-.838-.1a16.639,16.639,0,0,0,.13-1.977l.845.005A17.622,17.622,0,0,1,2712.88,756.9Zm-59.256-.456c-.443-.5-.9-1.011-1.349-1.531l.639-.554c.449.517.9,1.029,1.34,1.523Zm34.969-1.08-.845-.032a15.116,15.116,0,0,1,.225-2.08l.831.149A14.8,14.8,0,0,0,2688.593,755.364Zm-37.645-2c-.439-.519-.874-1.041-1.308-1.565l.651-.539q.647.783,1.3,1.558Zm61.1-.517a13.845,13.845,0,0,0-.4-1.93l.813-.232a14.654,14.654,0,0,1,.428,2.048Zm-22.773-1.367-.806-.254a16.829,16.829,0,0,1,.75-1.947l.769.351A15.678,15.678,0,0,0,2689.279,751.479Zm-40.93-1.256q-.644-.791-1.281-1.583l.659-.529q.636.791,1.278,1.58Zm62.63-1.166a14.318,14.318,0,0,0-.918-1.749l.72-.443a15.447,15.447,0,0,1,.972,1.852Zm-20.053-1.176-.72-.443a16.777,16.777,0,0,1,1.2-1.7l.657.531A15.726,15.726,0,0,0,2690.925,747.881Zm-45.13-.831-1.268-1.592.661-.526,1.266,1.592Zm63.115-1.342a12.73,12.73,0,0,0-1.372-1.409l.558-.635a13.662,13.662,0,0,1,1.464,1.5Zm-15.5-.892-.58-.615a14.149,14.149,0,0,1,1.625-1.322l.482.695A13.4,13.4,0,0,0,2693.406,744.815Zm-50.143-.951q-.634-.8-1.267-1.59l.659-.527q.636.8,1.269,1.592Zm62.7-.732a10.575,10.575,0,0,0-1.751-.862l.3-.791a11.226,11.226,0,0,1,1.893.931Zm-9.329-.539-.358-.766a11.262,11.262,0,0,1,1.986-.712l.208.82A10.515,10.515,0,0,0,2696.632,742.593Zm5.7-.826c-.049-.008-.1-.015-.146-.022a9.574,9.574,0,0,0-1.8-.093l-.037-.845a10.273,10.273,0,0,1,1.955.1c.052.008.1.015.159.025Zm-61.609-1.078q-.639-.791-1.281-1.577l.654-.536q.646.788,1.286,1.58Zm-2.574-3.14c-.44-.527-.88-1.048-1.31-1.551l.642-.549c.431.505.874,1.029,1.315,1.558Zm-2.638-3.084c-.457-.519-.911-1.028-1.35-1.513l.625-.568c.443.488.9,1,1.359,1.523Zm-2.724-3q-.373-.4-.75-.789c-.214-.225-.433-.448-.652-.673l.6-.591q.332.34.659.679.38.4.755.8Zm-2.836-2.892c-.483-.471-.977-.943-1.465-1.4l.576-.617c.493.46.99.936,1.479,1.411Zm-2.962-2.765c-.5-.448-1.018-.9-1.528-1.33l.548-.644c.515.438,1.034.891,1.543,1.344Zm-3.086-2.623c-.529-.428-1.064-.848-1.592-1.252l.514-.671c.532.407,1.073.833,1.609,1.266Zm-3.214-2.461c-.549-.4-1.107-.788-1.656-1.161l.475-.7c.556.379,1.121.774,1.677,1.176Zm-3.346-2.271c-.575-.363-1.154-.718-1.724-1.053l.429-.728c.578.34,1.166.7,1.748,1.068Zm-3.48-2.047c-.6-.323-1.2-.634-1.793-.924l.372-.759c.6.3,1.215.612,1.822.94Zm-3.62-1.773c-.622-.272-1.249-.531-1.863-.766l.3-.789c.627.24,1.266.5,1.9.781Zm-3.76-1.44c-.644-.21-1.293-.4-1.928-.571l.216-.816c.651.172,1.315.37,1.972.585Zm-3.884-1.029c-.662-.134-1.326-.245-1.977-.333l.112-.838c.669.09,1.352.2,2.033.341Z" transform="translate(-2597.629 -710.747)"/>
      <path id="Path_4310" data-name="Path 4310" class="cls-13" d="M3651.206,1537.776l-.286-.8c.311-.111.62-.233.922-.36l.33.779C3651.855,1537.532,3651.53,1537.661,3651.206,1537.776Z" transform="translate(-3470.428 -1396.845)"/>
    </g>
    <g id="Group_5473" data-name="Group 5473" transform="translate(405.771 109.788)">
      <path id="Path_4311" data-name="Path 4311" class="cls-1" d="M2407.82,653.69h38.047l-10.351,4.68Z" transform="translate(-2407.82 -653.69)"/>
      <path id="Path_4312" data-name="Path 4312" class="cls-13" d="M2407.82,653.69l26.43,9.861-2.307-3.568Z" transform="translate(-2407.82 -653.69)"/>
      <path id="Path_4313" data-name="Path 4313" class="cls-1" d="M2407.82,653.69l12.792,11.418,11.331-5.124Z" transform="translate(-2407.82 -653.69)"/>
      <path id="Path_4314" data-name="Path 4314" class="cls-14" d="M2435.516,658.37l-1.266,5.182-2.307-3.568-24.123-6.294Z" transform="translate(-2407.82 -653.69)"/>
    </g>
    <g id="Group_5474" data-name="Group 5474" transform="translate(344.166 209.547)">
      <path id="Path_4315" data-name="Path 4315" class="cls-15" d="M2126.552,1271.567s-2.508,12.426,4.12,10.468c0,0,.627.549-.537,2.878s3.045,1.075,3.045,1.075l-1.881-12.45-2.866-2.508Z" transform="translate(-2111.909 -1267.538)"/>
      <path id="Path_4316" data-name="Path 4316" class="cls-15" d="M2238.615,1262.234a2.718,2.718,0,0,0,.12-.791c-.031-.3-.747-.815-.813-.95-.277-.573.372-2.246.816-2.29a.787.787,0,0,1,.788.328c.031.12.223.433.448.433s.7.164.791.373.149.313.4.373.97.642.9.985-.612,1.374-1.343,1.328-.776,1.418-.776,1.418Z" transform="translate(-2204.789 -1256.875)"/>
      <path id="Path_4317" data-name="Path 4317" class="cls-15" d="M2047.121,1255.541a4.981,4.981,0,0,1-.38-1.545c.089-.336.917-.639.762-1.489s-.717.022-1.075-.739-.068-1.332-.673-1.332-.695.179-1.029.112-.627-.269-.963-.134-.38.223-.671.223-1.065.363-.864,1.08.931,2.346,1.759,2.435,1.119,1.143,1.165,1.7S2047.121,1255.541,2047.121,1255.541Z" transform="translate(-2042.195 -1250.369)"/>
      <path id="Path_4318" data-name="Path 4318" class="cls-20" d="M2089.341,1278.511s-2.866,9.62-9.674,11.053-15.675,1.523-19.078-11.644l-2.239.591s1.254,14.815,11.913,15.889l.732.134a3.619,3.619,0,0,0,.7,4.156c1.344,1.325,2.15,7.265,2.15,8.967h6.091s-.238-10.927,1.822-11.644,5.075-1.881,9.375-17.018Z" transform="translate(-2055.62 -1273.264)"/>
      <path id="Path_4319" data-name="Path 4319" class="cls-17" d="M2150.964,1276.5s-15.675,6.18-16.123-3.4-2.06-14.958-6-16.033c0,0,1.612-5.822,8.151-2.418C2143.993,1258.295,2139.409,1274.176,2150.964,1276.5Z" transform="translate(-2114.197 -1253.039)"/>
      <path id="Path_4320" data-name="Path 4320" class="cls-16" d="M2153.874,1453.88s3.135,4.1-2.309,15.725c0,0,5.88,19.508,5.8,20.594h-1.986s-8.4-17.144-8.046-23.447.448-12.873.448-12.873Z" transform="translate(-2129.557 -1419.487)"/>
      <path id="Path_4321" data-name="Path 4321" class="cls-12" d="M2114.807,1469.947c.316,2.043,3.424,16.609,5,20.263h1.813c-.249-3.662-1.137-19.765-1.734-20.644,0,0,10.48-9.6,6.956-15.677h-6.091S2114.449,1467.625,2114.807,1469.947Z" transform="translate(-2102.524 -1419.495)"/>
      <path id="Path_4322" data-name="Path 4322" class="cls-16" d="M2178.392,1675.183c.772,0,.238,2.6.238,2.6h-.365l-.094-1.063a.229.229,0,0,0-.228-.237h0c-.169.762-.561,1.3-1.267,1.3l-4.242-.005h0a2.046,2.046,0,0,1,.908-1.749,6.385,6.385,0,0,1,2.893-.837,5.951,5.951,0,0,1,.617-.008l1.338,0Z" transform="translate(-2150.42 -1603.383)"/>
      <path id="Path_4323" data-name="Path 4323" class="cls-15" d="M2195.95,1668.79l.135,1.085a1.1,1.1,0,0,0,1.646,0l-.164-1.087Z" transform="translate(-2169.965 -1598.077)"/>
      <path id="Path_4324" data-name="Path 4324" class="cls-16" d="M2127.512,1675.183c.772,0,.238,2.6.238,2.6h-.365l-.095-1.063a.229.229,0,0,0-.228-.237h0c-.169.762-.561,1.3-1.267,1.3l-4.242-.005h0a2.046,2.046,0,0,1,.908-1.749,6.384,6.384,0,0,1,2.893-.837,5.955,5.955,0,0,1,.617-.008l1.338,0Z" transform="translate(-2108.139 -1603.383)"/>
      <path id="Path_4325" data-name="Path 4325" class="cls-15" d="M2145.07,1668.79l.134,1.085a1.1,1.1,0,0,0,1.646,0l-.164-1.087Z" transform="translate(-2127.684 -1598.077)"/>
    </g>
    <g id="Group_5475" data-name="Group 5475" transform="translate(317.697 98.865)">
      <rect id="Rectangle_16819" data-name="Rectangle 16819" class="cls-25" width="2.885" height="47.056"/>
      <path id="Path_4326" data-name="Path 4326" class="cls-3" d="M1902.19,600.788V588.88l17.973,5.954,17.971,5.954-17.971,5.954L1902.19,612.7Z" transform="translate(-1899.305 -588.88)"/>
    </g>
  </g>
</svg>
