<?xml version="1.0" encoding="utf-8"?>
<!-- Generator: Adobe Illustrator 25.0.1, SVG Export Plug-In . SVG Version: 6.00 Build 0)  -->
<svg version="1.1" id="Layer_1" xmlns="http://www.w3.org/2000/svg" xmlns:xlink="http://www.w3.org/1999/xlink" x="0px" y="0px"
	 width="422.9px" height="491.8px" viewBox="0 0 422.9 491.8" style="enable-background:new 0 0 422.9 491.8;" xml:space="preserve"
	>
<style type="text/css">
	.st0{opacity:6.000000e-02;}
	.st1{fill:#00467F;}
	.st2{fill:#5132C4;}
	.st3{opacity:0.25;}
	.st4{fill:#28A9E2;}
	.st5{fill:#E1F5FA;}
	.st6{fill:#D5F1F8;}
	.st7{fill:#001233;}
	.st8{fill:#FDC8A8;}
	.st9{fill:#340AA4;}
	.st10{fill:#002169;}
	.st11{fill:#178BFF;}
	.st12{fill:#386FAE;}
	.st13{fill:#F9B691;}
	.st14{fill:#4B88C3;}
	.st15{fill:#F3A0CC;}
	.st16{fill:#2677C8;}
	.st17{opacity:0.25;fill:#28A9E2;enable-background:new    ;}
	.st18{opacity:0.25;fill:#9DC0DD;enable-background:new    ;}
	.st19{fill:#C7DFF0;}
	.st20{fill:#9DC0DD;}
	.st21{fill:#FFFFFF;}
	.st22{fill:#F2F2F2;}
	.st23{fill:#F3F8FC;}
	.st24{opacity:4.000000e-02;fill:#00004B;enable-background:new    ;}
	.st25{fill:#242424;}
	.st26{opacity:5.000000e-02;fill:#00004B;enable-background:new    ;}
	.st27{fill:#F3F3F8;}
	.st28{fill:#BBDBED;}
	.st29{fill:#133677;}
	.st30{fill:#CECECE;}
	.st31{fill:#C4ECF5;}
	.st32{fill:#244B8E;}
	.st33{fill:#3198FF;}
	.st34{fill:#98D9E7;}
	.st35{fill:#958BC4;}
</style>
<g id="img" transform="translate(-144.251 -40.64)">
	<g id="Group_7324" transform="translate(200.485 483.743)" class="st0">
		<path id="Path_8687" class="st1" d="M1.9,22L38.4,1.4c3.4-1.9,7.6-1.9,11,0.1l30,17.5c1.8,1,2.4,3.3,1.3,5.1
			c-0.3,0.5-0.7,1-1.2,1.3L45,47c-3.5,2.2-7.9,2.2-11.5,0.1L1.8,28.5c-1.8-1-2.4-3.3-1.3-5.1C0.9,22.8,1.3,22.3,1.9,22z"/>
	</g>
	<g id="Group_7325" transform="translate(476.851 451.449)" class="st0">
		<path id="Path_8688" class="st1" d="M2,22L38.5,1.4c3.4-1.9,7.6-1.9,11,0.1l30,17.6c1.8,1.1,2.4,3.4,1.3,5.1
			c-0.3,0.5-0.7,1-1.2,1.3L45.1,47.1c-3.7,2.3-8.4,2.2-11.9-0.3L1.4,28.1C-0.6,27-0.5,23.4,2,22z"/>
	</g>
	<g id="Group_7326" transform="translate(145.544 412.536)" class="st0">
		<path id="Path_8689" class="st1" d="M86,19.8c-5.2-1.2-10.3-3.2-15.4-4.9c-3-1-6.1-1.6-6.5-4.9c-0.2-1.4,0.5-2.7,0-4.3
			c-2.5-7.3-12.4-5.8-18.3-5.1c-10.9,1.2-21.9,2.2-32.7,4C8.3,5.4-3.3,8.4,0.9,15.8c3.2,5.7,10.5,7.8,16.9,7.7
			c0.3,0.1,0.6,0.2,0.9,0.2c5.5,0.4,12,1.4,15,6.4c2.1,3.5,3.7,6.7,7,9.3c6.5,5.2,14.4,5,22.3,4.3c9-0.8,18.4-1.6,26.9-4.7
			c4.3-1.6,14.2-5.4,14.2-11.2C104.1,20.3,90.8,20.9,86,19.8z"/>
	</g>
	<g id="Group_7327" transform="translate(169.891 304.112)" class="st0">
		<path id="Path_8690" class="st1" d="M192.7,202L8.8,97.5C0.4,92.7-2.5,82.1,2.3,73.8c1.3-2.4,3.2-4.4,5.5-5.9L99.7,8.1
			C115.1-2.1,135-2.7,151,6.6l189.3,110.7c8.3,4.8,11.1,15.5,6.2,23.7c-1.6,2.8-4,5-6.8,6.6l-100.3,55
			C224.8,210.4,207.1,210.2,192.7,202L192.7,202z"/>
	</g>
	<g id="Group_7328" transform="translate(398.805 418.583)" class="st0">
		<path id="Path_8691" class="st1" d="M84.1,25.6c-0.5-7.2-6.8-15.2-11.9-19.9c-3.6-3.4-11.3-8.1-15.9-4.1c-5.9,5.2-7,15.1-9.2,22
			c-1,2.9-1.7,5.1-4.4,6.5c-2.8,1.2-5.8,1.8-8.9,2c-5,0.5-10,0.1-15,0.1c-5.2,0-15.7-0.8-18.4,5.2s6,12,10.1,15.1
			c7.1,5.3,15.8,8,24.7,7.8c7-0.1,16.5-1.6,19.4-8.8c0.5-1.3,0.2-9.6,1.4-12.6c2.8-6.6,10.9-4.2,16.8-4.9S84.6,32.6,84.1,25.6z"/>
	</g>
	<g id="Group_7329" transform="translate(381.338 366.153)" class="st0">
		<path id="Path_8692" class="st1" d="M61.3,18.1c-3.9-1.9-8.5-2.2-12.2-4.3s-4.8-6-7.5-9.3C31.5-7.7,12.8,8,2.8,13.4
			c-1.3,0-2.4,1-2.5,2.3L0,17.9c0,1.1,0.7,2,1.8,2.3c4.7,1.9,9.6,3.4,14.6,4.3c4.5,0.9,13.5,1.1,11.1,7.6c-1.7,4.7-1.7,9.3,3.4,11.7
			c6.1,2.9,14-0.6,19.5-3.2c5.8-2.7,14.1-5.5,17.8-11S66,20.5,61.3,18.1z"/>
	</g>
	<g id="Group_7330" transform="translate(263.242 461.195)" class="st0">
		<path id="Path_8693" class="st1" d="M88.6,27.8c-4.3-1.3-8.6-2.2-12.9-3.5c-4.9-1.6-12.1-3.6-15.9-7.4c-4.9-4.9-2.3-15.4-11-16.5
			c-9.5-1.3-20,2.1-29.1,4.4c-7,1.8-17.9,3-19.5,11.8c-1.8,10,5.1,13.8,13.5,16.3c0.8,0.3,1.7,0.1,2.3-0.5c5,0.3,10,1,14.9,2
			c5.6,1.4,5.1,7.4,7,11.9c2.9,6.9,9.1,8.7,16.2,8.5c10.2-0.4,20.3-1.9,30.2-4.5c4.9-1.3,18.7-3.7,19-10.5
			C103.7,33,93.5,29.3,88.6,27.8z"/>
	</g>
	<path id="Path_8694" class="st2" d="M503.3,325.8l13,120.8c0.1,0.7-1.2,1.2-2.8,1.2c-1.6,0-3-0.5-3.1-1.2l-20.8-122.9L503.3,325.8z
		"/>
	<g id="Group_7331" transform="translate(212.062 145.257)" class="st3">
		<path id="Path_8696" class="st4" d="M261.4,59.7c-0.2-9.4-5.6-18-12.2-24.4c-7-6.6-15.4-11.4-24.5-14.2
			c-20.4-6.5-41.9-3.9-62.7-0.4c-11.3,1.9-22.5,4.2-34,5c-11.4,1-22.9-0.8-33.5-5.2c-19-8.1-37.7-23.8-59.7-20
			C25.1,2.2,16.7,8.1,10,15.1S-1.4,31.3,0.4,41.2c1.7,9,8,16.3,14,23c23.8,26.9,64.3,35.8,82.5,40.9c21.3,5.9,43.2,9,65.3,9.3
			c21.2,0.3,42.7-2.8,61.9-12c9-4.1,17.3-9.7,24.6-16.6C255.8,79,261.6,70,261.4,59.7z"/>
	</g>
	<path id="Path_8700" class="st5" d="M409.2,149.8c0,0-8.7-5.9-13.6,0s-24.7,35.3-26.6,41.9s-2.6,9.4,1.2,16.5s22.1,28.1,22.1,28.1
		l6.9-5.6l-12-32.7l25.3-33C412.6,164.9,417,154.7,409.2,149.8z"/>
	<path id="Path_8701" class="st6" d="M387.2,197.9c-3.3-2.1-7.6-1.7-10.5,0.9c2.9-11.8,20.4-32.9,20.4-32.9l2.7,15.7L387.2,197.9z"
		/>
	<path id="Path_8702" class="st7" d="M399.5,230.3l2.8,4l-4.2,5.6l-5.2-4.1L399.5,230.3z"/>
	<path id="Path_8703" class="st8" d="M404.1,231.8l2.1,3.2l-7.6,6.4l-3.1-3.5L404.1,231.8z"/>
	<path id="Path_8704" class="st9" d="M420.1,366.2c0,0,2.5-0.1,2.7,1.5s0.4,7.8,0.4,7.8s-11.8,8.6-24.2,11.2s-8.3-5.4-8.3-5.4
		s17.4-12.9,21.5-13.8C414.8,366.9,417.5,366.5,420.1,366.2L420.1,366.2z"/>
	<path id="Path_8705" class="st8" d="M421.2,368.1c-0.2,1-1.9,2.4-4.3,2.4c-3.1,0-4.1-1.4-4.3-2.4s-0.6-5.2-0.6-5.2h9.8
		C421.8,362.9,421.4,367.1,421.2,368.1z"/>
	<path id="Path_8706" class="st7" d="M397.5,239.5c0,0-2.2,19.3,4.8,59.9c1.3,7.5,6.2,37.6,7.5,64.1c6.7,6.3,12.7,1.4,13.5,0.4
		s5.5-44.6,2.4-54.5c-6.6-20.8,0.2-64.9-5.2-73.4S397.5,239.5,397.5,239.5z"/>
	<path id="Path_8707" class="st7" d="M446,383.4c0,0,2.5-0.1,2.7,1.5s0.4,7.8,0.4,7.8s-13.5,10.4-25.9,13c-6.7,1.4-8.9-0.3-9.5-2.2
		c-0.5-1.6,0.2-3.4,1.6-4.3c4.7-3.4,19.4-13.7,22.9-14.5C440.7,384.1,443.4,383.7,446,383.4z"/>
	<path id="Path_8708" class="st8" d="M446.3,385.1c-0.2,1-1.9,2.4-4.3,2.4c-3.1,0-4.1-1.4-4.3-2.4s-0.6-5.2-0.6-5.2h9.8
		C446.9,379.9,446.5,384.1,446.3,385.1z"/>
	<path id="Path_8709" class="st10" d="M410.8,242c0,24.8,12.9,69.9,12.9,69.9l12.2,69.2c0,0,8.2,3,11.9-0.6
		c2.2-32.3,10.4-57.9,1.5-74.6c1-5.6,9.9-45.2-3.7-65.5S410.8,217.2,410.8,242z"/>
	<path id="Path_8710" class="st11" d="M450.7,154.5c-6.9-5.2-14.9-8.9-23.4-10.8c-13.3-2.7-26.9-1.4-31.4,6.3
		c-4.1,7.1-5.1,15.9-2.3,35.5s3.8,54,3.8,54s11.2,7.4,30.5,7.1s18-2.2,18-2.2l2.4-30.7l5.9-27.7L450.7,154.5z"/>
	<path id="Path_8721" class="st12" d="M452.1,166.3v30.8l2.4-11L452.1,166.3z"/>
	<path id="Path_8723" class="st5" d="M412.4,178.6c0,0,10.9-15.7,19.7-23.4c4.7-4,0.9-7.3-1.2-8.1s-17.7-0.4-23.8,1.2
		S412.4,178.6,412.4,178.6z"/>
	<path id="Path_8724" class="st13" d="M425.8,135.1l4.9,14c0,0,1.5,4.9-4.8,8.3c-1.8,1-3.9,1.6-6,1.7c-2.5,0.1-4.8-1.5-5.7-3.9
		l-6.3-17.3l12.1-12.2L425.8,135.1z"/>
	<path id="Path_8725" class="st14" d="M430.7,149.2l-1-2.8c-0.2,2.1-1.2,5.4-6,7.9c-2.2,1.3-4.7,2-7.3,2.1c-0.6,0-1.2-0.1-1.8-0.2
		c1.1,1.9,3.1,3.1,5.3,3c2.1-0.1,4.1-0.7,6-1.7C432.2,154,430.7,149.2,430.7,149.2z"/>
	<path id="Path_8727" class="st8" d="M393.7,131.3l2.3,7.3c0.1,0.5,0.4,0.9,0.7,1.3l4.3,6.5l4.1,7.1l13.6-6.8c0,0-2.2-9.8-2.6-10.4
		s-2.9-4.1-3.7-5.1s-3.5-2.9-5.2-2.9c-2.7,0.3-5.5,0.8-8.1,1.4L393.7,131.3z"/>
	<path id="Path_8728" class="st7" d="M425.2,140.5c0.7,0.3,2.4-1.3,2.4-1.3s1.9-16.3,1.9-19.5s-1.3-9.3-10.7-11.8
		s-14.4,2.2-17.2,3.7s-10.8,2.4-12.5,3.9s-5.7,5.3-3.2,12c1.2,4,5.2,6.6,9.3,5.9c3.5-0.5,7-1.2,10.4-2.3c0.9,1.6,1.9,3.1,3.1,4.4
		c0.8,0.6,1.7,0.9,2.7,0.9c1.4,0.2,2.6,1,3.2,2.3c0.3,0.6,0.6,1.2,0.7,1.9c0.8,2.8-0.3,4.1-2.4,5.6s-3,1.1-4.5,0.1s-3.9-2.1-6.1-1
		l-1.9,0.8c-0.2,1.2-0.1,2.5,0.3,3.7c0.4,0.8,1.4,0.3,1.4,0.3s0.2,0.5,0.7,1.4c0,0-0.6,0.5,0,1.6s3.1,4.6,3.2,4.9
		c1.1,1.3,2.9,1.7,4.4,1.1c1.9-0.5,9.8-9.4,11-10.8s-1.4-8.9-1.4-8.9l1.4-0.1c0,0,0.1-2.9,1.5-2.7
		C424.2,136.6,424.8,138.5,425.2,140.5z"/>
	<path id="Path_8729" class="st8" d="M398.4,139.2c1,0.4,4.4,3.5,4.2,5.3c-0.2,1.8-2.6,2.6-3.2,2.2
		C398,145.8,398.9,142.9,398.4,139.2z"/>
	<path id="Path_8730" class="st8" d="M419.6,137.8c0,0-1.4-4,1.1-4.7s3.5,0.6,3.8,2.2c0.3,1.6-1.1,5.1-1,5.9
		c0.1,0.7-0.4,1.5-1.1,1.6c-0.3,0.1-0.6,0-0.9-0.2C420.7,142.5,419.6,137.8,419.6,137.8z"/>
	<path id="Path_8731" class="st15" d="M402,150c-0.2,0.6,0.1,1.2,0.6,1.5c0,0,0.1,0,0.1,0c0.2,0,0.3,0,0.5,0c2.9-1,1.5-2.6,1.5-2.6
		L402,150z"/>
	<path id="Path_8732" class="st7" d="M440.5,252.2l-2.8,4l8.5,9.2l5.2-4.1L440.5,252.2z"/>
	<path id="Path_8733" class="st5" d="M438.8,156.4c0,0,9.2-6.2,14.4,0s26.5,42.9,28.5,49.8s2.7,9.9-1.2,17.3s-29.2,40.6-29.2,40.6
		l-12.4-12.4l19.8-35.4l-23.3-44.1C435.3,172.3,430.6,161.6,438.8,156.4z"/>
	<path id="Path_8734" class="st8" d="M438.4,256.9l-2.7,2.7l6.1,7.9l3.8-2.8L438.4,256.9z"/>
	<path id="Path_8735" class="st7" d="M434,252.5c3.1,14,12.5,18,12.5,18c-0.2,0.7-1,1.1-1.7,0.9c-3.3-1-9.8-5.8-11.9-16.1
		C432.7,254.3,433.1,253.2,434,252.5z"/>
	<path id="Path_8736" class="st16" d="M414.5,99.8c4.9,0,8.9-4,8.9-8.9c0,0,0,0,0,0c0-0.5-0.1-1-0.1-1.5h-17.5
		c-0.1,0.5-0.1,1-0.1,1.5C405.7,95.8,409.6,99.8,414.5,99.8L414.5,99.8z"/>
	<path id="Path_8737" class="st17" d="M425.4,89.9c0,3.3-4.9,5.9-11,5.9s-11-2.6-11-5.9s4.9-5.9,11-5.9S425.4,86.7,425.4,89.9z"/>
	<path id="Path_8738" class="st16" d="M425.4,88.3c0,3.3-4.9,5.9-11,5.9s-11-2.7-11-5.9s4.9-5.9,11-5.9S425.4,85,425.4,88.3z"/>
	<path id="Path_8739" class="st18" d="M425.4,87c0,3.3-4.9,5.9-11,5.9s-11-2.6-11-5.9s4.9-5.9,11-5.9S425.4,83.8,425.4,87z"/>
	<path id="Path_8740" class="st16" d="M425.4,85.4c0,3.3-4.9,5.9-11,5.9s-11-2.6-11-5.9s4.9-5.9,11-5.9S425.4,82.2,425.4,85.4z"/>
	<path id="Path_8741" class="st18" d="M425.4,84.1c0,3.3-4.9,5.9-11,5.9s-11-2.6-11-5.9s4.9-5.9,11-5.9S425.4,80.9,425.4,84.1z"/>
	<path id="Path_8742" class="st16" d="M425.4,82.6c0,3.3-4.9,5.9-11,5.9s-11-2.6-11-5.9s4.9-5.9,11-5.9S425.4,79.3,425.4,82.6z"/>
	<path id="Path_9711" class="st19" d="M414.8,40.6c12.5,0,22.7,10.1,22.7,22.7S427.3,86,414.8,86s-22.7-10.1-22.7-22.7c0,0,0,0,0,0
		C392.2,50.8,402.3,40.6,414.8,40.6z"/>
	<path id="Path_8743" class="st20" d="M425.4,80.3c0-3.3-4.9-5.9-11-5.9s-11,2.7-11,5.9c0,0.3,0,0.5,0.1,0.8
		c-0.1,0.3-0.1,0.5-0.1,0.8c0,3.3,4.9,5.9,11,5.9s11-2.7,11-5.9c0-0.3,0-0.5-0.1-0.8C425.4,80.9,425.4,80.6,425.4,80.3z"/>
	<path id="Path_8744" class="st20" d="M414.5,74.4c-6,0-11,2.7-11,5.9c0,0.3,0,0.5,0.1,0.8c-0.1,0.3-0.1,0.5-0.1,0.8
		c0,0.4,0.1,0.8,0.2,1.2c6.6,3.7,14.5,3.9,21.2,0.5c0.3-0.5,0.4-1.1,0.5-1.7c0-0.3,0-0.5-0.1-0.8c0.1-0.3,0.1-0.5,0.1-0.8
		C425.4,77.1,420.5,74.4,414.5,74.4z"/>
	<path id="Path_8745" class="st21" d="M423.8,60.1L423.8,60.1c-0.2-0.5-0.5-0.9-0.9-1.3c-1.1-1.4-2.6-2.3-4.4-2.4
		c-1-1.9-2.6-3.4-4.6-4.3c-0.9-0.5-2.1-0.3-2.8,0.5c-1.3-1.9-2.9-3.3-4.3-3.5c-2.3-0.3-3,2.1-2.7,4.5c0.1,0.4,0.1,0.8,0.2,1.2
		l-0.2-0.1l0.5,2.6l1.2,1.5l0.9,0.2l0.4,0.3l4.1,19.9c0,0.1,0,0.1,0.1,0.2l-0.2-0.1c0,0.2,0,0.4,0,0.6l0.3,0.5l0.6-0.5l0,0
		c0.1,0,0.1-0.2,0.1-0.4l-4.9-23.2c0-0.3-0.2-0.5-0.5-0.6c-0.1,0-0.1,0-0.2,0l0,0l-0.5,0.5l0.3,0.6l0.4,0.1L407,58
		c-1.2-1.1-1.9-2.6-2-4.1c-0.2-2,0.4-4,2.2-3.7c0.3,0,0.6,0.1,0.8,0.3c0,0.1,0,0.2,0,0.3c0,0,1.8,2,2.4,2.9c-0.2,0.5-0.4,1-0.5,1.5
		c-0.3,1.5-0.2,3.1,0.2,4.5l-0.4-0.6v0.3l1.3,2.8c0.3,0,0.7,0,1,0l0,0c0.3,0.1,0.6,0,0.8-0.1c1.2-0.6,1.4-2.7,0.3-5.7
		c-0.4-1.1-0.9-2.1-1.5-3c0.6-0.6,1.5-0.8,2.3-0.4c0.3,0.1,0.5,0.2,0.8,0.4v0.3c0,0,1.4,1.7,2.3,2.9c-0.6,0.3-1,0.8-1.3,1.4
		c-0.5,1.2-0.6,2.4-0.3,3.7l-0.2-0.2l0.1,1.2l1.4,2h0.4c0.5,0.5,1.4,0.4,1.8-0.1c0,0,0,0,0.1-0.1c1-1.1,1-4.1,0-6.8
		c0-0.1-0.1-0.2-0.1-0.3c0.5,0,1,0.2,1.5,0.4l-0.8-0.1l2.4,2.4l1.4,1.9l0.3,0.3c0.2,0.7,0.2,1.3,0.2,2c0,0.9-0.3,2.2-1.7,2.3
		l0.4-1.3c0-0.3-0.1-0.6-0.3-0.8c-0.1-0.1-0.2-0.2-0.4-0.1l0,0c0,0-0.1,0-0.1,0.1l-0.5,0.5l0.3,0.4l-0.4,1.3c0,0.1-0.1,0.1-0.1,0.2
		l-4.2,15.3c0,0.1,0,0.3,0,0.4l-0.1,0.2l0.2,0.8l0.6-0.5l0,0c0.1,0,0.1-0.1,0.1-0.2l4.2-15.2c1.7,0.2,2.7-0.8,2.8-2.9
		C424.8,63.1,424.5,61.5,423.8,60.1L423.8,60.1z M412.4,61.1c-0.3,0.2-0.7,0.1-0.9-0.2c-0.8-1.6-1-3.4-0.7-5.2
		c0.1-0.4,0.2-0.8,0.3-1.2l1.2,2.2l0.4,1.2h0.2C413.3,59.1,413.4,60.6,412.4,61.1L412.4,61.1z M418.6,63.6c-0.3,0.3-0.9,0.7-1.5-0.1
		c-0.9-1.4-1-3.1-0.4-4.6c0.3-0.6,0.7-1,1.3-1.3v0.1l0.6,1.3h0.2C419.4,60.9,419.3,62.8,418.6,63.6L418.6,63.6z"/>
	<path id="Path_8746" class="st21" d="M411.2,62.6c-0.3-0.2-0.5-0.4-0.7-0.6c-1.1-1.9-1.5-4.2-1.1-6.4c0.1-0.7,0.3-1.4,0.7-2
		c-1.1-1.6-2.4-2.8-3.6-3c-1.9-0.2-2.4,1.8-2.2,3.7c0.1,1.7,1,3.3,2.3,4.4c0.2,0.2,0.4,0.4,0.4,0.7c0,0.3-0.2,0.4-0.4,0.2
		c-1.8-1.4-2.9-3.4-3.1-5.7c-0.3-2.4,0.5-4.8,2.7-4.5c1.4,0.2,3,1.6,4.3,3.5c0.7-0.7,1.9-0.9,2.8-0.5c2,0.9,3.6,2.4,4.5,4.3
		c1.7,0.2,3.3,1.1,4.4,2.4c1.3,1.7,2,3.8,1.9,6c-0.1,2.2-1.2,3.2-3,2.8c-0.3-0.1-0.4-0.3-0.5-0.6c-0.1-0.3,0-0.5,0.3-0.5
		c2,0.4,2.4-1.2,2.4-2.3c0.1-1.7-0.5-3.4-1.5-4.7c-0.9-1.1-2.1-1.8-3.5-2.1c0,0.1,0.1,0.2,0.1,0.3c1,2.7,1,5.7,0,6.8
		c-0.9,1-1.9,0.4-2.5-0.5c-1.3-1.8-1.5-4.1-0.7-6.1c0.4-0.7,1.1-1.3,1.9-1.5c-0.8-1.5-2.1-2.7-3.7-3.3c-0.8-0.4-1.7-0.2-2.3,0.4
		c0.6,1,1.1,2,1.5,3.1c1.1,2.9,1,5.1-0.3,5.7C412,62.9,411.6,62.9,411.2,62.6L411.2,62.6z M410.8,54.6c-0.3,0.5-0.4,1.1-0.5,1.6
		c-0.3,1.8-0.1,3.6,0.7,5.2c0.2,0.3,0.6,0.4,0.9,0.2c1.4-0.7,0.5-3.7,0.1-4.5C411.7,56.2,411.3,55.4,410.8,54.6L410.8,54.6z
		 M417.8,58c-0.7,0.2-1.4,0.7-1.7,1.4c-0.6,1.5-0.5,3.2,0.4,4.6c0.6,0.8,1.2,0.4,1.5,0.1c0.9-0.9,0.9-3.4,0-5.7
		C417.9,58.3,417.8,58.1,417.8,58L417.8,58z"/>
	<path id="Path_8747" class="st21" d="M411.2,80.2c-0.2-0.1-0.3-0.3-0.4-0.6l-4.9-23.2c-0.1-0.3,0.1-0.5,0.3-0.5
		c0.3,0.1,0.5,0.4,0.5,0.6l4.9,23.2c0.1,0.3-0.1,0.5-0.3,0.5L411.2,80.2z"/>
	<path id="Path_8748" class="st21" d="M416.9,83.5l-0.1-0.1c-0.2-0.2-0.3-0.5-0.3-0.8l4.9-17.6c0.1-0.2,0.3-0.3,0.5,0
		c0.2,0.2,0.3,0.5,0.3,0.8l-4.9,17.6C417.3,83.5,417.1,83.6,416.9,83.5C417,83.5,416.9,83.5,416.9,83.5L416.9,83.5z"/>
	<path id="Path_8749" class="st22" d="M414.8,84.8c-12.3,0-22.3-9.8-22.7-22.1c0,0.2,0,0.4,0,0.6c0,12.5,10.1,22.7,22.7,22.7
		s22.7-10.1,22.7-22.7c0-0.2,0-0.4,0-0.6C437.2,75,427.1,84.8,414.8,84.8z"/>
	<path id="Path_8750" class="st7" d="M441.5,459.6c0,0,2.7,1.4,2.7,2.1s0.7,10.3,0.7,10.3s-2.6,3.2-5.2,3.7s-8.8-2.7-11.6-4.6
		s-18.6-3.7-22.3-10.7c-0.9-1.7,0-6.4,6.2-7c4.7-0.4,8.4,2,10.5,2.1c2.8,0.2,12.5,2.3,12.8,2.4S441.5,459.6,441.5,459.6z"/>
	<path id="Path_8751" class="st7" d="M462.2,420.6c-2.9-1.3-6.3,0.1-7.6,3c-0.4,1-0.6,2.1-0.4,3.2c0.1,0.5,0.2,0.9,0.4,1.3
		c1.6,4.1,7.7,7,9.4,9.8s4.2,7.2,6.7,8.1s5.6,1,7.5-0.5c2.6-2,1.2-10.2,0.4-12.3s-6.4-3.7-8.5-5.9
		C468.8,425.8,465.8,422.2,462.2,420.6z"/>
	<path id="Path_8752" class="st13" d="M442.7,461.5c0,0,0,2.8-4.9,2.8s-4.9-2.8-4.9-2.8v-9.8h9.8L442.7,461.5z"/>
	<path id="Path_8753" class="st13" d="M477.6,432.4c0,0,0,2.8-4.9,2.8s-4.9-2.8-4.9-2.8v-9.8h9.8L477.6,432.4z"/>
	<path id="Path_8754" class="st19" d="M567.1,406.3l-102.3,4.2l18.8,65.7c0,0.4,0.1,0.9,0.3,1.3l0,0c0.3,0.5,0.7,0.9,1.2,1.2
		l25.3,15c2.8,1.7,6.4,1.6,9.2-0.1l27.5-17.2c0.6-0.4,1.1-1,1.3-1.7h0.1L567.1,406.3z"/>
	<path id="Path_8755" class="st23" d="M467.1,405.5l46-25.9c4.3-2.4,9.6-2.4,13.9,0.1l37.9,22.1c2.3,1.3,3,4.2,1.7,6.5
		c-0.4,0.7-0.9,1.2-1.6,1.6l-43.6,27.2c-4.4,2.8-10,2.8-14.5,0.2l-39.9-23.6c-2.2-1.3-3-4.2-1.6-6.5
		C465.8,406.5,466.4,405.9,467.1,405.5L467.1,405.5z"/>
	<path id="Path_8756" class="st7" d="M538.9,363.7c0,0,7.8,8.9,7.8,20.1s-9.1,22-22,23.5c-12.8,1.5-46.1-21.2-46.1-21.2
		s6.1,10.2,4.8,19.7s-3.7,12.9-4.8,23.5c-4.3,4.1-12.5-1.1-12.5-1.1s-12.2-54.9-7.6-64.4s50.7-4.7,50.7-4.7L538.9,363.7z"/>
	<path id="Path_8757" class="st19" d="M505.5,408.7l-40.7,1.7l18.7,65.8c0,0.4,0.1,0.9,0.3,1.3l0,0c0.3,0.5,0.7,0.9,1.2,1.2
		l20.5,12.2L505.5,408.7z"/>
	<path id="Path_8758" class="st23" d="M505.5,383.9l-38.4,21.6c-2.3,1.3-3.1,4.2-1.8,6.4c0.4,0.7,1,1.3,1.7,1.7l38.4,22.7V383.9z"/>
	<g id="Group_7333" transform="translate(467.803 390.528)" class="st0">
		<path id="Path_8759" class="st1" d="M74.5,2.7c-6.9-3.2-16.1-2.8-23.5-2.6c-8.8,0.2-17.5,1.5-26,3.8C16.9,6.1,7.4,9.2,1.2,15.1
			c-0.3,0.3-0.5,0.6-0.6,1v0.1c-2.9,5.3,6.5,7.2,9.6,8.4c8.5,3.3,17.6,5.9,26.9,5.8c8.2-0.1,14.9-2.6,22-6.3
			c6.2-3.2,15.9-3.7,20.6-9.6C83.2,9.8,78.9,4.8,74.5,2.7z"/>
	</g>
	<path id="Path_8760" class="st7" d="M538.9,363.7l-15.6-2.4v46.1c0.5,0,1,0,1.4-0.1c12.9-1.5,22-12.3,22-23.5
		S538.9,363.7,538.9,363.7z"/>
	<path id="Path_8761" class="st10" d="M527.3,378.8c3.1,4.7,4.8,10.2,4.9,15.9c0,9.3-6,22-29.1,21.2c-23.1-0.8-49.4-14.4-49.4-14.4
		s4.5,6.7,0.9,17.3s-9.5,32.9-9.9,39.3c-7.3,2.6-13.5-2.2-13.5-2.2s0.2-28.3-1.8-39.7s-6.1-38-3.2-42.1s16.9-5.6,24.2-5.2
		S527.3,378.8,527.3,378.8z"/>
	<path id="Path_8762" class="st24" d="M481.8,356.9c-5.7-1.1-12.5,2.1-17.6,4c-6.6,2.3-13,5.1-19.1,8.3c-7.5,4-19.8,12-19.8,12
		s0.2,12,1.6,14c9.1-0.7,16.4-13.2,25-16.2c6.5-2.2,15.7-2.1,22.1-4.8C477.6,372.6,494.5,359.4,481.8,356.9z"/>
	<path id="Path_8763" class="st25" d="M381.7,385.4l2.7,121.6c0,0.7,1.3,1.2,2.9,1.2s2.9-0.5,2.9-1.2l4.8-123.8L381.7,385.4z"/>
	<path id="Path_8764" class="st10" d="M191.4,274.5l2.6,121.6c0,0.7,1.3,1.2,2.9,1.2s2.9-0.5,2.9-1.2l4.8-123.8L191.4,274.5z"/>
	<path id="Path_8765" class="st2" d="M297.4,216.7l19.9,117.7c0.1,0.7,1.5,1.2,3.1,1.2s2.9-0.5,2.8-1.2l-12.7-117.7H297.4z"/>
	<path id="Path_8766" class="st19" d="M365.1,392.5L191,294.2c-7.5-4.3-10.1-13.8-5.8-21.3c1.2-2.1,2.9-3.9,4.9-5.3l83.1-51.8
		c13.8-9.2,31.7-9.7,46-1.4l179,103.8c7.4,4.3,10,13.9,5.6,21.3c-1.5,2.5-3.6,4.5-6.1,5.9l-90.6,47.5
		C393.9,400.1,378.1,399.9,365.1,392.5z"/>
	<path id="Path_8767" class="st23" d="M365.3,386l-174.1-98.2c-7.5-4.3-10.1-13.8-5.9-21.3c1.2-2.1,2.9-3.9,4.9-5.3l83.1-51.8
		c13.8-9.2,31.7-9.7,46.1-1.4l179,103.8c7.4,4.3,9.9,13.9,5.6,21.3c-1.5,2.5-3.6,4.5-6.1,5.9l-90.6,47.5
		C394.1,393.6,378.3,393.4,365.3,386L365.3,386z"/>
	<g id="Group_7334" transform="translate(230.14 263.401)" class="st0">
		<ellipse id="Ellipse_187" class="st1" cx="9.1" cy="5.3" rx="9.1" ry="5.3"/>
	</g>
	<g id="Group_7335" transform="translate(346.54 266.479)" class="st0">
		<ellipse id="Ellipse_188" class="st1" cx="9.1" cy="5.3" rx="9.1" ry="5.3"/>
	</g>
	<path id="Path_8768" class="st26" d="M269.6,269.3c0,3-4.1,5.3-9.1,5.3c-5,0-9.1-2.4-9.1-5.3c0-2.9,4.1-5.3,9.1-5.3
		C265.5,264,269.6,266.4,269.6,269.3z"/>
	<g id="Group_7336" transform="translate(278.925 307.074)" class="st0">
		<path id="Path_8769" class="st1" d="M30,0.8L1.6,17c0,0-3.9,2.9,0.4,5.1c4.3,2.3,50.8,29.1,50.8,29.1s3.2,2.8,8.7,0
			s28.8-16.6,28.8-16.6s2.8-2.7-3.9-5.7S36.6,0.4,36.6,0.4S32.7-0.7,30,0.8z"/>
	</g>
	<g id="Group_7337" transform="translate(397.609 305.302)" class="st0">
		<path id="Path_8770" class="st1" d="M56.6,0.8l26.4,15c0,0,3.6,2.7-0.4,4.8s-47.2,27-47.2,27s-3,2.6-8.1,0S0.5,32.1,0.5,32.1
			s-2.6-2.4,3.7-5.3S50.5,0.4,50.5,0.4S54-0.7,56.6,0.8z"/>
	</g>
	<g id="Group_7338" transform="translate(259.197 208.926)" class="st0">
		<path id="Path_8771" class="st1" d="M76.6,29.4l9.5-0.3l-0.5-11.3l-9.5,0.3c-0.8-1.4-1.8-2.7-3-3.8l6.5-4.1L65.5,2.8l-6.6,4
			c-2.3-0.6-4.5-1.1-6.9-1.4L51.8,0L32.2,0.7l0.2,5.4c-2.3,0.5-4.5,1.1-6.7,1.9l-6.9-3.7L5.3,12.8l6.8,3.6c-1.1,1.2-2,2.5-2.7,4
			L0,20.7L0.4,32l9.5-0.3c0.8,1.4,1.8,2.7,3,3.8l-6.5,4.1L20.5,47l6.5-4.1c2.3,0.6,4.5,1.1,6.9,1.4l0.2,5.4l19.6-0.7l-0.2-5.4
			c2.3-0.5,4.5-1.1,6.7-1.9l6.9,3.7l13.6-8.4l-6.8-3.6C75,32.2,75.9,30.9,76.6,29.4L76.6,29.4z M30.9,32.5c-7-3.7-7.2-10-0.6-14.2
			s17.7-4.5,24.7-0.8s7.2,10,0.6,14.2S37.9,36.1,30.9,32.5L30.9,32.5z"/>
	</g>
	<path id="Path_8772" class="st20" d="M261.8,260l-7.6-2.7l-3.8,10.4l7.6,2.7c2.8,1.1,6.1-0.2,7.2-3.1c1.1-2.8-0.2-6.1-3.1-7.2
		C262,260.1,261.9,260,261.8,260L261.8,260z"/>
	<circle id="Ellipse_189" class="st19" cx="239.9" cy="258.1" r="13.5"/>
	<path id="Path_8773" class="st27" d="M251.2,260.3c0-0.1,0-0.3-0.1-0.3l-8.9-6.7c0.2-1.2-0.4-2.4-1.6-2.9c-0.9-0.6-2-0.7-3-0.2
		c-0.6,0.1-1.1,0.4-1.5,0.9c-0.6,0.9-0.7,2.1-0.3,3.1c-0.8,0.2-1.4,0.7-1.7,1.4c-0.5,1.1-0.5,2.4,0,3.4c-0.7,0.8-1,1.9-0.9,2.9
		c0,0.3,0.1,0.5,0.3,0.8l0,0c0.5,0.8,1.2,1.3,2,1.6c0.7,0.3,1.4,0.2,2.1-0.1c0.5-0.1,1-0.4,1.3-0.8l10.2,1.1c0,0,0.1,0,0.1,0l0,0
		l0.6-0.2l0,0c0.1,0,0.1-0.1,0.1-0.1c0,0,0-0.1,0-0.1c0-0.2-0.1-0.3-0.3-0.3l-10.6-1.1H239l-1.4-0.1c0,0-0.1,0-0.1,0l0,0l-0.5,0.2
		h-0.1c-0.1,0-0.1,0.1-0.1,0.2c0,0.2,0.1,0.3,0.3,0.3l0.9,0.1c-0.1,0.1-0.3,0.2-0.4,0.3c-0.4,0.1-0.8,0-1.1-0.1
		c-0.9-0.3-1.6-1-1.9-1.8c-0.1-0.7,0-1.3,0.3-1.9c0.9,1.1,2.3,1.6,3.7,1.4c0.1,0,0.3-0.1,0.4-0.2h0.2c0.7-0.1,1.1-0.7,1.1-1.4
		c0,0,0-0.1,0-0.1c-0.5-1.2-1.7-1.9-3-1.7c-0.4,0-0.8,0.1-1.2,0.3c-0.2,0.1-0.5,0.1-0.7,0.2c-0.4-0.9-0.3-1.8,0.1-2.6
		c0.2-0.4,0.5-0.7,0.8-0.9c0.2,0.5,0.5,1,0.9,1.4c1,1.2,2.3,1.6,3.2,1.1c0.2,0,0.4-0.1,0.6-0.2c0.3-0.1,0.5-0.4,0.6-0.6
		c0-0.2,0-0.3,0-0.5c-0.2-0.8-1.5-1.7-3-2c-0.5-0.1-1-0.1-1.4-0.1c-0.4-0.8-0.3-1.8,0.2-2.6c0.2-0.2,0.4-0.4,0.7-0.6
		c0.7-0.1,1.4,0,1.9,0.4c0.6,0.3,1,0.8,1.2,1.3l-0.3-0.2c-0.1,0-0.2,0-0.3,0l0,0l-0.6,0.2l0,0c-0.1,0-0.1,0-0.1,0.1
		c-0.1,0.1,0,0.3,0.1,0.4l10.4,7.8c0.1,0.1,0.2,0.1,0.3,0l0,0l0.6-0.2l0,0C251.1,260.4,251.2,260.4,251.2,260.3
		C251.2,260.3,251.2,260.3,251.2,260.3L251.2,260.3z M238.1,255.6c-0.3-0.3-0.5-0.7-0.7-1l0.5,0.1c1,0.1,1.9,0.7,2.5,1.5
		c0,0.2-0.1,0.4-0.3,0.5C239.3,256.7,238.5,256.3,238.1,255.6L238.1,255.6z M236.7,258.6c1-0.1,1.9,0.4,2.3,1.2
		c0.1,0.3,0,0.6-0.3,0.7c-1.1,0.1-2.3-0.4-3-1.3l-0.1-0.2c0.2-0.1,0.3-0.2,0.5-0.3C236.3,258.6,236.5,258.6,236.7,258.6L236.7,258.6
		z"/>
	<path id="Path_8774" class="st19" d="M260.2,259l1.9,0.7l-3.9,11.3l-1.9-0.7L260.2,259z"/>
	<path id="Path_8775" class="st19" d="M257.1,257.7l1.9,0.7l-3.9,11.3l-1.9-0.7L257.1,257.7z"/>
	<path id="Path_8776" class="st20" d="M251.5,267.8c0.2-1.1,0.8-2.1,1-3.1c0.2-0.9,0.4-1.8,0.8-2.7c0.6-1.3,1-3.1,1.7-4.5l-3-1.1
		c0,0-1.6,0.4-3.1,4.5c-1.5,4.1-0.7,6-0.7,6l3.3,1.2L251.5,267.8z"/>
	<path id="Path_8777" class="st19" d="M254,256.7l1.9,0.7l-3.9,11.3l-1.9-0.7L254,256.7z"/>
	<path id="Path_8778" class="st20" d="M338.9,244.3l0.1-7.8l5.1-0.2c0,0,0.2-8,0.1-8.1l-0.5-0.3l-0.1-2.9l-9.5,0.3
		c-0.8-1.4-1.8-2.7-3-3.8l6.5-4.1l0.1-8.1l-8.5,3.3v0.4l-5.8-3.1l-6.5,4.1c-2.3-0.6-4.5-1.1-6.9-1.4l-0.1-5.4l-15.4,0.5l0,0
		c0.2,0-4.1-8-4.1-8l-0.1,8.1l0,0v0.9l0,0l0.2,4.5c-2.3,0.5-4.5,1.1-6.7,1.9l-6.8-3.7l-3.2,2l-0.8-2.1l-9.4,0.4l-0.1,8.1l6.8,3.6
		c-1.1,1.2-2,2.5-2.6,4c-2.7-2.2-9.3-7.8-9.3-7.8l-0.1,8.1l0.5,11.3l6-0.2l-0.1,7.8l14.2,7.5l6.5-4.1c2.3,0.6,4.6,1.1,6.9,1.4
		l0.2,5.4l19.6-0.7l-0.2-5.4c2.3-0.5,4.5-1.1,6.8-1.8l6.8,3.6L338.9,244.3z M334.7,236.7l3-0.1l-3.6,1.2
		C334.4,237.4,334.6,237,334.7,236.7L334.7,236.7z M265.5,239l2.6-0.1c0.3,0.6,0.7,1.1,1.1,1.6L265.5,239z M313.8,238.9
		c-6.7,4.2-17.7,4.5-24.7,0.8s-7.2-10-0.6-14.2s17.7-4.5,24.7-0.8S320.5,234.7,313.8,238.9z"/>
	<path id="Path_8779" class="st21" d="M334.9,228.6l9.5-0.3l-0.4-11.3l-9.5,0.3c-0.8-1.4-1.8-2.7-3-3.8l6.5-4.1l-14.2-7.5l-6.5,4
		c-2.3-0.6-4.6-1.1-6.9-1.4l-0.2-5.4l-19.6,0.7l0.2,5.4c-2.3,0.5-4.5,1.1-6.7,1.9l-6.9-3.7l-13.5,8.5l6.8,3.6c-1.1,1.2-2,2.6-2.7,4
		l-9.5,0.3l0.5,11.3l9.5-0.3c0.8,1.4,1.8,2.7,3,3.8l-6.5,4.1l14.2,7.5l6.5-4.1c2.3,0.6,4.5,1.1,6.9,1.4l0.2,5.4l19.6-0.7l-0.2-5.4
		c2.3-0.5,4.5-1.1,6.8-1.9l6.9,3.7l13.6-8.4l-6.8-3.6C333.3,231.4,334.2,230,334.9,228.6L334.9,228.6z M289.3,231.6
		c-7-3.7-7.2-10-0.6-14.2s17.7-4.5,24.7-0.8s7.2,10,0.6,14.2S296.2,235.3,289.3,231.6L289.3,231.6z"/>
	<path id="Path_8780" class="st19" d="M325.5,244.6l-0.1,8.1l13.6-8.4l0.1-8.1L325.5,244.6z"/>
	<path id="Path_8781" class="st19" d="M292.5,248.9l-0.1,8.1l19.6-0.7l0.1-8.1L292.5,248.9z"/>
	<path id="Path_8782" class="st19" d="M264.6,238.7l-0.1,8.1l14.2,7.5l0.1-8.1L264.6,238.7z"/>
	<path id="Path_8783" class="st20" d="M330.5,260.2l9-3.2l4.5,12.4l-9,3.3c-3.4,1.4-7.2-0.2-8.6-3.6s0.2-7.2,3.6-8.6
		C330.2,260.3,330.3,260.3,330.5,260.2L330.5,260.2z"/>
	<circle id="Ellipse_190" class="st19" cx="356.5" cy="258" r="16"/>
	<path id="Path_8784" class="st27" d="M343.1,260.7c0,0,0.1,0.1,0.1,0.1l0,0l0.7,0.2l0,0c0.1,0.1,0.2,0.1,0.3,0l12.3-9.3
		c0.2-0.1,0.2-0.3,0.1-0.5c0-0.1-0.1-0.1-0.2-0.1l0,0l-0.7-0.2l0,0c-0.1-0.1-0.2-0.1-0.3,0l-0.4,0.3c0.3-0.7,0.8-1.2,1.4-1.6
		c0.7-0.4,1.5-0.6,2.3-0.5c0.3,0.2,0.6,0.4,0.8,0.7c0.6,0.9,0.7,2.1,0.2,3.1c-0.6-0.1-1.1,0-1.7,0.1c-1.8,0.4-3.3,1.4-3.6,2.4
		c0,0.2,0,0.4,0,0.6c0.1,0.3,0.4,0.6,0.7,0.8c0.2,0.1,0.5,0.2,0.7,0.3c1.1,0.6,2.6,0.1,3.8-1.3c0.4-0.5,0.8-1.1,1.1-1.7
		c0.4,0.2,0.8,0.6,1,1.1c0.5,1,0.5,2.1,0.1,3.1c-0.3-0.1-0.5-0.2-0.8-0.3c-0.5-0.2-1-0.3-1.5-0.4c-1.5-0.2-3,0.7-3.5,2.1
		c-0.2,0.7,0,1.5,1.2,1.8h0.2c0.2,0.1,0.3,0.2,0.5,0.2c1.6,0.2,3.3-0.4,4.3-1.6c0.4,0.7,0.5,1.5,0.4,2.3c-0.3,1.1-1.2,1.9-2.2,2.2
		c-0.4,0.1-0.9,0.2-1.3,0.1c-0.2-0.1-0.4-0.2-0.5-0.4l1.1-0.1c0.2,0,0.3-0.2,0.3-0.4c0-0.1,0-0.2-0.1-0.3h-0.1l-0.6-0.2l0,0
		c-0.1,0-0.1,0-0.2,0l-1.7,0.2c-0.1,0-0.1,0-0.2,0l-12.6,1.3c-0.2,0-0.3,0.2-0.3,0.4c0,0,0,0.1,0,0.1c0,0.1,0.1,0.1,0.1,0.2l0,0
		l0.7,0.2l0,0c0.1,0,0.1,0,0.2,0l12.1-1.2c0.4,0.5,1,0.8,1.6,0.9c0.8,0.4,1.6,0.4,2.4,0.1c1-0.3,1.9-1,2.4-1.9l0,0
		c0.2-0.3,0.3-0.6,0.3-0.9c0.2-1.3-0.2-2.5-1-3.5c0.6-1.3,0.6-2.8,0-4.1c-0.4-0.8-1.1-1.5-2-1.7c0.5-1.2,0.4-2.6-0.3-3.7
		c-0.4-0.6-1.1-1-1.7-1.1c-1.2-0.5-2.5-0.4-3.6,0.3c-1.3,0.6-2,2-1.8,3.5l-10.5,7.9c-0.1,0.1-0.2,0.3-0.1,0.4
		C343,260.8,343.1,260.7,343.1,260.7z M356.3,256.4c-0.4-0.3-0.4-0.5-0.4-0.6c0.7-1,1.8-1.7,3-1.8l0.6-0.1c-0.2,0.4-0.5,0.8-0.8,1.2
		C358.1,255.9,357.2,256.3,356.3,256.4L356.3,256.4z M361,258.7c0.2,0.1,0.4,0.2,0.6,0.4c-0.1,0.1-0.1,0.1-0.2,0.2
		c-0.8,1.1-2.2,1.7-3.5,1.6c-0.3-0.1-0.4-0.5-0.3-0.8c0.5-1,1.6-1.6,2.8-1.5C360.5,258.6,360.8,258.6,361,258.7L361,258.7z"/>
	<path id="Path_8785" class="st19" d="M332.5,259.1l-2.3,0.8l4.6,13.4l2.2-0.8L332.5,259.1z"/>
	<path id="Path_8786" class="st19" d="M336.1,257.6l-2.3,0.8l4.6,13.4l2.2-0.8L336.1,257.6z"/>
	<path id="Path_8787" class="st20" d="M342.7,269.6c-0.3-1.3-0.9-2.4-1.2-3.7c-0.2-1.1-0.5-2.2-0.9-3.2c-0.6-1.6-1.2-3.7-2-5.3
		l3.6-1.3c0,0,1.9,0.5,3.7,5.3c1.8,4.8,0.8,7.1,0.8,7.1l-3.9,1.4C342.7,269.8,342.7,269.7,342.7,269.6z"/>
	<path id="Path_8788" class="st19" d="M339.8,256.4l-2.3,0.8l4.6,13.4l2.2-0.8L339.8,256.4z"/>
	<path id="Path_8789" class="st28" d="M369.2,335.6v2c0,1.8-1,3.5-2.6,4.3c-6.3,3.3-22,11.7-25.2,13.5c-4.1,2.3-8.1,2.1-9.5,1.5
		c-5.8-2.8-51.1-29.6-52.1-30.1c-1.7-0.9-1.6-4.5-1.6-4.5l19.1,1.6L369.2,335.6z"/>
	<path id="Path_8790" class="st5" d="M308.3,303.7l-28.4,16.2c0,0-3.9,2.9,0.4,5.1s50.8,29.1,50.8,29.1s3.2,2.8,8.7,0
		s28.9-16.6,28.9-16.6s2.8-2.6-3.9-5.7s-49.9-28.5-49.9-28.5S311,302.1,308.3,303.7z"/>
	<path id="Path_8791" class="st28" d="M306.7,324.1l-9.9,5.6c0,0-1.3,1,0.1,1.8s17.7,10.1,17.7,10.1c0.9,0.6,2.1,0.6,3,0
		c1.9-1,10-5.8,10-5.8s1-0.9-1.4-2S309,324,309,324C308.3,323.8,307.4,323.8,306.7,324.1z"/>
	<path id="Path_8792" class="st28" d="M315.3,302.1l54.6,32.6c0,0,3.7-0.6,4-2.4l8.1-41.3c0.2-1.1-0.3-2.3-1.3-2.8l-54.4-31
		c-2.3-1.2-5.1,0.3-5.1,0.3l-7.2,41.8C313.8,300.4,314.3,301.5,315.3,302.1z"/>
	<path id="Path_8793" class="st5" d="M312.6,302.5l55.2,31.9c1.3,0.7,2.9,0.3,3.6-1c0.1-0.2,0.2-0.5,0.3-0.8l8.5-40.8
		c0.2-1.1-0.3-2.2-1.3-2.8l-55-31.5c-1.3-0.7-2.9-0.3-3.6,1c-0.1,0.2-0.2,0.5-0.3,0.8l-8.5,40.4
		C311.1,300.8,311.6,301.9,312.6,302.5z"/>
	<path id="Path_8794" class="st21" d="M313,300.5l56.9,32.5l8.7-42.4l-56.7-32L313,300.5z"/>
	<path id="Path_8795" class="st28" d="M301.3,316.9l2.5,1.4c0.1,0,0.2,0,0.2,0l2.2-1.3c0.1,0,0.1-0.1,0-0.1l-2.5-1.4
		c-0.1,0-0.2,0-0.2,0l-2.2,1.3C301.2,316.8,301.2,316.9,301.3,316.9z"/>
	<path id="Path_8796" class="st28" d="M304.8,318.9l3.3,1.9c0.1,0,0.2,0,0.2,0l2.2-1.3c0.1,0,0.1-0.1,0-0.1l-3.3-1.9
		c-0.1,0-0.2,0-0.2,0l-2.2,1.3C304.8,318.8,304.8,318.8,304.8,318.9C304.8,318.9,304.8,318.9,304.8,318.9L304.8,318.9z"/>
	<path id="Path_8797" class="st28" d="M317.2,308.2l-2.1-1.2c-0.1,0-0.2,0-0.2,0l-1.1,0.6c-0.1,0,0,0.1,0,0.1l2.1,1.2
		c0.1,0,0.2,0,0.2,0l1.1-0.6C317.3,308.3,317.3,308.3,317.2,308.2C317.2,308.2,317.2,308.2,317.2,308.2z"/>
	<path id="Path_8798" class="st28" d="M297.1,314.6l3.2,1.8c0.1,0,0.2,0,0.2,0l2.2-1.3c0,0,0.1-0.1,0-0.1c0,0,0,0,0,0l-3.2-1.8
		c-0.1,0-0.2,0-0.2,0l-2.2,1.3C297,314.5,297,314.5,297.1,314.6z"/>
	<path id="Path_8799" class="st28" d="M314.9,309.3C315,309.3,315,309.3,314.9,309.3c0-0.1,0-0.1,0-0.1l-1.8-1c-0.1,0-0.2,0-0.2,0
		l-1.8,1.1c-0.1,0-0.1,0.1,0,0.1l1.8,1c0.1,0,0.2,0,0.2,0L314.9,309.3z"/>
	<path id="Path_8800" class="st28" d="M330.3,333.3l2.5,1.4c0.1,0,0.2,0,0.2,0l2.2-1.3c0.1,0,0.1-0.1,0-0.1l-2.5-1.5
		c-0.1,0-0.2,0-0.2,0l-2.2,1.3C330.3,333.1,330.2,333.1,330.3,333.3C330.2,333.2,330.3,333.3,330.3,333.3L330.3,333.3z"/>
	<path id="Path_8801" class="st28" d="M323.6,325.8l1.8,1c0.1,0,0.2,0,0.2,0l1.8-1.1c0,0,0.1-0.1,0-0.1c0,0,0,0,0,0l-1.8-1
		c-0.1,0-0.2,0-0.2,0l-1.8,1.1C323.5,325.7,323.5,325.8,323.6,325.8z"/>
	<path id="Path_8802" class="st28" d="M320.2,309.9l-2.1-1.2c-0.1,0-0.2,0-0.2,0l-1.1,0.6c-0.1,0-0.1,0.1,0,0.1l2.1,1.2
		c0.1,0,0.2,0,0.2,0l1.1-0.6C320.2,310,320.2,309.9,320.2,309.9z"/>
	<path id="Path_8803" class="st28" d="M331.3,330l1.8-1.1c0,0,0.1,0,0.1-0.1c0,0,0-0.1-0.1-0.1l-1.8-1c-0.1,0-0.2,0-0.2,0l-1.8,1.1
		c-0.1,0-0.1,0.1,0,0.1l1.8,1C331.1,330,331.2,330,331.3,330z"/>
	<path id="Path_8804" class="st28" d="M309.5,317.7c-0.1,0-0.1,0.1,0,0.1l1.8,1c0.1,0,0.2,0,0.2,0l1.8-1.1c0,0,0.1,0,0.1-0.1
		c0,0,0-0.1-0.1-0.1c0,0,0,0,0,0l-1.8-1c-0.1,0-0.2,0-0.2,0L309.5,317.7z"/>
	<path id="Path_8805" class="st28" d="M318.9,311.4c-0.1,0-0.2,0-0.2,0l-1.8,1.1c0,0-0.1,0.1,0,0.1c0,0,0,0,0,0l1.8,1
		c0.1,0,0.2,0,0.2,0l1.8-1.1c0,0,0.1-0.1,0-0.1c0,0,0,0,0,0L318.9,311.4z"/>
	<path id="Path_8806" class="st28" d="M349.5,326.3l-2.1-1.2c-0.1,0-0.2,0-0.2,0l-1.1,0.6c0,0-0.1,0.1,0,0.1c0,0,0,0,0,0l2.1,1.2
		c0.1,0,0.2,0,0.2,0l1.1-0.6C349.5,326.5,349.5,326.5,349.5,326.3C349.5,326.4,349.5,326.3,349.5,326.3L349.5,326.3z"/>
	<path id="Path_8807" class="st28" d="M314.1,320.5c0.1,0,0.2,0,0.2,0l1.8-1.1c0.1,0,0.1-0.1,0-0.1l-1.8-1c-0.1,0-0.2,0-0.2,0
		l-1.8,1.1c0,0-0.1,0.1,0,0.1c0,0,0,0,0,0L314.1,320.5z"/>
	<path id="Path_8808" class="st28" d="M334.8,318.1l-2.1-1.2c-0.1,0-0.2,0-0.2,0l-1,0.6c-0.1,0-0.1,0.1,0,0.1l2.1,1.2
		c0.1,0,0.2,0,0.2,0l1.1-0.6C334.9,318.2,334.9,318.1,334.8,318.1z"/>
	<path id="Path_8809" class="st28" d="M346.5,324.7l-2.1-1.2c-0.1,0-0.2,0-0.2,0l-1.1,0.6c0,0-0.1,0.1,0,0.1c0,0,0,0,0,0l2.1,1.2
		c0.1,0,0.2,0,0.2,0l1.1-0.6C346.6,324.8,346.6,324.7,346.5,324.7z"/>
	<path id="Path_8810" class="st28" d="M331.9,316.5l-2.1-1.2c-0.1,0-0.2,0-0.2,0l-1.1,0.6c-0.1,0-0.1,0.1,0,0.1l2.1,1.2
		c0.1,0,0.2,0,0.2,0l1.1-0.6C331.9,316.6,332,316.6,331.9,316.5C332,316.5,331.9,316.5,331.9,316.5z"/>
	<path id="Path_8811" class="st28" d="M337.8,319.8l-2.1-1.2c-0.1,0-0.2,0-0.2,0l-1.1,0.6c0,0-0.1,0.1,0,0.1c0,0,0,0,0,0l2.1,1.2
		c0.1,0,0.2,0,0.2,0l1.1-0.6C337.8,319.9,337.9,319.8,337.8,319.8z"/>
	<path id="Path_8812" class="st28" d="M343.6,323.1l-2.1-1.2c-0.1,0-0.2,0-0.2,0l-1.1,0.6c0,0-0.1,0.1,0,0.1c0,0,0,0,0,0l2.1,1.2
		c0.1,0,0.2,0,0.2,0l1.1-0.6C343.7,323.2,343.7,323.2,343.6,323.1C343.7,323.1,343.7,323.1,343.6,323.1L343.6,323.1z"/>
	<path id="Path_8813" class="st28" d="M340.7,321.4l-2.1-1.2c-0.1,0-0.2,0-0.2,0l-1.1,0.6c0,0-0.1,0.1,0,0.1c0,0,0,0,0,0l2.1,1.2
		c0.1,0,0.2,0,0.2,0l1.1-0.6C340.7,321.5,340.7,321.5,340.7,321.4C340.7,321.4,340.7,321.4,340.7,321.4z"/>
	<path id="Path_8814" class="st28" d="M328.2,328.4c0.1,0,0.2,0,0.2,0l1.8-1.1c0,0,0.1,0,0.1-0.1c0,0,0-0.1-0.1-0.1c0,0,0,0,0,0
		l-1.8-1c-0.1,0-0.2,0-0.2,0l-1.8,1.1c0,0-0.1,0.1,0,0.1c0,0,0,0,0,0L328.2,328.4z"/>
	<path id="Path_8815" class="st28" d="M348.8,340c0.1,0,0.2,0,0.2,0l1.8-1.1c0,0,0.1,0,0.1-0.1c0,0,0-0.1-0.1-0.1l-1.8-1
		c-0.1,0-0.2,0-0.2,0l-1.8,1.1c0,0-0.1,0.1,0,0.1c0,0,0,0,0,0L348.8,340z"/>
	<path id="Path_8816" class="st28" d="M351.5,336.1l-1.8,1.1c0,0-0.1,0.1,0,0.1c0,0,0,0,0,0l1.8,1c0.1,0,0.2,0,0.2,0l1.8-1.1
		c0.1,0,0.1-0.1,0-0.1l-1.8-1C351.6,336.1,351.5,336.1,351.5,336.1z"/>
	<path id="Path_8817" class="st28" d="M360.9,332.8l-1.8-1c-0.1,0-0.2,0-0.2,0l-1.1,0.6c-0.1,0-0.1,0.1,0,0.1l1.8,1
		c0.1,0,0.2,0,0.2,0l1.1-0.6C360.9,332.9,360.9,332.8,360.9,332.8z"/>
	<path id="Path_8818" class="st28" d="M343.8,340.9l1.9,1c0.1,0,0.2,0,0.2,0l2.2-1.3c0.1,0,0.1-0.1,0-0.1l-1.9-1c-0.1,0-0.2,0-0.2,0
		l-2.2,1.3C343.8,340.8,343.8,340.8,343.8,340.9z"/>
	<path id="Path_8819" class="st28" d="M354.1,333.6c0.1,0,0.2,0,0.2,0l1.8-1.1c0.1,0,0.1-0.1,0-0.1l-1.8-1c-0.1,0-0.2,0-0.2,0
		l-1.8,1.1c0,0-0.1,0.1,0,0.1c0,0,0,0,0,0L354.1,333.6z"/>
	<path id="Path_8820" class="st28" d="M354.2,334.5l-1.8,1.1c0,0-0.1,0.1,0,0.1c0,0,0,0,0,0l1.8,1c0.1,0,0.2,0,0.2,0l1.8-1.1
		c0,0,0.1,0,0.1-0.1c0,0,0-0.1-0.1-0.1c0,0,0,0,0,0l-1.8-1C354.4,334.4,354.3,334.4,354.2,334.5L354.2,334.5z"/>
	<path id="Path_8821" class="st28" d="M346.7,342.4l1.8,1c0.1,0,0.2,0,0.2,0l4.9-3c0.1,0,0.1-0.1,0-0.1l-1.8-1c-0.1,0-0.2,0-0.2,0
		l-4.9,3C346.7,342.3,346.6,342.4,346.7,342.4C346.7,342.4,346.7,342.4,346.7,342.4L346.7,342.4z"/>
	<path id="Path_8822" class="st28" d="M357.1,338.3c0.1,0,0.2,0,0.2,0l1.8-1.1c0.1,0,0.1-0.1,0-0.1l-1.8-1c-0.1,0-0.2,0-0.2,0
		l-1.8,1.1c0,0-0.1,0.1,0,0.1c0,0,0,0,0,0L357.1,338.3z"/>
	<path id="Path_8823" class="st28" d="M356.9,335.1c0.1,0,0.2,0,0.2,0l1.8-1.1c0.1,0,0.1-0.1,0-0.1l-1.8-1c-0.1,0-0.2,0-0.2,0
		l-1.8,1.1c0,0-0.1,0.1,0,0.1c0,0,0,0,0,0L356.9,335.1z"/>
	<path id="Path_8824" class="st28" d="M363.7,334.3l-1.8-1c-0.1,0-0.2,0-0.2,0l-1.1,0.6c-0.1,0-0.1,0.1,0,0.1l1.8,1
		c0.1,0,0.2,0,0.2,0l1.1-0.6C363.8,334.4,363.8,334.4,363.7,334.3z"/>
	<path id="Path_8825" class="st28" d="M359.7,336.7c0.1,0,0.2,0,0.2,0l1.8-1.1c0.1,0,0.1-0.1,0-0.1l-1.8-1c-0.1,0-0.2,0-0.2,0
		l-1.8,1.1c-0.1,0-0.1,0.1,0,0.1L359.7,336.7z"/>
	<path id="Path_8826" class="st28" d="M351.5,332.9l-1.8,1.1c0,0-0.1,0.1,0,0.1c0,0,0,0,0,0l1.8,1c0.1,0,0.2,0,0.2,0l1.8-1.1
		c0.1,0,0.1-0.1,0-0.1l-1.8-1C351.6,332.9,351.5,332.9,351.5,332.9z"/>
	<path id="Path_8827" class="st28" d="M352.5,338.9l1.8,1c0.1,0,0.2,0,0.2,0l1.8-1.1c0.1,0,0.1-0.1,0-0.1l-1.8-1c-0.1,0-0.2,0-0.2,0
		l-1.8,1.1C352.5,338.9,352.4,338.9,352.5,338.9z"/>
	<path id="Path_8828" class="st28" d="M338.1,337.7l4.8,2.6c0.1,0,0.2,0,0.2,0l2.2-1.3c0,0,0.1-0.1,0-0.1c0,0,0,0,0,0l-4.7-2.6
		c-0.1,0-0.2,0-0.2,0l-2.2,1.3L338.1,337.7z"/>
	<path id="Path_8829" class="st28" d="M351.4,329.7c-0.1,0-0.2,0-0.2,0l-1.8,1.1c0,0-0.1,0.1,0,0.1c0,0,0,0,0,0l1.8,1
		c0.1,0,0.2,0,0.2,0l1.8-1.1c0.1,0,0.1-0.1,0-0.1L351.4,329.7z"/>
	<path id="Path_8830" class="st28" d="M355.2,329.6l-1.9-1.1c-0.1,0-0.2,0-0.2,0l-1.1,0.6c-0.1,0-0.1,0.1,0,0.1l1.9,1.1
		c0.1,0,0.2,0,0.2,0l1.1-0.6C355.2,329.7,355.2,329.6,355.2,329.6z"/>
	<path id="Path_8831" class="st28" d="M358.1,331.2l-1.9-1.1c-0.1,0-0.2,0-0.2,0l-1.1,0.6c-0.1,0-0.1,0.1,0,0.1l1.9,1.1
		c0.1,0,0.2,0,0.2,0l1.1-0.6C358.1,331.3,358.1,331.3,358.1,331.2C358.1,331.2,358.1,331.2,358.1,331.2L358.1,331.2z"/>
	<path id="Path_8832" class="st28" d="M344.3,337.4l1.8,1c0.1,0,0.2,0,0.2,0l1.8-1.1c0.1,0,0.1-0.1,0-0.1l-1.8-1c-0.1,0-0.2,0-0.2,0
		l-1.8,1.1C344.2,337.2,344.2,337.3,344.3,337.4C344.2,337.3,344.2,337.4,344.3,337.4L344.3,337.4z"/>
	<path id="Path_8833" class="st28" d="M348.8,333.5l1.8-1.1c0.1,0,0.1-0.1,0-0.1l-1.8-1c-0.1,0-0.2,0-0.2,0l-1.8,1.1
		c-0.1,0-0.1,0.1,0,0.1l1.8,1C348.6,333.5,348.7,333.5,348.8,333.5z"/>
	<path id="Path_8834" class="st28" d="M348.7,334.6l-1.8,1.1c0,0-0.1,0.1,0,0.1c0,0,0,0,0,0l1.8,1c0.1,0,0.2,0,0.2,0l1.8-1.1
		c0.1,0,0.1-0.1,0-0.1l-1.8-1C348.8,334.5,348.7,334.5,348.7,334.6L348.7,334.6z"/>
	<path id="Path_8835" class="st28" d="M346,335.2l1.8-1.1c0.1,0,0.1-0.1,0-0.1l-1.8-1c-0.1,0-0.2,0-0.2,0L344,334c0,0-0.1,0.1,0,0.1
		c0,0,0,0,0,0l1.8,1C345.9,335.2,346,335.2,346,335.2L346,335.2z"/>
	<path id="Path_8836" class="st28" d="M341.4,335.7l1.8,1c0.1,0,0.2,0,0.2,0l1.8-1.1c0.1,0,0.1-0.1,0-0.1l-1.8-1c-0.1,0-0.2,0-0.2,0
		l-1.8,1.1C341.3,335.6,341.3,335.7,341.4,335.7z"/>
	<path id="Path_8837" class="st28" d="M300.2,312.7l5.4,3c0.1,0,0.2,0,0.2,0l1.8-1c0.1,0,0.1-0.1,0-0.1l-5.4-3c-0.1,0-0.2,0-0.2,0
		L300.2,312.7C300.2,312.6,300.2,312.6,300.2,312.7z"/>
	<path id="Path_8838" class="st28" d="M306.6,316.3l1.8,1c0.1,0,0.2,0,0.2,0l1.8-1.1c0,0,0.1-0.1,0-0.1c0,0,0,0,0,0l-1.8-1
		c-0.1,0-0.2,0-0.2,0l-1.8,1.1C306.5,316.2,306.5,316.2,306.6,316.3z"/>
	<path id="Path_8839" class="st28" d="M310.9,310l-3.2-1.8c-0.1,0-0.2,0-0.2,0l-1.8,1.1c-0.1,0-0.1,0.1,0,0.1l3.2,1.8
		c0.1,0,0.2,0,0.2,0l1.8-1.1C310.9,310.1,310.9,310.1,310.9,310C310.9,310,310.9,310,310.9,310L310.9,310z"/>
	<path id="Path_8840" class="st28" d="M330.5,326.6l1.8,1c0.1,0,0.2,0,0.2,0l1.8-1.1c0.1,0,0.1-0.1,0-0.1l-1.8-1c-0.1,0-0.2,0-0.2,0
		l-1.8,1.1C330.4,326.5,330.4,326.5,330.5,326.6z"/>
	<path id="Path_8841" class="st28" d="M313.6,317l1.8,1c0.1,0,0.2,0,0.2,0l1.8-1.1c0.1,0,0.1-0.1,0-0.1l-1.8-1c-0.1,0-0.2,0-0.2,0
		l-1.8,1.1C313.5,316.9,313.5,317,313.6,317C313.5,317,313.5,317,313.6,317L313.6,317z"/>
	<path id="Path_8842" class="st28" d="M313.7,311.6l-1.8-1c-0.1,0-0.2,0-0.2,0l-1.8,1.1c-0.1,0-0.1,0.1,0,0.1l1.8,1
		c0.1,0,0.2,0,0.2,0l1.8-1.1C313.8,311.7,313.8,311.6,313.7,311.6C313.8,311.6,313.7,311.6,313.7,311.6L313.7,311.6z"/>
	<path id="Path_8843" class="st28" d="M337.6,321.9l-1.8-1c-0.1,0-0.2,0-0.2,0l-1.8,1.1c0,0-0.1,0.1,0,0.1c0,0,0,0,0,0l1.8,1
		c0.1,0,0.2,0,0.2,0l1.8-1.1C337.7,322,337.7,322,337.6,321.9z"/>
	<path id="Path_8844" class="st28" d="M340.5,323.5l-1.8-1c-0.1,0-0.2,0-0.2,0l-1.8,1.1c-0.1,0-0.1,0.1,0,0.1l1.8,1
		c0.1,0,0.2,0,0.2,0l1.8-1.1C340.5,323.6,340.5,323.6,340.5,323.5C340.5,323.6,340.5,323.5,340.5,323.5L340.5,323.5z"/>
	<path id="Path_8845" class="st28" d="M343.3,325.1l-1.8-1c-0.1,0-0.2,0-0.2,0l-1.8,1.1c0,0-0.1,0.1,0,0.1c0,0,0,0,0,0l1.8,1
		c0.1,0,0.2,0,0.2,0l1.8-1.1C343.4,325.2,343.4,325.2,343.3,325.1z"/>
	<path id="Path_8846" class="st28" d="M321.7,312.9c-0.1,0-0.2,0-0.2,0l-1.8,1.1c-0.1,0-0.1,0.1,0,0.1l1.8,1c0.1,0,0.2,0,0.2,0
		l1.8-1.1c0.1,0,0.1-0.1,0-0.1L321.7,312.9z"/>
	<path id="Path_8847" class="st28" d="M346.1,326.7l-1.8-1c-0.1,0-0.2,0-0.2,0l-1.8,1.1c0,0-0.1,0.1,0,0.1c0,0,0,0,0,0l1.8,1
		c0.1,0,0.2,0,0.2,0l1.8-1.1C346.2,326.8,346.2,326.7,346.1,326.7z"/>
	<path id="Path_8848" class="st28" d="M332,318.7l-1.8-1c-0.1,0-0.2,0-0.2,0l-1.8,1.1c-0.1,0-0.1,0.1,0,0.1l1.8,1c0.1,0,0.2,0,0.2,0
		l1.8-1.1L332,318.7z"/>
	<path id="Path_8849" class="st28" d="M334.8,320.3l-1.8-1c-0.1,0-0.2,0-0.2,0l-1.8,1.1c-0.1,0-0.1,0.1,0,0.1l1.8,1
		c0.1,0,0.2,0,0.2,0l1.8-1.1C334.9,320.4,334.9,320.4,334.8,320.3z"/>
	<path id="Path_8850" class="st28" d="M332,330.6l1.8,1c0.1,0,0.2,0,0.2,0l1.8-1.1c0,0,0.1-0.1,0-0.1c0,0,0,0,0,0l-1.8-1
		c-0.1,0-0.2,0-0.2,0l-1.8,1.1V330.6z"/>
	<path id="Path_8851" class="st28" d="M326.1,330.9l3.2,1.8c0.1,0,0.2,0,0.2,0l2.2-1.3c0.1,0,0.1-0.1,0-0.1l-3.2-1.8
		c-0.1,0-0.2,0-0.2,0l-2.2,1.3C326,330.8,326,330.8,326.1,330.9z"/>
	<path id="Path_8852" class="st28" d="M309,321.3l16.1,9.1c0.1,0,0.2,0,0.2,0l2.2-1.3c0.1,0,0-0.1,0-0.1l-16.1-9.1
		c-0.1,0-0.2,0-0.2,0l-2.2,1.3C309,321.2,309,321.2,309,321.3z"/>
	<path id="Path_8853" class="st28" d="M310.4,306.6c-0.1,0-0.2,0-0.2,0l-1.8,1.1v0.1l1.8,1c0.1,0,0.2,0,0.2,0l1.8-1.1
		c0,0,0.1-0.1,0-0.1c0,0,0,0,0,0L310.4,306.6z"/>
	<path id="Path_8854" class="st28" d="M314.3,306.5l-2.1-1.2c-0.1,0-0.2,0-0.2,0l-1.1,0.6c0,0-0.1,0.1,0,0.1c0,0,0,0,0,0l2.1,1.2
		c0.1,0,0.2,0,0.2,0l1.1-0.6C314.3,306.6,314.3,306.6,314.3,306.5z"/>
	<path id="Path_8855" class="st28" d="M352.4,328l-2.1-1.2c-0.1,0-0.2,0-0.2,0l-1.1,0.6c-0.1,0-0.1,0.1,0,0.1l2.1,1.2
		c0.1,0,0.2,0,0.2,0l1.1-0.6C352.5,328.1,352.5,328,352.4,328z"/>
	<path id="Path_8856" class="st28" d="M333.8,335.3l3.3,1.9c0.1,0,0.2,0,0.2,0l2.2-1.3c0,0,0.1-0.1,0-0.1c0,0,0,0,0,0l-3.3-1.9
		c-0.1,0-0.2,0-0.2,0l-2.2,1.3C333.8,335.1,333.8,335.1,333.8,335.3C333.8,335.2,333.8,335.3,333.8,335.3L333.8,335.3L333.8,335.3z"
		/>
	<path id="Path_8857" class="st28" d="M326,313.1l-2.1-1.2c-0.1,0-0.2,0-0.2,0l-1.1,0.6c-0.1,0-0.1,0.1,0,0.1l2.1,1.2
		c0.1,0,0.2,0,0.2,0l1.1-0.6C326,313.3,326.1,313.3,326,313.1C326.1,313.2,326,313.1,326,313.1L326,313.1z"/>
	<path id="Path_8858" class="st28" d="M324.5,314.5c-0.1,0-0.2,0-0.2,0l-1.8,1.1c0,0-0.1,0.1,0,0.1c0,0,0,0,0,0l1.8,1
		c0.1,0,0.2,0,0.2,0l1.8-1.1c0.1,0,0.1-0.1,0-0.1L324.5,314.5z"/>
	<path id="Path_8859" class="st28" d="M328.9,314.8l-2.1-1.2c-0.1,0-0.2,0-0.2,0l-1.1,0.6c0,0-0.1,0.1,0,0.1c0,0,0,0,0,0l2.1,1.2
		c0.1,0,0.2,0,0.2,0l1.1-0.6C329,314.9,329,314.8,328.9,314.8C328.9,314.8,328.9,314.8,328.9,314.8L328.9,314.8z"/>
	<path id="Path_8860" class="st28" d="M316.1,309.8c-0.1,0-0.2,0-0.2,0l-1.8,1.1c0,0-0.1,0.1,0,0.1c0,0,0,0,0,0l1.8,1
		c0.1,0,0.2,0,0.2,0l1.8-1.1c0.1,0,0.1-0.1,0-0.1L316.1,309.8z"/>
	<path id="Path_8861" class="st28" d="M327.4,316.1c-0.1,0-0.2,0-0.2,0l-1.8,1.1c0,0-0.1,0.1,0,0.1c0,0,0,0,0,0l1.8,1
		c0.1,0,0.2,0,0.2,0l1.8-1.1c0,0,0.1,0,0.1-0.1c0,0,0-0.1-0.1-0.1L327.4,316.1z"/>
	<path id="Path_8862" class="st28" d="M323.1,311.5l-2.1-1.2c-0.1,0-0.2,0-0.2,0l-1.1,0.6c0,0-0.1,0.1,0,0.1c0,0,0,0,0,0l2.1,1.2
		c0.1,0,0.2,0,0.2,0l1.1-0.6c0.1,0,0.1,0,0.1-0.1S323.2,311.5,323.1,311.5L323.1,311.5z"/>
	<path id="Path_8863" class="st28" d="M334.9,332.2l5.4,3c0.1,0,0.2,0,0.2,0l1.8-1.1c0.1,0,0.1-0.1,0-0.1l-5.4-3c-0.1,0-0.2,0-0.2,0
		l-1.8,1.1C334.9,332.1,334.9,332.1,334.9,332.2C334.9,332.2,334.9,332.2,334.9,332.2L334.9,332.2z"/>
	<path id="Path_8864" class="st28" d="M318.4,316.6l1.8,1c0.1,0,0.2,0,0.2,0l1.8-1.1c0.1,0,0.1-0.1,0-0.1l-1.8-1c-0.1,0-0.2,0-0.2,0
		l-1.8,1.1C318.3,316.4,318.3,316.4,318.4,316.6C318.3,316.5,318.3,316.6,318.4,316.6L318.4,316.6z"/>
	<path id="Path_8865" class="st28" d="M319.4,314.9c0.1,0,0.1-0.1,0-0.1l-1.8-1c-0.1,0-0.2,0-0.2,0l-1.8,1.1c0,0-0.1,0-0.1,0.1
		c0,0,0,0.1,0.1,0.1l1.8,1c0.1,0,0.2,0,0.2,0L319.4,314.9z"/>
	<path id="Path_8866" class="st28" d="M342,327.5l-1.8-1c-0.1,0-0.2,0-0.2,0l-1.8,1.1c0,0-0.1,0.1,0,0.1c0,0,0,0,0,0l1.8,1
		c0.1,0,0.2,0,0.2,0l1.8-1.1C342.1,327.6,342.1,327.5,342,327.5z"/>
	<path id="Path_8867" class="st28" d="M320.8,324.2l1.8,1c0.1,0,0.2,0,0.2,0l1.8-1.1V324l-1.8-1c-0.1,0-0.2,0-0.2,0l-1.8,1.1
		C320.7,324.1,320.7,324.2,320.8,324.2C320.7,324.2,320.7,324.2,320.8,324.2L320.8,324.2z"/>
	<path id="Path_8868" class="st28" d="M333.3,328.2l1.8,1c0.1,0,0.2,0,0.2,0l1.8-1.1c0,0,0.1-0.1,0-0.1c0,0,0,0,0,0l-1.8-1
		c-0.1,0-0.2,0-0.2,0l-1.8,1.1C333.3,328.1,333.3,328.1,333.3,328.2z"/>
	<path id="Path_8869" class="st28" d="M336.2,329.8l1.8,1c0.1,0,0.2,0,0.2,0l1.8-1.1c0.1,0,0.1-0.1,0-0.1l-1.8-1c-0.1,0-0.2,0-0.2,0
		l-1.8,1.1C336.1,329.7,336.1,329.7,336.2,329.8C336.2,329.8,336.2,329.8,336.2,329.8z"/>
	<path id="Path_8870" class="st28" d="M344.8,329.1l-1.8-1c-0.1,0-0.2,0-0.2,0l-1.8,1.1v0.1l1.8,1c0.1,0,0.2,0,0.2,0l1.8-1.1
		C344.8,329.3,344.9,329.1,344.8,329.1z"/>
	<path id="Path_8871" class="st28" d="M316.6,313.2l-1.8-1c-0.1,0-0.2,0-0.2,0l-1.8,1.1c0,0-0.1,0.1,0,0.1c0,0,0,0,0,0l1.8,1
		c0.1,0,0.2,0,0.2,0l1.8-1.1C316.6,313.3,316.6,313.2,316.6,313.2z"/>
	<path id="Path_8872" class="st28" d="M310.7,315.5l1.8,1c0.1,0,0.2,0,0.2,0l1.8-1.1c0.1,0,0.1-0.1,0-0.1l-1.8-1c-0.1,0-0.2,0-0.2,0
		l-1.8,1.1C310.7,315.4,310.7,315.4,310.7,315.5z"/>
	<path id="Path_8873" class="st28" d="M315.1,321l1.8,1c0.1,0,0.2,0,0.2,0l1.8-1.1c0,0,0.1-0.1,0-0.1c0,0,0,0,0,0l-1.8-1
		c-0.1,0-0.2,0-0.2,0l-1.8,1.1C315,320.9,315,321,315.1,321z"/>
	<path id="Path_8874" class="st28" d="M302.9,311l4,2.2c0.1,0,0.2,0,0.2,0l1.7-1c0.1,0,0.1-0.1,0-0.1l-3.9-2.3c-0.1,0-0.2,0-0.2,0
		l-1.8,1.1C302.8,310.9,302.8,310.9,302.9,311C302.9,311,302.9,311,302.9,311L302.9,311z"/>
	<path id="Path_8875" class="st28" d="M317.9,322.6l1.8,1c0.1,0,0.2,0,0.2,0l1.8-1.1c0,0,0.1-0.1,0-0.1c0,0,0,0,0,0l-1.8-1
		c-0.1,0-0.2,0-0.2,0l-1.8,1.1C317.8,322.5,317.8,322.6,317.9,322.6z"/>
	<path id="Path_8876" class="st28" d="M307.9,313.8l1.8,1c0.1,0,0.2,0,0.2,0l1.8-1.1c0,0,0.1-0.1,0-0.1c0,0,0,0,0,0l-1.8-1
		c-0.1,0-0.2,0-0.2,0l-1.8,1.1C307.8,313.7,307.8,313.8,307.9,313.8z"/>
	<path id="Path_8877" class="st28" d="M335.3,326.1l1.8,1c0.1,0,0.2,0,0.2,0l1.8-1.1c0.1,0,0.1-0.1,0-0.1l-1.8-1c-0.1,0-0.2,0-0.2,0
		l-1.8,1.1C335.3,326,335.3,326,335.3,326.1C335.3,326.1,335.3,326.1,335.3,326.1L335.3,326.1z"/>
	<path id="Path_8878" class="st28" d="M319.2,320.2l1.8,1c0.1,0,0.2,0,0.2,0l1.8-1.1c0.1,0,0-0.1,0-0.1l-1.8-1c-0.1,0-0.2,0-0.2,0
		l-1.8,1.1C319.1,320.1,319.1,320.2,319.2,320.2z"/>
	<path id="Path_8879" class="st28" d="M324.9,323.4l1.8,1c0.1,0,0.2,0,0.2,0l1.8-1.1c0.1,0,0.1-0.1,0-0.1l-1.8-1c-0.1,0-0.2,0-0.2,0
		l-1.8,1.1C324.8,323.3,324.8,323.3,324.9,323.4C324.8,323.4,324.9,323.4,324.9,323.4L324.9,323.4z"/>
	<path id="Path_8880" class="st28" d="M322,321.8l1.8,1c0.1,0,0.2,0,0.2,0l1.8-1.1c0.1,0,0.1-0.1,0-0.1l-1.8-1c-0.1,0-0.2,0-0.2,0
		l-1.8,1.1C322,321.7,322,321.7,322,321.8C322,321.8,322,321.8,322,321.8L322,321.8z"/>
	<path id="Path_8881" class="st28" d="M327.7,325l1.8,1c0.1,0,0.2,0,0.2,0l1.8-1.1c0.1,0,0.1-0.1,0-0.1l-1.8-1c-0.1,0-0.2,0-0.2,0
		l-1.8,1.1C327.6,324.9,327.6,325,327.7,325z"/>
	<path id="Path_8882" class="st28" d="M342.9,333.6c0.1,0,0.2,0,0.2,0l1.8-1.1c0.1,0,0.1-0.1,0-0.1l-3.9-2.2c-0.1,0-0.2,0-0.2,0
		l-1.8,1.1c0,0-0.1,0.1,0,0.1c0,0,0,0,0,0L342.9,333.6z"/>
	<path id="Path_8883" class="st28" d="M345.6,331.9c0.1,0,0.2,0,0.2,0l1.8-1.1c0.1,0,0.1-0.1,0-0.1l-1.8-1c-0.1,0-0.2,0-0.2,0
		l-1.8,1.1c0,0-0.1,0.1,0,0.1c0,0,0,0,0,0L345.6,331.9z"/>
	<path id="Path_8884" class="st28" d="M327.9,319.6l-1.8-1c-0.1,0-0.2,0-0.2,0l-1.8,1.1c-0.1,0-0.1,0.1,0,0.1l1.8,1
		c0.1,0,0.2,0,0.2,0l1.8-1.1C327.9,319.7,327.9,319.6,327.9,319.6z"/>
	<path id="Path_8885" class="st28" d="M330.7,321.2l-1.8-1c-0.1,0-0.2,0-0.2,0l-1.8,1.1c-0.1,0-0.1,0.1,0,0.1l1.8,1
		c0.1,0,0.2,0,0.2,0l1.8-1.1C330.7,321.3,330.8,321.2,330.7,321.2C330.7,321.2,330.7,321.2,330.7,321.2L330.7,321.2z"/>
	<path id="Path_8886" class="st28" d="M316.4,318.6l1.8,1c0.1,0,0.2,0,0.2,0l1.8-1.1c0,0,0.1-0.1,0-0.1c0,0,0,0,0,0l-1.8-1
		c-0.1,0-0.2,0-0.2,0l-1.8,1.1C316.3,318.5,316.3,318.6,316.4,318.6z"/>
	<path id="Path_8887" class="st28" d="M325,317.9l-1.8-1c-0.1,0-0.2,0-0.2,0l-1.8,1.1c-0.1,0-0.1,0.1,0,0.1l1.8,1c0.1,0,0.2,0,0.2,0
		l1.8-1.1C325.1,318,325.1,318,325,317.9z"/>
	<path id="Path_8888" class="st28" d="M333.5,322.7l-1.8-1c-0.1,0-0.2,0-0.2,0l-1.8,1.1c0,0-0.1,0.1,0,0.1c0,0,0,0,0,0l1.8,1
		c0.1,0,0.2,0,0.2,0l1.8-1.1C333.6,322.8,333.6,322.8,333.5,322.7z"/>
	<path id="Path_8889" class="st28" d="M350.4,329.1l-3.4-1.9c-0.1,0-0.2,0-0.2,0l-1.8,1.1c0,0-0.1,0.1,0,0.1c0,0,0,0,0,0l3.4,1.9
		c0.1,0,0.2,0,0.2,0l1.8-1.1C350.5,329.2,350.5,329.2,350.4,329.1z"/>
	<path id="Path_8890" class="st28" d="M332.5,324.5l1.8,1c0.1,0,0.2,0,0.2,0l1.8-1.1c0.1,0,0.1-0.1,0-0.1l-1.8-1c-0.1,0-0.2,0-0.2,0
		l-1.8,1.1C332.4,324.4,332.4,324.4,332.5,324.5z"/>
	<path id="Path_8891" class="st29" d="M364.4,341.1l-1.9,1v1.1l1.9-1V341.1z"/>
	<path id="Path_8892" class="st29" d="M365.4,340.6v1.1l1.7-0.9v-1L365.4,340.6z"/>
	<path id="Path_8893" class="st29" d="M322.1,349.8v0.5l8.5,5v-0.6L322.1,349.8z"/>
	<path id="Path_8894" class="st29" d="M282.2,326.4v0.5l8.5,5v-0.6L282.2,326.4z"/>
	<path id="Path_8895" class="st5" d="M371.8,311l4.2-19.2l-29.7-16.6l-4.2,19.2L371.8,311z"/>
	<path id="Path_8896" class="st30" d="M368.4,327.9l3.3-15.3L350.8,301l-3.3,15.3L368.4,327.9z"/>
	<path id="Path_8897" class="st30" d="M341.2,285.3l2.6-11.6l-20.1-11.1l-2.6,11.5L341.2,285.3z"/>
	<path id="Path_8898" class="st11" d="M335.7,309.7l4.9-21.5L320.4,277l-4.9,21.4L335.7,309.7z"/>
	<path id="Path_8899" class="st31" d="M348.5,299.9l-7-4l-2,9.8l7,4L348.5,299.9z"/>
	<path id="Path_8900" class="st32" d="M346.1,310.8l-7-4l-0.9,4l7,4L346.1,310.8z"/>
	<path id="Path_8901" class="st10" d="M156.7,407.3c-0.3,0.1-6.5,1.2-6.5,5.5s0.4,15.1,0.4,15.1s2.1,5.9,16.6-0.4s8.4,0.5,20-4.5
		s10.8-7.1,9.2-10.2s-14.1-0.6-17.6-1.6S162.9,404.4,156.7,407.3z"/>
	<path id="Path_8902" class="st8" d="M162.4,410.5c0,0-0.8,2.3-4.7,2.3s-4.2-2.3-4.2-2.3l-0.7-15.7h10.3L162.4,410.5z"/>
	<path id="Path_8903" class="st9" d="M199.4,426.6c0,0-6,0.3-6.5,4.1s-0.9,15.1-0.9,15.1s-1.5,5.4,6.3,6.1s9.6-2.3,15.9-2.6
		s23.5,1,27.3-1s5.9-8.8-7.1-10.5c-8.3-1.1-19.8-6.4-19.8-6.4S203.4,425.7,199.4,426.6z"/>
	<path id="Path_8904" class="st8" d="M204.3,429.9c0,0-0.6,2.4-4.5,2.4s-4.5-2.4-4.5-2.4l-2.4-16.3h10.3L204.3,429.9z"/>
	<path id="Path_8905" class="st16" d="M159.2,241.2c0,0-16.3,11.5-14.9,33c0.6,9.8,4.3,14.5,6.8,19.8c4.5,9.3,7.2,16.9,7.4,36.1
		c-11.5,20.4-6.8,72-6.8,72s1.9,2.4,6.5,1.5c2.5-0.3,4.8-1.5,6.5-3.4c0,0,4-38,14-61.5c4.1-29.2-1.8-76.4-1.8-76.4L159.2,241.2z"/>
	<path id="Path_8906" class="st11" d="M190.2,272.4l-2.4,7.6c0,0,13.3,25.6,16,66.4c-2.4,16.7,2.2,76.4,2.2,76.4s-11,2.6-13.4,0.9
		c-1-19.3-18.8-55-10.2-67.4c-6.4-13.6-21.7-54.8-21.7-54.8s-16.5-9.1-16.3-29.1c0.1-18.1,15.1-27.6,15.1-27.6L190.2,272.4z"/>
	<path id="Path_8907" class="st13" d="M297.1,246l5.1,5.7c0.4,0.5,0.6,1.1,0.4,1.7l-0.3,1.2c-0.2,0.7-0.8,1.3-1.6,1.4l-5.2,0.7
		c-0.3-1.5,0.6-2.9,2.1-3.2c0.1,0,0.1,0,0.2,0l-1.3-0.7c-2.9-0.6-3.3,0.2-6.6-2.1S297.1,246,297.1,246z"/>
	<path id="Path_8908" class="st8" d="M287.4,243.4l-3.6,7.1l3.1,2.1l2.8,2.8l8.5,4.8c1-0.9,1.2-2.4,0.3-3.4
		c-0.1-0.2-0.3-0.3-0.4-0.4c-2.1-1.9-5.7-2.8-5.1-4.4c0.8-2.1,5.1-0.8,5.1-0.8l7.5,3.5c0,0,6.6,3.7,8.9,0.4c-2.8-1.2-5.6-2.5-8.3-4
		l-9-5l-6.9-1.7L287.4,243.4z"/>
	<path id="Path_8909" class="st11" d="M289.5,243.3l-4.6,8.4l-46.4-17.3l-34-35.6c0,0-8.3-9.8-1.7-16.9c3.3-4.1,9.4-4.7,13.4-1.3
		l31.2,41.3L289.5,243.3z"/>
	<path id="Path_8910" class="st16" d="M206,200.4l7.8,8.2c4.5-10,2.2-20.9,2.2-20.9L206,200.4z"/>
	<path id="Path_8911" class="st33" d="M211,176.1c5.5,3.7,5.1,15.5,3.5,22.6s-2.2,11,0,16.4s-2.4,16.7-6.9,21.3s-7,5.5-12.7,5.8
		c-2.8,11.3-2.1,24.7-4.5,29.7c-2.4,4.9-16.6,1.1-24.2-6c-7.5-7.1-10-18.1-8.5-22.9s9.5,0.9,11.8-32.4c0.8-10.8,8.1-17.2,13.4-22.8
		C193.9,176.3,206.8,173.4,211,176.1z"/>
	<path id="Path_8912" class="st16" d="M193.9,183.6c0,0-8.1,10.1-7.3,13.7s17.9,18.2,20.6,23.5c3.5-0.9,3.8-22.2,2.9-25.8
		S203.6,173,193.9,183.6z"/>
	<path id="Path_8913" class="st13" d="M195.4,185.4c0,0-7.1,8.8-6.4,12s16.2,15.8,18.1,20.8c2.4-2.3,3.3-19.5,2.5-22.7
		S204,176.1,195.4,185.4z"/>
	<path id="Path_8914" class="st13" d="M217.4,191.5l-10.6,7.7c-2,1.5-4.7,1.9-7.1,1c-2-0.8-3.4-2.6-3.7-4.7c-1-6.4,3.4-8.8,3.4-8.8
		l11.4-7.2l10.6,8.1L217.4,191.5z"/>
	<path id="Path_8915" class="st8" d="M235.7,161.1c1.9,2,3,4.5,3.4,7.2c0,2.9-0.6,5.8-1.7,8.6c0,0-2.2,3.5-2.2,6.4
		s-2.8,10.6-6.1,11.8s-13.7-0.5-14.4-8s5.5-18.9,5.5-18.9L235.7,161.1z"/>
	<path id="Path_8916" class="st7" d="M226.9,151.4c11-2.4,18.1,13.4,12.8,18.2c-2,1.8-8.5-1-9,0.5s-2.1,8-3.2,8.8s-4.4,0-6.6,1.7
		s-2.4,2.9-4.9,2.7s-9.1,4.5-18.3-1.5c-5-3.2-8.4-12.2-2.4-24.3S217.1,142.2,226.9,151.4z"/>
	<path id="Path_8917" class="st8" d="M214.9,182.8l0.3,3.4c0,0,0.1,1.6-0.8,1.7s-4.6-2.4-5.1-4.8c-0.4-1.5,0.4-3,1.8-3.4
		c0.2-0.1,0.4-0.1,0.5-0.1C213.3,179.5,214.7,180.5,214.9,182.8z"/>
	<path id="Path_8918" class="st13" d="M234.7,179.7c0,0,1.6,4.7,2.4,6.3s-3.3,2.1-4.3,1.9S233.4,179.6,234.7,179.7z"/>
	<path id="Path_8919" class="st16" d="M193,216.1c5.1,9.2,9.8,13.1,10.7,19.3s-4.1,6.7-4.1,6.7l-10.7-9
		C188.9,233.1,187.9,206.9,193,216.1z"/>
	<path id="Path_8920" class="st16" d="M193.8,234.9c0,0-22.7-25.5-23.7-19.7s3.1,16.9,6.4,24.8c2.8,6.7,0,25.9-1,31.8
		c6.6,2.8,13.4,3.4,15,0.1c2.4-4.9,1.6-18.4,4.5-29.7c1.1-0.1,2.2-0.2,3.1-0.3L193.8,234.9z"/>
	<path id="Path_8921" class="st8" d="M227.8,310.7c0,0,4.1,5.3,7.1,5.7s13.5-2.8,13.5-2.8l4.5-2.7c0,0,3,0,3.4-1.6l-4.1-0.1
		l-3.3,1.4c-0.2-0.8,4.3-2.4,4.3-2.4s4.5,0.1,4.5-1.2c-1.6-0.1-4.8-0.4-4.8-0.4l-5.2,1.9c-0.4-0.8,4.7-3.4,4.7-3.4s4.9,0.9,5-1.2
		c-1.4,0-5.7-0.3-5.7-0.3l-6.3,2.2c-0.3-0.6,4.4-2.8,4.4-2.8s4.9,0.6,4.7-1.1c-1.8-0.1-3.5-0.3-5.3-0.6l-5.8,2.2
		c0,0-4.9,2.4-5.9,1.4s3.1-2.6,3.1-2.6c1.4,0.6,3.1,0.2,4-1.1c-1.6-0.1-3.2-0.5-4.8-1c-0.2-0.1-0.4-0.1-0.5,0l-3.7,1.7
		c-0.8,0.4-1.4,1-1.8,1.7l-2,3.9L227.8,310.7z"/>
	<path id="Path_8922" class="st11" d="M176.4,206.5c-4.9,2-8.8,7.2-4.4,16.4s18.2,39.3,24.9,49.7s30.3,39.8,30.3,39.8
		s3.8,1.5,5.8-1.3c1.1-1.7,1.3-4,0.4-5.8l-25-41.2c0,0-13.1-41.6-16.2-50.4S181.3,204.4,176.4,206.5z"/>
	<path id="Path_8923" class="st21" d="M282.1,468l10.1-2.1l4,0.4c0,0,10.2-4.2,14-3.7c3.5,0.5,3.9,2.4,4,5.8
		c-5.2,7.4-10.3,8.2-15.2,12.2c-4.1,3.3-4.9,5.5-8.4,7.1c-7.8,3.5-10.1-1.3-10.1-1.3S276.6,469.3,282.1,468z"/>
	<path id="Path_8924" class="st8" d="M312.9,481.7v10c0,0,1.3,2.4,5.9,2.2s4.8-3.3,4.8-3.3v-12.1L312.9,481.7z"/>
	<path id="Path_8925" class="st8" d="M282.1,459.6v10c0,0,1.3,2.4,5.9,2.2s4.8-3.3,4.8-3.3v-12.1L282.1,459.6z"/>
	<path id="Path_8926" class="st19" d="M297.5,430.8l-110.7,4.6l20.3,71.2c0,0.5,0.1,1,0.3,1.4l0,0c0.3,0.6,0.7,1.1,1.2,1.4
		l27.4,16.2c3.1,1.8,6.9,1.8,9.9-0.1l29.8-18.7c0.7-0.4,1.2-1.1,1.4-1.9h0.1L297.5,430.8z"/>
	<path id="Path_8927" class="st23" d="M189.4,430.1l49.7-28.1c4.7-2.6,10.4-2.6,15,0.1l40.9,24c2.4,1.4,3.3,4.5,1.8,7
		c-0.4,0.7-1,1.3-1.7,1.8l-47,29.5c-4.8,3-10.8,3.1-15.6,0.2l-43.2-25.5c-2.4-1.4-3.2-4.6-1.8-7
		C187.9,431.2,188.6,430.5,189.4,430.1L189.4,430.1z"/>
	<path id="Path_8928" class="st7" d="M224.3,437.3c0,0-17.6,0-17.6-22.7c0-17.8,12.9-22.8,12.9-22.8s56.1-9.1,61.2-7.4
		s7.2,8.2,6.9,22.6c-0.3,11.9,6.5,49,6.1,53.2s-7.8,6.2-12.5,3.4c-3.7-23.1-23.1-31.8-15.4-51.2C255,427.1,224.3,437.3,224.3,437.3z
		"/>
	<path id="Path_8929" class="st19" d="M253.2,461.1v59.8l22.5-14.1c0.7-0.4,1.2-1.1,1.4-1.9h0.1l20.3-74.1L253.2,461.1z"/>
	<path id="Path_8930" class="st23" d="M295,426.1l-40.9-23.9c-0.3-0.2-0.6-0.3-0.9-0.5v59.4l41.9-26.3c2.4-1.5,3.1-4.6,1.6-7
		C296.3,427.1,295.7,426.5,295,426.1L295,426.1z"/>
	<g id="Group_7339" transform="translate(200.369 422.368)" class="st0">
		<path id="Path_8931" class="st1" d="M80.4,13.7c-0.1-0.4-0.3-0.7-0.6-1C73.5,6.8,64,3.8,55.9,1.5c-0.8-0.2-1.7-0.5-2.5-0.7
			C40.3,9.5,24,14.9,24,14.9S10.7,14.9,7.2,0L6.4,0.3c-4.4,2-8.7,7.1-5,11.7c4.7,6,14.3,6.4,20.6,9.6c7.1,3.7,13.8,6.2,22,6.3
			c9.2,0.1,18.3-2.5,26.9-5.8C73.9,21,83.3,19,80.4,13.7L80.4,13.7z"/>
	</g>
	<path id="Path_8932" class="st10" d="M223.8,402c-11.8,4.7-16.4,38.7,13.2,43c30,4.4,67.9-23.4,67.9-23.4s-4.8,9.6-1.2,25.4
		c2.3,10.5,7.6,26.4,7.9,35c6.4,4.4,13,0.2,13,0.2s2.2-51.7,3.5-67.1c1.5-18.6-6.9-21-19.9-19.8c-11,1-57.5,6.3-57.5,6.3
		S237.3,396.7,223.8,402z"/>
	<path id="Path_8933" class="st13" d="M299.8,313.5l7.2-0.6c0.1,0,7.3,1.9,7.3,1.9c-0.3,1-1.3,1.6-2.3,1.3l-6.1-0.7l-8.9,1
		L299.8,313.5z"/>
	<path id="Path_8934" class="st13" d="M311.3,314.6l-10.7,0.4l0.5,2.4l9.5-0.2c0,0,4.8,1.2,6,1.3s2-1.6,2-1.6
		S311.4,314.5,311.3,314.6"/>
	<path id="Path_8935" class="st8" d="M294.7,329c0,0,6.7,1.4,6.9,1.4s4.1-0.9,4.1-0.9l3.8-2.7c0,0-0.8-2.8-4.4-0.3l-3,0.5
		c-1.1,0-1.5-1.1-1.1-2.1s2.8-1.5,2.8-1.5l5.8-0.6c0,0,4.7,0.8,7.2,1s2.6-1.5,2.6-1.5l-8.4-2.1l-5.5-0.4l5.9-0.8
		c2,0.7,4,1.2,6.1,1.4c1.2,0.1,2.2-0.6,2.6-1.7l-7.3-2.1l-9.4-0.1c-0.8,0,0-1.1-1.7-1.3c-1.1-0.2-1.3-0.7-2.6-0.8
		c-0.7,0-3.5,1.6-5.3,2.6c-0.5,0.3-4.3,4.3-4.5,4.3l-2.9,1.2c0,0,1.8,7.3,1.8,7.6S294.7,329,294.7,329z"/>
	<path id="Path_8936" class="st8" d="M231.7,313.1c4,1.6,21.3,20.9,21.3,20.9l36.4-12.9l1.7,8c0,0-37.6,22.2-44.6,19.1
		s-28.3-11.3-30.6-20.1c-1.2-4.9-2-8.5,2.1-12.8S228,311.6,231.7,313.1z"/>
	<path id="Path_8937" class="st5" d="M240,338.6c2.4-3.7,4.6-7.6,6.6-11.5c-5.4-5.7-12.5-13-14.9-14c-3.7-1.5-9.7-2.1-13.8,2.1
		s-3.3,7.9-2.1,12.8c1.6,6,11.9,11.7,20.6,15.7C237.6,342,238.8,340.3,240,338.6z"/>
	<path id="Path_8938" class="st31" d="M277.3,338.1l-28.1-20.7c-0.3-0.2-0.7-0.4-1-0.6c-3.2-1.2-19.5-6.9-24.9-3.7
		c-6.9,4.1-7.4,9.6-6.8,16.6s3.9,24.5,3.8,30.5s-5.7,34.4-5.7,34.4s0.5,9.1,21.5,15.9s27.7-7.1,27.7-7.1l1.5-26.1
		c0,0,9.6-5.3,9.3-11.6s-3.7-12.8-3-16.7S277.3,341,277.3,338.1z"/>
	<path id="Path_8939" class="st34" d="M271.6,348.9c0.3-2.1,1.9-4.2,3.3-6.1c-6.5,1.1-13.2,3.1-13.7,10c0.2,4.9-6.4,25.5-6.2,58.2
		c6.2-1.1,8.8-7.5,8.8-7.5l1.5-26.1c0,0,9.6-5.3,9.3-11.6C274.2,359.3,271,352.8,271.6,348.9z"/>
	<path id="Path_8940" class="st13" d="M340.7,326.7c-1.8-0.7-3.6-1.5-5.2-2.4c-1.2,1.1,1.1,4.5,3.8,5.9S340.7,326.7,340.7,326.7z"/>
	<path id="Path_8941" class="st13" d="M344.5,329.8c-1.8-0.7-3.6-1.5-5.2-2.4c-1.2,1.1,1.1,4.5,3.8,5.9S344.5,329.8,344.5,329.8z"/>
	<path id="Path_8942" class="st13" d="M345.1,335.9c0.5-0.5,1-1,1.4-1.5c0-0.7-0.1-1.4-0.3-2.1c-1.8-0.7-3.6-1.5-5.2-2.4
		c-1.2,1.1,1.1,4.5,3.8,5.9C344.9,335.8,345,335.8,345.1,335.9L345.1,335.9z"/>
	<path id="Path_8943" class="st13" d="M325.4,331c0,0,1.5-4,2.8-5.3s7.4-0.1,7.4-0.1c0.3,1-0.3,2.1-1.3,2.4c0,0,0,0-0.1,0
		c-1.2,0.3-2.4,0.4-3.5,0.3l-0.9,3.2L325.4,331z"/>
	<path id="Path_8944" class="st13" d="M335.5,322.4l-3.7-2.2c-0.8-0.3-1.6-0.7-2.3-1.2c-0.6,0.5-0.3,2.3,1.2,2.8
		c0.8,0.9,1.6,1.7,2.6,2.3c0.1,1.7,0.7,3.2,1.7,4.6c1.7,2.5,3-1.1,2.7-2.4C337.1,324.8,336.4,323.5,335.5,322.4z"/>
	<path id="Path_8945" class="st8" d="M330.8,348.9l3.1-4.2l7-4.3l4.9-4.5c0,0,1.6-2.2,0.9-3.1c-0.8-1.2-1.6-0.1-2-0.6
		s0.1-1.4-0.3-2.2s-2.3,0.1-2.8-0.4s0-1.9-0.9-2.6s-2,0.6-2.9,0s-0.5-1-1.9-1.6s-4.9,5.2-6.9,5c-0.2,0-2.3-1.4-3.7,0.2s0.8,7.3,1,8
		s-2.1,5.9-2.1,5.9L330.8,348.9z"/>
	<path id="Path_8946" class="st8" d="M326.8,339.4c-0.9,4.6-23.7,25.2-23.7,25.2s-4.4-4.2-9.6-9.3c-5.5,4.6-11.7,8.5-17,13.5
		c5.5,4.7,11.3,9.5,15.2,12.2c8.4,5.9,13.5,6.4,19,1.1s20.8-34.2,20.8-34.2S327.6,334.8,326.8,339.4z"/>
	<path id="Path_8947" class="st5" d="M280.9,372.6c10.7-2.9,12.3-9.8,16-13.8c0,0-14.2-15.3-17.7-18.7c-5.8-5.6-13.3-1.3-13.3-1.3
		c-5.4,3.4-7.7,10.2-5.3,16.1C260.6,354.8,269.9,368.4,280.9,372.6z"/>
	<path id="Path_8948" class="st13" d="M303,364.6l6.7,4.8c0,0,10-13.9,7.2-15S303,364.6,303,364.6z"/>
	<path id="Path_8949" class="st7" d="M304.9,421.7c3.8-2.4,9.6-6.1,11.4-7.1c0,0-2.4,34-8.9,34.4S301.4,428.6,304.9,421.7z"/>
	<path id="Path_8950" class="st21" d="M355.6,491c-6.3-1.6-16.9-0.4-16.9-0.4s-12.1-7.1-14.2-6.5s0.8,7.1-2,8.9
		c-0.9,0.6-8.8,2.1-9.6-2.7c-1.3,0.7-2.2,1.9-2.4,3.4c-0.7,4.4-1.8,12.4-0.9,13.8c1.3,2,4.9,3.1,9.3,2.4s14-3.2,14-3.2l29-5.3
		C361.8,501.5,363.2,492.9,355.6,491z"/>
	<path id="Path_8951" class="st21" d="M312.9,490.5v-0.2l-0.1,0.1L312.9,490.5z"/>
	<path id="Path_8952" class="st33" d="M541.1,305.3c-6.1-21.5-14.9-27.9-14.9-27.9l-34.3,32.9c0,0-5.3,17.1,23.4,17.5
		S547.2,326.7,541.1,305.3z"/>
	<path id="Path_8953" class="st11" d="M467.4,305.6c0,0,12.6-15,22.4-21s16.4-9.9,20.9-10.3s17-0.7,19.9,9.3s2.3,37.4,2.5,42.3
		c0.3,4.9,7.9,41.5,7.9,41.5s-2.8,10.8-13,14.5c-10.2,3.7-31.1,6.3-35.8,1.7C484.4,340.7,462.9,317.1,467.4,305.6z"/>
	<path id="Path_8954" class="st13" d="M503.1,281.1l-5.7-16.5l-19.3-0.3c-1.5-3.9-1.7,6.6-1.7,6.6l3.9,11.6l3-1.8l3.5,9.1
		c0,0,4,3.7,11-0.3S503.1,281.1,503.1,281.1z"/>
	<path id="Path_8955" class="st8" d="M464,252.9l1.2,9.3l3.5,3.8l0.4,4.4c0,0,8.1,12.2,10.7,12.2s-1.6-12.7-1.6-12.7l-10.8-18
		L464,252.9z"/>
	<path id="Path_8956" class="st28" d="M447.6,300.3L397,330.6c0,0-3.8-0.6-4.2-2.2l-7.9-37.9c-0.2-1,0.3-2.1,1.2-2.6l51.1-29.4
		c1.4-0.8,4.9,0.3,4.9,0.3l6.7,38.8C449.1,298.7,448.6,299.8,447.6,300.3z"/>
	<path id="Path_8957" class="st5" d="M450.2,300.6L399,330.3c-1.2,0.7-2.7,0.3-3.4-0.8c-0.2-0.2-0.3-0.5-0.3-0.8l-7.8-37.9
		c-0.2-1,0.3-2.1,1.2-2.6l51.1-29.2c1.2-0.7,2.7-0.3,3.4,0.8c0.1,0.2,0.3,0.5,0.3,0.8l7.9,37.5C451.6,299.1,451.1,300.1,450.2,300.6
		z"/>
	<path id="Path_8958" class="st21" d="M449.8,298.8L397,328.9l-8-39.4l52.7-29.7L449.8,298.8z"/>
	<path id="Path_8959" class="st28" d="M397.6,331.4v1.8c0,1.7,1,3.2,2.4,4c5.8,3.1,20.4,10.9,23.4,12.6c3.8,2.1,7.5,2,8.8,1.3
		c5.4-2.6,47.5-27.4,48.4-27.9c0.9-0.6,1.5-1.7,1.4-2.8h-17.7L397.6,331.4z"/>
	<path id="Path_8960" class="st5" d="M454.2,301.7l26.4,15c0,0,3.6,2.7-0.4,4.8s-47.2,27-47.2,27s-3,2.6-8.1,0s-26.8-15.4-26.8-15.4
		s-2.6-2.4,3.7-5.3s46.3-26.5,46.3-26.5S451.6,300.3,454.2,301.7z"/>
	<path id="Path_8961" class="st28" d="M455.6,320.8l9.2,5.2c0.4,0.2,0.6,0.8,0.4,1.2c-0.1,0.2-0.3,0.3-0.5,0.4
		c-1.4,0.7-16.4,9.4-16.4,9.4c-0.8,0.6-2,0.6-2.8,0c-1.8-0.9-9.3-5.4-9.3-5.4s-0.9-0.9,1.2-1.8s16.1-9.2,16.1-9.2
		C454.2,320.4,454.9,320.5,455.6,320.8L455.6,320.8z"/>
	<path id="Path_8962" class="st5" d="M399.2,324.8l-6.9-34.6l39.7-22.4l6.9,34.6L399.2,324.8z"/>
	<path id="Path_8963" class="st11" d="M433,267l7.1-4l7.4,34.6l-7.1,4L433,267z"/>
	<path id="Path_8964" class="st30" d="M398.2,291.2l31.8-17l2.1,9.8l-31.8,17L398.2,291.2z"/>
	<path id="Path_8965" class="st11" d="M427.3,298.3c-0.8-2.6,0-5.6,1.9-6.7s4.1,0.1,4.9,2.7c0.8,2.6,0,5.6-1.9,6.7
		S428.2,300.9,427.3,298.3z"/>
	<path id="Path_8966" class="st11" d="M416.3,304.7c-0.8-2.6,0-5.6,1.9-6.7c1.9-1.1,4.1,0.1,4.9,2.7c0.8,2.6,0,5.6-1.9,6.7
		S417.1,307.3,416.3,304.7z"/>
	<path id="Path_8967" class="st31" d="M405.1,311.2c-0.8-2.6,0-5.6,1.9-6.7s4.1,0.1,4.9,2.7s0,5.6-1.9,6.7S405.9,313.8,405.1,311.2z
		"/>
	<path id="Path_8968" class="st28" d="M460.7,314.1l-2.3,1.3c-0.1,0-0.2,0-0.2,0l-2-1.2c0,0-0.1-0.1,0-0.1c0,0,0,0,0,0l2.4-1.3
		c0.1,0,0.2,0,0.2,0l2,1.2C460.7,314,460.7,314,460.7,314.1z"/>
	<path id="Path_8969" class="st28" d="M457.4,315.9l-3.1,1.7c-0.1,0-0.2,0-0.2,0l-2-1.2c0,0-0.1-0.1,0-0.1c0,0,0,0,0,0l3.1-1.7
		c0.1,0,0.2,0,0.2,0l2,1.2C457.4,315.8,457.5,315.8,457.4,315.9C457.4,315.9,457.4,315.9,457.4,315.9L457.4,315.9z"/>
	<path id="Path_8970" class="st28" d="M445.9,305.9l1.9-1.1c0.1,0,0.2,0,0.2,0l1,0.6c0.1,0,0,0.1,0,0.1l-1.9,1.1c-0.1,0-0.2,0-0.2,0
		l-1-0.6C445.8,306,445.8,306,445.9,305.9z"/>
	<path id="Path_8971" class="st28" d="M464.6,311.9l-3,1.7c-0.1,0-0.2,0-0.2,0l-2-1.2c0,0-0.1-0.1,0-0.1c0,0,0,0,0,0l3-1.7
		c0.1,0,0.2,0,0.2,0l2,1.2C464.6,311.7,464.6,311.8,464.6,311.9C464.6,311.8,464.6,311.8,464.6,311.9L464.6,311.9z"/>
	<path id="Path_8972" class="st28" d="M447.9,307C447.9,307,447.9,306.9,447.9,307c0-0.1,0-0.1,0-0.1l1.7-0.9c0.1,0,0.2,0,0.2,0
		l1.6,1c0.1,0,0.1,0.1,0,0.1l-1.7,0.9c-0.1,0-0.2,0-0.2,0L447.9,307z"/>
	<path id="Path_8973" class="st28" d="M433.7,329.2l-2.3,1.3c-0.1,0-0.2,0-0.2,0l-2-1.2c0,0-0.1-0.1,0-0.1c0,0,0,0,0,0l2.4-1.3
		c0.1,0,0.2,0,0.2,0l2,1.2C433.7,329.1,433.8,329.2,433.7,329.2C433.7,329.2,433.7,329.2,433.7,329.2L433.7,329.2z"/>
	<path id="Path_8974" class="st28" d="M440,322.3l-1.6,0.9c-0.1,0-0.1,0-0.2,0l-1.7-1c0,0-0.1-0.1,0-0.1c0,0,0,0,0,0l1.7-0.9
		c0.1,0,0.2,0,0.2,0l1.7,1C440,322.2,440,322.3,440,322.3z"/>
	<path id="Path_8975" class="st28" d="M443.2,307.5l1.9-1.1c0.1,0,0.1,0,0.2,0l1,0.6c0,0,0.1,0.1,0,0.1c0,0,0,0,0,0l-1.9,1.1
		c-0.1,0-0.2,0-0.2,0l-1-0.6C443.2,307.6,443.1,307.6,443.2,307.5C443.2,307.5,443.2,307.5,443.2,307.5z"/>
	<path id="Path_8976" class="st28" d="M432.8,326.2l-1.7-1c0,0-0.1-0.1,0-0.1c0,0,0,0,0,0l1.7-0.9c0.1,0,0.2,0,0.2,0l1.7,1
		c0.1,0,0.1,0.1,0,0.1l-1.7,0.9C433,326.2,432.9,326.2,432.8,326.2z"/>
	<path id="Path_8977" class="st28" d="M453.1,314.8v0.1l-1.7,0.9c-0.1,0-0.2,0-0.2,0l-1.6-1c0,0-0.1-0.1,0-0.1c0,0,0,0,0,0l1.7-0.9
		c0.1,0,0.2,0,0.2,0L453.1,314.8z"/>
	<path id="Path_8978" class="st28" d="M444.3,308.9c0.1,0,0.1,0,0.2,0l1.7,1c0,0,0.1,0.1,0,0.1c0,0,0,0,0,0l-1.7,0.9
		c-0.1,0-0.2,0-0.2,0l-1.6-1c-0.1,0-0.1-0.1,0-0.1L444.3,308.9z"/>
	<path id="Path_8979" class="st28" d="M415.9,322.8l1.9-1.1c0.1,0,0.2,0,0.2,0l1,0.6c0.1,0,0.1,0.1,0,0.1l-1.9,1.1
		c-0.1,0-0.2,0-0.2,0l-1-0.6C415.9,322.9,415.9,322.8,415.9,322.8z"/>
	<path id="Path_8980" class="st28" d="M448.8,317.4c-0.1,0-0.2,0-0.2,0l-1.7-1c0,0-0.1-0.1,0-0.1c0,0,0,0,0,0l1.7-0.9
		c0.1,0,0.2,0,0.2,0l1.7,1c0.1,0,0.1,0.1,0,0.1L448.8,317.4z"/>
	<path id="Path_8981" class="st28" d="M429.5,315.2l1.9-1.1c0.1,0,0.2,0,0.2,0l1,0.6c0,0,0.1,0.1,0,0.1c0,0,0,0,0,0l-1.9,1.1
		c-0.1,0-0.1,0-0.2,0l-1-0.6C429.5,315.3,429.5,315.2,429.5,315.2C429.5,315.2,429.5,315.2,429.5,315.2z"/>
	<path id="Path_8982" class="st28" d="M418.7,321.2l1.9-1.1c0.1,0,0.2,0,0.2,0l1,0.6c0.1,0,0.1,0.1,0,0.1l-1.9,1.1
		c-0.1,0-0.2,0-0.2,0l-1-0.6C418.6,321.3,418.6,321.3,418.7,321.2z"/>
	<path id="Path_8983" class="st28" d="M432.2,313.6l1.9-1.1c0.1,0,0.2,0,0.2,0l1,0.6c0,0,0.1,0.1,0,0.1c0,0,0,0,0,0l-1.9,1.1
		c-0.1,0-0.2,0-0.2,0l-1-0.6C432.2,313.7,432.1,313.7,432.2,313.6C432.2,313.6,432.2,313.6,432.2,313.6L432.2,313.6z"/>
	<path id="Path_8984" class="st28" d="M426.8,316.7l1.9-1.1c0.1,0,0.2,0,0.2,0l1,0.6c0,0,0.1,0.1,0,0.1c0,0,0,0,0,0l-1.9,1.1
		c-0.1,0-0.1,0-0.2,0l-1-0.6C426.7,316.9,426.7,316.8,426.8,316.7C426.7,316.7,426.7,316.7,426.8,316.7L426.8,316.7z"/>
	<path id="Path_8985" class="st28" d="M421.3,319.8l1.9-1.1c0.1,0,0.2,0,0.2,0l1,0.6c0,0,0.1,0.1,0,0.1c0,0,0,0,0,0l-1.9,1.1
		c-0.1,0-0.2,0-0.2,0l-1-0.6C421.3,319.8,421.3,319.8,421.3,319.8z"/>
	<path id="Path_8986" class="st28" d="M424.1,318.2l1.9-1.1c0.1,0,0.2,0,0.2,0l1,0.6c0.1,0,0.1,0.1,0,0.1l-1.9,1.1
		c-0.1,0-0.2,0-0.2,0l-1-0.6C424,318.3,424,318.3,424.1,318.2z"/>
	<path id="Path_8987" class="st28" d="M435.7,324.8c-0.1,0-0.1,0-0.2,0l-1.7-1c0,0-0.1-0.1,0-0.1c0,0,0,0,0,0l1.7-0.9
		c0.1,0,0.2,0,0.2,0l1.7,1c0.1,0,0.1,0.1,0,0.1L435.7,324.8z"/>
	<path id="Path_8988" class="st28" d="M416.5,335.4c-0.1,0-0.2,0-0.2,0l-1.7-1c0,0-0.1-0.1,0-0.1c0,0,0,0,0,0l1.7-0.9
		c0.1,0,0.2,0,0.2,0l1.6,1c0,0,0.1,0.1,0,0.1c0,0,0,0,0,0L416.5,335.4z"/>
	<path id="Path_8989" class="st28" d="M414.1,331.9l1.7,1c0.1,0,0.1,0.1,0,0.1l-1.7,0.9c-0.1,0-0.2,0-0.2,0l-1.6-1
		c0,0-0.1-0.1,0-0.1c0,0,0,0,0,0l1.7-0.9C413.9,331.9,414,331.9,414.1,331.9z"/>
	<path id="Path_8990" class="st28" d="M405.3,328.8l1.7-1c0.1,0,0.2,0,0.2,0l1,0.6c0,0,0.1,0.1,0,0.1c0,0,0,0,0,0l-1.7,1
		c-0.1,0-0.2,0-0.2,0l-1-0.6V328.8z"/>
	<path id="Path_8991" class="st28" d="M421.2,336.3l-1.7,1c-0.1,0-0.2,0-0.2,0l-2-1.2c0,0-0.1-0.1,0-0.1c0,0,0,0,0,0l1.7-1
		c0.1,0,0.2,0,0.2,0l2,1.2C421.2,336.2,421.3,336.2,421.2,336.3C421.2,336.3,421.2,336.3,421.2,336.3L421.2,336.3z"/>
	<path id="Path_8992" class="st28" d="M411.6,329.5c-0.1,0-0.1,0-0.2,0l-1.7-1c0,0-0.1-0.1,0-0.1c0,0,0,0,0,0l1.7-0.9
		c0.1,0,0.2,0,0.2,0l1.7,1c0.1,0,0.1,0.1,0,0.1L411.6,329.5z"/>
	<path id="Path_8993" class="st28" d="M411.5,330.4l1.7,1c0,0,0.1,0.1,0,0.1c0,0,0,0,0,0l-1.7,0.9c-0.1,0-0.2,0-0.2,0l-1.6-1
		c-0.1,0-0.1-0.1,0-0.1l1.7-0.9C411.3,330.3,411.4,330.3,411.5,330.4z"/>
	<path id="Path_8994" class="st28" d="M418.5,337.7l-1.7,0.9c-0.1,0-0.2,0-0.2,0l-4.6-2.7c0,0-0.1-0.1,0-0.1c0,0,0,0,0,0l1.7-0.9
		c0.1,0,0.2,0,0.2,0l4.6,2.8C418.6,337.7,418.6,337.7,418.5,337.7z"/>
	<path id="Path_8995" class="st28" d="M408.9,333.9c-0.1,0-0.2,0-0.2,0l-1.6-1c0,0-0.1-0.1,0-0.1c0,0,0,0,0,0l1.7-0.9
		c0.1,0,0.2,0,0.2,0l1.7,1c0.1,0,0.1,0.1,0,0.1L408.9,333.9z"/>
	<path id="Path_8996" class="st28" d="M409,331c-0.1,0-0.1,0-0.2,0l-1.7-1c-0.1,0-0.1-0.1,0-0.1l1.7-0.9c0.1,0,0.2,0,0.2,0l1.6,1
		c0,0,0.1,0.1,0,0.1c0,0,0,0,0,0L409,331z"/>
	<path id="Path_8997" class="st28" d="M402.7,330.2l1.7-1c0.1,0,0.2,0,0.2,0l1,0.6c0.1,0,0.1,0.1,0,0.1l-1.7,1c-0.1,0-0.2,0-0.2,0
		l-1-0.6C402.7,330.3,402.7,330.3,402.7,330.2z"/>
	<path id="Path_8998" class="st28" d="M406.4,332.4c-0.1,0-0.2,0-0.2,0l-1.7-1v-0.1l1.7-1c0.1,0,0.2,0,0.2,0l1.6,1
		c0,0,0.1,0.1,0,0.1c0,0,0,0,0,0L406.4,332.4z"/>
	<path id="Path_8999" class="st28" d="M414.1,328.9l1.7,1c0.1,0,0,0.1,0,0.1l-1.7,0.9c-0.1,0-0.2,0-0.2,0l-1.6-1
		c-0.1,0-0.1-0.1,0-0.1l1.7-1C413.9,328.9,414,328.9,414.1,328.9z"/>
	<path id="Path_9000" class="st28" d="M413.1,334.5l-1.7,0.9c-0.1,0-0.2,0-0.2,0l-1.6-1v-0.1l1.7-1c0.1,0,0.1,0,0.2,0l1.6,1
		C413.2,334.4,413.2,334.5,413.1,334.5z"/>
	<path id="Path_9001" class="st28" d="M426.4,333.4l-4.4,2.4c-0.1,0-0.2,0-0.2,0l-2-1.2c0,0-0.1-0.1,0-0.1c0,0,0,0,0,0l4.4-2.4
		c0.1,0,0.2,0,0.2,0l2,1.2C426.5,333.3,426.5,333.3,426.4,333.4z"/>
	<path id="Path_9002" class="st28" d="M414.1,325.9c0.1,0,0.2,0,0.2,0l1.6,1c0,0,0.1,0.1,0,0.1c0,0,0,0,0,0l-1.7,0.9
		c-0.1,0-0.1,0-0.2,0l-1.7-1c0,0-0.1-0.1,0-0.1c0,0,0,0,0,0L414.1,325.9z"/>
	<path id="Path_9003" class="st28" d="M410.6,325.8l1.8-1c0.1,0,0.2,0,0.2,0l1,0.6c0,0,0.1,0.1,0,0.1c0,0,0,0,0,0l-1.8,1
		c-0.1,0-0.2,0-0.2,0l-1-0.6C410.6,325.9,410.6,325.8,410.6,325.8z"/>
	<path id="Path_9004" class="st28" d="M407.9,327.3l1.8-1c0.1,0,0.2,0,0.2,0l1,0.6c0.1,0,0.1,0.1,0,0.1l-1.8,1c-0.1,0-0.2,0-0.2,0
		l-1-0.6C407.9,327.4,407.9,327.4,407.9,327.3C407.9,327.3,407.9,327.3,407.9,327.3L407.9,327.3z"/>
	<path id="Path_9005" class="st28" d="M420.8,333l-1.7,0.9c-0.1,0-0.2,0-0.2,0l-1.7-1c-0.1,0-0.1-0.1,0-0.1l1.7-0.9
		c0.1,0,0.2,0,0.2,0l1.7,1C420.8,332.9,420.8,332.9,420.8,333C420.8,333,420.8,333,420.8,333L420.8,333z"/>
	<path id="Path_9006" class="st28" d="M416.5,329.5l-1.6-1c-0.1,0-0.1-0.1,0-0.1l1.7-0.9c0.1,0,0.2,0,0.2,0l1.7,1v0.1l-1.7,0.9
		C416.7,329.5,416.6,329.5,416.5,329.5L416.5,329.5z"/>
	<path id="Path_9007" class="st28" d="M416.7,330.4l1.6,1c0.1,0,0.1,0.1,0,0.1l-1.7,1c-0.1,0-0.1,0-0.2,0l-1.7-1c-0.1,0,0-0.1,0-0.1
		l1.7-0.9C416.5,330.4,416.6,330.4,416.7,330.4z"/>
	<path id="Path_9008" class="st28" d="M419.1,331l-1.6-1c0,0-0.1-0.1,0-0.1c0,0,0,0,0,0l1.7-0.9c0.1,0,0.2,0,0.2,0l1.6,1
		c0,0,0.1,0.1,0,0.1c0,0,0,0,0,0l-1.7,0.9C419.3,331,419.2,331,419.1,331z"/>
	<path id="Path_9009" class="st28" d="M423.5,331.5l-1.7,0.9c-0.1,0-0.2,0-0.2,0l-1.7-1c-0.1,0-0.1-0.1,0-0.1l1.7-0.9
		c0.1,0,0.2,0,0.2,0l1.7,1C423.5,331.4,423.5,331.5,423.5,331.5C423.5,331.5,423.5,331.5,423.5,331.5L423.5,331.5z"/>
	<path id="Path_9010" class="st28" d="M461.7,310.1l-5,2.8c-0.1,0-0.2,0-0.2,0l-1.7-1c-0.1,0-0.1-0.1,0-0.1l5-2.8c0.1,0,0.2,0,0.2,0
		l1.7,1C461.7,310,461.7,310.1,461.7,310.1z"/>
	<path id="Path_9011" class="st28" d="M455.7,313.5l-1.7,0.9c-0.1,0-0.2,0-0.2,0l-1.6-1c0,0-0.1-0.1,0-0.1c0,0,0,0,0,0l1.7-0.9
		c0.1,0,0.2,0,0.2,0l1.6,1C455.8,313.3,455.8,313.3,455.7,313.5C455.8,313.4,455.8,313.5,455.7,313.5L455.7,313.5z"/>
	<path id="Path_9012" class="st28" d="M451.7,307.6l3-1.7c0.1,0,0.2,0,0.2,0l1.6,1c0,0,0.1,0.1,0,0.1c0,0,0,0,0,0l-3,1.7
		c-0.1,0-0.2,0-0.2,0l-1.7-1C451.7,307.8,451.7,307.6,451.7,307.6z"/>
	<path id="Path_9013" class="st28" d="M433.5,323l-1.7,0.9c-0.1,0-0.2,0-0.2,0l-1.6-1c0,0-0.1-0.1,0-0.1c0,0,0,0,0,0l1.7-0.9
		c0.1,0,0.2,0,0.2,0l1.6,1C433.6,322.9,433.6,323,433.5,323C433.6,323,433.6,323,433.5,323L433.5,323z"/>
	<path id="Path_9014" class="st28" d="M449.3,314.2l-1.7,1c-0.1,0-0.1,0-0.2,0l-1.6-1c-0.1,0-0.1-0.1,0-0.1l1.7-0.9
		c0.1,0,0.2,0,0.2,0l1.6,1V314.2z"/>
	<path id="Path_9015" class="st28" d="M449.2,309.1l1.7-0.9c0.1,0,0.2,0,0.2,0l1.7,1v0.1l-1.7,0.9c-0.1,0-0.1,0-0.2,0l-1.6-1
		C449.1,309.2,449.1,309.2,449.2,309.1C449.1,309.1,449.1,309.1,449.2,309.1L449.2,309.1z"/>
	<path id="Path_9016" class="st28" d="M426.9,318.7l1.7-0.9c0.1,0,0.2,0,0.2,0l1.7,1c0,0,0.1,0.1,0,0.1c0,0,0,0,0,0l-1.7,0.9
		c-0.1,0-0.2,0-0.2,0l-1.6-1C426.9,318.8,426.9,318.7,426.9,318.7z"/>
	<path id="Path_9017" class="st28" d="M424.3,320.2l1.7-0.9c0.1,0,0.2,0,0.2,0l1.6,1c0.1,0,0.1,0.1,0,0.1l-1.7,1c-0.1,0-0.1,0-0.2,0
		l-1.7-1C424.2,320.3,424.2,320.3,424.3,320.2C424.2,320.2,424.2,320.2,424.3,320.2L424.3,320.2z"/>
	<path id="Path_9018" class="st28" d="M421.6,321.7l1.7-0.9c0.1,0,0.2,0,0.2,0l1.6,1c0,0,0.1,0.1,0,0.1c0,0,0,0,0,0l-1.7,0.9
		c-0.1,0-0.2,0-0.2,0l-1.7-1C421.6,321.8,421.6,321.7,421.6,321.7z"/>
	<path id="Path_9019" class="st28" d="M441.7,310.4c0.1,0,0.2,0,0.2,0l1.7,1c0,0,0.1,0.1,0,0.1c0,0,0,0,0,0l-1.7,0.9
		c-0.1,0-0.2,0-0.2,0l-1.6-1c0,0-0.1-0.1,0-0.1c0,0,0,0,0,0L441.7,310.4z"/>
	<path id="Path_9020" class="st28" d="M419.1,323.1l1.7-0.9c0.1,0,0.2,0,0.2,0l1.7,1c0.1,0,0,0.1,0,0.1l-1.7,0.9c-0.1,0-0.2,0-0.2,0
		l-1.6-1C419,323.3,419,323.2,419.1,323.1C419,323.2,419,323.1,419.1,323.1L419.1,323.1z"/>
	<path id="Path_9021" class="st28" d="M432.2,315.8l1.7-0.9c0.1,0,0.2,0,0.2,0l1.7,1c0.1,0,0,0.1,0,0.1l-1.7,0.9c-0.1,0-0.2,0-0.2,0
		l-1.7-1C432.1,315.9,432.1,315.8,432.2,315.8z"/>
	<path id="Path_9022" class="st28" d="M429.6,317.2l1.7-0.9c0.1,0,0.2,0,0.2,0l1.7,1c0,0,0.1,0.1,0,0.1c0,0,0,0,0,0l-1.7,0.9
		c-0.1,0-0.2,0-0.2,0l-1.6-1C429.6,317.3,429.5,317.3,429.6,317.2z"/>
	<path id="Path_9023" class="st28" d="M432.1,326.7l-1.7,0.9c-0.1,0-0.2,0-0.2,0l-1.7-1c0,0-0.1-0.1,0-0.1c0,0,0,0,0,0l1.7-0.9
		c0.1,0,0.2,0,0.2,0l1.6,1C432.2,326.7,432.2,326.7,432.1,326.7z"/>
	<path id="Path_9024" class="st28" d="M437.6,327l-3,1.7c-0.1,0-0.2,0-0.2,0l-2-1.2c0,0-0.1-0.1,0-0.1c0,0,0,0,0,0l3-1.7
		c0.1,0,0.2,0,0.2,0l2,1.2C437.7,326.9,437.7,327,437.6,327z"/>
	<path id="Path_9025" class="st28" d="M453.5,318.1l-14.9,8.4c-0.1,0-0.2,0-0.2,0l-2-1.2c0,0-0.1-0.1,0-0.1c0,0,0,0,0,0l14.9-8.4
		c0.1,0,0.2,0,0.2,0l2,1.2C453.5,318,453.5,318,453.5,318.1C453.5,318.1,453.5,318.1,453.5,318.1z"/>
	<path id="Path_9026" class="st28" d="M452.2,304.4c0.1,0,0.2,0,0.2,0l1.7,1c0.1,0,0.1,0.1,0,0.1l-1.7,1c-0.1,0-0.1,0-0.2,0l-1.7-1
		c0,0-0.1-0.1,0-0.1c0,0,0,0,0,0L452.2,304.4z"/>
	<path id="Path_9027" class="st28" d="M448.6,304.4l1.9-1.1c0.1,0,0.2,0,0.2,0l1,0.6c0.1,0,0.1,0.1,0,0.1l-1.9,1.1
		c-0.1,0-0.2,0-0.2,0l-1-0.6C448.6,304.5,448.6,304.4,448.6,304.4z"/>
	<path id="Path_9028" class="st28" d="M413.2,324.3l1.9-1.1c0.1,0,0.2,0,0.2,0l1,0.6c0,0,0.1,0.1,0,0.1c0,0,0,0,0,0l-1.9,1.1
		c-0.1,0-0.2,0-0.2,0L413.2,324.3C413.1,324.4,413.1,324.4,413.2,324.3z"/>
	<path id="Path_9029" class="st28" d="M430.4,331.1l-3.1,1.7c-0.1,0-0.2,0-0.2,0l-2-1.2c0,0-0.1-0.1,0-0.1c0,0,0,0,0,0l3.1-1.7
		c0.1,0,0.2,0,0.2,0l2,1.2C430.5,331,430.5,331,430.4,331.1z"/>
	<path id="Path_9030" class="st28" d="M437.7,310.5l1.9-1.1c0.1,0,0.2,0,0.2,0l1,0.6c0.1,0,0.1,0.1,0,0.1l-1.9,1.1
		c-0.1,0-0.2,0-0.2,0l-1-0.6C437.7,310.7,437.7,310.6,437.7,310.5z"/>
	<path id="Path_9031" class="st28" d="M439.1,311.8c0.1,0,0.2,0,0.2,0l1.7,1c0,0,0.1,0.1,0,0.1c0,0,0,0,0,0l-1.7,0.9
		c-0.1,0-0.2,0-0.2,0l-1.7-1c0,0-0.1-0.1,0-0.1c0,0,0,0,0,0L439.1,311.8z"/>
	<path id="Path_9032" class="st28" d="M435,312.1l1.9-1.1c0.1,0,0.2,0,0.2,0l1,0.6c0,0,0.1,0.1,0,0.1c0,0,0,0,0,0l-1.9,1.1
		c-0.1,0-0.2,0-0.2,0l-1-0.6C434.9,312.2,434.9,312.1,435,312.1z"/>
	<path id="Path_9033" class="st28" d="M447,307.4c0.1,0,0.2,0,0.2,0l1.6,1c0,0,0.1,0.1,0,0.1c0,0,0,0,0,0l-1.7,0.9
		c-0.1,0-0.2,0-0.2,0l-1.6-1c-0.1,0-0.1-0.1,0-0.1L447,307.4z"/>
	<path id="Path_9034" class="st28" d="M436.4,313.3c0.1,0,0.2,0,0.2,0l1.6,1c0.1,0,0.1,0.1,0,0.1l-1.7,0.9c-0.1,0-0.2,0-0.2,0
		l-1.7-1c0,0-0.1-0.1,0-0.1c0,0,0,0,0,0L436.4,313.3z"/>
	<path id="Path_9035" class="st28" d="M440.4,309l1.9-1.1c0.1,0,0.2,0,0.2,0l1,0.6c0,0,0.1,0.1,0,0.1c0,0,0,0,0,0l-1.9,1.1
		c-0.1,0-0.2,0-0.2,0l-1-0.6C440.4,309.2,440.3,309.1,440.4,309C440.3,309.1,440.4,309,440.4,309L440.4,309z"/>
	<path id="Path_9036" class="st28" d="M429.4,328.2l-5,2.8c-0.1,0-0.2,0-0.2,0l-1.7-1c-0.1,0-0.1-0.1,0-0.1l5-2.8c0.1,0,0.1,0,0.2,0
		l1.7,1C429.5,328.1,429.5,328.2,429.4,328.2z"/>
	<path id="Path_9037" class="st28" d="M444.8,313.7l-1.6,1c-0.1,0-0.2,0-0.2,0l-1.7-1c-0.1,0-0.1-0.1,0-0.1l1.7-0.9
		c0.1,0,0.2,0,0.2,0l1.6,1C444.9,313.6,444.9,313.7,444.8,313.7C444.8,313.7,444.8,313.7,444.8,313.7L444.8,313.7z"/>
	<path id="Path_9038" class="st28" d="M443.9,312.2c-0.1,0-0.1-0.1,0-0.1l1.7-0.9c0.1,0,0.2,0,0.2,0l1.7,1c0,0,0.1,0.1,0,0.1
		c0,0,0,0,0,0l-1.7,0.9c-0.1,0-0.2,0-0.2,0L443.9,312.2z"/>
	<path id="Path_9039" class="st28" d="M422.9,323.9l1.7-0.9c0.1,0,0.2,0,0.2,0l1.7,1c0.1,0,0.1,0.1,0,0.1l-1.7,0.9
		c-0.1,0-0.2,0-0.2,0l-1.6-1C422.8,324,422.8,324,422.9,323.9C422.8,323.9,422.8,323.9,422.9,323.9L422.9,323.9z"/>
	<path id="Path_9040" class="st28" d="M442.6,320.8l-1.7,1c-0.1,0-0.2,0-0.2,0l-1.6-1c0,0-0.1-0.1,0-0.1c0,0,0,0,0,0l1.7-0.9
		c0.1,0,0.2,0,0.2,0l1.7,1C442.6,320.8,442.6,320.8,442.6,320.8z"/>
	<path id="Path_9041" class="st28" d="M431,324.4l-1.7,1c-0.1,0-0.2,0-0.2,0l-1.6-1c0,0-0.1-0.1,0-0.1c0,0,0,0,0,0l1.7-0.9
		c0.1,0,0.2,0,0.2,0l1.7,1L431,324.4z"/>
	<path id="Path_9042" class="st28" d="M428.3,326l-1.7,0.9c-0.1,0-0.2,0-0.2,0l-1.7-1c-0.1,0-0.1-0.1,0-0.1l1.7-0.9
		c0.1,0,0.2,0,0.2,0l1.7,1C428.3,325.9,428.3,325.9,428.3,326C428.3,326,428.3,326,428.3,326L428.3,326z"/>
	<path id="Path_9043" class="st28" d="M420.2,325.4l1.7-0.9c0.1,0,0.2,0,0.2,0l1.7,1c0,0,0.1,0.1,0,0.1c0,0,0,0,0,0l-1.7,0.9
		c-0.1,0-0.2,0-0.2,0l-1.6-1C420.2,325.5,420.2,325.5,420.2,325.4C420.2,325.4,420.2,325.4,420.2,325.4L420.2,325.4z"/>
	<path id="Path_9044" class="st28" d="M446.5,310.6l1.7-0.9c0.1,0,0.2,0,0.2,0l1.7,1c0,0,0.1,0.1,0,0.1c0,0,0,0,0,0l-1.7,0.9
		c-0.1,0-0.2,0-0.2,0l-1.6-1C446.5,310.7,446.4,310.7,446.5,310.6C446.5,310.6,446.5,310.6,446.5,310.6L446.5,310.6z"/>
	<path id="Path_9045" class="st28" d="M451.9,312.7l-1.7,0.9c-0.1,0-0.2,0-0.2,0l-1.7-1c0,0-0.1-0.1,0-0.1c0,0,0,0,0,0l1.7-0.9
		c0.1,0,0.2,0,0.2,0l1.6,1C451.9,312.6,451.9,312.6,451.9,312.7C451.9,312.7,451.9,312.7,451.9,312.7L451.9,312.7z"/>
	<path id="Path_9046" class="st28" d="M447.9,317.9l-1.7,0.9c-0.1,0-0.2,0-0.2,0l-1.7-1c-0.1,0-0.1-0.1,0-0.1l1.7-0.9
		c0.1,0,0.2,0,0.2,0l1.6,1C447.9,317.8,447.9,317.8,447.9,317.9C447.9,317.9,447.9,317.9,447.9,317.9L447.9,317.9z"/>
	<path id="Path_9047" class="st28" d="M459.2,308.6l-3.7,2.1c-0.1,0-0.2,0-0.2,0l-1.6-1c-0.1,0-0.1-0.1,0-0.1l3.7-2.1
		c0.1,0,0.2,0,0.2,0l1.6,1C459.2,308.5,459.2,308.5,459.2,308.6C459.2,308.5,459.2,308.6,459.2,308.6L459.2,308.6z"/>
	<path id="Path_9048" class="st28" d="M445.2,319.4l-1.7,0.9c-0.1,0-0.2,0-0.2,0l-1.7-1c-0.1,0,0-0.1,0-0.1l1.7-0.9
		c0.1,0,0.2,0,0.2,0l1.6,1C445.3,319.2,445.3,319.3,445.2,319.4C445.3,319.3,445.2,319.3,445.2,319.4L445.2,319.4z"/>
	<path id="Path_9049" class="st28" d="M454.6,311.2l-1.7,0.9c-0.1,0-0.2,0-0.2,0l-1.7-1V311l1.7-0.9c0.1,0,0.2,0,0.2,0l1.7,1
		C454.6,311.1,454.6,311.1,454.6,311.2C454.6,311.2,454.6,311.2,454.6,311.2z"/>
	<path id="Path_9050" class="st28" d="M429.1,322.6l-1.7,0.9c-0.1,0-0.2,0-0.2,0l-1.7-1v-0.1l1.7-0.9c0.1,0,0.2,0,0.2,0l1.6,1
		C429.1,322.5,429.1,322.5,429.1,322.6C429.1,322.6,429.1,322.6,429.1,322.6L429.1,322.6z"/>
	<path id="Path_9051" class="st28" d="M444.1,317.1l-1.7,0.9c-0.1,0-0.2,0-0.2,0l-1.6-0.9c0,0-0.1-0.1,0-0.1c0,0,0,0,0,0l1.7-0.9
		c0.1,0,0.2,0,0.2,0L444.1,317.1C444.1,317,444.1,317.1,444.1,317.1z"/>
	<path id="Path_9052" class="st28" d="M438.8,320.1l-1.7,0.9c-0.1,0-0.2,0-0.2,0l-1.7-1c-0.1,0-0.1-0.1,0-0.1l1.7-0.9
		c0.1,0,0.2,0,0.2,0l1.6,1C438.8,320,438.8,320,438.8,320.1C438.8,320.1,438.8,320.1,438.8,320.1L438.8,320.1z"/>
	<path id="Path_9053" class="st28" d="M441.4,318.6l-1.7,0.9c-0.1,0-0.2,0-0.2,0l-1.7-1c-0.1,0-0.1-0.1,0-0.1l1.7-1
		c0.1,0,0.2,0,0.2,0l1.6,1C441.4,318.5,441.5,318.5,441.4,318.6C441.5,318.6,441.4,318.6,441.4,318.6L441.4,318.6z"/>
	<path id="Path_9054" class="st28" d="M436.1,321.6l-1.7,0.9c-0.1,0-0.2,0-0.2,0l-1.7-1c-0.1,0-0.1-0.1,0-0.1l1.7-0.9
		c0.1,0,0.1,0,0.2,0l1.6,1C436.2,321.4,436.2,321.5,436.1,321.6C436.2,321.5,436.2,321.6,436.1,321.6L436.1,321.6z"/>
	<path id="Path_9055" class="st28" d="M422,329.5c-0.1,0-0.2,0-0.2,0l-1.6-1c0,0-0.1-0.1,0-0.1c0,0,0,0,0,0l3.7-2.1
		c0.1,0,0.2,0,0.2,0l1.6,1c0,0,0.1,0.1,0,0.1c0,0,0,0,0,0L422,329.5z"/>
	<path id="Path_9056" class="st28" d="M419.5,328c-0.1,0-0.2,0-0.2,0l-1.6-1c0,0-0.1-0.1,0-0.1c0,0,0,0,0,0l1.7-0.9
		c0.1,0,0.2,0,0.2,0l1.7,1v0.1L419.5,328z"/>
	<path id="Path_9057" class="st28" d="M436,316.5l1.7-0.9c0.1,0,0.2,0,0.2,0l1.7,1c0.1,0,0.1,0.1,0,0.1l-1.7,0.9c-0.1,0-0.2,0-0.2,0
		l-1.6-1C435.9,316.6,435.9,316.6,436,316.5C436,316.5,436,316.5,436,316.5L436,316.5z"/>
	<path id="Path_9058" class="st28" d="M433.4,318l1.7-0.9c0.1,0,0.2,0,0.2,0l1.7,1c0.1,0,0.1,0.1,0,0.1l-1.7,0.9c-0.1,0-0.2,0-0.2,0
		l-1.7-1C433.4,318.1,433.4,318,433.4,318C433.4,318,433.4,318,433.4,318L433.4,318z"/>
	<path id="Path_9059" class="st28" d="M446.7,315.6l-1.7,0.9c-0.1,0-0.2,0-0.2,0l-1.6-1c0,0-0.1-0.1,0-0.1c0,0,0,0,0,0l1.7-0.9
		c0.1,0,0.2,0,0.2,0l1.7,1C446.7,315.5,446.7,315.6,446.7,315.6z"/>
	<path id="Path_9060" class="st28" d="M438.6,315l1.7-0.9c0.1,0,0.2,0,0.2,0l1.6,1c0,0,0.1,0.1,0,0.1c0,0,0,0,0,0l-1.7,0.9
		c-0.1,0-0.2,0-0.2,0l-1.7-1C438.6,315.1,438.6,315,438.6,315z"/>
	<path id="Path_9061" class="st28" d="M430.7,319.5l1.7-0.9c0.1,0,0.2,0,0.2,0l1.7,1c0.1,0,0.1,0.1,0,0.1l-1.7,0.9
		c-0.1,0-0.2,0-0.2,0l-1.7-1C430.7,319.5,430.7,319.5,430.7,319.5C430.7,319.5,430.7,319.5,430.7,319.5L430.7,319.5z"/>
	<path id="Path_9062" class="st28" d="M415.1,325.4l3.2-1.8c0.1,0,0.2,0,0.2,0l1.6,1c0.1,0,0.1,0.1,0,0.1l-3.2,1.8
		c-0.1,0-0.2,0-0.2,0l-1.6-1C415.1,325.5,415,325.4,415.1,325.4z"/>
	<path id="Path_9063" class="st28" d="M431.7,321.1L430,322c-0.1,0-0.2,0-0.2,0l-1.7-1c0,0-0.1-0.1,0-0.1c0,0,0,0,0,0l1.7-0.9
		c0.1,0,0.2,0,0.2,0l1.6,1C431.7,321,431.7,321.1,431.7,321.1z"/>
	<path id="Path_9064" class="st29" d="M402,336.5l1.8,0.9v1l-1.8-0.9V336.5z"/>
	<path id="Path_9065" class="st29" d="M401.1,336.1v1l-1.5-0.9v-1L401.1,336.1z"/>
	<path id="Path_9066" class="st29" d="M441.3,344.6v0.4l-8,4.6v-0.5L441.3,344.6z"/>
	<path id="Path_9067" class="st35" d="M478.4,322.9v0.4l-7.9,4.6v-0.5L478.4,322.9z"/>
	<path id="Path_9068" class="st13" d="M437.8,323.1l-2.6-0.3l1.1,5.5l4.5,8.8l0,0l0.2-9.4c0-0.4-0.1-0.7-0.2-1.1l-0.7-1.7
		C439.7,323.9,438.8,323.3,437.8,323.1L437.8,323.1z"/>
	<path id="Path_9069" class="st7" d="M470.6,263.5l1.4,3.7c0.3,0.7,1.1,1.1,1.8,0.8c0.6-0.2,1.2-0.4,1.9-0.6c-0.5-1-0.9-2.2-0.1-2.4
		c2.7-0.8,5.3,2.3,7.1,5.4c1.7,2.9,5.3,4,8.2,2.4l5.7-2.9c1.6-0.8,2.5-2.5,2.3-4.3c-0.2-1.7-0.4-3.9-0.4-6.2
		c-0.1-4.7,0.5-17-3.3-21.6s-8.9-7-17.2-6.4c-7.7,0.6-21.3,12-15.1,24.4c0.8,1.5,2.9,1.8,4.3,3.4C468.5,260.5,469.6,262,470.6,263.5
		"/>
	<path id="Path_9070" class="st13" d="M457,304.4l-7.5-0.7c-0.1,0-7.2,2.1-7.2,2.1c0.4,1.1,1.6,1.7,2.7,1.4c1.3-0.2,5.3-0.5,5.3-0.5
		l10,0.9L457,304.4z"/>
	<path id="Path_9071" class="st8" d="M474.9,268.4c-0.6-1.1-0.8-2.4-0.6-3.6c0-0.7,0.4-1.3,0.9-1.7c1.4-0.6,3,0.1,3.6,1.5
		c0.1,0.2,0.1,0.4,0.2,0.6c0.5,2,1.2,6.3,0,7.1C477.6,273.3,475.8,270.3,474.9,268.4z"/>
	<path id="Path_9072" class="st13" d="M444.7,305.7l11.5,0.3l-0.5,2.8l-10.1-0.1c-1.9,0.6-3.8,1.1-5.7,1.4c-1.3,0.1-2.3-1.7-2.3-1.7
		S444.6,305.7,444.7,305.7"/>
	<path id="Path_9073" class="st8" d="M435.3,346.2l-3.1-1.2c0,0-4.7-2.4-6.3-5.7c-0.7-1.8-1.9-3.3-3.5-4.4c-1.5-0.8-3-1.8-4.3-2.9
		c-0.7-0.7-0.8-1.8-0.3-2.6l5.5,2.4c0,0,2.9,2.7,3.6,3c0.5-1.5-1.5-4.6-1.5-4.6c-1.1-0.9-2.2-1.8-3.3-2.5c-2.7-1.8-1.5-3.8-1.5-3.8
		l6.4,3.4c0,0,3.3,3.5,3.8,4c0.5-1.9-2.7-5.1-2.7-5.1c-1.6-0.9-3.2-2-4.5-3.3c-0.6-0.8-0.4-2,0.4-2.7c0,0,0,0,0.1,0l5.9,3.8
		c0,0,3.8,4.5,4.9,5.5c0.6-2.2-3.1-5.5-3.1-5.5s-3.7-2.4-4.3-3.6s0.6-2.1,0.6-2.1l6.8,3.9l4.5,5.8c0,0,2.6,9.8,2.7,9.9
		s2.6,3.4,2.6,3.4l-8.4,6.1L435.3,346.2z"/>
	<path id="Path_9074" class="st8" d="M463.2,321.6c0,0-6.6,1.6-6.9,1.6s-4.2-0.5-4.2-0.5l-5.3-3.8c0,0,1.7-3.3,5.8-0.6
		s3.7-1.1,3.7-1.1l-3.7-1.7l-5.9-0.7c0,0-4.3,0.7-7.1,1.1s-3-1.6-3-1.6l8.5-2.4l5.5-0.4l-6-0.9c-1.9,0.8-3.9,1.3-5.9,1.6
		c-1.3,0.2-2.6-0.6-3-1.8l8.3-2.7h9c0.9,0,0-1.2,1.9-1.6c1.2-0.2,0.7-1.6,2.1-1.7c0.8-0.1,5.9,2.6,7.9,3.7c0.5,0.3,1,0.7,1.4,1.1
		c0.9,1.2,2.6,3.3,2.7,3.4l3.3,1.2c0,0-1.8,8.4-1.8,8.7C470.5,322.6,463.2,321.6,463.2,321.6z"/>
	<path id="Path_9075" class="st33" d="M433.6,345.5c0,0,0.3-4.7,4.4-6.1s5.9-0.8,5.9-0.8l15.2,14l3.8-38.1c0,0,2.4-12.6,11.1-10.6
		s9.8,10.6,9.5,20.1s-3.9,33.6-6.3,41.3c-1.8,5.8-11.2,11.8-22,3.9S433.6,345.5,433.6,345.5z"/>
	<path id="Path_9076" class="st16" d="M459.1,352.6l-0.5,11.1c0,0-13.2-13.7-11.7-18.3S459.1,352.6,459.1,352.6z"/>
	<path id="Path_9077" class="st16" d="M481.9,293.7l2.7-9.6c0,0,9.9,1,14.1-2.1c1.7-1.2,2.7-3.2,2.6-5.3c0-0.3,0.2-0.6,0.6-0.6
		c0.2,0,0.4,0.1,0.5,0.2l3,4c0,0,3.4,5.8-3.5,10.3S481.9,293.7,481.9,293.7z"/>
	<path id="Path_9078" class="st13" d="M274.2,317c0,0-10.4-2.6-12.6-1.3s-3.1,4.8-4.8,10s-16.7,1.4-14.2-6.7
		c1.2-4.2,2.6-8.4,4.3-12.5l16.8-7l12.1,13.8L274.2,317z"/>
	<path id="Path_9079" class="st5" d="M242.7,318.8l-0.1,0.3c-2.4,8,12.5,11.9,14.2,6.7c0-0.1,0.1-0.3,0.1-0.4
		C251.6,325,246.5,322.6,242.7,318.8z"/>
	<path id="Path_9080" class="st13" d="M281.6,283.4c0,0,2.9,9.1,2.8,11.1c0,2-3.9,9.9-3.9,9.9c0.6,0.9,0.9,2.1,0.6,3.2
		c-0.4,1.7-3.5,8.3-5.8,9.3c-2.3,1-9.8-2.9-12.1-7.3c-2.3-4.4-1.9-11.1-1.8-11.7C261.7,297.2,281.6,283.4,281.6,283.4z"/>
	<path id="Path_9081" class="st7" d="M270.9,310.3L270.9,310.3c1.1-0.1,2.1-0.9,2.3-2l0.5-1.9c1.6,0.9,3.5,0.8,5-0.3
		c1.5-1.2,2.3-3.1,2-5c1.3,0.3,2.7-0.1,3.7-1.1c1.1-1.2,1.5-2.9,1.1-4.5c1.5,0.2,2.9-0.9,3.1-2.4c0.7-2.8-2.7-3.4-2.7-3.4
		s5.3-0.5,4.6-4.1c-0.2-2-1.8-3.4-3.8-3.5c0,0,2.2-3.9-0.4-6.5s-6.4-0.5-6.4-0.5s1.8-5.3-3.2-7.7s-6.1,1.4-6.1,1.4s-1.8-3.3-4.4-3.5
		s-4.6,3.1-4.6,3.1s-5.5-4-11-0.5c-5.5,3.5-5.3,8.3-5.3,8.3s-5.9-1.7-9,2.3s-1.5,11.3,1.5,13.7c-4.4,5.7-1.4,10,2.3,10.5
		c-3.3,6.5-0.6,10.9,4,12.1s5.4-1.7,5.4-1.7s4.4,3.3,8.9,1.3c3.5,2.4,6.9-3.7,6.9-3.7L270.9,310.3z"/>
	<path id="Path_9082" class="st8" d="M269.5,310.1c-0.1-2.6-1.8-5.7-4.8-4.2c-3,1.5,0.3,10.3,3.2,9.4
		C268.9,315.1,269.8,312.7,269.5,310.1z"/>
	<path id="Path_9083" class="st17" d="M269.8,315.2c0-0.9-0.7-1.7-1.7-1.7s-1.7,0.7-1.7,1.7s0.7,1.7,1.7,1.7c0,0,0,0,0,0
		C269,316.9,269.7,316.1,269.8,315.2z"/>
	<path id="Path_9084" class="st9" d="M214.2,187.2c0-0.7-0.5-1.2-1.2-1.2s-1.2,0.5-1.2,1.2c0,0.7,0.5,1.2,1.2,1.2h0
		C213.6,188.5,214.2,187.9,214.2,187.2z"/>
	<path id="Path_9085" class="st7" d="M444.7,429.7c2.8,1.5,6-0.7,7.7-3.9c0.4-1.4,0.8-2.8,1.2-4l0,0c0.1-0.9,0.4-1.8,0.8-2.5
		c0-0.1,0.1-0.2,0.1-0.3c1.7-4.8,1.8-10,0.2-14.8l-1.2-2.5l-11-5.7C442.6,395.8,440.7,427.6,444.7,429.7z"/>
	<path id="Path_9086" class="st7" d="M426.6,112.2c-2.1-2.1-4.8-3.6-7.7-4.3c-9.3-2.4-14.4,2.2-17.3,3.7s-10.8,2.4-12.5,3.9
		c-0.6,0.6-1.2,1.2-1.7,1.8c5.5,4,15.9,3.4,21.6,3C413.9,120,423.2,117.4,426.6,112.2z"/>
</g>
</svg>
