<?xml version="1.0" encoding="utf-8"?>
<!-- Generator: Adobe Illustrator 25.0.1, SVG Export Plug-In . SVG Version: 6.00 Build 0)  -->
<svg version="1.1" id="Layer_1" xmlns="http://www.w3.org/2000/svg" xmlns:xlink="http://www.w3.org/1999/xlink" x="0px" y="0px"
	 width="574.8px" height="373.4px" viewBox="0 0 574.8 373.4" style="enable-background:new 0 0 574.8 373.4;" xml:space="preserve"
	>
<style type="text/css">
	.st0{fill:#178BFF;}
	.st1{fill:#2677C8;}
	.st2{fill:#24A8AC;}
	.st3{fill:#3198FF;}
	.st4{fill:#F2B70A;}
	.st5{fill:#CECECE;}
	.st6{fill:#E5E5E5;}
	.st7{fill:#28A9E2;}
	.st8{fill:#4BCFD4;}
	.st9{fill:#F9B28A;}
	.st10{fill:#00173F;}
	.st11{fill:#FDC8A8;}
	.st12{fill:#002169;}
	.st13{fill:#9BDDDE;}
	.st14{fill:#5BB2B3;}
	.st15{fill:#ACF5F6;}
	.st16{fill:#2C93C9;}
	.st17{fill:#B6E7E8;}
	.st18{fill:#084697;}
	.st19{fill:#002C38;}
	.st20{fill:#033872;}
	.st21{fill:#001A24;}
	.st22{fill:#FFFFFF;}
	.st23{fill:#002F54;}
	.st24{fill:#06263B;}
	.st25{fill:#BA8559;}
	.st26{fill:#888888;}
	.st27{fill:#242424;}
	.st28{fill:#BE8C60;}
	.st29{fill:#BFDFFF;}
	.st30{fill-rule:evenodd;clip-rule:evenodd;fill:#178BFF;}
	.st31{fill-rule:evenodd;clip-rule:evenodd;fill:#2677C8;}
	.st32{fill:#F5F5F5;}
</style>
<g id="Real-Time_Interbank_FX_Rates" transform="translate(-101.241 -6.482)">
	<g id="Слой_3" transform="translate(161.734 83.127)">
		<path id="Path_9215" class="st0" d="M181.1,42.8H48.4v75.1h113.4v42.8H48.4v86.7H0V0h181.1V42.8z"/>
		<path id="Path_9216" class="st0" d="M252.4,0l60.4,88.1L373.5,0h55.8l-84.2,122.9l86.7,124.6h-56.9l-62.1-88.8l-62.5,88.8h-56.9
			l87.1-124.6L195.9,0H252.4z"/>
	</g>
	<g id="Слой_2" transform="translate(101.241 6.482)">
		<path id="Path_9217" class="st1" d="M280.9,346.8l0-8.9l1.7,0.6l0,9L280.9,346.8z"/>
		<path id="Path_9218" class="st2" d="M311.5,347.6l0.1-9l0.4-0.6l-0.1,8.9L311.5,347.6z"/>
		<path id="Path_9219" class="st3" d="M270.8,347.9l0-9.1l3.8,0.5l0,9.2L270.8,347.9z"/>
		<path id="Path_9220" class="st1" d="M321.1,348.7l0.1-9.2l2.7-0.5l-0.1,9.1L321.1,348.7z"/>
		<path id="Path_9221" class="st3" d="M264.9,349.6l0-9.4l5.5,0.4l0,9.5L264.9,349.6z"/>
		<path id="Path_9222" class="st1" d="M327.8,350.2l0.1-9.5l4.8-0.3l-0.1,9.5L327.8,350.2z"/>
		<path id="Path_9223" class="st2" d="M282.6,350.7l0-9.6l0.1-0.2l0,9.6L282.6,350.7z"/>
		<path id="Path_9224" class="st1" d="M264,350.9l0-9.7l0.2,0.3l0,9.7L264,350.9z"/>
		<path id="Path_9225" class="st1" d="M257.5,351.4l0-9.8l1.7-0.5l0,9.6L257.5,351.4z"/>
		<path id="Path_9226" class="st1" d="M316.9,341.5l-0.2-0.2l-0.3-0.2l-0.5-0.2l-0.6-0.2l-0.7-0.2l-0.9-0.2l-1-0.2l-1.1-0.1
			l-1.2-0.1l-1.3-0.1l-1.4-0.1l-1.5-0.1l-1-0.1l-1.5-0.1l-1.5-0.1l-1.5,0l-1.5,0l-1.5,0h-1.5l-1.5,0l-1.4,0l-1.4,0l-1.3,0.1
			l-1.3,0.1l-1.2,0.1l-1.1,0.1l-1,0.1l-0.9,0.1l-0.8,0.2l-0.4,0.1l-0.5,0.2l-0.4,0.2l-0.2,0.2l0,9.6l0.2-0.2l0.4-0.2l0.5-0.2
			l0.4-0.1l0.8-0.2l0.9-0.2l1-0.2l1.1-0.1l0.5,0l0,1.8l0.1,0.1l0-1.9l0.6-0.1l1.3-0.1l1.3-0.1l1.4-0.1l1.4,0l1.5,0h1.5l1.5,0l1.5,0
			l1.5,0.1l1.5,0.1l1.5,0.1l1,0.1l1.5,0.1l1.4,0.1l1.3,0.2l1.2,0.2l1.1,0.2l1,0.2l0.9,0.2l0.7,0.2l0.6,0.2l0.5,0.2l0.3,0.2l0.2,0.2
			l0.1,0.2l0.1-9.8L316.9,341.5z"/>
		<path id="Path_9227" class="st1" d="M264.2,351.3l0-9.7l0.4,0.3l0,9.8L264.2,351.3z"/>
		<path id="Path_9228" class="st3" d="M264.6,351.7l0-9.8l6.5,0.1l0,9.8L264.6,351.7z"/>
		<path id="Path_9229" class="st0" d="M330.2,352l0.1-9.9l6.4-0.1l-0.1,9.9L330.2,352z"/>
		<path id="Path_9230" class="st4" d="M226.1,351.5l0-9.8l2.7,0.4l0,9.9L226.1,351.5z"/>
		<path id="Path_9231" class="st1" d="M271,351.8l0-9.8l0.8,0.3l0,9.9L271,351.8z"/>
		<path id="Path_9232" class="st1" d="M271.8,352.1l0-9.9l1,0.3l0,10L271.8,352.1z"/>
		<path id="Path_9233" class="st1" d="M310.8,341.6l-0.1,0.1l-0.2,0.1l-0.4,0.1l-0.5,0.1l-0.6,0.1l-0.4,0.1l-0.7,0.1l-0.8,0.1
			l-0.8,0.1l-0.9,0.1l-0.9,0l-1,0l-1,0l-1,0h-1.1l-1.1,0l-1.1,0l-1.1,0l-1-0.1l-1-0.1l-1-0.1l-0.9-0.1l-0.6-0.1l-0.8-0.1l-0.7-0.1
			l-0.6-0.1l-0.5-0.1l-0.5-0.1l-0.4-0.1l-0.3-0.1l-0.2-0.1l-0.1,9.7l0.2,0.1l0.3,0.1l0.4,0.1l0.5,0.1l0.5,0.1l0.6,0.1l0.7,0.1
			l0.8,0.1l0.6,0.1l0.9,0.1l1,0.1l1,0.1l1,0.1l1.1,0l1.1,0l1.1,0l1.1,0l1,0l1,0l1,0l0.9-0.1l0.9-0.1l0.8-0.1l0.8-0.1l0.7-0.1
			l0.4-0.1l0.6-0.1l0.5-0.1l0.4-0.1l0.2-0.1l0.1-0.1l0-0.1l0.1-9.7L310.8,341.6z"/>
		<path id="Path_9234" class="st2" d="M330.2,342.4l-0.3,0.3l-0.1,10l0.3-0.3l0.1-0.3l0.1-9.9L330.2,342.4z"/>
		<path id="Path_9235" class="st5" d="M263.8,353.1l0-10.1l4.2-0.3l0,10L263.8,353.1z"/>
		<path id="Path_9236" class="st1" d="M255.1,343.2l-0.1-0.1l-0.2-0.1l-0.3-0.1l-0.4-0.1l-0.5-0.1l-0.5-0.1l-0.6-0.1l-0.7-0.1
			l-0.7-0.1l-0.7-0.1l-0.7,0l-0.9,0l-0.8,0l-0.8,0l-0.9,0l-0.9,0h-1l-0.6,0l-0.9,0l-0.9,0l-0.9,0l-0.8,0l-0.8,0.1l-0.7,0.1l-0.7,0.1
			l-0.6,0.1l-0.6,0.1l-0.5,0.1l-0.4,0.1l-0.4,0.1L235,343l-0.2,0.1l-0.1,0.1l0,0.1l0,10.2l0-0.2l0.1-0.1l0.2-0.1l0.3-0.1l0.4-0.1
			l0.4-0.1l0.5-0.1l0.6-0.1l0.6-0.1l0.1,0v1.1l0.1,0.1v-1.2l0.6-0.1l0.7-0.1l0.8-0.1l0.8-0.1l0.9,0l0.9,0l0.9,0l0.6,0h1l0.9,0l0.9,0
			l0.8,0l0.8,0l0.9,0.1l0.7,0.1l0.7,0.1l0.7,0.1l0.7,0.1l0.6,0.1l0.5,0.1l0.5,0.1l0.4,0.1l0.3,0.1l0.2,0.1l0.1,0.1l0,0.2l0-10.2
			L255.1,343.2z"/>
		<path id="Path_9237" class="st1" d="M335.1,353.6l0.1-10.2l0.7-0.3l-0.1,10.1L335.1,353.6z"/>
		<path id="Path_9238" class="st0" d="M270.7,353.8l0-10.2l6.3-0.2l0,10.2L270.7,353.8z"/>
		<path id="Path_9239" class="st1" d="M269.3,343.3L268,343l0,10.1l1.3,0.4l1.5,0.3l0-10.2L269.3,343.3z"/>
		<path id="Path_9240" class="st6" d="M221.3,353.8l0-10.2l4.6,0.1l0,10.3L221.3,353.8z"/>
		<path id="Path_9241" class="st1" d="M334.1,354l0.1-10.3l0.9-0.3l-0.1,10.2L334.1,354z"/>
		<path id="Path_9242" class="st0" d="M327.3,353.7l0.1-10.2l6.9,0.3l-0.1,10.3L327.3,353.7z"/>
		<path id="Path_9243" class="st1" d="M278.9,343.6l-1.8-0.3l0,10.2l1.8,0.3l2,0.3l0-10.3L278.9,343.6z"/>
		<path id="Path_9244" class="st1" d="M326.2,343.7l-1.3,0.2l-0.1,10.3l1.3-0.3l1.2-0.3l0.1-10.2L326.2,343.7z"/>
		<path id="Path_9245" class="st7" d="M251.9,343.4L251.9,343.4l-0.2,0.1l-0.2,0.1l-0.3,0.1l-0.3,0.1l-0.4,0.1l-0.4,0.1l-0.5,0.1
			l-0.5,0l-0.5,0l-0.6,0l-0.6,0l-0.6,0l-0.7,0l-0.7,0h-0.7h-0.6l-0.5,0l-0.6,0l-0.6,0l-0.6,0l-0.6,0l-0.6,0l-0.5-0.1l-0.5-0.1
			l-0.4-0.1l-0.4-0.1l-0.3-0.1l-0.2-0.1l-0.2-0.1l-0.1-0.1l0,10.2l0.1,0.1l0.2,0.1l0.2,0.1l0.3,0.1l0.4,0.1l0.4,0.1l0.4,0.1l0.5,0.1
			l0.6,0.1l0.6,0.1l0.6,0l0.6,0l0.6,0l0.5,0h0.6h0.7l0.7,0l0.7,0l0.6,0l0.6,0l0.6,0l0.5-0.1l0.5-0.1l0.5-0.1l0.4-0.1l0.4-0.1
			l0.3-0.1l0.3-0.1l0.2-0.1l0.1-0.1l0.1-0.1l0-0.1L251.9,343.4L251.9,343.4z"/>
		<path id="Path_9246" class="st6" d="M227.4,344.4l-0.5-0.1l-0.4-0.1l-0.5-0.2l-0.3-0.2l0,10.3l0.3,0.2l0.4,0.3l0.4,0.2l0.5,0.2
			L227.4,344.4z"/>
		<path id="Path_9247" class="st5" d="M266.5,355.2l0-10.5l2-0.7l0,10.3L266.5,355.2z"/>
		<path id="Path_9248" class="st5" d="M261.6,355l0-10.5l4.9,0.1l0,10.5L261.6,355z"/>
		<path id="Path_9249" class="st0" d="M290.5,344.6l-2.6-0.2l-0.1,10.4l2.6,0.2l2.6,0.2l0.1-10.5L290.5,344.6z"/>
		<path id="Path_9250" class="st1" d="M317,344.6l-2.3,0.1l-0.1,10.5l2.3-0.1l2.1-0.2l0.1-10.5L317,344.6z"/>
		<path id="Path_9251" class="st0" d="M304.2,345l-2.7,0l-0.1,10.6l2.7,0l2.7,0l0.1-10.6L304.2,345z"/>
		<path id="Path_9252" class="st1" d="M283.1,355.6l0.1-10.6l4.7-0.6l-0.1,10.4L283.1,355.6z"/>
		<path id="Path_9253" class="st0" d="M280.7,344.8l-2.3-0.2l0,10.5l2.3,0.3l2.4,0.2l0.1-10.6L280.7,344.8z"/>
		<path id="Path_9254" class="st1" d="M327.2,344.9l-2,0.2l-0.1,10.6l2-0.2l1.8-0.3l0.1-10.5L327.2,344.9z"/>
		<path id="Path_9255" class="st0" d="M319.1,354.9l0.1-10.5l6,0.6l-0.1,10.6L319.1,354.9z"/>
		<path id="Path_9256" class="st6" d="M261,344.7l-0.7,0.1l-1.1,0.2l-1.2,0.2l0,10.6l1.2-0.2l1.1-0.2l0.7-0.1l0.6-0.2l0-10.5
			L261,344.7z"/>
		<path id="Path_9257" class="st6" d="M224,355.3l0-10.5l3.7,0.6l0,10.7L224,355.3z"/>
		<path id="Path_9258" class="st5" d="M227.7,356.1l0-10.7l4.4-0.3l0,10.6L227.7,356.1z"/>
		<path id="Path_9259" class="st6" d="M237.2,345.5l-1.7-0.1l-1.5-0.1l-1.5-0.1l-0.5-0.1l0,10.6l0.5,0.1l1.5,0.2l1.5,0.1l1.7,0.1
			L237.2,345.5z"/>
		<path id="Path_9260" class="st1" d="M293,355.2l0.1-10.5l0.7,0.9l-0.1,10.7L293,355.2z"/>
		<path id="Path_9261" class="st6" d="M249.9,345.6l-1.2,0l-1.8,0l-1.9,0v10.8l1.9,0l1.8,0l1.2,0l1.1-0.1v-10.7L249.9,345.6z"/>
		<path id="Path_9262" class="st1" d="M299.4,356.5l0.1-10.8l2-0.8l-0.1,10.6L299.4,356.5z"/>
		<path id="Path_9263" class="st0" d="M296.6,345.7l-2.8-0.1l-0.1,10.7l2.8,0.1l2.8,0.1l0.1-10.8L296.6,345.7z"/>
		<path id="Path_9264" class="st0" d="M313.4,345.7l-2.7,0.1l-0.1,10.8l2.7-0.1l2.6-0.1l0.1-10.7L313.4,345.7z"/>
		<path id="Path_9265" class="st1" d="M306.8,355.5l0.1-10.6l3.8,0.8l-0.1,10.8L306.8,355.5z"/>
		<path id="Path_9266" class="st5" d="M254.1,356.9l0-10.8l5.7-0.4l0,10.8L254.1,356.9z"/>
		<path id="Path_9267" class="st5" d="M251.1,356.3v-10.7l3.1,0.5l0,10.8L251.1,356.3z"/>
		<path id="Path_9268" class="st5" d="M243.3,357.2l0-10.9l1.8-0.6v10.8L243.3,357.2z"/>
		<path id="Path_9269" class="st5" d="M236.8,357l0-10.9l6.5,0.2l0,10.9L236.8,357z"/>
		<path id="Path_9270" class="st6" d="M310.7,341.3l-0.2-0.1l-0.3-0.1l-0.4-0.1l-0.5-0.1l-0.6-0.1l-0.7-0.1l-0.7-0.1l-0.8-0.1
			l-0.6-0.1l-0.9-0.1l-1-0.1l-1-0.1l-1,0l-1,0l-1,0l-1,0l-1,0l-1,0l-1,0l-0.9,0l-0.9,0l-0.8,0l-0.8,0.1l-0.8,0.1l-0.7,0.1l-0.4,0.1
			l-0.6,0.1l-0.5,0.1l-0.4,0.1l-0.3,0.1l-0.2,0.1l-0.1,0.1l0,0.1l0.1,0.1l0.2,0.1l0.3,0.1l0.4,0.1l0.5,0.1l0.5,0.1l0.6,0.1l0.7,0.1
			l0.8,0.1l0.6,0.1l0.9,0.1l1,0.1l1,0.1l1,0.1l1.1,0l1.1,0l1.1,0h1.1l1,0l1,0l1,0l0.9,0l0.9-0.1l0.8-0.1l0.8-0.1l0.7-0.1l0.4-0.1
			l0.6-0.1l0.5-0.1l0.4-0.1l0.2-0.1l0.1-0.1l0-0.1l-0.1-0.1L310.7,341.3z"/>
		<path id="Path_9271" class="st0" d="M330.2,342.4l0.1-0.3l6.4-0.1l-0.3-0.3l-0.5-0.3l-6.6-0.2l-0.6-0.2l-0.8-0.2l4.8-0.3l-1.3-0.3
			l-1.5-0.3l-6,0.1l-1.3-0.2l-1.4-0.2l2.7-0.5l-2-0.2l-2.1-0.2l-4.7,0.3l-1.7-0.1l-1.8-0.1l0.4-0.6l-2.4-0.1l-2.5-0.1l-2.7,0.5
			l-2-0.1l-2,0l-1.9-0.6l-2.5,0h-2.5l-0.6,0.6l-1.9,0l-1.9,0l-3.9-0.5l-2.2,0.1l-2.1,0.1l1.7,0.6l-1.7,0.1l-1.6,0.1l-5.3-0.3
			l-1.6,0.2l-1.5,0.2l3.8,0.5l-1.1,0.2l-1,0.2l-6.2-0.1l-0.8,0.3l-0.7,0.3l5.5,0.4l-0.3,0.3l-0.1,0.3l-6,0.2l0.2,0.3l0.4,0.3
			l6.5,0.1l0.8,0.3l1,0.3L268,343l1.3,0.3l1.5,0.3l6.3-0.2l1.8,0.3l2,0.2l-2.4,0.8l2.3,0.2l2.4,0.2l4.7-0.6l2.6,0.2l2.6,0.1l0.7,0.9
			l2.8,0.1l2.8,0.1l2-0.8l2.7,0h2.7l3.8,0.8l2.7-0.1l2.6-0.1l-1.3-0.9l2.3-0.1l2.1-0.1l6,0.6l2-0.2l1.9-0.2l-4.2-0.8l1.3-0.2
			l1.2-0.2l6.9,0.3l0.9-0.3l0.7-0.3l-6-0.5L330.2,342.4z M316.2,342.2l-0.4,0.1l-0.7,0.2l-0.9,0.2l-1,0.1l-1.1,0.1L311,343l-1.3,0.1
			l-1.4,0.1l-1.5,0.1l-1.5,0l-1.6,0H302l-1.7,0l-1.7,0l-1.7,0l-1.6-0.1l-1.6-0.1l-1.1-0.1l-1.6-0.1l-1.5-0.1l-1.3-0.1l-1.2-0.2
			l-1.1-0.2l-0.9-0.2l-0.8-0.2l-0.6-0.2l-0.5-0.2l-0.3-0.2l-0.2-0.2l-0.1-0.2l0.1-0.2l0.2-0.2l0.4-0.2l0.5-0.2l0.4-0.1l0.8-0.2
			l0.9-0.1l1-0.1l1.1-0.1l1.2-0.1l1.3-0.1l1.3-0.1l1.4,0l1.4,0l1.5,0h3l1.5,0l1.5,0l1.5,0.1l1.5,0.1l1,0.1l1.5,0.1l1.4,0.1l1.3,0.1
			l1.2,0.1l1.1,0.1l1,0.2l0.9,0.2l0.7,0.2l0.6,0.2l0.5,0.2l0.3,0.2l0.2,0.2l0.1,0.2l-0.1,0.2l-0.2,0.2L316.2,342.2z"/>
		<path id="Path_9272" class="st8" d="M251.8,343.1l-0.2-0.1l-0.2-0.1l-0.3-0.1l-0.3-0.1l-0.4-0.1l-0.4-0.1l-0.5-0.1l-0.5,0l-0.6,0
			l-0.6,0l-0.6,0l-0.6,0l-0.6,0l-0.5,0h-0.5h-0.7l-0.7,0l-0.6,0l-0.6,0l-0.6,0l-0.6,0l-0.5,0l-0.5,0l-0.5,0.1l-0.4,0.1l-0.4,0.1
			l-0.3,0.1l-0.3,0.1l-0.2,0.1l-0.2,0.1l-0.1,0.1l-0.1,0.1v0.1l0.1,0.1l0.1,0.1l0.2,0.1l0.2,0.1l0.3,0.1l0.4,0.1l0.4,0.1l0.5,0.1
			l0.5,0.1l0.6,0l0.6,0l0.6,0l0.6,0l0.6,0l0.5,0h0.6h0.7l0.7,0l0.7,0l0.6,0l0.6,0l0.6,0l0.5,0l0.5,0l0.5-0.1l0.4-0.1l0.4-0.1
			l0.3-0.1l0.3-0.1l0.2-0.1l0.2-0.1l0.1-0.1l0-0.1L251.8,343.1L251.8,343.1z"/>
		<path id="Path_9273" class="st5" d="M264.1,343.5l0-0.2l-0.1-0.2l-0.2-0.2l4.2-0.3l-2.2-0.7l-4.7,0.1l-0.9-0.2l-1.1-0.2l-0.7-0.1
			l-0.8-0.1l1.7-0.5l-5.1-0.3l-2.9,0.4l-1.5-0.1l-1.6,0l-1.1,0l-1.1,0l-1.3-0.5l-5.7,0.1l-0.1,0.5l-1.6,0.1l-1.5,0.1l-1,0.1
			l-0.9,0.1l-3.6-0.3l-4.2,0.5l2.7,0.4l-0.9,0.2l-0.7,0.2l-0.4,0.1l-0.4,0.1l-4.5,0.1l-0.6,0.7l4.6,0.1l0.3,0.2l0.5,0.2l0.4,0.1
			l0.5,0.1l-3.5,0.4l3.7,0.6l4.4-0.3l0.5,0.1l1.5,0.1l1.5,0.1l1.7,0.1l-0.4,0.6l6.5,0.2l1.8-0.6l1.9,0l1.8,0l1.2,0l1.1,0l3.1,0.5
			l5.7-0.4l-1.9-0.6l1.2-0.2l1.1-0.2l0.7-0.1l0.6-0.1l4.9,0.1l2-0.7l-4.5-0.3L264.1,343.5z M254.9,343.5l-0.2,0.1l-0.3,0.1l-0.4,0.1
			l-0.5,0.1l-0.6,0.1l-0.6,0.1l-0.7,0.1l-0.8,0.1l-0.8,0.1l-0.9,0.1l-0.9,0l-1,0l-1,0h-2.7l-0.9,0l-0.9,0l-0.9,0l-0.9-0.1l-0.8-0.1
			l-0.7-0.1l-0.7-0.1l-0.7-0.1l-0.6-0.1l-0.5-0.1l-0.4-0.1l-0.4-0.1l-0.3-0.1l-0.2-0.1l-0.1-0.1l0-0.1l0.1-0.1l0.2-0.1l0.3-0.1
			l0.4-0.1l0.4-0.1l0.5-0.1l0.6-0.1l0.6-0.1l0.7-0.1l0.7-0.1l0.8-0.1l0.8,0l0.9,0l0.9,0l0.9,0h2.5l0.9,0l0.8,0l0.8,0l0.9,0l0.7,0
			l0.7,0.1l0.7,0.1l0.7,0.1l0.6,0.1l0.5,0.1l0.5,0.1l0.4,0.1l0.3,0.1l0.2,0.1l0.1,0.1l0,0.1l-0.1,0.1L254.9,343.5z"/>
		<path id="Path_9274" class="st9" d="M188.4,350.2c-4.3,0.5-8.6,1.3-12.9,2.3c-0.9,0.2-1.7,0.5-2.5,0.9c-0.4,0.2-0.7,0.5-1.1,0.8
			c-0.7,0.4-0.2,0.1-1,0.4c-2.5,0.9-5.7,2.8-9.8,2.5c1.8,0.7,4.3,3.3,5.9,4.1c2.3,1.1,5.1,1.1,7.7,1.1c0.8,0,1.6,0.4,2,1.1
			c1.9-2.7,3.8-3.1,6-4.2s4.5-2,6.7-3.1c0.3-0.1,0.6-0.3,0.7-0.6c0.1-0.3,0-0.6-0.1-0.9c-0.6-1.5-1.4-2.9-2.2-4.3l-0.5,0
			L188.4,350.2z"/>
		<path id="Path_9275" class="st10" d="M188.7,356.4c2.5-1,11.8-5.6,14.5-6.8c-0.3-1-1.2-1.4-2.1-1.9c-0.9-0.5-1.8-0.9-2.8-1.2
			c-1.6-0.5-3.3-0.9-5-1.1c-1.2-0.3-2.5-0.2-3.6,0.3c-0.8,0.5-1.4,1.2-1.8,2c-0.3,0.7-0.6,1.4-0.7,2.2c-0.1,0.7,0.4,1.1,0.8,1.6
			C188.9,353.1,189.1,354.8,188.7,356.4z"/>
		<path id="Path_9276" class="st11" d="M191.3,342.3c-1.1-0.5-2.3-0.7-3.5-0.6c-1.3,0.1-0.9-0.1-2.1,0.3c-2.2,0.7-4.5,1.3-6.8,1.6
			c-4,0.6-8,0.7-12,0.4c-1.9-0.2-3.7-0.6-5.5-1c-0.6-0.2-1.3-0.3-1.9-0.4c-0.4-0.1-1.7-0.5-2.1-0.5c-0.2,0-0.3,0-0.5,0.1
			c-0.1,0.1-0.2,0.2-0.2,0.4c-0.1,0.7,0,1.5,0.2,2.2c0.1,0.7,0.3,1.4,0.5,2.1c0.5,1.7,1.5,3.2,2.8,4.3c2.1,1.6,4.5,1.5,6.9,2.6
			c0.8,0.3,2,1.3,2.9,1.4c1.1,0.1,2.1-0.8,3.2-1.1c2.4-0.8,7.1-1.3,9.6-1.5c2.6-0.2,6.2-0.3,8.8-0.6s3.8-1.3,5.8-3
			c0.5-0.4,0.9-0.9,1-1.6c0.1-1.1-1-1.9-1.9-2.4C195,343.9,193.2,343,191.3,342.3z"/>
		<path id="Path_9277" class="st10" d="M189,340.5c13-2.1,28.7-9.7,42.3-11.4c0-3,8.4-6.3,9.7-9.8c0.7-2-3.4-0.5-3.4-2.3
			c0-0.6-3.2,0.2-3.4,0.3c-1.4,0.6-4.6-0.5-10.5,1.4c-1.4,0.5-3.1,0.5-4.4,1.2c-0.5,0.3-1,0.6-1.5,1c-0.6,0.4-1.2,0.7-1.9,1
			l-2.3,1.2c-0.4,0.2-0.9,0.4-1.3,0.7c-2.3,1.2-4.5,2.4-6.6,3.8s-4,3.2-6,4.7C196.9,334.2,191.7,338.3,189,340.5z"/>
		<path id="Path_9278" class="st12" d="M198.6,336.8c1.1-0.5,2.3-1,3.3-1.6c0.7-0.3,1.3-0.8,1.8-1.3c0.5-0.4,0.8-1.1,1.3-1.5
			c1.2-0.9,2.6-1.5,4.1-1.8c0.8-0.1,1.7-0.3,2.5-0.6c0.7-0.4,11.8-4.4,14-4.8c4.6-0.7,8.3-1.1,12.9-1.8c2.6-0.3,5.1-0.9,7.5-1.9
			c1.8-0.8,3.4-2.1,5.3-2.8c3.6-1.5,8.3,0.3,10.4,3.6c0.6,1.1,1,2.3,1,3.6c0.3,1.7,0.3,3.5,0,5.2c-0.4,1.8-0.9,3.6-1.4,5.4
			c-0.4,1.4-1.1,2.7-1.9,3.9c-1.8,2.6-4.8,3.8-7.8,4.1c-2.7,0.3-5.4,0.4-8.1,0.3c-2.8-0.1-5.8-0.7-8.7-1c-1.5-0.2-3.1-0.1-4.6-0.4
			c-1.1-0.3-2.2-0.4-3.3-0.3c-0.9,0.1-1.8,0.3-2.7,0.5c-1.9,0.5-3.9,0.6-5.8,0.3c-1,0-2,0.3-2.9,0.7c-0.9,0.4-1.8,0.9-2.7,1.3
			c-3,1.5-6,2.8-9.1,3.9c-1.7,0.5-3.3,0.9-5,1.2c-0.4,0.1-6.2,1-8.6,1.1c0.6-1,1.8-6.8-1.4-9.1c-0.8-0.7-1.8-1.1-2.9-1
			c2.6-1.5,5.8-2.4,8.6-3.5C195.8,337.9,197.2,337.4,198.6,336.8z"/>
		<path id="Path_9279" class="st13" d="M195.7,326.3l28.9,2.7c0.3,0,0.6,0,0.8-0.1c0.2-0.1,0.3-0.2,0.4-0.4l17.1-1.9v-0.8l-18.5-1.7
			l-6.3-17.5l-0.3-1c0,0-0.5-1.6-0.9-1.9c-0.4-0.3-0.9-0.4-1.5-0.5c-0.8-0.1-2-0.1-2-0.1l-25.4-0.5c-0.2,0-0.4,0-0.6,0
			c-0.3,0-0.6,0.2-0.8,0.5c-0.1,0.4-0.1,0.8,0,1.1c0.1,0.5,0.3,0.9,0.5,1.4L195.7,326.3z"/>
		<path id="Path_9280" class="st14" d="M225.7,327.2l10.6-0.9l-11.2-0.5L225.7,327.2z"/>
		<path id="Path_9281" class="st15" d="M225.7,327.2l17.3-1.6v0.9l-16.9,1.9L225.7,327.2z"/>
		<path id="Path_9282" class="st16" d="M221.8,282.1c-0.7,4.5-0.6,9.1,0.3,13.5c2.8-0.5,5.6-0.9,8.4-1.1c0.3-6-0.7-11.9-1.6-17.8
			c0-0.4-0.2-0.8-0.4-1.1c-0.6-0.6-1.6-0.2-2.4-0.2c-0.4,0,0-0.2-0.4-0.1c-0.7,0.3-1.3,0.7-1.8,1.2
			C222.8,278.3,222.1,280.2,221.8,282.1L221.8,282.1z"/>
		<path id="Path_9283" class="st11" d="M223.1,306.9c0,0.5,0,1-0.1,1.5c-0.2,0.6-0.4,1.1-0.7,1.6c-0.7,1.4-1.1,2.8-1.5,4.3
			c-0.3,1-0.3,2.1,0.2,3c0.6,1.4,1.1,2.9,1.7,4.3c1.9-1.2,3.5-2.7,4.7-4.5c0.9-1.3,1.4-2.7,1.5-4.2c0.5-3.7,0.6-7.5,0.4-11.2
			c0-0.5-0.8-0.5-1.1-0.9c-0.6-0.7-1.5-1.1-2.4-1c-0.4,0-0.9,0-1.3,0c-0.3,0-1-1.2-1.3-1.1c-0.6,0.1-0.9-0.2-0.8,0.2
			C222.4,301,223,304.9,223.1,306.9z"/>
		<path id="Path_9284" class="st0" d="M266.3,300.6c-0.1,5.2-3.2,0.3-3.1,1.7c0.3,3.1-1.3,13-0.8,22.2c-1-1.2-5.6-3.1-10.1-3.5
			c-1.9-0.2-2.2,0-4.9-0.1c-1-0.1-3.2-0.5-7.9-1c-3.7-0.3-7.3-1-10.8-2c-0.2-0.9-0.3-1.4-0.5-2.2c-0.6-3.5-0.8-4-1.3-6.6
			c-0.1-1.7-0.5-3.3-1-4.9c-1.2-2.6-1.9-1.8-3.8-4c-2.2-2.8-1.9-6.8-1.5-8.7s0.9-3.6,1.4-5.5c0.6-2.3-0.5-1.4-0.1-3.7
			c0.3-1.5,0.7-2.9,1.2-4.3c0.2-0.4,0.4-0.9,0.7-1.2c1-0.8,2.1-1.5,3.3-2.1c1-0.3,5.7-2.5,6.7-2.7c3.6-0.8,3.5,0.8,7.2,0.3
			c4.4-0.6,8.9-0.6,13.4-0.1c0.8,0.1,1.7,0.2,2.5,0.4c0.8,0.1,1.5,0.5,2,1.1c0.2,0.3,0.4,0.7,0.5,1c2.1,2.3,3.5,5.1,4.3,8.2
			C265.3,288.5,266.2,294.5,266.3,300.6z"/>
		<path id="Path_9285" class="st1" d="M258.6,309l-1.4-7.4c-0.7-4.4-1.2-8.9-1.4-13.4c0-0.6,0.4,9.5-5.1,13.5c2,0.6,3.7,1.9,4.8,3.6
			c0.5,1,0.8,2.1,1,3.3c0.1,1.1,0,2.1-0.3,3.1C256.9,312.8,258.6,309,258.6,309z"/>
		<path id="Path_9286" class="st9" d="M233.5,276.4c0.6,1,1.8,1.6,3,1.4c1.3-0.2,2.4-0.7,3.5-1.5c2.7-1.9,5-4.4,6.5-7.4
			c-0.8-0.1-1.5,0.3-1.9-0.4c-1.9-2.6-2.1-6.1-2.8-9.3c-0.1-0.7-0.5-1.4-1-1.9c-0.6-0.3-1.3-0.5-1.9-0.4c-2.1,0.1-4.2,0.2-6.3,0.5
			c-0.5,0-1,0.2-1.4,0.6c-0.2,0.3-0.3,0.6-0.3,0.9c-0.3,2.5-0.1,5.1,0.5,7.6c0.3,1.2,0.6,2.5,1,3.7c0.3,0.8,0.6,1.7,0.8,2.6
			C233.4,274.1,233,275.3,233.5,276.4z"/>
		<path id="Path_9287" class="st11" d="M225.1,251.5c-1.3,0.3-2.7,2.6-3.2,3.9c-0.2,0.5-0.2,0.9-0.2,1.4c0,0.2,0,0.5,0,0.7
			c0.1,0.2,0.1,0.4,0.2,0.6c0.4,1,0,2.2,0.4,3c0.2,0.5,0.7,0.6,0.9,1.1c0.2,0.8,0.4,1.6,0.3,2.3c0,1.1,0.4,2.1,1.1,3
			c0.4,0.4,0.8,0.8,1.3,1.1c0.5,0.4,0.9,0.8,1.3,1.2c0.7,0.8,1.2,1.7,1.6,2.6c0.4,0.9,0.8,1.6,1.8,1.8c1.1,0.2,2.1-0.1,3-0.7
			c0.3-0.2,0.7-0.4,1-0.7c2-1.3,3.7-3.2,4.9-5.3c0.3-0.5,0.5-1,0.6-1.5c0.1-0.5,0-0.9,0-1.4c-0.1-0.7,0-1.5,0-2.2
			c0-0.4,0.1-0.7,0.1-1.1c0.1-0.3,0-0.6,0.1-0.8c0.3-1.2,0.4-2.5,0.1-3.7c-0.4-1-1.1-1.9-2.1-2.3c-1-0.5-2-0.8-3.1-1
			c-1.8-0.3-3.8-1.2-5.6-1.3C228.1,252.1,226.7,251.2,225.1,251.5z"/>
		<path id="Path_9288" class="st10" d="M222.2,255.3c-0.2,0.5-0.3,1-0.3,1.6c0.1,0.8,0.2,1.7,0.2,2.5c-0.2-0.4-0.4-0.9-0.6-1.3
			c-0.2-0.4-0.4-0.8-0.6-1.2c-0.3-0.8-0.4-1.6-0.5-2.4c-0.1-1.6,0.2-3.3,1-4.7c0-0.1,0.1-0.2,0.1-0.2c1.3-2.2,3.2-4,5.4-5.3
			c1.6-1,3.3-1.7,5.1-2c2.5-0.4,5,0.2,7,1.8l0.1,0.1c1.1,1,2,2.2,2.7,3.6c0.9,1.5,1.9,2.9,2.7,4.5c0.8,1.6,1.4,3.2,2,4.8
			c0.6,1.7,1,3.3,1.3,5.1c0.4,1.6,0.9,3.1,1.5,4.6c0.4,0.7,0.9,1.4,1.6,1.9c1.4,1,3.4,1.1,5,1.8c0.9,0.4,1.7,1,2.3,1.7
			c0.7,0.6,1.2,1.4,1.3,2.3c-1.4-1.5-3.2-2.4-5.2-2.6c-2-0.2-4-0.2-5.9,0c-2.1,0.2-4.5,0.3-6.1-1.1c-1-1-1.7-2.3-2-3.7
			c-0.3-1.4-0.4-2.8-0.8-4.2c-0.8-2.5-2.5-4.7-4.8-6.1c-1.7-1-3.5-1.8-5.4-2.2c-0.6-0.1-1.3-0.2-2-0.3c-0.7-0.1-1.7-0.2-2-1
			c-0.1-0.4-0.1-0.9,0.1-1.3c-0.3,0.4-0.5,0.8-0.8,1.3c-0.2,0.4-0.4,0.7-0.8,0.9c-0.4,0.1-0.9,0.4-1.2,0.7
			C222.5,254.9,222.3,255.1,222.2,255.3z"/>
		<path id="Path_9289" class="st11" d="M225,320c0,0-0.3-0.4-0.4-0.4c-0.1-0.2-0.2-0.5-0.2-0.7c0-0.3,0.2-0.6,0.5-0.6
			c0.2,0,0.3,0,0.5,0.1c1.2,0.4,2.5,0.7,3.8,0.7c0.6,0,1.2,0,1.8,0.1c0.7,0.1,1.3,0.1,2,0.2c0.8,0.2,1.6,0.5,2.3,0.8
			c0.7,0.2,1.4,0.2,2.1,0.1c1-0.1,2.1-0.4,3-0.8c2.7-0.9,5.4-2.1,7.9-3.5c0.7-0.4,1.5-0.9,2.2-1.4c0.7-0.5,1.5-0.9,2.3-1.4
			c1.1-0.7,2.2-1.4,3.3-2.2c0.5-0.3,0.9-0.6,1.3-1c0.4-0.2,0.7-0.5,1-0.8c0-0.4,0-0.8,0-1.2c0-0.5-1.1-5.2-1.1-6.5
			c3.1,0.4,6.2,0.1,9.2-0.9c0.1,1.1,0,4.7,0,5.5c0,2.2,0,4.4-0.3,6.6c0,0.6-0.2,1.2-0.4,1.7c-0.4,0.6-1,1.1-1.7,1.4
			c-0.8,0.4-1.7,0.8-2.5,1.2c-0.7,0.4-1.8,0.9-2.6,1.4c-1.7,1-3.4,1.8-5.2,2.5c-2.1,0.9-4.2,1.6-6.4,2.2c-1.7,0.4-3.3,0.9-4.9,1.6
			c-0.5,0.3-1.1,0.6-1.7,0.8c-0.8-0.1-1-0.1-1.6-0.1c-0.6,0.1-1.2,0.1-1.8-0.1c-0.5-0.3-1.1-0.5-1.7-0.7c-0.5-0.1-1.1-0.1-1.6,0.1
			c-0.5,0.2-1,0.4-1.5,0.7c-0.3,0.2-0.5,0.3-0.8,0.4c-0.3,0.1-0.6,0.1-0.9,0c-0.3-0.1-0.5-0.4-0.4-0.7c0-0.4,0.5-0.7,0.8-0.9
			c0.4-0.3,0.9-0.6,1.3-0.8c-0.6,0.2-1.1,0.3-1.7,0.4c-0.4,0.1-0.8,0.2-1.2,0.3c-0.4,0.1-0.9,0.2-1.3,0.3c-0.5,0.2-1,0.2-1.5,0.2
			c-0.3-0.1-0.6,0-0.9,0.1c-0.3,0.2-0.6,0.3-0.9,0.4c-0.2-0.5-0.4-1-0.6-1.5c0-0.1-0.1-0.2,0-0.3c0-0.1,0.1-0.1,0.2-0.2l3.4-1.5
			c-0.7,0-1.4,0.1-2,0.3c-0.3,0.1-0.7,0.2-1,0.4c-0.1,0-0.9,0.4-0.9,0.5c-0.1-0.7-0.4-1.3-0.7-2L225,320z"/>
		<path id="Path_9290" class="st17" d="M186.6,303c0.2-0.3,0.4-0.5,0.8-0.5c0.2,0,0.4,0,0.6,0l25.4,0.5c0,0,1.2,0,2,0.1
			c0.5,0,1,0.2,1.5,0.5c0.4,0.3,0.9,1.9,0.9,1.9l0.3,1l6.3,17.5l0,0l1.6,4.5c0,0-0.5,0.3-0.7,0.4c-0.3,0.1-0.5,0.1-0.8,0.1
			l-28.9-2.7l-8.6-20.8c-0.2-0.5-0.4-0.9-0.5-1.4C186.5,303.7,186.5,303.3,186.6,303z"/>
		<path id="Path_9291" class="st18" d="M156.5,336.9c1.7,1.2,3.3,2.5,4.8,3.9c2.6,2.3,6.1,2.8,7,3.1c0.9,0.2,1.6,0.8,1.8,1.7
			c0.2,1.1,0,2.3-0.5,3.3c-0.7,2.3-0.2,4.9,1.4,6.8c-5.2,0.9-11.1-0.2-14.8-4c-1.8-2-3.1-4.5-3.7-7.2c-0.3-2-0.4-4.1-0.4-6.1
			c0-0.8-0.1-1.4,0.2-1.5c0.5-0.3,1-0.4,1.6-0.5C154.9,336.4,155.8,336.6,156.5,336.9z"/>
		<path id="Path_9292" class="st19" d="M156.8,349.9c-2-2.9-3.3-9.5-2.7-13.5c-0.4,0-0.7,0-1.1,0.1c-0.4,0-0.7,0.3-0.9,0.7
			c-0.1,0.5-0.2,0.9-0.2,1.4c0,0.6,0,1.1,0,1.6c0.1,1.1,0.2,2.2,0.3,3.3c0,0.3,0.1,0.7,0.2,1c0.8,2.6,1.8,5.5,3.7,7.4
			c1,0.9,2.2,1.6,3.4,2.2C158.2,352.4,158.2,351.9,156.8,349.9z"/>
		<path id="Path_9293" class="st20" d="M163.9,352.9c-2.2-1.3-2.9-2.2-5.2-3.2c-1.3-0.6-2.7-0.6-4,0c-0.9,0.5-1.7,1.4-2.1,2.3
			c-0.8,3.4,2.9,7.3,3.9,8.4c4,4.2,8.4,8.2,13,11.8c1.2,1.1,2.9,1.5,4.5,1.1c0.8-0.9,1.3-1.9,1.7-3c0.4-1.4,0.7-5.4,1.4-7
			c-0.1,0.1-1.6-0.8-3.6-3.6c-0.8-1.1-2.2-4-2.5-4.5C168.5,354.8,166.1,354.1,163.9,352.9z"/>
		<path id="Path_9294" class="st19" d="M172.2,366.9c-2.2-1.8-4.2-3.9-5.9-6.1c-3.1-3.9-5-8.9-9.7-11c-0.6-0.3-1.3-0.3-1.9-0.1
			c-0.9,0.5-1.7,1.4-2.1,2.3c-0.8,3.4,2.4,7.1,3.4,8.1c4.2,4.3,8.7,8.3,13.4,12c1.2,1.1,2.9,1.5,4.5,1.1c0.6-0.7,1.1-1.4,1.4-2.3
			C174.6,369.4,173.5,368,172.2,366.9z"/>
		<path id="Path_9295" class="st21" d="M173.2,370.9c-1-1.2-2.2-2.4-3.4-3.4c-1.6-1.4-3-2.9-4.4-4.5c-1.6-2-2.1-3.2-3.6-5.3
			c-1.1-1.6-5.6-7.3-8.2-6.9c-0.7,0.1-0.9,0.9-1,1.3c-0.4,2.1,0,4.2,1,6.1c1.1,2.1,2.8,3.9,4.7,5.3c5.9,4.8,6.3,5.4,11.1,8.9
			c0.9,0.7,2.1,1.1,3.3,1.2c1.2,0,1.4-0.5,1.4-0.7C174,372.1,173.7,371.4,173.2,370.9z"/>
		<circle id="Ellipse_195" class="st22" cx="153.4" cy="53.3" r="37.7"/>
		<path id="Path_9296" class="st9" d="M432,327.9c-2-0.1-3.4-0.2-5.4-0.4c-0.2,0-0.5-0.1-0.6-0.2c-0.2-0.2,0-0.5-0.1-0.7
			c-0.3-0.9-0.3-1.8-0.1-2.8c0.2-3.9,0-7.7-0.6-11.6c1.5-0.2,2.7-0.1,4.2-0.3c0.5-0.1,1.8-1.9,1.8-1.3c0.3,7,1.1,9.4,1.1,12.3
			C432.5,324.6,432.3,326.3,432,327.9z"/>
		<path id="Path_9297" class="st18" d="M431.4,325.5c-0.4-0.1-0.8-0.1-1.2-0.3c-1-0.2-2-0.1-2.9,0.3c-0.3,0.1-0.6,0.2-1,0.2
			c-0.3,0-0.8-0.3-0.7-0.6c-0.2,0.3-0.3,0.8-0.2,1.2c0,1.6-0.2,3.2-0.8,4.7c-0.3,1-0.8,1.9-1.2,2.9c-0.3,1-0.4,2.1-0.2,3.1
			c0.1,1.1,0.7,2,1.6,2.6c0.6,0.3,1.2,0.4,1.9,0.5c1.5,0.1,3,0.1,4.4,0c0.5,0,0.9-0.1,1.4-0.2c0.6-0.3,1-0.9,1.1-1.5
			c0.3-1.2,0.3-2.5-0.1-3.7c-0.4-1.2-0.7-2.5-0.9-3.8c0-1,0-2.1,0.1-3.1c0.1-0.9,0-1.9-0.5-2.8C432.2,325.3,431.8,325.5,431.4,325.5
			z"/>
		<path id="Path_9298" class="st19" d="M423.8,337.2c0.9,1,2.2,1.1,3.6,1.1c0.9,0,2.2,0,3.1,0c0.7,0,1.4-0.1,2-0.3
			c1.1-0.5,1.2-1.2,1.4-2.2c0.1,0.8,0.1,1.6-0.2,2.4c-0.2,0.6-0.6,1.2-1.1,1.5c-0.5,0.2-0.9,0.3-1.4,0.3c-1.5,0.1-2.9,0.1-4.4,0
			c-0.7,0-1.3-0.2-1.9-0.5c-0.9-0.5-1.5-1.5-1.6-2.6c-0.1-0.5-0.1-1.1-0.1-1.6C423.3,336,423.5,336.7,423.8,337.2z"/>
		<path id="Path_9299" class="st10" d="M431.6,297.2c0,0.1,0,0.2,0,0.4c0.3,3.9,0.6,7.9,0.9,11.8c0.1,0.7,0.1,1.8,0.1,1.8
			c-0.8,1.1-2.6,1.6-4.3,1.8c-3.5,0.3-4.7-0.1-4.8-0.6c-0.4-1.7-1.3-6.7-2-11.3C424.9,299.8,428.3,298.5,431.6,297.2z"/>
		<path id="Path_9300" class="st12" d="M436,286.8c-0.5,2.6-3.1,4.2-3.8,6.8c-0.3,0.9-0.4,1.7-0.5,2.6c-0.3,0.1-0.6,0.3-0.9,0.4
			c-2.1,1.1-4.2,2.3-6.2,3.7c-1,0.7-2,1.5-2.9,2.3c-0.4-2.3-0.8-4.7-1-6.5c-0.7-4.5-1.2-8.9-2.2-13.3c-2.8-12.3-7.8-24.4-7.1-37.2
			c0.1-2.5,0.5-4.9,1.4-7.2c0.3-1,0.8-2,1.5-2.9c0.8-0.7,2.1-0.3,3.2-0.2c2.5,0.2,5.1,0.3,7.6,0.3c1.3,0,15.2-0.4,15.1-1
			c0.8,14.2,0,28.4-2.4,42.4C437.3,280.3,436.6,283.6,436,286.8z"/>
		<path id="Path_9301" class="st23" d="M421,242.2c-1.4,0.1-5.7,0-7-0.6s-1.5-1.3-1.3-2.7c0,0.4,10.1,1,11,1.1c0.5,0,1.1,0,1.6,0
			c0.3,0,1.1-0.1,1.3,0.1C424.5,241.8,423.5,242,421,242.2z"/>
		<path id="Path_9302" class="st10" d="M422,249.3c0.7,0.8,1,2.2,3.3,3.9c0.5,0.3,1.5,1.3,1.8,4c0.5,7.3,1.4,26.6,1.4,28.3
			c-0.8,0.8-2.2,1.7-3.5,2.7c-2.3,1.8-4,6.4-4.3,9.2c-0.4,3.6,0.7,7.1,2,8.5c1.9-2.5,6.2-2.3,7.8-5c0.7-1.2,0.6-2.8,0.7-4.2
			c0.2-3.5,1.5-6.9,2.4-10.2c3.4-11.6-0.9-22-3.6-33.9C428.2,252.5,425.7,251.6,422,249.3z"/>
		<path id="Path_9303" class="st18" d="M414.6,312.7c-1.7,0.6-2.9,1-3.5,1.7c-1,1.4-1.3,3-0.9,4.7c0.3,1.6,1,3,1.4,4.6
			c0.2,1.6,0.3,3.2,0.1,4.8c0,1.6,0.1,3.2,0.3,4.9c0.1,1.7,0.7,3.3,1.7,4.6c1.1,1.4,3,2,4.7,1.4c0.9-0.4,1.6-1,2-1.9
			c1.2-2.3,1.3-5.4,1.1-8.1s-0.8-3.5-0.7-7.9c0-1.8,0.3-1.7-0.7-5.5c-0.3-1.4-1-2.7-2.2-3.6c-0.5-0.3-0.7-0.8-1.4-0.6
			S415.4,312.4,414.6,312.7z"/>
		<path id="Path_9304" class="st19" d="M411.2,320.9c0.3,1.1,0.5,2.1,0.6,3.2c0.1,1.3,0.1,2.6,0,3.9c-0.1,1.8,0.1,3.6,0.5,5.4
			c0.4,1.8,1.6,3.4,3.1,4.4c1.6,1,3.7,0.8,5-0.6c-0.4,1-1.2,1.8-2.2,2.2c-1.7,0.5-3.5-0.1-4.6-1.4c-1.2-1.3-1.9-2.9-2-4.6
			c-0.1-1.9-0.1-3.8,0-5.6c0.1-1.5,0-3.1-0.4-4.6c-0.4-1.5-1.2-2.8-1.4-4.3c-0.2-1.1-0.1-2.2,0.2-3.3c0.2-0.7,0.8-1.3,1.4-1.5
			c-0.5,0.8-0.8,1.8-0.7,2.8C410.7,318.3,410.9,319.6,411.2,320.9L411.2,320.9z"/>
		<path id="Path_9305" class="st9" d="M422,305.6c-0.8-0.4-1.5-3.5-1.8-4.3c-0.9,2.5-2,7.8-3.6,10.4c-0.5,0.7-1.3,1.6-1.8,2.3
			c-0.6,1.3-0.8,2.8-0.4,4.2c0.2,1,1.1,2,1.9,1.9c1-0.1,2-0.7,4,0c-0.2-0.6-0.2-1.2-0.1-1.7c0.8-1.7,1.7-3.4,2.6-5
			c0.6-1.1,1.2-2.2,1.9-3.2c0.3-0.5,0.7-1,1-1.5c0.4-0.6-0.1-0.7-0.7-0.9C423.8,307.4,423.3,306.2,422,305.6z"/>
		<path id="Path_9306" class="st12" d="M418.3,304.3c0.6-1.7,4.1-11.6,6.3-14.1c2.4-2.6,4.1-3.1,5.2-3.9c0.5-1.8,0.1-7.5,0.1-9.7
			l0.1-7.2l0.2-16c0-2.7,0.1-5.3,0.1-8c0-2.6,0.2-5.2,0.1-7.8c0,0,7.8-0.6,8.5-0.7c1.4-0.2,2.8-0.3,4.2-0.6c0.8-0.1,2.6-0.8,3.2-0.1
			c0.3,0.6,0.4,1.3,0.5,1.9c0.1,0.7,0.3,1.3,0.4,2c0.2,1.4,0.4,2.7,0.6,4.1c0.3,2.7,0.4,5.5,0.4,8.3c-0.2,4.4-0.7,8.8-1.6,13.2
			c-0.8,4.5-1.6,9.1-2.7,13.6c-0.8,4.3-2.3,8.4-4.4,12.1c-3.3,5.4-9.5,10.6-12.1,17.4c-1.2,0.4-2.5,0.3-3.7-0.1
			c-1.9-0.5-3.6-1.7-4.8-3.4C418.1,304.5,418.3,304.3,418.3,304.3z"/>
		<path id="Path_9307" class="st24" d="M450.9,210c-0.2,0.2-0.2,0.6,0,0.8c0.1,0.1,0.2,0.1,0.3,0.2l4.2,0.7c0.2,0,0.4,0,0.5-0.2
			l11.4-10.9c0.2-0.2,0.2-0.6,0-0.8c-0.1-0.1-0.2-0.1-0.3-0.2l-4.2-0.9c-0.2,0-0.4,0-0.5,0.2L450.9,210z"/>
		<path id="Path_9308" class="st9" d="M441,212c1,0,2-0.1,3-0.2c1.7-0.1,3.3-0.5,5-0.7c-0.1,0.8-0.1,1.6,0,2.4c0,0.2,0.2,1.7,0,1.8
			c1.4-0.8,3.4-2,4.1-3.5c0.1-0.2,0.2-0.3,0.3-0.5v0c0.3-0.5,0.6-0.9,1-1.3c0.1-0.1,0.2-0.3,0.2-0.5c0-0.2,0-0.3,0-0.5
			c-0.1-0.3-0.3-0.7-0.5-1c-0.2-0.4-0.5-0.8-0.6-1.2c-0.1-0.3-0.4-0.9,0-1.2s0.7,0,0.9,0.3c0.1,0.1,0.1,0.1,0.2,0.2
			c0.3,0.4,0.6,0.9,1,1.3c0.4,0.4,0.7,0.9,1,1.4c-0.1-0.1-0.1-0.2-0.1-0.3c0-0.2,0-0.3-0.1-0.5c-0.1-0.3-0.2-0.6-0.3-0.8
			c-0.2-0.4-0.4-0.8-0.7-1.1c-0.4-0.4-0.7-0.8-1-1.3c-0.1-0.2-0.2-0.4-0.1-0.7c0.2-0.3,0.6-0.4,1-0.2c0,0,0.1,0,0.1,0.1
			c0.8,0.6,1.6,1.3,2.3,2.1c0.4,0.5,0.8,1.1,1.2,1.7c0,0,0,0,0,0s0,0,0,0c0-0.3-0.1-0.5-0.2-0.8c-0.4-0.8-0.8-1.5-1.4-2.1
			c-0.3-0.3-0.8-0.7-1.1-1c-0.3-0.3-0.5-0.7-0.5-1.1c0-0.3,0.2-0.5,0.5-0.5c0.4-0.1,1.1,0.4,1.7,1c0.9,0.6,1.7,1.4,2.4,2.2
			c-0.3-1-0.6-1.9-1.2-2.8c-0.1-0.3-0.2-0.6-0.3-0.9c-0.1-0.2,0-0.5,0.2-0.6c0.5-0.3,0.8,0.2,0.9,0.3c0.4,0.6,0.8,1.3,1.2,1.9
			c0.4,0.4,0.7,1,0.8,1.5c0.1,0.8,0.2,1.7,0.1,2.5c-0.1,0.3-0.5,0.5-0.6,0.9c-0.1,0.3-0.1,0.5-0.2,0.8c-0.2,0.5-0.6,0.9-1,1.3
			c-0.6,0.5-1.1,1-1.6,1.5c-0.7,0.7-1.2,1.5-1.6,2.4c-0.1,0.1-0.1,0.3-0.2,0.4c-0.8,1.7-1,2.1-1.7,3.6c-2.4,4.7-4.8,6.1-5.4,6.4
			c-0.9,0.4-1.9,0.7-2.9,0.8c-1.1,0-4.1-2.3-4.7-3.1s-0.3-1-0.3-1.9s-0.3-1.9-0.4-2.8C441.4,216.1,441.3,214,441,212z"/>
		<path id="Path_9309" class="st25" d="M440.5,214.1c0.1,0,0.1-0.1,0.2-0.1l1.9,0c0.2,0,1.2-0.2,1.2,0c-0.7,3.8-1.1,9.2-0.3,9.8
			c-0.1-0.1-1.1-0.8-1.2-0.9c-0.5-0.6-0.3-0.8-0.5-1.6c-0.7-2.3-1.2-4.8-1.3-7.2C440.4,214.2,440.4,214.1,440.5,214.1z"/>
		<path id="Path_9310" class="st6" d="M433.4,188.1c2.5,0.2,9.5,0.5,11.5,3.3c1.1,1.6,1.9,3.5,2.3,5.4c1,5,1.6,10,2,15.1
			c-0.6,0.9-3.2,2-7,2.3c-0.5,6.6,0.3,7.2,1.5,12.9c0.5,2.2,1.2,4.3,2.3,6.2c0.4,1,0.7,2,0.9,3.1c0,0.3-1.3,1.4-1.9,1.6
			c-1.6,0.6-3.3,1.2-5,1.5c-5.3,1.1-10.6,1.5-16,1.2c-2.5-0.1-4.9-0.4-7.3-0.7c-0.8-0.1-1.7-0.3-2.5-0.5c-0.7-0.2-2.6-0.8-2.6-1.3
			c0-1.8,0.4-3.6,1.1-5.2c0.4-0.8,0.8-1.6,1.1-2.5c0.5-1.9,0.9-3.9,1-5.8c0.1-1.5,0.1-2.9,0-4.4c0-0.7-0.1-1.4-0.2-2.1
			c-0.1-0.6-0.6-2.8-0.8-3.5c-0.8-2.2-1.4-4.5-1.8-6.8c-0.3,1.6-0.7,3.2-1.2,4.7c-0.5,1.9-1.1,3.7-1.7,5.6c-5.1,0.7-8.9-2.6-9-3.1
			c0.9-5.3,2.1-10.6,3.8-15.7c0.4-1.8,1.2-3.5,2.3-5c1.8-2.1,6.9-4,9.6-4.7c3.3-0.9,4.3-0.6,7.7-1.2
			C426.7,188,430.1,187.9,433.4,188.1z"/>
		<path id="Path_9311" class="st26" d="M441,200.1c1.1,4.2,3.2,7.1,2.7,13.9c-0.4,0.1-1.2,0.2-1.5,0.2
			C443.4,205,441,202.3,441,200.1z"/>
		<path id="Path_9312" class="st9" d="M398.4,223.4c0.1-0.6,0.6-3.2,0.5-2.5c-0.1,0.2,0.7-2.9,0.9-3.8c0.1-0.3,0.1-0.5,0.3-1.7
			c1.2,1.4,4.2,2.5,4.7,2.6c1.3,0.3,2.6,0.4,3.9,0.3c-0.5,1.8-1,2.9-1.2,3.6c-0.2,0.5-0.4,1.1-0.4,1.6c0,0,2.3,1.7,3.2,2.4
			c1.3,1,4,3.4,6.1,4.9c1.4,1.1,2.7,2.3,3.9,3.6c1.4,1.5,1.8,4.2,2.1,5.2c0.2,0.7,0.4,1.5,0.5,2.3c0.1,0.4,0.1,0.8,0.1,1.2
			c-0.1,0.3-0.3,0.5-0.6,0.6c-0.1,0-0.1,0-0.2,0c-0.3-0.1-0.6-0.2-0.8-0.5c-0.2-0.4-0.4-0.8-0.5-1.2c0.2,0.5-0.1-0.2,0.1,0.3
			c-2.3,0.3-4.7,0.1-7-0.6c-0.2-0.2-0.3-0.5-0.4-0.7c-0.1-0.4-0.2-0.7-0.2-1.1c-0.3-1.5-0.4-2.3-0.6-3.8c0-0.3-0.1-0.6-0.3-0.9
			c-0.4-0.7-5.2-3-6.1-3.5c-2.3-1.2-4.4-2.8-6.3-4.6C399.1,225.9,398.2,224.7,398.4,223.4z"/>
		<path id="Path_9313" class="st9" d="M426.5,196.5c-1.7,0.2-5.8-1-8.1-6.3c-0.3-0.6,0.2-1.6,0.4-2.2c1-2.6,2.9-4.8,3.7-7.4
			c0.1-0.3,0.1-0.5,0.2-0.8c0.1-0.8,7.7,2.3,8.3,3.1c0.6,1,0.8,2.2,0.5,3.4c-0.4,1,0.2,0.4,0.3,1.5
			C432.7,195.9,427.1,196.5,426.5,196.5z"/>
		<path id="Path_9314" class="st10" d="M432.6,161.1c-1.4-0.4-4-2-8.2-0.4c-3.2,1.2-7,4.2-8.4,12.2c-0.4,2-0.4,4-0.7,6
			c-0.6,4.1-2.4,7.9-3.9,11.7c-0.9,2.2-1.7,4.6-2.2,6.9c-0.5,2.5-1.2,4.9-1.6,7.4c-0.1,0.3-0.1,0.7,0.1,1c0.3,0.4,0.9,0.3,1.3,0
			c0.9-0.4,1.6-1.8,2.6-1.3c0.3,0.1,0.5,0.4,0.8,0.5c0.6,0.4,1.4,0.4,2.1,0.2c1.3-0.5,1.7-2.1,2.2-3.2c0.1-0.3,0.3-0.5,0.5-0.6
			c0.8-0.2,1.4,0.6,2-0.4c0.2-0.4,0.3-0.8,0.3-1.2c-0.1-1.5-0.2-3-0.5-4.4c-0.2-2,0.3-4,1.4-5.7c0.7-1,2-2.1,2.4-3.2
			c0.5-1.3-0.3-4.9,1.7-7.1c1.1-1.4,2-3,2.7-4.8c0.7-1.6,1.4-3.4,2.8-4.5c1.2-1,2.8-1.6,4.4-1.6c1.3-0.1,2.6,0.4,3.3,1.5
			c0.2,0.3,1.1,0.2,1.2,0.5c0,0.4,0,0.7-0.1,1.1c-0.5,2-1.3,3.8-2.3,5.5c-0.5,0.8-1.1,1.5-1.7,2.2c-0.5,0.8-0.9,1.7-1.1,2.6
			c-0.3,1.3-0.9,2.5-1.7,3.5c-0.9,0.8-1.6,1.7-2.2,2.8c-0.4,1.3-0.1,2.7,0.9,3.7c1.1,0.8,2,1.9,2.3,3.3c0.1,0.6,0.2,1.3,0.4,1.9
			c0.3,0.7,1.3-0.1,1.5,0.2c0,0.9-0.2,1.8-0.6,2.6c-0.5,0.8,1.7,0.9,2.6,0.4c0.3-0.2,0.6-0.3,0.8-0.4c0.6-0.2,0.6,0.4,0.7,0.6
			c0.1,0.8,2.6-0.2,3.7-2.6c0.8-1.7,1.3-3.4,0.5-5.1s-3-2.2-4.6-3c-0.3-0.1-0.6-0.4-0.7-0.7c-0.2-0.5,0.2-0.9,0.6-1.3
			c4.1-4.3,4.1-7.6,3.8-14c0-1,0.2-4.4-1.5-7.5C438.7,163.9,435.4,160.8,432.6,161.1z"/>
		<path id="Path_9315" class="st11" d="M437,169.1c0.3-0.1,0.7-0.1,1,0c1.2,0.5,1.1,2.3,1.1,3c0,0.9,0,1.5,0,2.4
			c0,0.8-0.1,1.6-0.4,2.3c-0.2,0.4-0.4,0.7-0.7,1c-0.5,0.9-0.7,1.9-0.7,2.9c0,0.4-0.2,0.8-0.4,1.2c-0.2,0.4-0.5,0.7-0.9,1
			c-0.7,0.5-1.4,1.2-2,1.9c-0.5,0.7-1,1.4-1.5,2.1c-0.2,0.3-1.8,2.6-5.6-0.2c-1.1-0.9-2.1-1.8-3.1-2.8c-0.4-0.3-0.7-0.7-0.9-1.2
			c0-3.5,2.3-5.3,3.3-7.7c0.6-1.3,0.7-1.9,1.2-2.9C429.1,168.9,435.4,166.2,437,169.1z"/>
		<path id="Path_9316" class="st18" d="M21.1,326.6c-0.4,1.5-1,2.9-2,4.1c-0.7,0.8-1.7,1.4-2.8,1.6c-0.5,0.2-0.8,0.1-1.3,0.6
			c-0.3,0.3-0.4,0.6-0.5,1c-0.1,0.4,0,0.8,0.2,1.2c0.2,0.3,0.7,0.2,1.1,0.2c1.3,0.2,2.7,0.3,4.1,0.3c1.2,0.1,2.3,0,3.5,0
			c0.6,0,1.1-0.1,1.7-0.2c0.3-0.1,0.6-0.2,0.9-0.4c1.2-0.6,2.3-1.3,3.5-1.9c0.3-0.1,0.6-0.3,0.8-0.5c0.3-0.4,0.7-0.5,0.7-1
			c0.2-2.4-0.1-2.2-0.4-5c-0.1-0.3-0.2-0.7-0.3-1c-0.1-0.1-0.2-0.1-0.3-0.1c-1.7,0-3.4,0-5.1,0.1c-0.9,0-1.7,0.1-2.6,0.2
			c-0.3,0-0.7,0-0.9,0.2S21.2,326.3,21.1,326.6z"/>
		<path id="Path_9317" class="st19" d="M31,331.6C31,331.6,31,331.6,31,331.6C31,331.6,31,331.6,31,331.6z"/>
		<path id="Path_9318" class="st19" d="M14.8,335L14.8,335L14.8,335c0.8-0.1,1.7-0.1,2.5,0.1c1.5,0.2,3.4,0.4,5.2,0.5
			c1.2,0,2.4-0.2,3.5-0.6c0.5-0.3,0.9-0.6,1.2-1.1c0.3-0.4,0.7-0.8,1.2-1c0.9-0.3,1.8-0.7,2.6-1.3c0,0,0,0,0-0.1v0l0,0
			c0.1,0.5,0.1,1.1,0.1,1.6c0,0.2,0,0.5,0,0.7c-0.1,0.2-0.2,0.3-0.4,0.4c-1.2,0.6-2.6,0.8-3.9,0.6c-1.5,1.5-4,1.6-4.8,1.6
			c-0.8,0-2.5,0-3,0c-0.9,0-1.8-0.1-2.7-0.4C16,336.1,14.8,335.9,14.8,335C14.7,335.1,14.7,335,14.8,335z"/>
		<path id="Path_9319" class="st19" d="M31,331.6"/>
		<path id="Path_9320" class="st18" d="M5.6,310c-1,1.2-0.7,3.2-0.5,4.8c0.1,0.8,0.3,1.6,0.7,2.3c0.7,0.2,0.6,0.1,1.3,0.3
			c-0.5,2.1-1.4,4.4-1.8,6.5c-0.4,1.9-0.2,3.9,0.5,5.7c0.7,2.2,2.4,3.9,4.6,4.6c1,0.4,2.1,0.1,2.8-0.6c0.6-0.7,0.6-2.2,0.5-3.5
			c-0.4-3.4-0.5-7,0.8-10.4c0.4-1,1-2,1.7-2.8c1.4-1.6-0.1-1.1-0.4-1.6c-0.9-1.9-1.2-3.3-2.6-4.9c-0.7-0.8-1.5-1.5-2.4-2.1
			c-0.4-0.2-0.9-1.2-1.4-1c-0.4,0.1-1.1,0.5-1.5,0.7C7.1,308.5,6.3,309.2,5.6,310z"/>
		<path id="Path_9321" class="st19" d="M6.9,317.7c0-0.3-0.7-0.3-1.2-0.6c-0.7-0.5-1.6-4.5-1.4-5.6c0.3-0.8,0.9-1.4,1.6-1.9
			c-0.5,2,0.5,5.5,1.2,7.6c0,0.4-0.1,0.7-0.2,1.1c-0.7,2.1-1.2,4.2-1.5,6.3c-0.5,2.6,0.3,5.3,2.2,7.2c1.4,1.8,3.7,2.5,5.9,1.8
			c-0.7,1.1-2.1,1-3.2,0.7c-2.2-0.6-3.9-2.3-4.6-4.5c-0.7-1.9-0.8-3.9-0.3-5.8C5.7,321.9,6.3,319.8,6.9,317.7z"/>
		<path id="Path_9322" class="st12" d="M11.8,230.5c6.6,1.1,12.9,2.3,19.6,2.2c2.9,0,5.8-0.2,8.8-0.4c1.9-0.2,5.4-2,7.2-1.1
			c0.9,3.6,1.4,7.4,1.5,11.1c0.1,3.7,1.1,8.1,1.2,9.3c1.1,12.9-0.7,29.3-1.3,29.2L36,279.3c-1.1-3.3-1.9-6.7-2.4-10.1
			c-0.9-5.3-2.6-14.1-3.8-16.1c-0.4,2.1-0.6,4.2-0.9,6.4c-0.5,5.3-0.1,14.3,0.3,19.6c0.4,5.1,1.4,10.2,1.8,15.3c0,0.1,0,0.2,0,0.3
			c-0.5,0.3-0.9,0.5-1.4,0.8c-2.6,1.6-5,3.4-7.4,5.3c-1.3,1-2.4,2.1-3.6,3.1c-0.7-4.7-1.5-8.9-2.4-13.6c-1.2-6.2-2-12.4-2.8-18.7
			c-0.7-5.6-1.7-10.3-2.2-15.8C10.4,246.9,9.2,239.6,11.8,230.5z"/>
		<path id="Path_9323" class="st10" d="M31.2,297.5c-0.1,8.9,1.8,18.8-0.4,30.1c-3.1,0.1-4.5-1.4-9.6-1c-0.2-4.1,0.5-10.9-2.7-23.5
			C22.5,300.8,26.7,298.9,31.2,297.5z"/>
		<path id="Path_9324" class="st10" d="M26.9,277.5c-0.2-2.3-0.2-4.5-0.5-6.8c-0.3-2.1-0.5-4.2-0.8-6.3c-0.4-2.4,0.3-12.4-4.1-15.8
			c1.9,0.7,4,2.5,5.1,3.1c1,0.5,2,0.9,3.1,1.3c-0.3,2-0.7,4.3-0.9,6.4c-0.5,5.3-0.1,14.3,0.3,19.6c0.3,4.4,1.1,8.7,1.6,13.2
			c-2.7,1.5-5.2,3.3-7.6,5.2c-1.7,1.4-3.3,2.9-4.9,4.4c-0.3-1.9-0.4-2.4-0.7-4.2c1.8-2.5,3.5-5,5.1-7.7c1.3-2.1,4.1-4.9,4.4-6.6
			C27.1,281.4,27.1,279.4,26.9,277.5z"/>
		<path id="Path_9325" class="st12" d="M29.7,253c-1.6-3-3.1-6-8-5.4c-0.4-2.9,2.9-14.8,9.6-14.9c2.9,0,5.8-0.2,8.8-0.4
			c1.9-0.2,5.4-2,7.2-1.1c0.9,3.6,1.4,7.4,1.5,11.1c0.1,3.7,1.1,8.1,1.2,9.3c0.3,3.4,0.5,6.9,0.5,10.3c0,3.1-0.9,15.4-1,18.2
			c-0.1,3.3-2,5.5-4.3,7.6c0,0-7.1,6.6-10.5,9.8c-4,3.6-8.3,8.2-11.5,11.6c-2.7,2.8-5.2,5.8-7.6,8.9c-3.9-2.1-6.2-6.3-6-10.7
			c1.6-1.6,2.8-2,3.8-3.3c3.4-4.3,7.1-7.6,12-15.2c2.6-3.9,5.8-7.3,9.6-10c-0.5-2.4-1.6-7.8-1.9-9.8C32.1,263.8,30.8,259.3,29.7,253
			z"/>
		<path id="Path_9326" class="st9" d="M0.5,208.4c3.4,0.9,7,1.3,10.6,1.1c0.4,0,0.8-0.1,1.1-0.3c0.3-0.3,0.4-0.7,0.4-1.1
			c0.1-0.6,0.1-1.2,0.2-1.8c0.1-0.8,0.1-1.6,0.1-2.4c-0.9,0-1.8,0-2.7,0.1c-3-0.2-7.1,0.4-7.5,0.7c-0.2,0.3-1.1,1.7-1.3,2
			C1.1,207.3,0.9,207.8,0.5,208.4z"/>
		<path id="Path_9327" class="st6" d="M44,173.6c4.1,2.6,8,5.5,11.7,8.6c0.9,0.8,4.8,4.5,4.9,6.9c0.1,8.2,0,14.6,0,23.8
			c-3.1-2.3-6.7-3.7-10.6-4l-0.4-2.3c-1.3,5-2.1,10.1-2.5,15.3c-0.4,5,0.6,10.3,1.4,15.3c-3.2-1.1-12.8-1-16.2-0.6s-14.5,1-21.8-1.5
			c1.1-17.1,3-17.2,3.3-30c-4.2-0.7-7-1.2-11.1-0.1c3.7-8,4.7-11.7,6.6-19.9c0.8-3.3,1.7-4.1,3.1-5.4c1.3-1.1,3.2-1.6,5.3-2.3
			c1.1-0.4,11-2.3,12.6-3.7c1.7-1.6,5.3,3.1,7.7,3.3C40.2,176.2,42.3,175.1,44,173.6z"/>
		<path id="Path_9328" class="st0" d="M14.2,204.3c-1.1,1.1-3,0.1-3.7,0.1c3.1-6.6,3.2-7,5.7-18.7c0.5,2.9,0.7,5.8,0.7,8.7
			C16.6,197.8,15.7,201.1,14.2,204.3z"/>
		<path id="Path_9329" class="st0" d="M49.6,206.5c0,0.8,0.1,1.6,0.4,2.3c0.8,2.1,4.3,1.4,5.6,3.2c-2.1-2.9-3.4-6.3-3.6-9.8
			c-0.1-1.8,0.4-8.2,0.7-10.9C52,194.7,51.2,199.8,49.6,206.5z"/>
		<path id="Path_9330" class="st9" d="M43.7,174.9c0.1,0.5,0,1.1-0.2,1.5c-0.4,0.4-0.8,0.6-1.3,0.6c-4.5,0.7-9,1.1-13.5,1.2
			c0.4-1.1,0.8-2.1,1.3-3.2c0.8-2.3,0.5-4.8,0.2-7.3c2.6-1,5.6-0.8,8.4-1.3c1-0.2,2-0.4,2.9-0.7c0.6-0.2,1.9-1,2-0.1c0,1,0,2-0.1,3
			c0,1,0,2,0.1,2.9C43.5,172.8,43.5,173.9,43.7,174.9z"/>
		<path id="Path_9331" class="st0" d="M41.3,182.2L41.3,182.2c-0.6,0-1-0.3-1.3-0.6c-0.4-0.3-0.8-0.7-1.2-1c-0.8-0.7-1.7-1.4-2.7-2
			c-0.3-0.2-0.7-0.4-1.1-0.6c-0.8,0.3-1.7,0.5-2.5,0.8c-0.5,0.2-1.1,0.3-1.6,0.5c-0.3,0.1-0.5,0.2-0.8,0.3s-0.5,0.3-0.7,0.4
			c-0.2,0.1-0.5,0.1-0.7,0.2c-0.2,0-0.3,0-0.5-0.1c-0.1-0.1-0.2-0.3-0.2-0.5c-0.2-1.9,0.8-3.9,1.6-5.6l0.7-1.4
			c0.6,1.5,2.6,4.5,4.7,4.9c1.9-0.4,8.7-3,8.2-6.8c0.5,1.1,1,2.2,1.4,3.4c0.1,0.4,0.1,0.7,0,1.1c0,0.4-0.1,0.8-0.1,1.2
			c-0.2,0.9-0.5,1.8-0.9,2.6c-0.3,0.6-0.7,1.3-1.1,1.9C42.4,181.5,42.1,182.2,41.3,182.2z"/>
		<path id="Path_9332" class="st0" d="M37,180c-0.4,2.5-0.8,5-1.2,7.5c-0.2,1.3-0.3,2.6-0.5,3.9c-0.1,0.6-0.2,1.3-0.2,1.9
			c0,0.6-0.1,1.2-0.3,1.7c0,0.1-0.1,0.1-0.2,0.2c-0.1,0.1-0.3,0.1-0.5,0.1c-0.1,0-0.1,0-0.2,0c-0.5-0.1-0.9-0.1-1.3-0.2
			c-0.3,0-0.5-0.1-0.8-0.1c-0.3,0-0.5-0.1-0.8-0.3c0,0-0.1-0.1-0.1-0.2c0-0.1,0-0.2,0-0.3c0-0.3,0-0.6,0.1-0.9c0-0.3,0.1-0.7,0.1-1
			c0.1-0.7,0.2-1.4,0.3-2c0.2-1.3,0.3-2.7,0.5-4.1c0.2-1.4,0.3-2.7,0.5-4.1c0.1-0.7,0.2-1.4,0.3-2c0-0.3,0.1-0.7,0.2-1l0.1-0.5
			c0-0.2,0.1-0.3,0.1-0.5c0-0.4,0-0.4,0.1-0.5c0.1-0.1,0.3-0.1,0.5-0.1c1.2,0.1,2.5,0.3,3.7,0.6C37.2,178.8,37.1,179.3,37,180z"/>
		<path id="Path_9333" class="st27" d="M34.6,184.5c-0.2-0.9-1-1.6-2-1.6l-19.8-0.8c-0.4,0-0.7,0.1-1,0.4c-0.2,0.3-0.3,0.6-0.3,1
			l5.4,24.2l22.3,0.7L34.6,184.5z"/>
		<path id="Path_9334" class="st28" d="M8,205.3c-0.2,0-0.3-0.1-0.5-0.1c-1.3-0.2-2.6-0.2-3.8,0.2c-1.1,0.3-2,1.1-2.7,2
			c1.1-0.6,2.5-0.7,3.7-0.3c2.6,0.5,5.1,0.7,7.7,0.7c0.1,0,0.1-0.5,0.1-0.6c0.1-0.5,0.2-0.9,0.3-1.4c0.1-0.6,0.5-0.2,0.7-0.8
			c0.1-0.3-0.7-0.3-0.8-0.3c-0.6-0.2-1.3-0.4-1.9-0.4c-0.3,0-0.3,0.4-0.5,0.6c-0.2,0.2-0.6,0.4-0.9,0.4C8.9,205.5,8.5,205.4,8,205.3
			z"/>
		<path id="Path_9335" class="st9" d="M33,202.1c-0.2-0.2-0.2-0.5-0.2-0.8c0.1-0.2,0.4-0.5,0.6-0.7c0.4-0.4,0.9-0.6,1.4-0.7
			c0.9-0.1,1.8-0.2,2.7-0.1c0.4,0.1,0.9,0.1,1.6,0.2c-0.2-0.3-0.9-0.6-1.6-0.9c-0.1-0.4-0.3-1.4-0.4-2.2c0.7,0.3,0.6,0.2,1.3,0.5
			s3.1,1.1,4.2,2.7c0.9,1.3,1.2,4.2,3.1,6c0.9,0.8,1.8,1.5,2.8,2.1c0.8,0.5,0.5,0.6,1.6,1.1c0-0.3,0-0.3-0.1-0.6
			c1.4,0.1,2.9,0.4,4.2,0.8c2.3,0.6,4.5,1.7,6.3,3.3c0,0.4,0.1,0.9,0,1.3v7.4c-0.4,1-2.2,4-4.1,4.1c-0.9,0.2-1.9,0.1-2.8-0.3
			c-1.7-0.8-3.2-1.9-4.5-3.1c-1.8-1.6-3.6-5.3-4.8-7.6c-0.8-1.5-0.7-1.8-1.5-2.7c-0.5-0.6-1.8-0.7-2.3-1.2c-0.8-0.9-0.9-2.5-2-3.1
			c-0.5-0.3-1-0.5-1.5-0.5c-0.6,0-0.8,0.2-1.4-0.1c-0.6-0.3-0.8-0.7-0.5-1.2c0.1-0.2,0.8-0.2,1.1-0.2c1.1-0.2,2.2-0.2,3.2,0
			c-0.2-0.4-0.5-0.7-0.9-0.9c-0.6-0.2-1.3-0.3-2-0.2c-0.7,0-1.3,0.4-2,0.4c-0.5,0-0.9-0.9-0.4-1.4c0.4-0.3,0.9-0.6,1.3-0.8
			c0.8-0.2,1.6-0.3,2.4-0.2c0.7,0,1.9,0.5,1.8,0.3c-0.5-0.5-1.1-0.8-1.8-0.9c-1.1-0.1-2.1-0.1-3.2,0C34.5,202,33.5,202.8,33,202.1z"
			/>
		<path id="Path_9336" class="st28" d="M54.2,209.5c0.7,0.9,2.6,2.1,3.5,4.7c0.5,1.4,0.5,2.1,0.7,3c-0.7-1.4-2.9-5.2-5.6-6.5
			c-1-0.4-1.9-0.8-2.8-1.3c0-0.3-0.1-0.4-0.1-0.6C51.4,208.8,52.9,209,54.2,209.5z"/>
		<path id="Path_9337" class="st9" d="M16,202.6c0.2,0.2,0.4,0.3,0.7,0.3c1-0.2,2-0.6,3-1.1c0.6-0.3,1.1-0.7,1.6-1.1
			c1.2-0.7,2.4-1.4,3.7-1.9c0.4-0.2,0.8,0,1,0.4c0.3,0.7-1,1.4-1.4,1.7c-0.7,0.4-1.3,0.9-2,1.4c-0.3,0.2-0.6,0.4-0.9,0.7
			c-0.1,0.1-0.2,0.2-0.4,0.3c0,0-0.1,0.1,0,0.1c0.5-0.1,0.9-0.2,1.3-0.5c0.5-0.2,1.1-0.4,1.6-0.7c1.2-0.5,2-1.1,3.1-1.5
			c0.3-0.1,0.7-0.2,1-0.2c0.4,0.1,0.6,0.5,0.5,0.9c-0.1,0.3-0.5,0.6-0.8,0.8c-0.9,0.7-3.2,2-3.8,2.3c-0.2,0.1-0.4,0.3-0.6,0.4
			c-0.1,0.1-0.3,0.2-0.4,0.3c-0.1,0.1-0.3,0.2-0.1,0.3c0.2,0.1,0.4,0.1,0.6,0c0.2-0.1,0.5-0.1,0.7-0.2c1.3-0.6,2.5-1.3,3.8-2
			c0.2-0.1,0.5-0.3,0.8-0.3c0.8-0.1,1.1,0.8,0.6,1.4c-0.5,0.4-1,0.8-1.6,1.2c-0.6,0.3-1,0.7-1.6,0.9c-0.4,0.2-0.7,0.4-1.1,0.6
			c-0.2,0.1-0.5,0.3-0.7,0.4c-0.4,0.2,0.5,0.4,1,0.4c0.3,0,0.8,0,1.1,0c0.1,0,1,0,1.2,0c-0.3,0.2-0.5,0.4-0.8,0.6
			c-0.3,0.2-0.5,0.3-0.8,0.4c-0.5,0.2-1,0.4-1.6,0.4c-0.9,0.1-1.7,0.2-2.6,0.4c-0.4,0.1-1.7,0.9-2.2,1c-0.8,0.3-1.6,0.5-2.4,0.6
			c-2.5,0.2-4.2,2.4-5.4,3.2c-1.4,0.9-5.1,3.4-8.1,3.3c-1.2-0.1-3.7-2.5-3.9-5.5c-0.2-2.4-0.1-5.5,3.1-6.2c1.6-0.4,3.5,0.9,5.8,1.2
			c1.1,0.1,2.1,0.2,3.2,0c0.8-0.2,0.5-1.8,0.6-3.1c0.1-1,0.4-1.9,0.7-2.9c0.5-2.9,0.3-3.5,1.2-3.7c0.2,0.9,0.5,2.3,0.7,3.3
			C15.5,201.6,15.7,202.2,16,202.6z"/>
		<path id="Path_9338" class="st11" d="M40.9,153.4c0.8,0.1,1.5,0.5,2.2,0.9c0.7,0.4,1.1,1.2,1.1,1.9c0,0.8-0.9,2.5-0.1,2.5
			c0.4,0,0.8-0.2,1.1,0.3c0.7,0,0.9,1,0.9,1.7c0.1,1.8-0.5,3.5-1.7,4.8c-0.3,0.2-0.7,0.3-1,0.2c-0.4,1.1-1,2.1-1.6,3.1
			c-0.9,1.5-1.9,2.9-3.1,4.2c-0.7,0.8-1.7,1.5-2.7,1.8c-1.4,0.3-2.8,0-3.8-1c-0.8-1-1.4-2.1-1.9-3.3c-1.5-3.5-2.3-7.2-2.3-11
			c0-0.9,0.1-1.9,0.2-2.8c0.1-0.6,0-1.9,0.5-2.3c0.8-0.4,1.6-0.6,2.4-0.7c1-0.2,2-0.4,3-0.5C36.4,152.7,38.7,152.8,40.9,153.4z"/>
		<path id="Path_9339" class="st10" d="M28,150.4c1.9-2.6,5.1-3.5,8.5-3.6c2.2-0.1,4.4,0.5,6.3,1.6c2.3,1.7,3.1,4.1,2.8,7
			c-0.1,0.7,0,1.9-0.2,3.6c-0.7,0.1-1.6,0.8-1.7,2.3c0,0.4,0,0.8-0.1,1.1c0,0.2,0,0.9-0.3,0.8c-0.1,0-0.2-0.1-0.2-0.2
			c0-0.2,0-0.3,0.1-0.5c0-0.5,0-0.9,0-1.4c0-0.6-0.3-0.9-0.8-1.3c-0.3-0.2-0.5-0.4-0.7-0.6c-0.2-0.3-0.3-0.7-0.3-1
			c0.2-0.9,0.6-2.4-0.1-3.1c-0.3-0.4-0.8-0.6-1.3-0.6c-1.8-0.3-2.5,1.2-5.6,1.2c-2.5,0-2.3-0.5-3.3-0.9c-0.7-0.3-1.5-0.3-2.1,0.2
			c-0.9,0.7-0.6,2.1-0.5,3.2c0.1,0.9-0.1,1.9-0.4,2.7c-0.6-1.7-0.9-3.5-1-5.3C27.1,153.8,27,151.7,28,150.4z"/>
		<path id="Path_9340" class="st0" d="M179.2,36.1c-9.5-14.2-28.7-18.1-42.9-8.6c-14.2,9.5-18.1,28.6-8.6,42.8c0.7,1,1.5,2,2.3,3
			c11.1,13,30.6,14.5,43.5,3.4c1.2-1.1,2.4-2.2,3.4-3.4c0.8-1,1.6-2,2.3-3C186.1,60,186.1,46.5,179.2,36.1z M180.5,51.4h-11.6
			c-0.1-3.6-0.5-7.3-1.3-10.8c2.8-0.7,5.5-1.6,8.2-2.8C178.5,41.8,180.2,46.5,180.5,51.4L180.5,51.4z M173.3,34.8
			c-2.2,0.9-4.4,1.6-6.7,2.2c-1-3.4-2.5-6.6-4.5-9.4C166.4,29,170.3,31.5,173.3,34.8L173.3,34.8z M153.4,51.4h-11.7
			c0.1-3.4,0.5-6.7,1.2-10c7,1.3,14.1,1.3,21.1,0c0.7,3.3,1.1,6.7,1.2,10L153.4,51.4z M165.1,55.1c-0.1,3.4-0.5,6.7-1.2,10
			c-7-1.2-14.1-1.2-21.1,0c-0.7-3.3-1.1-6.7-1.2-10H165.1L165.1,55.1z M153.4,26.1c3.6,0,7.3,4.3,9.6,11.6c-6.3,1.1-12.8,1.1-19.2,0
			C146.1,30.4,149.8,26.1,153.4,26.1L153.4,26.1z M144.7,27.5c-2,2.9-3.6,6.1-4.5,9.4c-2.3-0.6-4.5-1.3-6.7-2.2
			C136.6,31.5,140.4,29,144.7,27.5L144.7,27.5z M131.1,37.8c2.6,1.1,5.4,2.1,8.2,2.8c-0.8,3.6-1.2,7.2-1.3,10.8h-11.7
			C126.6,46.5,128.3,41.8,131.1,37.8L131.1,37.8z M126.3,55.1H138c0.1,3.6,0.5,7.3,1.3,10.8c-2.8,0.7-5.5,1.6-8.2,2.8
			C128.3,64.7,126.6,60,126.3,55.1L126.3,55.1z M133.5,71.7c2.2-0.9,4.4-1.6,6.7-2.2c1,3.4,2.5,6.6,4.5,9.4
			C140.4,77.6,136.6,75.1,133.5,71.7L133.5,71.7z M153.4,80.4c-3.6,0-7.3-4.3-9.6-11.6c6.3-1.1,12.8-1.1,19.2,0
			C160.7,76.1,157,80.4,153.4,80.4L153.4,80.4z M162.1,79c2-2.9,3.6-6.1,4.5-9.4c2.3,0.6,4.5,1.3,6.7,2.2
			C170.3,75,166.4,77.5,162.1,79L162.1,79z M175.8,68.7c-2.6-1.1-5.4-2.1-8.2-2.7c0.8-3.6,1.2-7.2,1.3-10.8h11.6
			C180.2,60,178.5,64.7,175.8,68.7L175.8,68.7z"/>
		<path id="Path_9341" class="st3" d="M487,256.2c0.6,1.4,1.2,2.7,2,3.9l-4,4.8c1,1.4,2.1,2.8,3.3,4.1l5.6-2.9c1,1,2.1,1.9,3.3,2.7
			l-1.7,6c1.5,0.9,3.1,1.8,4.8,2.4l4-4.9c1.3,0.5,2.6,0.8,4,1.1l0.9,6.2c1.8,0.2,3.6,0.4,5.4,0.3l1.6-6.1c0.7-0.1,1.4-0.1,2-0.2
			s1.4-0.2,2-0.4l3.3,5.4c1.7-0.5,3.4-1.1,5.1-1.8l-1-6.2c1.2-0.6,2.4-1.4,3.5-2.2l5.2,3.5c1.4-1.1,2.7-2.4,3.9-3.7l-3.4-5.3
			c0.9-1.1,1.7-2.3,2.4-3.5l6.2,1.1c0.8-1.6,1.5-3.2,2-4.9l-5.2-3.4c0.4-1.4,0.7-2.9,0.8-4.3l6.1-1.5c0.1-1.7,0-3.5-0.1-5.2l-6.2-1
			c-0.2-1.5-0.6-3-1-4.5l5-3.9c-0.6-1.6-1.4-3.1-2.2-4.6l-6,1.6c-0.9-1.3-1.8-2.6-2.9-3.8l3-5.6c-1.2-1.2-2.5-2.3-3.8-3.3l-4.9,3.9
			c-1.4-0.9-2.8-1.7-4.3-2.3l0.5-6.3c-1.6-0.6-3.2-1-4.8-1.4l-2.9,5.6c-1.6-0.3-3.3-0.4-5-0.3l-2.1-5.9c-0.8,0.1-1.6,0.2-2.5,0.3
			s-1.6,0.3-2.4,0.4l-0.4,6.3c-1.6,0.4-3.2,1-4.7,1.7L497,214c-1.5,0.8-2.9,1.7-4.2,2.7l2.2,5.9c-1.2,1.1-2.4,2.2-3.5,3.5l-5.8-2.4
			c-1,1.3-1.9,2.7-2.7,4.2l4.4,4.5c-0.7,1.4-1.3,2.9-1.7,4.4l-6.3,0.2c-0.4,1.7-0.6,3.3-0.8,5l5.9,2.3c0,1.5,0.1,3.1,0.3,4.6
			l-5.6,2.7c0.3,1.7,0.8,3.4,1.4,5L487,256.2z M497.4,247.1c-1.3-9.1,5-17.6,14.1-18.9c9.1-1.3,17.6,5,18.9,14.1
			c1.3,9.1-5,17.6-14.1,18.9C507.2,262.5,498.7,256.2,497.4,247.1C497.4,247.1,497.4,247.1,497.4,247.1L497.4,247.1z"/>
		<path id="Path_9342" class="st3" d="M512.3,234c5.9-0.9,11.4,3.2,12.2,9.1c0.9,5.9-3.2,11.4-9.1,12.2c-5.9,0.9-11.4-3.2-12.2-9.1
			c-0.4-2.8,0.3-5.7,2-8C506.9,236,509.5,234.4,512.3,234z"/>
		<path id="Path_9343" class="st0" d="M496,185.6l-4.5,1.7l1.4,6.2l4.8-0.3c0.8,1.8,1.9,3.5,3.2,5l-2.4,4.3l5,3.9l3.5-3.4
			c1.8,0.9,3.6,1.5,5.6,1.8l1,5l6.3-0.3l0.5-5c1.9-0.5,3.7-1.2,5.3-2.2l4,3.2l4.7-4.3l-2.8-4.2c0.6-0.8,1.2-1.7,1.7-2.7
			c0.4-0.8,0.8-1.6,1.1-2.4l5.1-0.1l0.8-6.3l-4.8-1.4c-0.1-1.9-0.5-3.9-1.2-5.7l3.8-3.3l-3.4-5.4l-4.5,2c-1.4-1.5-2.9-2.7-4.6-3.7
			l0.8-4.9l-6.1-1.9l-2.1,4.3c-2-0.3-4-0.2-6,0.2l-2.5-4.1l-5.9,2.4l1.1,4.6c-1.7,1.1-3.2,2.5-4.5,4l-4.5-1.6l-2.9,5.6l3.8,2.8
			C496.3,181.6,496,183.6,496,185.6z M506.5,180.5c2.7-5.1,9-7.1,14.2-4.5s7.1,9,4.4,14.2c-2.7,5.1-9,7.1-14.2,4.5
			C505.8,192,503.8,185.6,506.5,180.5C506.5,180.5,506.5,180.5,506.5,180.5L506.5,180.5z"/>
		<path id="Path_9344" class="st0" d="M519.1,179c3.5,1.8,4.9,6.2,3,9.7c-1.8,3.5-6.2,4.9-9.7,3s-4.9-6.2-3-9.7
			c0.9-1.7,2.4-3,4.2-3.5C515.4,177.9,517.4,178.1,519.1,179z"/>
		<path id="Path_9345" class="st0" d="M563.3,289.6l-0.3-6.2c0.9-0.5,1.8-1.1,2.5-1.8l5.9,2.1l1.7-2.7l-4.5-4.2c0.3-1,0.5-2,0.6-3
			l5.7-2.7l-0.8-3.1l-6.1,0.3c-0.5-0.9-1.1-1.8-1.8-2.5l2.1-5.9l-2.7-1.7l-4.2,4.5c-1-0.3-2-0.5-3-0.5l-2.7-5.7l-3.1,0.8l0.3,6.2
			c-0.9,0.5-1.8,1.1-2.5,1.8l-5.9-2.1l-1.7,2.7l4.5,4.2c-0.3,1-0.5,2-0.6,3l-5.7,2.7l0.8,3.1l6.2-0.3c0.5,0.9,1.1,1.8,1.8,2.5
			l-2.1,5.9l2.7,1.7l4.2-4.5c1,0.3,2,0.5,3,0.6l2.7,5.7L563.3,289.6z M559.1,278.2c-2.6,0.6-5.2-0.9-5.9-3.5s0.9-5.2,3.5-5.9
			c2.6-0.6,5.2,0.9,5.9,3.5c0,0,0,0,0,0C563.2,274.9,561.7,277.5,559.1,278.2L559.1,278.2z"/>
		<path id="Path_9346" class="st0" d="M560.2,271.1c1.3,1.2,1.4,3.3,0.1,4.6s-3.3,1.4-4.6,0.1c-1.3-1.2-1.4-3.3-0.1-4.6
			C556.8,269.9,558.9,269.9,560.2,271.1z"/>
		<rect id="Rectangle_19161" x="164.6" y="253.9" class="st0" width="5.7" height="39.8"/>
		<rect id="Rectangle_19162" x="157.3" y="266.4" class="st6" width="5.7" height="27.3"/>
		<rect id="Rectangle_19163" x="150.1" y="265.1" class="st0" width="5.7" height="28.6"/>
		<rect id="Rectangle_19164" x="142.8" y="273.8" class="st6" width="5.7" height="19.9"/>
		<rect id="Rectangle_19165" x="135.6" y="278" class="st0" width="5.7" height="15.7"/>
		<rect id="Rectangle_19166" x="131.6" y="252.2" class="st0" width="1.1" height="47.1"/>
		<rect id="Rectangle_19167" x="129.3" y="296.1" class="st0" width="46" height="1.1"/>
		<rect id="Rectangle_19174" x="146.6" y="134.4" class="st0" width="5.6" height="10.2"/>
		<rect id="Rectangle_19175" x="149" y="129.2" class="st0" width="0.8" height="18.6"/>
		<rect id="Rectangle_19176" x="214" y="147.6" class="st0" width="5.6" height="7.4"/>
		<rect id="Rectangle_19177" x="216.3" y="143.9" class="st0" width="0.8" height="13.4"/>
		<rect id="Rectangle_19184" x="180.3" y="157.3" class="st0" width="5.6" height="21.3"/>
		<rect id="Rectangle_19185" x="182.6" y="150.8" class="st0" width="0.8" height="31.9"/>
		<rect id="Rectangle_19192" x="264.9" y="171.5" class="st0" width="5.6" height="18.3"/>
		<rect id="Rectangle_19193" x="267.3" y="165.9" class="st0" width="0.8" height="27.5"/>
		<rect id="Rectangle_19198" x="230.8" y="147.7" class="st0" width="5.6" height="10.2"/>
		<rect id="Rectangle_19199" x="233.2" y="142.5" class="st0" width="0.8" height="18.6"/>
		<rect id="Rectangle_19204" x="130.4" y="148.4" class="st0" width="5.6" height="19.2"/>
		<rect id="Rectangle_19205" x="132.8" y="138.7" class="st0" width="0.8" height="34.6"/>
		<rect id="Rectangle_19206" x="113.6" y="130.9" class="st0" width="5.6" height="7.7"/>
		<rect id="Rectangle_19207" x="115.9" y="127" class="st0" width="0.8" height="14"/>
		<rect id="Rectangle_19208" x="290" y="143.1" class="st0" width="5.6" height="12.7"/>
		<rect id="Rectangle_19209" x="292.4" y="136.7" class="st0" width="0.8" height="23.2"/>
		<g id="Group_7383">
			<rect id="Rectangle_19168" x="155" y="142.9" class="st29" width="5.6" height="15.2"/>
			<rect id="Rectangle_19169" x="157.4" y="140.2" class="st29" width="0.8" height="31.1"/>
			<rect id="Rectangle_19170" x="163.4" y="155.1" class="st29" width="5.6" height="19.2"/>
			<rect id="Rectangle_19171" x="165.8" y="145.4" class="st29" width="0.8" height="34.6"/>
			<rect id="Rectangle_19172" x="222.4" y="142.5" class="st29" width="5.6" height="10.8"/>
			<rect id="Rectangle_19173" x="224.8" y="132.8" class="st29" width="0.8" height="26.2"/>
			<rect id="Rectangle_19178" x="205.6" y="147.4" class="st29" width="5.6" height="21.3"/>
			<rect id="Rectangle_19179" x="207.9" y="140.9" class="st29" width="0.8" height="31.9"/>
			<rect id="Rectangle_19180" x="197.1" y="145" class="st29" width="5.6" height="28.9"/>
			<rect id="Rectangle_19181" x="199.5" y="141.4" class="st29" width="0.8" height="39.1"/>
			<rect id="Rectangle_19182" x="188.7" y="166.7" class="st29" width="5.6" height="6.3"/>
			<rect id="Rectangle_19183" x="191.1" y="155.1" class="st29" width="0.8" height="19.9"/>
			<rect id="Rectangle_19186" x="171.9" y="146.9" class="st29" width="5.6" height="21.3"/>
			<rect id="Rectangle_19187" x="174.2" y="144.4" class="st29" width="0.8" height="31.1"/>
			<rect id="Rectangle_19188" x="281.8" y="148.3" class="st29" width="5.6" height="25.5"/>
			<rect id="Rectangle_19189" x="284.1" y="145.1" class="st29" width="0.8" height="34.5"/>
			<rect id="Rectangle_19190" x="273.4" y="179.1" class="st29" width="5.6" height="6.3"/>
			<rect id="Rectangle_19191" x="275.7" y="167.5" class="st29" width="0.8" height="19.9"/>
			<rect id="Rectangle_19194" x="239.2" y="156.2" class="st29" width="5.6" height="18"/>
			<rect id="Rectangle_19195" x="241.6" y="153.6" class="st29" width="0.8" height="25.5"/>
			<rect id="Rectangle_19196" x="247.7" y="159.8" class="st29" width="5.6" height="13.6"/>
			<rect id="Rectangle_19197" x="250" y="150" class="st29" width="0.8" height="29"/>
			<rect id="Rectangle_19200" x="256.1" y="149.2" class="st29" width="5.6" height="23.1"/>
			<rect id="Rectangle_19201" x="258.5" y="147" class="st29" width="0.8" height="31.6"/>
			<rect id="Rectangle_19202" x="122" y="136.1" class="st29" width="5.6" height="15.2"/>
			<rect id="Rectangle_19203" x="124.3" y="133.5" class="st29" width="0.8" height="22.7"/>
			<rect id="Rectangle_19210" x="138.8" y="140.2" class="st29" width="5.6" height="12.9"/>
			<rect id="Rectangle_19211" x="141.2" y="137.6" class="st29" width="0.8" height="31.1"/>
		</g>
		<rect id="Rectangle_19216" x="364.4" y="120.2" class="st0" width="5.3" height="9.7"/>
		<rect id="Rectangle_19217" x="366.7" y="117.1" class="st0" width="0.8" height="17.7"/>
		<rect id="Rectangle_19220" x="396.6" y="87.7" class="st0" width="5.3" height="20.3"/>
		<rect id="Rectangle_19221" x="398.8" y="83.8" class="st0" width="0.8" height="30.4"/>
		<rect id="Rectangle_19224" x="349" y="98.2" class="st0" width="5.3" height="18.3"/>
		<rect id="Rectangle_19225" x="351.2" y="92.8" class="st0" width="0.8" height="33"/>
		<g id="Group_7382">
			<rect id="Rectangle_19212" x="372.5" y="107.3" class="st29" width="5.3" height="14.5"/>
			<rect id="Rectangle_19213" x="374.7" y="94.6" class="st29" width="0.8" height="29.7"/>
			<rect id="Rectangle_19214" x="380.5" y="91.8" class="st29" width="5.3" height="18.3"/>
			<rect id="Rectangle_19215" x="382.8" y="86.4" class="st29" width="0.8" height="33"/>
			<rect id="Rectangle_19218" x="404.6" y="93.1" class="st29" width="5.3" height="6"/>
			<rect id="Rectangle_19219" x="406.9" y="91.2" class="st29" width="0.8" height="19"/>
			<rect id="Rectangle_19222" x="388.5" y="97.6" class="st29" width="5.3" height="20.3"/>
			<rect id="Rectangle_19223" x="390.8" y="90.7" class="st29" width="0.8" height="29.7"/>
			<rect id="Rectangle_19226" x="357" y="112" class="st29" width="5.3" height="12.3"/>
			<rect id="Rectangle_19227" x="359.3" y="97.1" class="st29" width="0.8" height="29.7"/>
		</g>
		<rect id="Rectangle_19232" x="33.3" y="97.3" class="st0" width="5.3" height="9.7"/>
		<rect id="Rectangle_19233" x="35.6" y="92.4" class="st0" width="0.8" height="17.7"/>
		<rect id="Rectangle_19234" x="1.2" y="119.2" class="st0" width="5.3" height="20.3"/>
		<rect id="Rectangle_19235" x="3.4" y="113" class="st0" width="0.8" height="30.4"/>
		<rect id="Rectangle_19238" x="48.7" y="110.7" class="st0" width="5.3" height="18.3"/>
		<rect id="Rectangle_19239" x="51" y="101.4" class="st0" width="0.8" height="33"/>
		<g id="Group_7384">
			<rect id="Rectangle_19228" x="25.3" y="105.4" class="st29" width="5.3" height="14.5"/>
			<rect id="Rectangle_19229" x="27.5" y="102.9" class="st29" width="0.8" height="29.7"/>
			<rect id="Rectangle_19230" x="17.2" y="117.1" class="st29" width="5.3" height="18.3"/>
			<rect id="Rectangle_19231" x="19.5" y="107.8" class="st29" width="0.8" height="33"/>
			<rect id="Rectangle_19236" x="9.2" y="109.3" class="st29" width="5.3" height="20.3"/>
			<rect id="Rectangle_19237" x="11.5" y="106.8" class="st29" width="0.8" height="29.7"/>
			<rect id="Rectangle_19240" x="40.7" y="102.9" class="st29" width="5.3" height="12.3"/>
			<rect id="Rectangle_19241" x="43" y="100.4" class="st29" width="0.8" height="29.7"/>
		</g>
		<rect id="Rectangle_19244" x="483.4" y="109.9" class="st0" width="5.3" height="18.3"/>
		<rect id="Rectangle_19245" x="485.6" y="104.5" class="st0" width="0.8" height="33"/>
		<rect id="Rectangle_19246" x="499.4" y="121" class="st0" width="5.3" height="9.7"/>
		<rect id="Rectangle_19247" x="501.7" y="117.9" class="st0" width="0.8" height="17.7"/>
		<rect id="Rectangle_19252" x="514.9" y="116.3" class="st0" width="5.3" height="18.3"/>
		<rect id="Rectangle_19253" x="517.1" y="110.9" class="st0" width="0.8" height="33"/>
		<g id="Group_7392">
			<rect id="Rectangle_19242" x="491.4" y="125.5" class="st29" width="5.3" height="14.5"/>
			<rect id="Rectangle_19243" x="493.6" y="112.8" class="st29" width="0.8" height="29.7"/>
			<rect id="Rectangle_19248" x="522.8" y="114.2" class="st29" width="5.3" height="6"/>
			<rect id="Rectangle_19249" x="525.1" y="112.3" class="st29" width="0.8" height="19"/>
			<rect id="Rectangle_19250" x="475.3" y="115.8" class="st29" width="5.3" height="20.3"/>
			<rect id="Rectangle_19251" x="477.6" y="108.9" class="st29" width="0.8" height="29.7"/>
			<rect id="Rectangle_19254" x="506.8" y="112.8" class="st29" width="5.3" height="12.3"/>
			<rect id="Rectangle_19255" x="509.1" y="97.9" class="st29" width="0.8" height="29.7"/>
		</g>
		<path id="Path_9351" class="st30" d="M463.9,41l11.1,6.4c0.9,0.5,2,0.2,2.5-0.7c0.5-0.9,0.2-1.9-0.7-2.5l-11.1-6.4
			c-0.9-0.5-2-0.2-2.5,0.6C462.7,39.3,463,40.5,463.9,41C463.9,41,463.9,41,463.9,41z"/>
		<path id="Path_9352" class="st30" d="M453.8,58.5l11.1,6.4c0.9,0.5,2,0.2,2.5-0.7c0.5-0.9,0.2-1.9-0.7-2.4l-11.1-6.4
			c-0.9-0.5-2-0.2-2.5,0.7C452.7,56.9,453,58,453.8,58.5L453.8,58.5z"/>
		<path id="Path_9353" class="st30" d="M492.1,63.7L471.8,53l2.3-4L463,42.6l-6.4,11.1l11.1,6.4l3.2-5.6l-0.9,1.6l19.4,12.3
			c1.3,0.8,3,0.3,3.8-1C493.9,66.1,493.4,64.4,492.1,63.7L492.1,63.7z"/>
		<path id="Path_9354" class="st31" d="M472,71.1c0-1-0.8-1.8-1.8-1.8c0,0,0,0,0,0h-16.5c-1,0-1.8,0.8-1.8,1.8v3.7l-1.9,0l0.1,1.9
			h23.9l0.1-1.8l-1.8-0.1C472.1,74.8,472,72.1,472,71.1z"/>
		<path id="Path_9359" class="st1" d="M381.1,322.5h-16.3l0.4-4.9l6-4.2l0.4-6.6l-3.4-3.3l-2.1-3.6l13.9-0.7L378,303l-3.4,3.4
			l-0.4,7.9l6.4,3.4L381.1,322.5z"/>
		<path id="Path_9360" class="st3" d="M377.9,303.8c3.4-3.4,3.8-8.6,3.8-10.2h1.9v-2.5H362v2.5h1.9c0,1.5,0.5,6.7,3.8,10.2
			c2.1,1.6,2.8,2.8,2.9,3.8c-0.2,1-0.9,2.1-3,3.8c-3.4,3.4-3.8,8.6-3.8,10.2H362v2.5h21.6v-2.5h-1.9c0-1.5-0.5-6.7-3.8-10.2
			c-2.1-1.6-2.8-2.8-2.9-3.8C375.1,306.7,375.8,305.5,377.9,303.8z M373.4,306.4v9.1h0.3c2.4,0.8,4.6,2,6.6,3.4v2.5h-15V319
			c2-1.4,4.3-2.6,6.6-3.4h0.3v-9.2c-1-0.6-3.1-2.1-5.3-5.8h2.6c1,1.8,3.4,2.5,5.2,1.4c0.6-0.3,1.1-0.8,1.4-1.4h2.6
			C376.5,304.5,374.4,305.9,373.4,306.4L373.4,306.4z"/>
		<rect id="Rectangle_19256" x="362" y="291.1" class="st0" width="21.6" height="2.5"/>
		<rect id="Rectangle_19257" x="362" y="321.6" class="st0" width="21.6" height="2.5"/>
		<path id="Path_9364" class="st32" d="M258.6,26.7l12.5-15c0.7-0.9,2-1.1,2.9-0.4c0.1,0.1,0.3,0.2,0.4,0.4l12.6,15
			c0.9,1.1,0.5,2-0.9,2h-9.2v14c0,1.4-1.2,2.6-2.6,2.6h-3c-1.4,0-2.6-1.2-2.6-2.6v-14h-9.2C258.1,28.7,257.7,27.8,258.6,26.7z"/>
		<path id="Path_9365" class="st0" d="M245.1,52.3l12.5,15c0.7,0.9,2,1.1,2.9,0.4c0.1-0.1,0.3-0.2,0.4-0.4l12.5-15
			c0.9-1.1,0.5-2-0.9-2h-9.2V36.3c0-1.4-1.2-2.6-2.6-2.6h-3c-1.4,0-2.6,1.2-2.6,2.6v14H246C244.6,50.3,244.2,51.2,245.1,52.3z"/>
		<path id="Path_9366" class="st0" d="M373.6,26.6c-13.9,0-25.1,11.2-25.1,25.1c0,13.9,11.2,25.1,25.1,25.1
			c13.9,0,25.1-11.2,25.1-25.1v0C398.7,37.8,387.5,26.6,373.6,26.6z"/>
		<path id="Path_9367" class="st22" d="M383.9,56c-0.4-4.4-3.3-5.4-6.4-6.4l-0.3-0.1c-0.4-0.1-0.8-0.2-1.1-0.4
			c-0.9-0.3-1.7-0.6-2.6-0.9c-2.2-1-2.8-3.1-2.3-4.5c0.5-1.3,2.2-2.4,5.2-1.5c0.7,0.2,1.4,0.6,2,1c1.2,1,2.1,2.3,2.6,3.8l0.7-0.1
			l-0.5-7.9h-0.3c-0.9,0.8-1.5,0.4-5.3-0.2c0-1.2-0.2-3.6,1.2-3.8v-0.7h-6.2v0.7c1.3,0.3,1.1,2.5,1.1,3.8c-2.7,0.2-5.1,1.8-6.4,4.3
			c-1.2,2.4-1.2,5.2,0,7.5c2.2,4,5.5,4.3,7.6,4.6c0.3,0,0.5,0.1,0.7,0.1c0.8,0.1,1.6,0.3,2.3,0.7c1.3,0.9,1.6,2.6,0.9,3.9
			c-0.7,1.1-2,1.8-3.3,1.9c-0.3,0-0.6,0.1-1,0.1l0,0c-1.9,0-3.8-0.7-5.2-2c-1.5-1.5-2.4-3.4-2.7-5.4h-0.8l0.5,10.4l0.2,0
			c0.7-0.9,1.3-0.8,3.7-0.3c1.3,0.2,2.1,0.4,3.4,0.6c0,1.2,0.1,3-1.1,3.3V69h6v-0.7c-1-0.6-1-1.7-1-3.2c2.4,0.1,4.6-0.9,6.2-2.6
			C383.4,60.7,384.1,58.3,383.9,56z"/>
	</g>
</g>
</svg>
