<?xml version="1.0" encoding="utf-8"?>
<!-- Generator: Adobe Illustrator 25.0.1, SVG Export Plug-In . SVG Version: 6.00 Build 0)  -->
<svg version="1.1" id="Layer_1" xmlns="http://www.w3.org/2000/svg" xmlns:xlink="http://www.w3.org/1999/xlink" x="0px" y="0px"
	 width="518.7px" height="484px" viewBox="0 0 518.7 484" style="enable-background:new 0 0 518.7 484;" xml:space="preserve">
<style type="text/css">
	.st0{fill:#B3DEFF;}
	.st1{fill:#8FC7EA;}
	.st2{fill:#3198FF;}
	.st3{fill:#FFFFFF;}
	.st4{fill:#178BFF;}
	.st5{fill:none;}
	.st6{fill:#7189AD;}
	.st7{fill:#225D6B;}
	.st8{fill:#23575D;}
	.st9{clip-path:url(#SVGID_2_);}
	.st10{fill:#C7E2FC;}
	.st11{fill:#CAE3FC;}
	.st12{fill:#CDE5FC;}
	.st13{fill:#CFE6FC;}
	.st14{fill:#D2E7FC;}
	.st15{fill:#D5E9FC;}
	.st16{fill:#D7EAFC;}
	.st17{fill:#D9EBFC;}
	.st18{fill:#DBECFC;}
	.st19{fill:#DEEDFC;}
	.st20{fill:#E0EEFC;}
	.st21{fill:#E1EFFC;}
	.st22{fill:#E3F0FC;}
	.st23{fill:#E5F1FC;}
	.st24{fill:#E7F2FC;}
	.st25{fill:#E8F2FC;}
	.st26{fill:#EAF3FC;}
	.st27{fill:#EBF4FC;}
	.st28{fill:#EDF4FC;}
	.st29{fill:#EEF5FC;}
	.st30{fill:#EFF6FC;}
	.st31{fill:#F0F6FC;}
	.st32{fill:#F1F7FC;}
	.st33{fill:#F2F7FC;}
	.st34{fill:#F3F8FC;}
	.st35{fill:#F4F8FC;}
	.st36{fill:#F5F9FC;}
	.st37{fill:#F6F9FC;}
	.st38{fill:#F7FAFC;}
	.st39{fill:#F8FAFC;}
	.st40{fill:#F9FAFC;}
	.st41{fill:#F9FBFC;}
	.st42{fill:#FAFBFC;}
	.st43{fill:#FBFBFC;}
	.st44{fill:#FBFCFC;}
	.st45{fill:#FCFCFC;}
	.st46{fill:#CCD9F2;}
	.st47{fill:#83A1B7;}
	.st48{fill:#FDC8A8;}
	.st49{fill:#2677C8;}
	.st50{fill:#B5CEE5;}
	.st51{fill:#E5A67C;}
	.st52{fill:#002169;}
	.st53{fill:#001438;}
	.st54{fill:#1E1E1E;}
	.st55{fill:#F2EBDD;}
	.st56{fill:#E5E5E5;}
	.st57{fill:#3D5B69;}
	.st58{fill:#F9ECD7;}
	.st59{fill:#E5CAA3;}
	.st60{fill:#FFAA21;}
	.st61{fill:#FFD685;}
	.st62{fill:#CEBFA3;}
	.st63{fill:url(#Path_9646_1_);}
	.st64{fill:#CECECE;}
	.st65{fill:#F9DCC3;}
	.st66{opacity:0.9;}
	.st67{fill:#74ECF3;}
	.st68{fill:#A5C6E5;}
	.st69{fill:#22A2FF;}
	.st70{opacity:0.34;fill:#A9E1EA;enable-background:new    ;}
	.st71{opacity:0.19;fill:#FFFFFF;enable-background:new    ;}
</style>
<g id="img" transform="translate(-114.818 -55.613)">
	<path id="Path_9402" class="st0" d="M164,474c2.4,1.5,5.9,1.9,6.7-0.5s-1.7-5.7-4.1-7.1c-3.5-1.8-7.7-1.9-11.2-0.1
		C158.3,468.2,161.6,472.6,164,474z"/>
	<path id="Path_9403" class="st1" d="M170.7,473.5c0.8-2.2-1.7-5.7-4.1-7.1c-3.5-1.8-7.7-1.9-11.2-0.1
		C165.5,467.5,170.7,473.5,170.7,473.5z"/>
	<path id="Path_9404" class="st1" d="M169.7,472.4l-0.4-0.4c-0.1-0.1-0.3-0.3-0.5-0.4s-0.4-0.3-0.7-0.5l-0.4-0.3
		c-0.1-0.1-0.3-0.2-0.5-0.3c-0.3-0.2-0.6-0.4-1-0.6c-0.8-0.4-1.6-0.8-2.4-1.2c-1.4-0.6-2.9-1.1-4.3-1.6l-1.8-0.5
		c0,0,0.7,0.2,1.8,0.4c1.5,0.4,2.9,0.9,4.4,1.5c0.8,0.4,1.6,0.8,2.4,1.2c0.4,0.2,0.7,0.4,1,0.6l0.4,0.3l0.4,0.3
		c0.3,0.2,0.5,0.4,0.7,0.6c0.2,0.1,0.3,0.3,0.5,0.4C169.5,472.3,169.7,472.4,169.7,472.4z"/>
	<path id="Path_9405" class="st0" d="M153.6,447.2c2.7,7.4,10.1,14.9,17.1,12c6.6-2.7,8.1-13.9,5-21.2c-7.4-17-26.8-21.9-26.8-21.9
		C152.2,425.3,150.9,439.8,153.6,447.2z"/>
	<path id="Path_9406" class="st0" d="M186.1,468.9c-2.9,4-8.1,6.9-11,3.6c-2.7-3.1-1.1-10.3,2-14c7.2-8.8,17.9-7.6,17.9-7.6
		C191.4,455.8,189,465,186.1,468.9z"/>
	<path id="Path_9407" class="st1" d="M175.2,472.6c-2.7-3.1-1.1-10.3,2-14c7.2-8.8,17.9-7.6,17.9-7.6
		C179.5,459.5,175.2,472.6,175.2,472.6z"/>
	<path id="Path_9408" class="st1" d="M176.1,470.2l0.4-0.9c0.1-0.3,0.3-0.6,0.5-1s0.5-0.8,0.8-1.3l0.5-0.7l0.5-0.8
		c0.4-0.5,0.8-1.1,1.2-1.7c0.9-1.1,1.9-2.3,3-3.4c1.9-1.9,3.8-3.7,5.9-5.4l2.5-2c0,0-1,0.7-2.6,1.9c-2.1,1.6-4.1,3.3-6,5.2
		c-1.1,1.1-2.1,2.3-3,3.5c-0.4,0.6-0.8,1.1-1.2,1.7l-0.5,0.8l-0.4,0.8c-0.3,0.5-0.5,1-0.7,1.4s-0.4,0.8-0.5,1L176.1,470.2z"/>
	<path id="Path_9409" class="st1" d="M170.7,459.2c6.6-2.7,8.1-13.9,5-21.2c-7.4-17-26.8-21.9-26.8-21.9
		C170.9,438,170.7,459.2,170.7,459.2z"/>
	<path id="Path_9410" class="st1" d="M170.7,459.2c6.6-2.7,8.1-13.9,5-21.2c-7.4-17-26.8-21.9-26.8-21.9
		C170.9,438,170.7,459.2,170.7,459.2z"/>
	<path id="Path_9411" class="st1" d="M170.6,455.3c0,0-0.1-0.6-0.3-1.5c-0.1-0.5-0.2-1.1-0.3-1.8s-0.3-1.5-0.6-2.3
		c-0.1-0.4-0.2-0.9-0.4-1.3s-0.3-1-0.5-1.4c-0.3-1-0.7-2-1.1-3.1c-0.9-2.3-2-4.6-3.2-6.7c-2.2-3.9-4.6-7.7-7.2-11.3
		c-2-2.8-3.2-4.5-3.2-4.5s1.3,1.6,3.4,4.3c2.7,3.5,5.2,7.3,7.4,11.2c1.2,2.2,2.3,4.5,3.2,6.8c0.4,1.1,0.8,2.1,1.1,3.1
		c0.2,0.5,0.3,1,0.4,1.5s0.2,1,0.3,1.4c0.2,0.9,0.4,1.7,0.5,2.4s0.2,1.3,0.3,1.8C170.5,454.7,170.6,455.3,170.6,455.3z"/>
	<path id="Path_9412" class="st0" d="M168.8,510.2h6.9c4.6,0,8.4-0.4,8.4-6.3l3.5-18.6c0-5.9-3.8-5.4-8.4-5.4h-14.7
		c-4.6,0-8.4-0.5-8.4,5.4l3.5,18.6C159.6,509.8,164.1,510.2,168.8,510.2z"/>
	<path id="Path_9413" class="st1" d="M179.2,480h-5.7c3.5,0.4,7,1.4,8.6,4.9s0.7,9.2,0.3,12.9c-0.5,5.4-3.7,9.5-9.5,9.3
		c-3-0.1-5.9-0.7-8.9-0.7h-4c1.2,3.5,4.9,3.8,8.8,3.8h6.9c4.6,0,8.4-0.4,8.4-6.3l3.5-18.6C187.6,479.5,183.8,480,179.2,480z"/>
	<path id="Path_9415" class="st2" d="M213,180.9l-13.1,18.6l-0.1-0.2c-1.2-2.8-2.2-5.6-3.2-8.4c0-0.1,0-0.3,0-0.5
		c-0.9-2.2-1.3-4.7-1-7.1c0.4-1.8,1.1-3.4,1.4-5.2c1-5.3-0.2-10.8-4.6-14.3c-0.8-0.7-1.9,0.6-1,1.3c4.8,3.8,5,10,3.3,15.4
		c-0.5,1.4-0.7,2.9-0.8,4.3c-1.2-2.5-2.9-4.7-4.9-6.6c-0.8-0.7-1.8,0.5-1,1.3c6.1,5.8,7.3,14.2,10.7,21.6l0,0
		c-1.4-0.8-2.9-1.4-4.4-1.7c-3.9-1-9.2-0.1-11.4-4.3c-0.5-1-2-0.4-1.5,0.6c1.8,3.5,5.1,4.3,8.7,4.8c2.6,0.2,5.2,0.9,7.6,2.1
		l-11.4,16c-4-3.8-10.9-2.6-14.7-19c-1.7-7.4-4.9-24.5-8-28.4c-3.1-3.5-9-12-6-16.1c5-6.8,13.8,1.4,19.2,0.6
		c19.5-2.9,30.3,13.3,33.3,20.1C210.9,177.5,211.8,179.3,213,180.9L213,180.9z"/>
	<path id="Path_9416" class="st3" d="M198.7,201l-1,1.4c-2.4-1.1-5-1.8-7.6-2.1c-3.6-0.4-6.9-1.3-8.7-4.8c-0.5-1,1.1-1.5,1.5-0.6
		c2.1,4.2,7.5,3.3,11.4,4.3C195.8,199.7,197.3,200.3,198.7,201L198.7,201z"/>
	<path id="Path_9417" class="st3" d="M196.9,178.1c-0.3,1.8-1,3.4-1.4,5.2c-0.5,2.4,0.1,4.8,1,7.1c0,0.1,0,0.3,0,0.5
		c1,2.8,2,5.6,3.2,8.4l0.1,0.2l-1.1,1.6c-3.4-7.4-4.6-15.7-10.7-21.6c-0.8-0.7,0.3-2,1-1.3c2,1.9,3.6,4.1,4.9,6.6
		c0.1-1.5,0.3-2.9,0.8-4.3c1.7-5.4,1.4-11.7-3.3-15.4c-0.8-0.7,0.2-1.9,1-1.3C196.7,167.3,197.9,172.7,196.9,178.1z"/>
	<path id="Path_9418" class="st4" d="M135,168.3c19.6-2.1,29.8,14.5,32.4,21.4c6.1,16.1,18.8,14.4,23.8,13.2
		c2.5-0.6,6.4-0.2,10.5,1.2v41c-1.2-1-2.3-2-3.5-2.9c-3.1-2.5-6.5-4.5-10.1-6c-0.8-0.4-1.7-0.7-2.5-1c-0.1-0.1-0.2-0.2-0.4-0.2
		c-0.3-0.1-0.6-0.2-1-0.2l-0.5-0.1c-9.9-3.2-10.6-15.3-5-23.1c0.6-0.8-0.6-1.9-1.2-1.1c-3.1,4.4-4.9,10-3.7,15.4
		c0.5,2.7,1.9,5.2,3.9,7.1c-0.8-0.2-1.5-0.4-2.3-0.7c-4.2-1.3-7.8-4.9-10.9-7.8c-1.5-1.4-3-2.9-4.3-4.5c0,0,0-0.1,0-0.1
		c-0.5-0.8-1.1-1.6-1.7-2.3c-1-1.5-1.8-3.1-2.5-4.8c-1.1-2.9-1.9-5.7-2.9-8.6c0-0.1,0-0.3,0-0.5c-0.7-2.3-1.2-4.7-0.6-7.1
		c0.4-1.7,1.2-3.4,1.6-5.1c1.2-5.3,0.2-10.8-4-14.5c-0.3-0.3-0.9-0.3-1.2,0.1s-0.3,0.9,0.1,1.2l0,0c4.6,3.9,4.6,10.2,2.7,15.5
		c-0.5,1.4-0.8,2.8-1,4.3c-1.1-2.5-2.7-4.8-4.6-6.8c-0.7-0.8-1.8,0.5-1.1,1.2c5.9,6.1,6.8,14.5,9.9,22c0,0,0,0,0,0.1
		c-1.4-0.8-2.8-1.5-4.4-1.9c-3.8-1.1-9.2-0.4-11.2-4.8c-0.4-1-2-0.5-1.6,0.5c1.6,3.5,4.9,4.5,8.6,5.1c4.1,0.7,7.9,1.9,10.7,4.8
		c1.4,2.1,3,4,4.8,5.8c2.8,2.9,5.9,5.5,9.3,7.8c3.4,2.2,7.7,3,11.6,4c0.6,0.2,1.3,0.4,2,0.6c3.6,1.3,7.1,3.1,10.2,5.3
		c1.9,1.3,3.6,2.8,5.3,4.3c-4.3-0.9-8.8-0.2-12.6,1.9c-1.5,0.8-2.9,1.9-4.1,3.2c-1.8,1.8-2.9,4.2-4.9,5.7c-4.5,3.5-9.2-0.8-13-3
		c-1-0.5-1.7,1-0.7,1.5c3.2,1.9,6.2,4.5,10.1,4.4c4.9,0,6.9-4.4,9.8-7.5c4.3-4.6,11-6.2,16.9-4v13.7c-7.5,5.1-16.2,7.9-24.6,7.2
		c-31-2.7-28.6-24.6-33.6-35.5c-3.2-6.9-11.8-2.7-15.5-21.9c-1.4-7.4-4-24.7-6.9-28.7c-3-3.6-8.6-12.4-5.4-16.3
		C121.1,160.3,129.5,168.9,135,168.3z"/>
	<path id="Path_9419" class="st3" d="M154.1,191.6c-0.4,1.8-1.2,3.4-1.6,5.1c-0.6,2.4-0.1,4.8,0.6,7.1c0,0.1,0,0.3,0,0.5
		c1,2.9,1.8,5.7,2.9,8.6c0.7,1.7,1.5,3.3,2.5,4.8c0.6,0.7,1.2,1.5,1.7,2.3c0,0,0,0.1,0,0.1c1.3,1.6,2.7,3.1,4.3,4.5
		c3.2,2.9,6.8,6.5,10.9,7.8c0.8,0.2,1.5,0.5,2.3,0.7c-2-1.9-3.3-4.4-3.9-7.1c-1.1-5.4,0.6-11,3.7-15.4c0.6-0.9,1.8,0.2,1.2,1.1
		c-5.6,7.9-4.9,20,5,23.1l0.5,0.1c0.3,0.1,0.6,0.2,1,0.2c0.1,0,0.3,0.1,0.4,0.2c0.9,0.3,1.7,0.6,2.5,1c3.6,1.6,7,3.6,10.1,6
		c1.2,1,2.3,1.9,3.5,2.9v3.2c-5.9-2.2-12.6-0.6-16.9,4c-2.9,3.2-4.9,7.5-9.8,7.5c-3.9,0-6.9-2.6-10.1-4.4c-1-0.5-0.2-2,0.7-1.5
		c3.8,2.2,8.6,6.5,13,3c2-1.6,3.1-3.9,4.9-5.7c1.2-1.3,2.6-2.3,4.1-3.2c3.8-2.2,8.3-2.8,12.7-1.9c-1.7-1.5-3.5-3-5.3-4.3
		c-3.2-2.2-6.6-4-10.3-5.3c-0.7-0.1-1.3-0.3-2-0.6c-3.9-1-8.2-1.8-11.6-4c-3.4-2.2-6.5-4.8-9.3-7.8c-1.8-1.8-3.3-3.7-4.8-5.8
		c-2.8-2.9-6.5-4.2-10.7-4.8c-3.6-0.6-6.9-1.6-8.6-5.1c-0.4-1,1.1-1.4,1.6-0.5c2,4.3,7.3,3.7,11.2,4.8c1.5,0.4,3,1.1,4.4,1.9
		c0,0,0,0,0-0.1c-3.1-7.5-3.9-15.9-9.9-22c-0.7-0.8,0.4-2,1.1-1.2c1.9,2,3.5,4.3,4.6,6.8c0.1-1.5,0.4-2.9,1-4.3
		c1.9-5.3,1.8-11.6-2.7-15.5c-0.3-0.3-0.3-0.8,0-1.2c0.3-0.3,0.8-0.3,1.1-0.1C154.3,180.8,155.3,186.3,154.1,191.6z"/>
	<path id="Path_9420" class="st5" d="M209.7,239.2c3.7,0,6.8-3,6.8-6.8c0-3.7-3-6.8-6.8-6.8c-3.7,0-6.8,3-6.8,6.8
		c0,1.8,0.7,3.5,2,4.8C206.1,238.4,207.9,239.2,209.7,239.2z"/>
	<g id="Group_7386" transform="translate(203.082 233.294)">
		<path id="Path_9421" class="st5" d="M5.1,0.6C3.6,1.6,1.6,1.7,0,0.7c0.8,3,3.5,5.1,6.6,5.1c1.1,0,2.1-0.3,3.1-0.7
			c-0.4-0.9-1-1.7-1.6-2.5C7.6,1.8,7,1.1,6.3,0.5C6,0.3,6,0.1,6,0C5.7,0.2,5.4,0.4,5.1,0.6z"/>
	</g>
	<path id="Path_9422" class="st6" d="M194.4,158.3v107.6c2.1-0.8,4.3-1.2,6.5-1.3V160.2C198.6,159.9,196.4,159.3,194.4,158.3z"/>
	<path id="Path_9423" class="st2" d="M485.8,200.7l2.3-22.5l0.2,0.2c2.4,1.8,4.6,3.8,6.9,5.7c0,0.1,0.1,0.3,0.2,0.4
		c1.9,1.5,3.4,3.5,4.3,5.7c0.5,1.7,0.7,3.5,1.3,5.2c1.8,5.1,5.5,9.3,11,10.2c0.5,0,0.8-0.3,0.9-0.7c0-0.4-0.2-0.8-0.6-0.9
		c-5.9-1-9.2-6.2-10.5-11.7c-0.3-1.4-0.8-2.8-1.4-4.1c2.3,1.5,4.8,2.7,7.4,3.3c1,0.2,1.3-1.4,0.3-1.6c-8.2-2.1-13.3-8.7-19.8-13.5
		l0,0c1.6,0,3.2-0.2,4.7-0.7c3.8-1.1,8-4.4,11.9-1.9c0.9,0.6,1.9-0.7,1.1-1.2c-3.2-2.1-6.5-1.3-9.9,0.1c-2.4,1.1-5,1.7-7.6,1.9
		l2-19.4c5.3,1.3,10.7-3.1,22,9.3c5.1,5.6,16.3,18.9,20.8,20.7c4.4,1.5,13.7,6,13.1,11c-1,8.4-12.7,5.5-16.9,8.8
		c-15.5,12-32.8,3.3-38.7-1.2C489.1,202.6,487.5,201.5,485.8,200.7L485.8,200.7z"/>
	<path id="Path_9424" class="st3" d="M488.3,176.2l0.2-1.7c2.6-0.2,5.2-0.8,7.6-1.9c3.4-1.4,6.7-2.3,9.9-0.1
		c0.9,0.6-0.2,1.8-1.1,1.2c-3.9-2.6-8.1,0.8-11.9,1.9C491.5,176.1,489.9,176.3,488.3,176.2L488.3,176.2z"/>
	<path id="Path_9425" class="st3" d="M501,195.3c-0.6-1.7-0.8-3.5-1.3-5.2c-0.9-2.3-2.3-4.2-4.3-5.7c-0.1-0.1-0.2-0.2-0.2-0.4
		c-2.3-1.9-4.5-3.9-6.9-5.7l-0.2-0.2l0.2-1.9c6.5,4.8,11.7,11.4,19.8,13.5c1,0.3,0.7,1.9-0.3,1.6c-2.6-0.7-5.2-1.8-7.4-3.3
		c0.7,1.3,1.1,2.7,1.4,4.1c1.2,5.5,4.5,10.8,10.5,11.7c0.4,0.1,0.7,0.6,0.6,1c-0.1,0.4-0.5,0.6-0.9,0.6
		C506.5,204.6,502.8,200.4,501,195.3z"/>
	<path id="Path_9426" class="st4" d="M554.6,132.5c-7.2,18.2-26.5,19.6-33.9,18.7c-17-2-21.4,9.9-22.6,14.9
		c-0.6,2.5-2.8,5.7-5.9,8.7l-58.2,2.7c1.4-0.6,24.9-22.7,26.2-23.3c3.6-1.6,7-3.7,10-6.2c0.7-0.6,1.4-1.2,2-1.8
		c0.1,0,0.3-0.1,0.4-0.2c0.2-0.2,0.4-0.5,0.6-0.7l0.4-0.3c7.4-7.3,18.3-2.3,22.7,6.3c0.5,1,2,0.4,1.5-0.6
		c-2.4-4.8-6.6-8.9-11.8-10.4c-2.6-0.8-5.5-0.7-8.1,0.1c0.5-0.6,1.1-1.2,1.6-1.7c3-3.1,7.9-4.6,11.9-6.1c1.9-0.7,3.9-1.3,5.9-1.7
		h0.1c1-0.1,1.9-0.2,2.9-0.4c1.8-0.2,3.6-0.2,5.3,0c3,0.3,5.9,1,8.9,1.4c0.1,0.1,0.3,0.2,0.4,0.2c2.4,0.5,4.8,1.1,6.6,2.7
		c1.3,1.2,2.4,2.6,3.8,3.8c4.1,3.5,9.5,5.2,14.6,3.1c0.4-0.2,0.6-0.7,0.4-1.1c-0.2-0.4-0.6-0.5-1-0.4c-5.6,2.2-11.1-0.6-15-4.8
		c-1-1.1-2.1-2.1-3.3-2.9c2.7,0.1,5.5-0.2,8.1-1c1-0.3,0.4-1.8-0.6-1.5c-8.1,2.4-15.9-0.7-23.9-1.5h-0.1c1.4-0.8,2.6-1.8,3.7-3
		c2.7-2.9,4.6-7.9,9.3-7.7c1,0.1,1.3-1.6,0.3-1.6c-3.9-0.2-6.2,2.2-8.4,5.2c-2.5,3.4-5.3,6.1-9.2,7.2c-2.5,0.3-4.9,0.8-7.3,1.6
		c-3.9,1.1-7.6,2.6-11.1,4.6c-3.5,2-6.2,5.4-8.9,8.4c-0.5,0.5-1,1-1.4,1.5c-2.8,2.6-6,4.9-9.4,6.7c-2,1-4.1,1.9-6.2,2.7
		c2.8-3.4,4.2-7.7,4.1-12c-0.1-1.7-0.4-3.4-1-5.1c-0.8-2.4-2.3-4.5-2.8-7c-1-5.5,5-7.8,8.7-10.1c0.9-0.6-0.1-1.9-1-1.3
		c-3.1,2-6.8,3.4-8.6,6.9c-2.2,4.3,0.7,8.1,2.1,12.1c2.1,5.9,0.4,12.5-4.3,16.8l-12.1-6.3c-1-9,0.5-18,5-25
		c16.7-26.1,35-13.9,46.8-13.3c7.5,0.4,7.9-9.2,26.4-3.5c7.2,2.2,23.6,7.9,28.5,7.2c4.5-1,14.8-1.8,16.9,2.8
		C568.1,124,556.6,127.5,554.6,132.5z"/>
	<path id="Path_9427" class="st7" d="M489.4,133.4c-3.5,1.3-7.3,2.7-9.9,5.3c-0.6,0.6-1.1,1.1-1.6,1.7c2.6-0.9,5.4-0.9,8.1-0.1
		c0.9,0.3,1.9,0.6,2.7,1.1c0.1-0.4,0.1-0.8,0.2-1.3C489.3,137.9,489.5,135.6,489.4,133.4L489.4,133.4z"/>
	<path id="Path_9428" class="st7" d="M480,156.7c-2.1,2.9-16.8,23.3-18.2,26.5l-26.3-10.2c1.4-0.6,23.3-18.1,24.7-18.7
		c3.6-1.6,7-3.7,10-6.2c0.7-0.6,1.4-1.2,2-1.8c0.1,0,0.3-0.1,0.4-0.2c0.2-0.2,0.4-0.5,0.6-0.7l0.4-0.3c4.4-4.3,10-4.3,14.8-1.8
		c-0.3,1.5-1,3-1.8,4.3C484.6,150.7,482.1,153.6,480,156.7z"/>
	<path id="Path_9429" class="st7" d="M472.9,143.4c-0.5,0.5-1,1-1.4,1.5c-2.8,2.6-6,4.9-9.4,6.7c-2,1-4.1,1.9-6.2,2.7
		c2.8-3.4,4.2-7.7,4.1-12c-0.1-1.7-0.4-3.4-1-5.1c-0.8-2.4-2.3-4.5-2.8-7c-1-5.5,5-7.8,8.7-10.1c0.9-0.6-0.1-1.9-1-1.3
		c-3.1,2-6.8,3.4-8.6,6.9c-2.2,4.3,0.7,8.1,2.1,12.1c2.1,5.9,0.4,12.5-4.3,16.7l-12.1-6.3c-1-9,0.5-18,5-25
		c12.4-19.5,25.7-17.6,36.6-15.2c2.1,6.3,4.2,12.6,5.8,19c0.4,1.5,0.6,3.1,0.8,4.6c-2.6,0.9-5.1,2-7.6,3.4
		C478.2,137,475.6,140.4,472.9,143.4z"/>
	<path id="Path_9430" class="st3" d="M525.2,138.7c-1.4-1.2-2.4-2.6-3.8-3.8c-1.9-1.5-4.2-2.4-6.6-2.7c-0.1,0-0.3-0.1-0.4-0.2
		c-2.9-0.5-5.8-1.1-8.9-1.4c-1.8-0.2-3.6-0.2-5.3,0c-0.9,0.2-1.9,0.4-2.9,0.4h-0.1c-2,0.4-4,1-5.9,1.7c-4,1.5-8.8,3-11.9,6.1
		c-0.6,0.6-1.1,1.1-1.6,1.7c2.6-0.9,5.4-0.9,8.1-0.1c5.3,1.5,9.4,5.6,11.8,10.4c0.5,1-1.1,1.5-1.5,0.6c-4.4-8.6-15.3-13.5-22.7-6.3
		l-0.4,0.3c-0.2,0.2-0.4,0.5-0.6,0.7c-0.1,0.1-0.2,0.2-0.4,0.2c-0.7,0.6-1.3,1.2-2,1.8c-3,2.5-6.4,4.5-9.9,6.1
		c-1.4,0.6-2.8,1.2-4.2,1.7l-2.9-1.5c4.7-4.2,6.4-10.8,4.3-16.7c-1.5-4-4.3-7.8-2.1-12.1c1.8-3.5,5.4-4.9,8.6-6.9
		c0.9-0.6,1.8,0.8,1,1.3c-3.7,2.3-9.7,4.6-8.7,10.1c0.4,2.5,2,4.6,2.8,7c0.6,1.6,0.9,3.3,1,5.1c0.1,4.4-1.3,8.6-4.1,12
		c2.1-0.8,4.2-1.7,6.2-2.7c3.4-1.8,6.6-4,9.4-6.7c0.4-0.5,0.9-1,1.4-1.5c2.7-3,5.4-6.4,8.9-8.4c3.5-1.9,7.3-3.5,11.1-4.6
		c2.4-0.7,4.8-1.3,7.3-1.6c3.9-1.1,6.7-3.8,9.2-7.2c2.2-2.9,4.5-5.3,8.4-5.2c1,0.1,0.8,1.7-0.3,1.6c-4.7-0.2-6.6,4.8-9.3,7.7
		c-1.1,1.2-2.3,2.2-3.7,3h0.1c8.1,0.7,15.9,3.9,23.9,1.5c1-0.3,1.6,1.2,0.6,1.5c-2.6,0.8-5.4,1.1-8.1,1c1.2,0.8,2.4,1.8,3.3,2.9
		c3.8,4.2,9.4,7,15,4.8c0.4-0.1,0.9,0.1,1,0.6c0.1,0.4-0.1,0.8-0.4,1C534.7,143.9,529.3,142.2,525.2,138.7z"/>
	<path id="Path_9431" class="st2" d="M445.8,178.9l-0.8-28.7l3.4-2.6c0.2,0,0.3-0.1,0.4-0.2c1.8-1.6,4.1-2.6,6.5-3
		c1.8-0.2,3.6,0,5.3-0.2c5.4-0.7,10.2-3.5,12.2-8.7c0.2-0.4,0-0.9-0.5-1.1s-0.9,0-1.1,0.5c-2.1,5.6-8,7.8-13.6,7.8
		c-1.5,0-2.9,0.2-4.3,0.6c1.9-1.9,3.6-4.1,4.8-6.6c0.5-1-1.1-1.5-1.5-0.6c-2.9,5.9-8.1,9.5-13.1,13.3l-3.9-2
		c-0.5-3.8-2.5-8.3,0.7-11.4c0.7-0.7-0.2-2-1-1.3c-2.7,2.7-2.6,6.1-1.9,9.7c0.1,0.7,0.2,1.3,0.3,2l-16.3-8.5
		c1.3-3.2,4.1-6.9,11.3-11.2c6.5-3.8,21.8-12.1,24.5-16.2c2.3-4,8.6-12.2,13.4-10.6c8,2.7,2.8,13.5,5.2,18.4
		c8.6,17.6-3.4,32.8-9,37.6C465.4,157.2,446.9,177.7,445.8,178.9z"/>
	<path id="Path_9432" class="st3" d="M439.6,147.4l-1.9-1c-0.1-0.7-0.2-1.3-0.3-2c-0.7-3.6-0.9-7,1.9-9.7c0.8-0.7,1.7,0.6,1,1.3
		C437.2,139.1,439.1,143.6,439.6,147.4z"/>
	<path id="Path_9433" class="st3" d="M460.7,144.2c-1.8,0.2-3.5,0-5.3,0.2c-2.4,0.4-4.6,1.4-6.5,3c-0.1,0.1-0.3,0.1-0.4,0.2
		l-3.4,2.6l-1.5-0.8c5-3.9,10.3-7.4,13.1-13.3c0.5-1,2-0.3,1.5,0.6c-1.2,2.5-2.8,4.7-4.8,6.6c1.4-0.4,2.9-0.6,4.3-0.6
		c5.6,0,11.5-2.2,13.6-7.8c0.2-0.4,0.6-0.6,1.1-0.5s0.6,0.6,0.5,1.1C470.9,140.7,466,143.5,460.7,144.2z"/>
	<path id="Path_9434" class="st8" d="M606.4,392.3c0,0.9-0.7,1.6-1.5,1.6l0,0c-0.9,0.1-1.7-0.4-1.8-1.3l-15.3-151.2
		c0-0.9,0.7-1.6,1.5-1.6l0,0c0.9-0.1,1.7,0.4,1.8,1.3L606.4,392.3z"/>
	<path id="Path_9435" class="st8" d="M590.7,252.4c0,0.8-0.6,1.4-1.4,1.4l0,0h-33.9c-0.8,0-1.4-0.6-1.4-1.4v0l0,0
		c0-0.8,0.6-1.4,1.4-1.4c0,0,0,0,0,0h33.9C590.1,251,590.7,251.6,590.7,252.4C590.7,252.4,590.7,252.4,590.7,252.4z"/>
	<path id="Path_9436" class="st8" d="M592.2,269.4c0,0.8-0.6,1.4-1.4,1.4l0,0h-33.9c-0.8,0-1.4-0.6-1.4-1.4v0l0,0
		c0-0.8,0.6-1.4,1.4-1.4l0,0h33.9C591.6,268,592.2,268.6,592.2,269.4L592.2,269.4z"/>
	<path id="Path_9437" class="st8" d="M594.5,285.7c0,0.8-0.6,1.4-1.4,1.4c0,0,0,0,0,0h-33.9c-0.8,0-1.4-0.6-1.4-1.4v0l0,0
		c0-0.8,0.6-1.4,1.4-1.4c0,0,0,0,0,0h33.9C593.9,284.3,594.5,284.9,594.5,285.7z"/>
	<path id="Path_9438" class="st8" d="M596,302.6c0,0.8-0.6,1.4-1.4,1.4c0,0,0,0,0,0h-33.9c-0.8,0-1.4-0.6-1.4-1.4c0,0,0,0,0,0l0,0
		c0-0.8,0.6-1.4,1.4-1.4h33.9C595.4,301.3,596,301.9,596,302.6L596,302.6z"/>
	<path id="Path_9439" class="st8" d="M598.3,319.9c0,0.8-0.6,1.4-1.4,1.4H563c-0.8,0-1.4-0.6-1.4-1.4c0,0,0,0,0,0l0,0
		c0-0.8,0.6-1.4,1.4-1.4H597C597.7,318.6,598.3,319.2,598.3,319.9z"/>
	<path id="Path_9440" class="st8" d="M599.9,336.9c0,0.8-0.6,1.4-1.4,1.4l0,0h-33.9c-0.8,0-1.4-0.6-1.4-1.4v0l0,0
		c0-0.8,0.6-1.4,1.4-1.4c0,0,0,0,0,0h33.9C599.2,335.6,599.9,336.2,599.9,336.9C599.9,336.9,599.9,336.9,599.9,336.9L599.9,336.9z"
		/>
	<path id="Path_9441" class="st8" d="M601.4,353.2c0,0.8-0.6,1.4-1.3,1.4c0,0,0,0,0,0h-34c-0.8,0-1.4-0.6-1.4-1.4v0l0,0
		c0-0.8,0.6-1.4,1.4-1.4c0,0,0,0,0,0h34C600.8,351.9,601.4,352.5,601.4,353.2L601.4,353.2L601.4,353.2z"/>
	<path id="Path_9442" class="st8" d="M590.7,252.4c0,0.8-0.6,1.4-1.4,1.4l0,0h-33.9c-0.8,0-1.4-0.6-1.4-1.4v0l0,0
		c0-0.8,0.6-1.4,1.4-1.4c0,0,0,0,0,0h33.9C590.1,251,590.7,251.6,590.7,252.4C590.7,252.4,590.7,252.4,590.7,252.4z"/>
	<path id="Path_9443" class="st8" d="M592.2,269.4c0,0.8-0.6,1.4-1.4,1.4l0,0h-33.9c-0.8,0-1.4-0.6-1.4-1.4v0l0,0
		c0-0.8,0.6-1.4,1.4-1.4l0,0h33.9C591.6,268,592.2,268.6,592.2,269.4L592.2,269.4z"/>
	<path id="Path_9444" class="st8" d="M594.5,285.7c0,0.8-0.6,1.4-1.4,1.4c0,0,0,0,0,0h-33.9c-0.8,0-1.4-0.6-1.4-1.4v0l0,0
		c0-0.8,0.6-1.4,1.4-1.4c0,0,0,0,0,0h33.9C593.9,284.3,594.5,284.9,594.5,285.7z"/>
	<path id="Path_9445" class="st8" d="M596,302.6c0,0.8-0.6,1.4-1.4,1.4c0,0,0,0,0,0h-33.9c-0.8,0-1.4-0.6-1.4-1.4c0,0,0,0,0,0l0,0
		c0-0.8,0.6-1.4,1.4-1.4h33.9C595.4,301.3,596,301.9,596,302.6L596,302.6z"/>
	<path id="Path_9446" class="st8" d="M598.3,319.9c0,0.8-0.6,1.4-1.4,1.4H563c-0.8,0-1.4-0.6-1.4-1.4c0,0,0,0,0,0l0,0
		c0-0.8,0.6-1.4,1.4-1.4H597C597.7,318.6,598.3,319.2,598.3,319.9z"/>
	<path id="Path_9447" class="st8" d="M599.9,336.9c0,0.8-0.6,1.4-1.4,1.4l0,0h-33.9c-0.8,0-1.4-0.6-1.4-1.4v0l0,0
		c0-0.8,0.6-1.4,1.4-1.4c0,0,0,0,0,0h33.9C599.2,335.6,599.9,336.2,599.9,336.9C599.9,336.9,599.9,336.9,599.9,336.9L599.9,336.9z"
		/>
	<path id="Path_9448" class="st8" d="M601.4,353.2c0,0.8-0.6,1.4-1.3,1.4c0,0,0,0,0,0h-34c-0.8,0-1.4-0.6-1.4-1.4v0l0,0
		c0-0.8,0.6-1.4,1.4-1.4c0,0,0,0,0,0h34C600.8,351.9,601.4,352.5,601.4,353.2L601.4,353.2L601.4,353.2z"/>
	<path id="Path_9449" class="st8" d="M571.2,392.3c0,0.9-0.7,1.6-1.5,1.6l0,0c-0.9,0.1-1.7-0.4-1.8-1.3l-15.3-151.2
		c0-0.9,0.7-1.6,1.5-1.6l0,0c0.9-0.1,1.7,0.4,1.8,1.3L571.2,392.3z"/>
	<path id="Path_9450" class="st8" d="M608.5,412.9l-10.6-104.2c-0.2-0.9-1.2-1.5-2.1-1.2c-0.7,0.2-1.3,0.8-1.3,1.6L605,412.9H608.5z
		"/>
	<path id="Path_9451" class="st8" d="M605.2,387.6c0,0.8-0.6,1.4-1.4,1.4h-33.9c-0.8,0-1.4-0.6-1.4-1.4l0,0c0-0.8,0.6-1.4,1.4-1.4
		h34C604.6,386.2,605.2,386.9,605.2,387.6L605.2,387.6L605.2,387.6z"/>
	<path id="Path_9452" class="st8" d="M606.7,404.6c0,0.8-0.6,1.4-1.4,1.4l0,0h-33.9c-0.8,0-1.4-0.6-1.4-1.4v0l0,0
		c0-0.8,0.6-1.4,1.4-1.4l0,0h33.9C606.1,403.2,606.7,403.9,606.7,404.6L606.7,404.6L606.7,404.6z"/>
	<path id="Path_9453" class="st8" d="M590.3,519.4v-0.4c0.1-3.8-2.8-6.9-6.5-7.1c-3.8-0.1-6.9,2.8-7.1,6.5c0,0.2,0,0.3,0,0.5
		c0,0.1,0,0.2,0,0.4H590.3z"/>
	<path id="Path_9454" class="st8" d="M573.3,412.9l-10.6-104.2c-0.2-0.9-1.2-1.5-2.1-1.2c-0.7,0.2-1.2,0.8-1.3,1.6l10.5,103.9H573.3
		z"/>
	<path id="Path_9455" class="st8" d="M608.7,412.9l-2-19.8c-0.2-0.9-1.2-1.5-2.1-1.2c-0.7,0.2-1.3,0.8-1.3,1.6l2,19.5H608.7z"/>
	<path id="Path_9456" class="st8" d="M604.9,410.6l4.9,48c0.2,0.9,1,1.4,1.8,1.3c0.9,0,1.6-0.8,1.6-1.6l-4.8-47.6L604.9,410.6z"/>
	<path id="Path_9457" class="st8" d="M606.4,404.4c0,0.8-0.6,1.4-1.4,1.4l0,0H571c-0.8,0-1.4-0.6-1.4-1.4v0l0,0
		c0-0.8,0.6-1.4,1.4-1.4c0,0,0,0,0,0H605C605.7,403,606.4,403.7,606.4,404.4C606.4,404.4,606.4,404.4,606.4,404.4L606.4,404.4z"/>
	<path id="Path_9458" class="st8" d="M608.2,419.1c0,0.8-0.6,1.4-1.4,1.4h-34c-0.8,0-1.4-0.6-1.4-1.4c0,0,0,0,0,0l0,0
		c0-0.8,0.6-1.4,1.4-1.4l0,0h34C607.6,417.7,608.2,418.3,608.2,419.1C608.2,419,608.2,419,608.2,419.1L608.2,419.1z"/>
	<path id="Path_9459" class="st8" d="M609.7,436.1c0,0.8-0.6,1.4-1.4,1.4c0,0,0,0,0,0h-34c-0.8,0-1.4-0.6-1.4-1.4v0l0,0
		c0-0.8,0.6-1.4,1.4-1.4c0,0,0,0,0,0h34C609.1,434.7,609.7,435.3,609.7,436.1C609.7,436.1,609.7,436.1,609.7,436.1L609.7,436.1z"/>
	<path id="Path_9460" class="st8" d="M606.4,404.4c0,0.8-0.6,1.4-1.4,1.4l0,0H571c-0.8,0-1.4-0.6-1.4-1.4v0l0,0
		c0-0.8,0.6-1.4,1.4-1.4c0,0,0,0,0,0H605C605.7,403,606.4,403.7,606.4,404.4C606.4,404.4,606.4,404.4,606.4,404.4L606.4,404.4z"/>
	<path id="Path_9461" class="st8" d="M608.2,419.1c0,0.8-0.6,1.4-1.4,1.4h-34c-0.8,0-1.4-0.6-1.4-1.4c0,0,0,0,0,0l0,0
		c0-0.8,0.6-1.4,1.4-1.4l0,0h34C607.6,417.7,608.2,418.3,608.2,419.1C608.2,419,608.2,419,608.2,419.1L608.2,419.1z"/>
	<path id="Path_9462" class="st8" d="M609.7,436.1c0,0.8-0.6,1.4-1.4,1.4c0,0,0,0,0,0h-34c-0.8,0-1.4-0.6-1.4-1.4v0l0,0
		c0-0.8,0.6-1.4,1.4-1.4c0,0,0,0,0,0h34C609.1,434.7,609.7,435.3,609.7,436.1C609.7,436.1,609.7,436.1,609.7,436.1L609.7,436.1z"/>
	<path id="Path_9463" class="st8" d="M573.5,412.9l-2-19.8c-0.2-0.9-1.2-1.5-2.1-1.2c-0.7,0.2-1.3,0.8-1.3,1.6l2,19.5H573.5z"/>
	<path id="Path_9464" class="st8" d="M569.7,410.6l4.9,48c0.2,0.9,1.1,1.5,2.1,1.3c0.8-0.2,1.3-0.8,1.3-1.6l-4.8-47.6L569.7,410.6z"
		/>
	<path id="Path_9465" class="st8" d="M604.9,410.6l10.6,104.5h3.4l-10.6-104.5H604.9z"/>
	<path id="Path_9466" class="st8" d="M609.7,436.3c0,0.8-0.6,1.4-1.4,1.4h-34c-0.8,0-1.4-0.6-1.4-1.4l0,0c0-0.8,0.6-1.4,1.4-1.4h34
		C609.1,434.9,609.7,435.5,609.7,436.3L609.7,436.3z"/>
	<path id="Path_9467" class="st8" d="M612,453.6c0,0.8-0.6,1.4-1.4,1.4c0,0,0,0,0,0h-34c-0.8,0-1.4-0.6-1.4-1.4l0,0
		c0-0.8,0.6-1.4,1.4-1.4c0,0,0,0,0,0h34C611.4,452.2,612,452.8,612,453.6C612,453.6,612,453.6,612,453.6z"/>
	<path id="Path_9468" class="st8" d="M613.5,470.7c0,0.8-0.6,1.4-1.4,1.4c0,0,0,0,0,0h-34c-0.8,0-1.4-0.6-1.4-1.3c0,0,0,0,0,0l0,0
		c0-0.8,0.6-1.4,1.4-1.4c0,0,0,0,0,0h34C612.9,469.3,613.5,469.9,613.5,470.7C613.5,470.7,613.5,470.7,613.5,470.7L613.5,470.7z"/>
	<path id="Path_9469" class="st8" d="M615.1,487c0,0.8-0.6,1.4-1.4,1.4c0,0,0,0,0,0h-34c-0.8,0-1.4-0.6-1.4-1.4v0l0,0
		c0-0.8,0.6-1.4,1.4-1.4c0,0,0,0,0,0h34C614.5,485.6,615.1,486.2,615.1,487C615.1,487,615.1,487,615.1,487z"/>
	<path id="Path_9470" class="st8" d="M616.6,504c0,0.8-0.6,1.4-1.4,1.4c0,0,0,0,0,0h-34c-0.8,0-1.4-0.6-1.4-1.4c0,0,0,0,0,0l0,0
		c0-0.8,0.6-1.4,1.4-1.4h0h34.1C616,502.6,616.6,503.2,616.6,504L616.6,504L616.6,504z"/>
	<path id="Path_9471" class="st8" d="M569.7,410.6l10.6,104.5h3.4l-10.6-104.5H569.7z"/>
	<path id="Path_9472" class="st8" d="M626.9,519.4v-0.4c0.1-3.8-2.8-6.9-6.5-7.1c-3.8-0.1-6.9,2.8-7.1,6.5c0,0.2,0,0.3,0,0.5
		c0,0.1,0,0.2,0,0.4H626.9z"/>
	<path id="Path_9473" class="st6" d="M324.3,284.8L324.3,284.8l0.1-14.8c0-11-3.9-19.9-15-19.9s-15.8,8.9-15.8,19.9v8.2l0,0v122.1
		c0,19-6,27.1-18.6,27.1h49.4L324.3,284.8L324.3,284.8z"/>
	<path id="Path_9474" class="st6" d="M197.1,142.3c0-5.2-3.3-9.8-8.2-11.5h-3.8c-12.5,0-12.4,11.2-12.4,11.2v1.5H197L197.1,142.3
		L197.1,142.3z"/>
	<path id="Path_9475" class="st6" d="M214.8,342L214.8,342z"/>
	<path id="Path_9476" class="st6" d="M256.4,241.1L256.4,241.1l-0.1-61.9l0,0c0-5.9-4.2-10.9-10-12c-12.1,0.2-12,11.1-12,11.1v100.4
		l0,0v36.1c0,19-6,27.1-18.6,27.1h40.7L256.4,241.1z"/>
	<g>
		<defs>
			<path id="SVGID_1_" d="M349.6,468l4.9-0.1c0.3-1.2,0.4-2.4,0.4-3.6h138l46.4-1.2c25.9,0,26.8-9.9,26.8-9.9V278.2
				c0-16-13-29-29-29h-16.3v-69.9c0-6.7-5.5-12.2-12.2-12.2l0,0c-0.7,0-1.5,0.1-2.2,0.2h-44.9v-24.9c0-6.7-5.4-12.2-12.2-12.2
				c-0.7,0-1.5,0.1-2.2,0.2H187.1c0.6,0.1,1.3,0.3,1.9,0.5c4.9,1.7,8.1,6.3,8.2,11.5l0,0v13.5h0.1v155.3c0,0.6-0.1,1.3-0.1,1.9
				c0,0.6,0,1.3,0.1,1.9v0.1l0,0c0,18.5,5.3,26.6,17.6,27h1c12.7,0,18.6-8.1,18.6-27.1v-36.1l0,0V178.4c0,0-0.1-10.9,12-11.1
				c5.8,1.1,10,6.1,10,12l0,0v61.9h0.1v155.3c0,0.6-0.1,1.3-0.1,1.9c0,0.6,0,1.3,0.1,1.9v0.1l0,0c0,19,5.5,27,18.6,27
				c12.7,0,18.6-8.1,18.6-27.1v-122l0,0V270c0-11,4.8-19.9,15.8-19.9s15,8.9,15,19.9v14.7l-0.1,0.1v177.9c0,0.5-0.1,1.1-0.1,1.6
				c0,8.5,6.9,15.4,15.4,15.4C351.1,477.8,349.6,468,349.6,468z"/>
		</defs>
		<clipPath id="SVGID_2_">
			<use xlink:href="#SVGID_1_"  style="overflow:visible;"/>
		</clipPath>
		<g id="Group_7387" transform="translate(187.065 130.167)" class="st9">
			<rect id="Rectangle_19265" x="0" y="0" class="st10" width="379" height="349.4"/>
			<path id="Path_9477" class="st10" d="M380,48.2v302.2H180.3v4.6c-1.8-2.2-3.6-4.4-5.4-6.7c-3.6-4.5-7.1-9.1-10.7-13.8
				c-28.2-37.5-54.7-80.8-77.6-128.7S46.4,110.2,34.8,64.8C29.2,43,24.8,20.9,21.7-1.4V-1H380V48.2z"/>
			<path id="Path_9478" class="st11" d="M380,49.6v300.7H181.6v0.3c-1.8-2.2-3.5-4.3-5.3-6.5c-3.5-4.4-7-8.9-10.5-13.5
				c-27.7-36.8-53.6-79.3-76.2-126.2S50.2,110.5,38.9,66c-5.5-21.4-9.8-43-12.8-64.9c-0.4-2.6-0.7-5.2-1-7.8V-1h355V49.6z"/>
			<path id="Path_9479" class="st12" d="M380,51.1v299.2H188.1v2.3c-7-8.2-13.9-16.9-20.6-25.9c-27.1-36.1-52.6-77.8-74.7-123.8
				S54.1,110.9,43,67.1c-5.4-21-9.6-42.2-12.6-63.6c-0.4-2.6-0.7-5.1-1-7.6V-1h348.9v-5.7c1.5,2.6,3.1,5.3,4.6,7.9H380L380,51.1z"/>
			<path id="Path_9480" class="st13" d="M380,52.6v297.7H194.5v3.9c-1.7-2-3.4-4-5.1-6c-6.8-8.1-13.6-16.6-20.2-25.4
				c-26.6-35.3-51.6-76.3-73.2-121.4c-20.6-42.6-37-87.2-48.9-133.1c-5.3-20.5-9.4-41.4-12.4-62.4c-0.3-2.5-0.7-5-1-7.5v0.7h342
				v-3.1c1.5,2.6,3,5.2,4.5,7.8H380L380,52.6z"/>
			<path id="Path_9481" class="st14" d="M380,54.1v296.3H200.7v5.1c-3.4-3.8-6.7-7.7-10.1-11.7c-6.7-8-13.3-16.3-19.8-24.9
				c-26.1-34.6-50.5-74.7-71.8-119c-20.2-41.8-36.2-85.5-47.9-130.4C45.9,49.3,41.9,28.9,39,8.3c-0.7-4.9-1.3-9.8-1.8-14.6V-1h336.1
				v-0.5c1.5,2.5,3,5.1,4.4,7.6c2.9,5.1,5.8,10.3,8.7,15.6H380L380,54.1z"/>
			<path id="Path_9482" class="st15" d="M380,55.6v294.8H201.7v0.4c-3.3-3.7-6.6-7.5-9.9-11.4c-6.5-7.8-13-15.9-19.4-24.4
				c-27.2-36.4-50.7-75.5-70.3-116.5c-19.8-40.9-35.5-83.7-46.9-127.8c-5.1-19.7-9-39.7-11.9-59.9c-0.7-4.8-1.2-9.6-1.8-14.3V-1
				h324.8v-5.2c5.9,9.7,11.6,19.8,17.2,30.1H380L380,55.6z"/>
			<path id="Path_9483" class="st16" d="M380,57.1v293.3H212.5v6.4C198.8,342.2,186,327,174,311c-26.7-35.7-49.7-73.9-68.8-114.1
				c-20.3-42.4-35.7-84.8-45.9-125.1c-5-19.3-8.8-38.9-11.6-58.6c-0.6-4.8-1.2-9.4-1.7-14c-0.1-1.2-0.2-2.3-0.4-3.5V-1H364v-2.5
				c5.8,9.5,11.4,19.3,16.9,29.5H380L380,57.1z"/>
			<path id="Path_9484" class="st17" d="M380,58.6v291.8H213.3v1.5c-13.4-14.2-25.9-29.2-37.7-44.8c-26.1-34.9-48.6-72.3-67.4-111.7
				c-19-39.2-34-80.2-44.9-122.4C58.5,54.1,54.7,35,52,15.6c-0.6-4.6-1.2-9.2-1.7-13.7c-0.2-2.3-0.5-4.5-0.7-6.7V-1h307.7v-6.7
				c1.4,2.3,2.9,4.6,4.3,6.9c5.6,9.3,11.1,18.9,16.5,28.8c2.7,4.9,5.3,9.9,7.9,15H380V58.6z"/>
			<path id="Path_9485" class="st18" d="M380,60.1v290.3H223.6v6.3c-3.2-3.1-6.3-6.4-9.4-9.7c-13.1-13.9-25.4-28.5-36.8-43.8
				c-25.5-34.2-47.6-70.8-65.9-109.3c-18.6-38.4-33.3-78.5-44-119.8C62.7,55.7,59,37,56.3,18.1c-0.6-4.5-1.2-9-1.6-13.4
				c-0.2-2.2-0.5-4.4-0.7-6.6v1H355v-3.7c1.4,2.2,2.8,4.5,4.2,6.8c5.5,9.1,10.9,18.5,16.2,28.2c2.6,4.8,5.2,9.7,7.7,14.7h-3
				L380,60.1z"/>
			<path id="Path_9486" class="st19" d="M380,61.5v288.8H224.2v1.2c-3.1-3.1-6.2-6.2-9.2-9.5c-12.8-13.6-24.8-27.9-36-42.8
				c-24.9-33.4-46.5-69.2-64.4-106.8c-18.1-37.5-32.5-76.8-43-117.1c-4.6-18.1-8.3-36.4-10.9-54.9C59.5,11.6,58.5,3,57.9-5.5V-1
				h294.8v-0.8c1.4,2.2,2.7,4.4,4.1,6.7c5.4,8.9,10.7,18.1,15.8,27.6c2.5,4.7,5,9.5,7.5,14.4h-0.1L380,61.5z"/>
			<path id="Path_9487" class="st20" d="M380,63v287.3H233.8v4.8c-6-5.6-12.1-11.6-18.1-18c-12.5-13.3-24.2-27.3-35.2-41.8
				c-24.4-32.6-45.5-67.6-63-104.4c-17.7-36.7-31.8-75-42-114.4C71,58.8,67.5,40.9,65,22.8c-1.2-8.6-2.1-17.1-2.7-25.3V-1h284.1
				v-4.2c2.7,4.2,5.4,8.5,8,12.9c10.6,17.4,20.6,35.9,29.9,55.4L380,63z"/>
			<path id="Path_9488" class="st21" d="M380,64.5v285.8H238.7v3.6c-1.5-1.3-3-2.7-4.4-4.1c-5.9-5.5-11.8-11.4-17.6-17.5
				c-12.2-13-23.7-26.6-34.4-40.9c-23.8-31.9-44.4-66-61.5-102c-17.3-35.8-31.1-73.3-41-111.8c-4.4-17.3-7.9-34.8-10.4-52.4
				c-1.2-8.4-2.1-16.7-2.6-24.7c-0.2-2-0.3-4-0.4-6V-1h277.9v-1.2c2.6,4.1,5.2,8.3,7.8,12.6c10.3,17,20.1,35.1,29.2,54.1L380,64.5z"
				/>
			<path id="Path_9489" class="st22" d="M378,66c2.2,4.6,4.4,9.3,6.5,13.9H380v270.5H243.3v2c-2.9-2.5-5.8-5.1-8.7-7.8
				c-5.8-5.4-11.5-11.1-17.2-17.1c-11.9-12.7-23.1-26-33.6-39.9c-23.2-31.1-43.3-64.5-60-99.5c-16.9-35-30.3-71.5-40.1-109.1
				C79.4,62,76,44.9,73.6,27.7c-1.1-8.2-2-16.3-2.6-24.1c-0.1-2-0.3-3.9-0.4-5.9v1.4H338V-5c1.3,2,2.6,4,3.9,6
				c2.6,4,5.1,8.1,7.6,12.3C359.6,29.9,369.2,47.6,378,66z"/>
			<path id="Path_9490" class="st23" d="M374.9,67.5c2.2,4.5,4.3,9,6.3,13.5H380v269.3H251.9v3.6c-45.1-36.6-90.4-95.3-125-167.5
				C110.4,152.4,97.3,116.7,87.8,80c-4.2-16.4-7.5-33.1-9.9-49.9c-1.1-8-1.9-15.9-2.5-23.6C75.1,2.8,74.9-1,74.8-4.8V-1h257.3v-6.7
				C337.2,0,342.2,7.8,347.1,16C357,32.2,366.3,49.5,374.9,67.5z"/>
			<path id="Path_9491" class="st24" d="M371.8,69c4.2,8.8,8.2,17.6,11.9,26.4H380v255H260.1v4.4c-2.7-2.1-5.5-4.2-8.2-6.4
				c-44-35.6-88.1-92.9-121.9-163.3c-16.1-33.3-28.8-68-38.1-103.8c-4.1-16-7.3-32.3-9.6-48.7c-1.1-7.8-1.9-15.5-2.5-23
				c-0.3-3.7-0.5-7.4-0.6-11.1v0.5H330v-3.3c5,7.4,9.9,15.1,14.7,23C354.3,34.6,363.4,51.4,371.8,69z"/>
			<path id="Path_9492" class="st25" d="M368.7,70.5c4.1,8.6,8,17.1,11.6,25.7H380v254.2h-112v4.3c-5.3-3.7-10.7-7.7-16.1-12
				C209,307.9,166,252.1,133.1,183.6C117.4,151.1,105,117.3,96,82.4C92,66.8,88.9,51,86.6,35c-1-7.6-1.8-15.1-2.4-22.4
				C84,9,83.7,5.4,83.6,1.8c-0.1-1.8-0.1-3.5-0.2-5.3V-1h240.9v-5.3c1.3,1.8,2.5,3.6,3.7,5.4c4.9,7.2,9.7,14.7,14.3,22.4
				C351.7,37,360.5,53.3,368.7,70.5z"/>
			<path id="Path_9493" class="st26" d="M365.6,72c4,8.4,7.8,16.7,11.3,25c1.8,4.2,3.4,8.3,5.1,12.5h-2v240.9H275.3v3.4
				c-2.6-1.6-5.2-3.3-7.8-5.1c-5.2-3.6-10.4-7.5-15.6-11.7c-41.8-33.8-83.6-88.1-115.7-154.9S88,48.7,87.7-5.1V-1h234.7v-1.8
				c1.2,1.7,2.4,3.5,3.6,5.2c4.7,7,9.4,14.3,13.9,21.9C349,39.3,357.6,55.3,365.6,72z"/>
			<path id="Path_9494" class="st27" d="M362.6,73.4c7.8,16.3,14.6,32.5,20.5,48.5h-3v224.8h4c-2.8,3.3-6,6.3-9.4,8.9v-5.3h-92.5
				v1.7c-10.7-6.1-20.8-13-30.3-20.8c-40.6-32.9-81.4-85.8-112.5-150.8S92.4,50.7,92.2-1.6v0.6h224.8v-3.3c2.4,3.3,4.7,6.7,7,10.1
				c4.6,6.8,9.1,13.9,13.6,21.2C346.4,41.7,354.8,57.2,362.6,73.4z"/>
			<path id="Path_9495" class="st28" d="M359.4,74.9c7.6,15.8,14.2,31.6,19.9,47.2c1.4,3.9,2.8,7.8,4.1,11.7H380v206.9h0.3
				c-5.4,6.3-12.1,11.5-19.7,15.1v-5.5h-65v2.6c-4.9-2.1-9.8-4.5-14.4-7.2c-10.4-5.9-20.2-12.7-29.5-20.2
				c-39.5-32-79.1-83.4-109.4-146.5S96.8,52.8,96.6,2c0-3.2,0-6.3,0.1-9.4V-1h214.9v-4.4c1.1,1.6,2.3,3.2,3.4,4.8
				c2.3,3.2,4.6,6.5,6.8,9.8c4.5,6.7,8.9,13.5,13.2,20.6C343.7,44.1,351.8,59.1,359.4,74.9z"/>
			<path id="Path_9496" class="st29" d="M356.3,76.4c7.4,15.4,13.8,30.7,19.4,45.8c2.8,7.6,5.3,15.1,7.6,22.6H380v179.4h4.1
				c-2.2,3.7-4.7,7.1-7.5,10.3c-5.3,6.2-11.8,11.2-19.1,14.7c-14.6,7-31.4,7.4-49.5,2.2s-37.2-16-56.4-31.6
				c-38.4-31.1-76.8-81-106.3-142.4S101.1,55,100.9,5.6c0-3.1,0-6.1,0.1-9.1V-1h205.4v-5.2C325.8,19.7,342.5,47.3,356.3,76.4z"/>
			<path id="Path_9497" class="st30" d="M353.2,77.9c13.6,28.1,24.4,57.6,32.3,87.8H380v140.9h6.1c-7,16.8-17.6,29.3-31.7,36.1
				c-28.2,13.6-65.4,1.7-102.7-28.5s-74.6-78.6-103.2-138.2s-43-119-43.2-166.9c0-3,0-5.9,0.1-8.8c0-1.5,0.1-2.9,0.2-4.3V-1h199.2
				v-1.2C323.6,22.9,339.8,49.7,353.2,77.9L353.2,77.9z"/>
			<path id="Path_9498" class="st31" d="M350.1,79.4c13.2,27.3,23.7,55.8,31.3,85.1H380v136.7h2c-6.8,16.3-17,28.4-30.7,35
				c-27.4,13.1-63.4,1.6-99.6-27.6s-72.3-76.2-100-134S110,59.2,109.8,12.8c0-5.8,0.2-11.4,0.6-16.9V-1h186.5v-5.7
				c2.2,2.7,4.3,5.5,6.4,8.3C321.4,26,337.1,52,350.1,79.4L350.1,79.4z"/>
			<path id="Path_9499" class="st32" d="M347,80.8c12.8,26.4,22.9,54.1,30.3,82.5c3.3,12.7,5.8,25.6,7.6,38.7h-5v67.2h5.3
				c-1.4,9.1-3.9,18-7.3,26.6c-6.6,15.8-16.5,27.5-29.8,33.9C295,355.1,208.5,285,154.8,173.1c-26.9-56-40.4-111.8-40.6-156.8
				c0-5.6,0.2-11.1,0.6-16.4c0.1-1.3,0.2-2.6,0.3-3.9v3h180.3v-1.5c2.1,2.6,4.2,5.3,6.2,8.1C319.2,29.2,334.4,54.3,347,80.8
				L347,80.8z"/>
			<path id="Path_9500" class="st33" d="M343.9,82.4c26,54.2,39.1,108.2,39.3,151.7s-12.5,76.7-38.2,89
				c-51.4,24.6-135.1-43.2-187.1-151.5c-26-54.2-39.1-108.2-39.3-151.8c0-5.4,0.2-10.7,0.5-15.8c0.2-2.5,0.4-5,0.7-7.5V-1h168v-4.8
				C292-0.8,296,4.2,300,9.5C317,32.3,331.7,56.7,343.9,82.4L343.9,82.4z"/>
			<path id="Path_9501" class="st34" d="M340.8,83.9c25.1,52.4,37.8,104.6,38,146.7s-12.1,74.1-36.9,86
				c-49.7,23.8-130.6-41.7-180.9-146.4c-25.1-52.3-37.8-104.6-38-146.7c-0.1-9.9,0.6-19.8,2.2-29.5v5.1h161.4v-0.3
				c4,4.7,7.9,9.6,11.7,14.8C314.8,35.5,329,59.1,340.8,83.9L340.8,83.9z"/>
			<path id="Path_9502" class="st35" d="M337.7,85.4c24.3,50.5,36.5,101,36.7,141.6s-11.7,71.6-35.7,83.1
				c-48,23-126.1-40.3-174.6-141.4c-24.3-50.6-36.4-101-36.7-141.6c-0.1-9.6,0.6-19.1,2.1-28.5v0.6h150.1v-2.6
				c1.9,2.2,3.8,4.4,5.8,6.7c3.8,4.5,7.6,9.3,11.3,14.3C312.6,38.6,326.3,61.4,337.7,85.4L337.7,85.4z"/>
			<path id="Path_9503" class="st36" d="M334.6,86.8c46.8,97.5,47.2,194.5,1,216.7S214,264.6,167.2,167.2
				c-23.4-48.7-35.2-97.4-35.4-136.6c-0.1-9.2,0.6-18.4,2.1-27.5c0.4-2.1,0.8-4.2,1.2-6.2V-1H273v-4c7.9,8.3,15.2,17.1,22.1,26.3
				C310.4,41.8,323.6,63.7,334.6,86.8L334.6,86.8z"/>
			<path id="Path_9504" class="st37" d="M331.5,88.3c45,93.9,45.5,187.3,1,208.7s-117.1-37.4-162.2-131.2
				c-22.5-46.9-33.9-93.8-34-131.5c-0.1-8.9,0.6-17.7,2-26.5c0.7-3.9,1.5-7.8,2.6-11.7v3h125.9v-4.8c1.8,1.8,3.6,3.7,5.5,5.6
				c7.6,8,14.7,16.5,21.3,25.3C308.2,44.9,320.9,66.1,331.5,88.3z"/>
			<path id="Path_9505" class="st37" d="M328.4,89.8c43.3,90.3,43.7,180.1,0.9,200.6s-112.6-36-155.9-126.2
				c-21.7-45.1-32.6-90.2-32.7-126.5c-0.1-8.5,0.5-17,1.9-25.5C143.2,8.4,144,4.7,145,1c0.5-1.8,1-3.5,1.6-5.2V-1h114.2v-4.7
				c3.5,3.3,7,6.8,10.5,10.5c7.3,7.7,14.1,15.8,20.5,24.3C306,48.1,318.2,68.4,328.4,89.8L328.4,89.8z"/>
			<path id="Path_9506" class="st38" d="M325.3,91.3c41.6,86.7,42,172.9,0.9,192.6s-108.1-34.6-149.7-121.2
				c-20.8-43.3-31.3-86.6-31.4-121.4c-0.1-17.4,2.4-32.8,7.5-45V-1h102.8v-4c1.7,1.5,3.4,3,5.1,4.6c3.4,3.2,6.7,6.5,10.1,10
				c7,7.4,13.5,15.2,19.6,23.4C303.8,51.3,315.6,70.8,325.3,91.3L325.3,91.3z"/>
			<path id="Path_9507" class="st39" d="M322.2,92.8c39.8,83,40.2,165.7,0.8,184.6s-103.6-33.1-143.5-116.1
				c-19.9-41.5-30-82.9-30.1-116.3c-0.1-16.7,2.3-31.4,7.2-43.1c1.2-2.8,2.6-5.6,4.1-8.2v5.5h89.5v-2.6
				C276.3,17.5,302.3,51.3,322.2,92.8z"/>
			<path id="Path_9508" class="st39" d="M319.1,94.3c38.1,79.4,38.5,158.5,0.8,176.6s-99.1-31.7-137.2-111.1
				c-19-39.7-28.7-79.3-28.8-111.3c-0.1-16,2.2-30,6.9-41.2c2.1-5.3,5.1-10.2,8.8-14.5v6.4h71.5v-3.8c3.1,2.1,6.2,4.5,9.3,7
				C275.2,22.3,300.1,54.6,319.1,94.3z"/>
			<path id="Path_9509" class="st40" d="M316,95.8c36.4,75.8,36.7,151.3,0.8,168.5s-94.6-30.2-131-106.1
				c-18.2-37.9-27.4-75.7-27.5-106.2c-0.1-15.2,2.1-28.7,6.6-39.3c2-5,4.9-9.7,8.4-13.9V-1h59.4v-3.3c6.2,3.5,12.1,7.6,17.6,12.1
				C274.1,27,297.8,57.8,316,95.8z"/>
			<path id="Path_9510" class="st41" d="M312.9,97.2c34.6,72.2,35,144.1,0.7,160.5s-90.1-28.8-124.7-101s-35-144.1-0.7-160.5V-1
				h29.1v-4.1c10.6,3.1,21.9,9.4,33.2,18.6C273,31.8,295.6,61.1,312.9,97.2z"/>
			<path id="Path_9511" class="st42" d="M309.8,98.7c32.9,68.6,33.2,136.9,0.7,152.5s-85.6-27.4-118.5-96S158.8,18.4,191.3,2.8
				c16.3-7.8,37.7-1,59.1,16.4S293.4,64.4,309.8,98.7z"/>
			
				<ellipse id="Ellipse_196" transform="matrix(0.9016 -0.4326 0.4326 0.9016 -30.2438 121.0338)" class="st42" cx="250.9" cy="127" rx="61.9" ry="130.5"/>
			
				<ellipse id="Ellipse_197" transform="matrix(0.9016 -0.4326 0.4326 0.9016 -30.2438 121.0341)" class="st42" cx="250.9" cy="127" rx="58.5" ry="123.3"/>
			
				<ellipse id="Ellipse_198" transform="matrix(0.9016 -0.4326 0.4326 0.9016 -30.2439 121.0341)" class="st43" cx="250.9" cy="127" rx="55" ry="116"/>
			
				<ellipse id="Ellipse_199" transform="matrix(0.9016 -0.4326 0.4326 0.9016 -30.2439 121.0335)" class="st43" cx="250.9" cy="127" rx="51.6" ry="108.8"/>
			
				<ellipse id="Ellipse_200" transform="matrix(0.9016 -0.4326 0.4326 0.9016 -30.2439 121.0339)" class="st44" cx="250.9" cy="127" rx="48.1" ry="101.5"/>
			
				<ellipse id="Ellipse_201" transform="matrix(0.9016 -0.4326 0.4326 0.9016 -30.244 121.0339)" class="st44" cx="250.9" cy="127" rx="44.7" ry="94.3"/>
			
				<ellipse id="Ellipse_202" transform="matrix(0.9016 -0.4326 0.4326 0.9016 -30.2437 121.0337)" class="st44" cx="250.9" cy="127" rx="41.3" ry="87"/>
			
				<ellipse id="Ellipse_203" transform="matrix(0.9016 -0.4326 0.4326 0.9016 -30.2438 121.0342)" class="st45" cx="250.9" cy="127" rx="37.8" ry="79.8"/>
			
				<ellipse id="Ellipse_204" transform="matrix(0.9016 -0.4326 0.4326 0.9016 -30.2438 121.0342)" class="st45" cx="250.9" cy="127" rx="34.4" ry="72.5"/>
			
				<ellipse id="Ellipse_205" transform="matrix(0.9016 -0.4326 0.4326 0.9016 -30.2439 121.0341)" class="st45" cx="250.9" cy="127" rx="30.9" ry="65.3"/>
			
				<ellipse id="Ellipse_206" transform="matrix(0.9016 -0.4326 0.4326 0.9016 -30.2438 121.0339)" class="st45" cx="250.9" cy="127" rx="27.5" ry="58"/>
			
				<ellipse id="Ellipse_207" transform="matrix(0.9016 -0.4326 0.4326 0.9016 -30.2439 121.034)" class="st45" cx="250.9" cy="127" rx="24.1" ry="50.8"/>
			
				<ellipse id="Ellipse_208" transform="matrix(0.9016 -0.4326 0.4326 0.9016 -30.2441 121.0339)" class="st45" cx="250.9" cy="127" rx="20.6" ry="43.5"/>
			
				<ellipse id="Ellipse_209" transform="matrix(0.9016 -0.4326 0.4326 0.9016 -30.244 121.0343)" class="st45" cx="250.9" cy="127" rx="17.2" ry="36.3"/>
			
				<ellipse id="Ellipse_210" transform="matrix(0.9016 -0.4326 0.4326 0.9016 -30.2438 121.0341)" class="st45" cx="250.9" cy="127" rx="13.8" ry="29"/>
			<path id="Path_9512" class="st45" d="M260.2,122.5c5.2,10.8,5.2,21.6,0.1,24.1c-5.2,2.5-13.5-4.3-18.7-15.2s-5.2-21.6-0.1-24.1
				S255,111.7,260.2,122.5z"/>
			<path id="Path_9513" class="st45" d="M257.1,124c3.5,7.2,3.5,14.4,0.1,16.1s-9-2.9-12.5-10.1s-3.5-14.4-0.1-16.1
				S253.7,116.8,257.1,124z"/>
			<path id="Path_9514" class="st45" d="M254,125.5c1.7,3.6,1.8,7.2,0,8s-4.5-1.4-6.2-5s-1.8-7.2,0-8S252.2,121.9,254,125.5z"/>
		</g>
	</g>
	<path id="Path_9516" class="st3" d="M539.4,463l-46.4,1.2h18.3V464H542c0,0,13,0.1,24.1,0.1v-11.1C566.1,453.1,565.2,463,539.4,463
		z"/>
	<path id="Path_9517" class="st46" d="M539.4,463l-46.4,1.2h18.3V464H542c0,0,13,0.1,24.1,0.1v-11.1
		C566.1,453.1,565.2,463,539.4,463z"/>
	<path id="Path_9518" class="st3" d="M354.5,467.8l-4.9,0.1c0,0,1.5,9.8-10,11.6C346.7,479.6,352.9,474.7,354.5,467.8z"/>
	<path id="Path_9519" class="st46" d="M354.5,467.8l-4.9,0.1c0,0,1.5,9.8-10,11.6C346.7,479.6,352.9,474.7,354.5,467.8z"/>
	<path id="Path_9520" class="st6" d="M566.1,464.1c-11.1,0-24.1-0.1-24.1-0.1h-30.7v0.2H355c0,1.2-0.2,2.4-0.4,3.6
		c-1.7,6.9-7.8,11.7-14.9,11.8h226.5c8.5,0,15.4-6.9,15.4-15.4C581.5,464.2,574.4,464.2,566.1,464.1z"/>
	<path id="Path_9521" class="st46" d="M521.3,249.6v-12.1c0,0-0.9,9.9-26.8,9.9H327.9c-7.9,0-14.4,0.6-18.5,2.7L521.3,249.6z"/>
	<path id="Path_9522" class="st5" d="M504.6,482.6l0.4,0.2l0.4-0.2H504.6z"/>
	<path id="Path_9523" class="st5" d="M471.4,482.6l0.4,0.2l0.4-0.2H471.4z"/>
	<path id="Path_9524" class="st5" d="M538.1,482.8l0.4-0.2h-0.8L538.1,482.8z"/>
	<path id="Path_9525" class="st0" d="M404.6,442c0,1.2-1,2.2-2.2,2.2c0,0,0,0,0,0l-51.1-0.1c-1.2,0-2.2-1-2.2-2.2l0,0
		c0-1.2,1-2.2,2.2-2.2l51.1,0.1C403.6,439.8,404.6,440.8,404.6,442C404.6,442,404.6,442,404.6,442L404.6,442z"/>
	<path id="Path_9526" class="st0" d="M384.8,452.5c0,1.2-1,2.2-2.2,2.2l0,0l-31.4,0c-1.2,0-2.2-1-2.2-2.2l0,0l0,0
		c0-1.2,1-2.2,2.2-2.2l31.3,0C383.8,450.3,384.8,451.3,384.8,452.5L384.8,452.5L384.8,452.5z"/>
	<path id="Path_9527" class="st0" d="M356.5,280.6H350c-0.6,0.1-1.1-0.4-1.1-0.9s0.4-1.1,0.9-1.1c0.1,0,0.1,0,0.2,0h6.5
		c0.6-0.1,1.1,0.4,1.1,0.9s-0.4,1.1-0.9,1.1C356.6,280.6,356.5,280.6,356.5,280.6z"/>
	<path id="Path_9528" class="st0" d="M529.2,280.8h-12.4c-0.6,0.1-1.1-0.4-1.1-0.9s0.4-1.1,0.9-1.1c0.1,0,0.1,0,0.2,0h12.4
		c0.6-0.1,1.1,0.4,1.1,0.9s-0.4,1.1-0.9,1.1C529.4,280.9,529.3,280.9,529.2,280.8z M504.6,280.8h-12.4c-0.6,0.1-1.1-0.4-1.1-0.9
		s0.4-1.1,0.9-1.1c0.1,0,0.1,0,0.2,0h12.4c0.6,0,1,0.4,1,1C505.6,280.4,505.1,280.8,504.6,280.8L504.6,280.8z M479.9,280.8h-12.4
		c-0.6,0.1-1.1-0.4-1.1-0.9s0.4-1.1,0.9-1.1c0.1,0,0.1,0,0.2,0h12.4c0.6,0.1,1,0.6,0.9,1.1C480.8,280.4,480.4,280.8,479.9,280.8
		L479.9,280.8z M455.2,280.8h-12.4c-0.6,0-1-0.4-1-1s0.4-1,1-1c0,0,0,0,0.1,0h12.4c0.6,0.1,1,0.6,0.9,1.1
		C456,280.4,455.7,280.8,455.2,280.8L455.2,280.8z M430.5,280.8h-12.4c-0.6-0.1-1-0.6-0.9-1.1c0-0.5,0.4-0.9,0.9-0.9h12.4
		c0.6,0.1,1,0.6,0.9,1.1C431.4,280.4,431,280.8,430.5,280.8L430.5,280.8z M405.8,280.8h-12.4c-0.6-0.1-1-0.6-0.9-1.1
		c0-0.5,0.4-0.9,0.9-0.9h12.4c0.6,0.1,1,0.6,0.9,1.1C406.6,280.4,406.2,280.8,405.8,280.8L405.8,280.8z M381.1,280.8h-12.4
		c-0.6,0.1-1.1-0.4-1.1-0.9s0.4-1.1,0.9-1.1c0.1,0,0.1,0,0.2,0h12.4c0.6,0.1,1,0.6,0.9,1.1C381.9,280.4,381.6,280.8,381.1,280.8
		L381.1,280.8z"/>
	<path id="Path_9529" class="st0" d="M548.1,280.9h-6.5c-0.6,0.1-1.1-0.4-1.1-0.9s0.4-1.1,0.9-1.1c0.1,0,0.1,0,0.2,0h6.5
		c0.6,0.1,1,0.6,0.9,1.1C549,280.4,548.6,280.8,548.1,280.9L548.1,280.9z"/>
	<path id="Path_9530" class="st0" d="M356.3,386.7h-6.5c-0.6-0.1-1-0.6-0.9-1.1c0-0.5,0.4-0.9,0.9-0.9h6.5c0.6,0.1,1,0.6,0.9,1.1
		C357.2,386.2,356.8,386.6,356.3,386.7z"/>
	<path id="Path_9531" class="st0" d="M529.1,386.9h-12.4c-0.6,0.1-1.1-0.4-1.1-0.9s0.4-1.1,0.9-1.1c0.1,0,0.1,0,0.2,0h12.4
		c0.6,0.1,1,0.6,0.9,1.1C530,386.5,529.6,386.9,529.1,386.9L529.1,386.9z M504.4,386.9h-12.4c-0.6,0-1-0.5-1-1c0-0.5,0.4-1,1-1h12.4
		c0.6,0,1,0.5,1,1C505.4,386.4,505,386.9,504.4,386.9L504.4,386.9z M479.7,386.9h-12.4c-0.6-0.1-1-0.6-0.9-1.1
		c0-0.5,0.4-0.9,0.9-0.9h12.4c0.6,0.1,1,0.6,0.9,1.1C480.6,386.5,480.2,386.9,479.7,386.9L479.7,386.9z M455,386.9h-12.4
		c-0.6-0.1-1-0.6-0.9-1.1c0-0.5,0.4-0.9,0.9-0.9H455c0.6-0.1,1.1,0.4,1.1,0.9s-0.4,1.1-0.9,1.1C455.1,386.9,455.1,386.9,455,386.9
		L455,386.9z M430.3,386.9h-12.4c-0.6,0.1-1.1-0.4-1.1-0.9s0.4-1.1,0.9-1.1c0.1,0,0.1,0,0.2,0h12.4c0.6-0.1,1.1,0.4,1.1,0.9
		s-0.4,1.1-0.9,1.1C430.4,386.9,430.3,386.9,430.3,386.9L430.3,386.9z M405.6,386.9h-12.4c-0.6,0.1-1.1-0.4-1.1-0.9s0.4-1.1,0.9-1.1
		c0.1,0,0.1,0,0.2,0h12.4c0.6-0.1,1.1,0.4,1.1,0.9s-0.4,1.1-0.9,1.1C405.7,386.9,405.7,386.9,405.6,386.9L405.6,386.9z M380.9,386.9
		h-12.4c-0.6,0-1-0.4-1-1s0.4-1,1-1c0,0,0,0,0.1,0h12.4c0.6-0.1,1.1,0.4,1.1,0.9s-0.4,1.1-0.9,1.1C381,386.9,381,386.9,380.9,386.9
		L380.9,386.9z"/>
	<path id="Path_9532" class="st0" d="M547.9,387h-6.5c-0.6-0.1-1-0.6-0.9-1.1c0-0.5,0.4-0.9,0.9-0.9h6.5c0.6,0,1,0.5,1,1
		C548.9,386.5,548.5,387,547.9,387L547.9,387z"/>
	<path id="Path_9533" class="st0" d="M356.3,428.9h-6.5c-0.6,0.1-1.1-0.4-1.1-0.9s0.4-1.1,0.9-1.1c0.1,0,0.1,0,0.2,0h6.5
		c0.6-0.1,1.1,0.4,1.1,0.9s-0.4,1.1-0.9,1.1C356.4,428.9,356.3,428.9,356.3,428.9L356.3,428.9z"/>
	<path id="Path_9534" class="st0" d="M529,429.2h-12.4c-0.6,0-1-0.5-1-1c0-0.6,0.5-1,1-1c0,0,0,0,0,0H529c0.6,0,1,0.5,1,1
		C530.1,428.7,529.6,429.2,529,429.2L529,429.2z M504.3,429.2h-12.4c-0.6,0.1-1.1-0.4-1.1-0.9s0.4-1.1,0.9-1.1c0.1,0,0.1,0,0.2,0
		h12.4c0.6-0.1,1.1,0.4,1.1,0.9s-0.4,1.1-0.9,1.1C504.4,429.2,504.4,429.2,504.3,429.2L504.3,429.2z M479.6,429.2h-12.4
		c-0.6,0.1-1.1-0.4-1.1-0.9s0.4-1.1,0.9-1.1c0.1,0,0.1,0,0.2,0h12.4c0.5,0,1,0.4,1,0.9c0,0.5-0.4,1-0.9,1
		C479.7,429.1,479.7,429.1,479.6,429.2L479.6,429.2z M454.9,429.2h-12.4c-0.6,0.1-1.1-0.4-1.1-0.9s0.4-1.1,0.9-1.1
		c0.1,0,0.1,0,0.2,0h12.4c0.6,0.1,1,0.6,0.9,1.1C455.8,428.7,455.4,429.1,454.9,429.2z M430.2,429.2h-12.4c-0.6-0.1-1-0.6-0.9-1.1
		c0-0.5,0.4-0.9,0.9-0.9h12.4c0.6,0.1,1,0.6,0.9,1.1C431.1,428.7,430.7,429.1,430.2,429.2L430.2,429.2z M405.5,429.2h-12.4
		c-0.6,0-1-0.5-1-1c-0.1-0.5,0.2-1.1,0.8-1.2c0.1,0,0.3,0,0.4,0h12.4c0.6,0,1,0.5,1,1c0,0.6-0.4,1-1,1c0,0,0,0-0.1,0L405.5,429.2z
		 M380.8,429.2h-12.4c-0.6-0.1-1-0.6-0.9-1.1c0-0.5,0.4-0.9,0.9-0.9h12.4c0.6,0.1,1,0.6,0.9,1.1
		C381.7,428.7,381.3,429.1,380.8,429.2L380.8,429.2z"/>
	<path id="Path_9535" class="st0" d="M547.8,429.2h-6.5c-0.6-0.1-1-0.6-0.9-1.1c0-0.5,0.4-0.9,0.9-0.9h6.5c0.6-0.1,1.1,0.4,1.1,0.9
		s-0.4,1.1-0.9,1.1C548,429.2,547.9,429.2,547.8,429.2L547.8,429.2z"/>
	<path id="Path_9536" class="st0" d="M450.5,343.2c0,2.4-1.9,4.4-4.4,4.4h-91.9c-2.4,0-4.4-2-4.4-4.4l0,0l0,0c0-2.4,1.9-4.4,4.3-4.4
		c0,0,0,0,0,0h91.9C448.6,338.8,450.5,340.8,450.5,343.2C450.5,343.2,450.5,343.2,450.5,343.2L450.5,343.2z"/>
	<path id="Path_9537" class="st0" d="M450.4,406.2c0,2.4-1.9,4.4-4.4,4.4h-91.9c-2.4,0-4.4-2-4.4-4.4l0,0c0-2.4,1.9-4.4,4.4-4.4
		h91.9C448.5,401.8,450.4,403.8,450.4,406.2C450.4,406.2,450.4,406.2,450.4,406.2L450.4,406.2z"/>
	<path id="Path_9538" class="st0" d="M547.9,342.9c0,2.4-1.9,4.4-4.4,4.4l-21.5,0.1c-2.4,0-4.4-1.9-4.4-4.3c0,0,0,0,0,0l0,0
		c0-2.4,1.9-4.4,4.3-4.4c0,0,0,0,0,0l21.5-0.1C545.9,338.6,547.9,340.5,547.9,342.9z"/>
	<path id="Path_9539" class="st0" d="M469.4,361.8c0,2.4-1.9,4.4-4.4,4.4H354.3c-2.4,0-4.4-1.9-4.4-4.3c0,0,0,0,0,0l0,0
		c0-2.4,1.9-4.4,4.4-4.4h110.8C467.5,357.4,469.4,359.4,469.4,361.8C469.4,361.8,469.4,361.8,469.4,361.8L469.4,361.8z"/>
	<path id="Path_9540" class="st0" d="M547.9,361.6c0,2.4-1.9,4.4-4.4,4.4l-21.5,0.1c-2.4,0-4.4-1.9-4.4-4.3c0,0,0,0,0,0l0,0
		c0-2.4,1.9-4.4,4.3-4.4c0,0,0,0,0,0l21.5-0.1C546,357.2,547.9,359.2,547.9,361.6L547.9,361.6z"/>
	<path id="Path_9541" class="st0" d="M450.6,303.9c0,2.4-1.9,4.4-4.3,4.4c0,0,0,0,0,0h-91.9c-2.4,0-4.4-1.9-4.4-4.3c0,0,0,0,0,0l0,0
		c0-2.4,1.9-4.4,4.3-4.4c0,0,0,0,0,0h91.9C448.6,299.5,450.6,301.5,450.6,303.9C450.6,303.9,450.6,303.9,450.6,303.9L450.6,303.9z"
		/>
	<path id="Path_9542" class="st0" d="M548,303.6c0,2.4-1.9,4.4-4.4,4.4l-21.5,0.1c-2.4,0-4.4-1.9-4.4-4.4l0,0c0-2.4,1.9-4.4,4.3-4.4
		c0,0,0,0,0,0l21.5-0.1C546,299.3,547.9,301.2,548,303.6z"/>
	<path id="Path_9543" class="st0" d="M469.5,322.5c0,2.4-1.9,4.4-4.3,4.4c0,0,0,0,0,0l-110.8,0.1c-2.4,0-4.4-1.9-4.4-4.4l0,0
		c0-2.4,1.9-4.4,4.3-4.4c0,0,0,0,0,0l110.8-0.1C467.5,318.2,469.5,320.1,469.5,322.5z"/>
	<path id="Path_9544" class="st0" d="M548,322.3c0,2.4-1.9,4.4-4.4,4.4l-21.5,0.1c-2.4,0-4.4-1.9-4.4-4.3c0,0,0,0,0,0l0,0
		c0-2.4,1.9-4.4,4.4-4.4l21.5,0C546,317.9,548,319.9,548,322.3C548,322.3,548,322.3,548,322.3L548,322.3z"/>
	<path id="Path_9545" class="st0" d="M386.1,242.8c0,2.4-1.9,4.4-4.4,4.4h-91.9c-2.4,0-4.4-1.9-4.4-4.4l0,0c0-2.4,1.9-4.4,4.3-4.4
		c0,0,0,0,0,0h91.9C384.1,238.4,386,240.4,386.1,242.8C386,242.8,386,242.8,386.1,242.8L386.1,242.8z"/>
	<path id="Path_9546" class="st0" d="M483.4,242.5c0,2.4-1.9,4.4-4.4,4.4l-21.5,0.1c-2.4,0-4.4-1.9-4.4-4.4l0,0
		c0-2.4,1.9-4.4,4.4-4.4l21.5-0.1C481.4,238.2,483.4,240.1,483.4,242.5z"/>
	<path id="Path_9547" class="st0" d="M296.7,257.1h-6.8c-2.4,0-4.4,1.9-4.4,4.3c0,2.4,1.9,4.4,4.3,4.4c0,0,0.1,0,0.1,0h4
		C294.1,262.8,295.1,259.8,296.7,257.1z"/>
	<path id="Path_9548" class="st0" d="M386.1,203.5c0,2.4-2,4.4-4.4,4.4h-91.9c-2.4,0-4.4-1.9-4.4-4.4l0,0c0-2.4,1.9-4.4,4.4-4.4
		h91.9C384.1,199.1,386.1,201.1,386.1,203.5L386.1,203.5z"/>
	<path id="Path_9549" class="st0" d="M483.5,203.2c0,2.4-1.9,4.4-4.3,4.4c0,0,0,0,0,0l-21.5,0.1c-2.4,0-4.4-1.9-4.4-4.4l0,0
		c0-2.4,1.9-4.4,4.4-4.4l21.5-0.1C481.5,198.9,483.4,200.8,483.5,203.2L483.5,203.2z"/>
	<path id="Path_9550" class="st0" d="M405,222.1c0,2.4-1.9,4.4-4.3,4.4c0,0,0,0,0,0l-110.8,0.1c-2.4,0-4.4-1.9-4.4-4.4l0,0
		c0-2.4,1.9-4.4,4.4-4.4l110.8-0.1C403,217.8,405,219.7,405,222.1L405,222.1z"/>
	<path id="Path_9551" class="st0" d="M483.5,221.9c0,2.4-1.9,4.4-4.4,4.4l-21.5,0.1c-2.4,0-4.4-1.9-4.4-4.3c0,0,0,0,0,0l0,0
		c0-2.4,2-4.4,4.4-4.4l21.5,0C481.5,217.6,483.5,219.5,483.5,221.9L483.5,221.9z"/>
	<path id="Path_9552" class="st0" d="M293.8,320.3h-4c-2.4,0.1-4.3,2.2-4.2,4.6c0.1,2.3,1.9,4.1,4.2,4.2h4V320.3z"/>
	<path id="Path_9553" class="st0" d="M293.8,339h-4c-2.4,0-4.4,1.9-4.4,4.3c0,2.4,1.9,4.4,4.3,4.4c0,0,0.1,0,0.1,0h4V339z"/>
	<path id="Path_9554" class="st0" d="M293.8,281h-4c-2.4,0-4.4,1.9-4.4,4.3c0,2.4,1.9,4.4,4.3,4.4c0,0,0.1,0,0.1,0h4L293.8,281z"/>
	<path id="Path_9555" class="st0" d="M293.8,299.7h-3.9c-2.4,0-4.4,1.9-4.4,4.3c0,2.4,1.9,4.4,4.3,4.4c0,0,0.1,0,0.1,0h3.9V299.7z"
		/>
	<path id="Path_9556" class="st0" d="M293.8,403.1h-4c-2.4,0.1-4.3,2.2-4.2,4.6c0.1,2.3,1.9,4.1,4.2,4.2h4V403.1z"/>
	<path id="Path_9557" class="st0" d="M293.8,363.8h-4c-2.4,0-4.3,2-4.3,4.4c0,2.4,1.9,4.3,4.3,4.3h4L293.8,363.8z"/>
	<path id="Path_9558" class="st0" d="M293.8,382.5h-3.9c-2.4-0.1-4.5,1.7-4.6,4.2c-0.1,2.4,1.7,4.5,4.2,4.6c0.1,0,0.3,0,0.4,0h3.9
		V382.5z"/>
	<path id="Path_9559" class="st4" d="M587,367.6c0.2,2.6-3.2,4.1-6.1,4.2s-9.4,1.5-9.6-0.5c-0.2-2.6,3.4-2.7,6.7-7.5
		c1.1-1.6,4.4-4.6,6.5-3.1C585.8,361.5,587,366.7,587,367.6z"/>
	<path id="Path_9560" class="st3" d="M575.1,371.5c0.3,0,1.6-0.2,1.6-0.2c1,0,1.9-0.2,2.9-0.4c1.3-0.4,3.1-0.6,4.4-1s2-1.5,3-2.6
		c0,0.2,0,0.3,0.1,0.5c0.2,2.6-3.2,4.1-6.1,4.2s-9.4,1.5-9.6-0.5v-0.1C572.6,371.6,573.9,371.7,575.1,371.5z"/>
	<g id="Group_7388" transform="translate(437.27 156.73)">
		<path id="Path_9561" class="st47" d="M105.6,107.6L73.2,73.4l0.1-0.2c1.7-3.3,2.2-7.2,1.3-10.8c12.1-18.8,6.6-43.9-12.3-56
			C43.6-5.7,18.5-0.2,6.4,18.7c-12.1,18.8-6.6,43.9,12.3,56c9.1,5.8,20.2,7.8,30.8,5.4c0.8-0.2,1.7-0.4,2.5-0.6
			c0.2,0.1,0.4,0.2,0.6,0.3c3.4,1.8,7.4,2.2,11.1,1.3l32.1,34L105.6,107.6z M48.3,75c-19,4.3-37.9-7.7-42.2-26.7
			C1.8,29.2,13.7,10.3,32.8,6c19-4.3,37.9,7.7,42.2,26.7c0,0,0,0,0,0C79.3,51.8,67.3,70.7,48.3,75z"/>
	</g>
	<path id="Path_9562" class="st48" d="M547.4,257.1c0,0,18.5,0.8,24.5-0.7c4-1,4.6-3.8,4.4-6.1s-2.2-2.5-5.2-2.3l-20,3.5
		c-0.7,0-1.3,0-1.9,0c-0.8-0.2-1.6-0.4-2.4-0.8l-16.2-9.2c-2.4-1.8-7.8-4-7.7-3.3c1.5,1.8,3.2,3.4,5,4.9l15.6,12.7
		C544.7,256.5,546,257,547.4,257.1z"/>
	<path id="Path_9563" class="st49" d="M566.8,256.5l3.3,3.5c5.7,1.8,1.7,4.6,1.6,4.5c-2.3-0.5-9,2.4-9.2,2.6l-5.3-7.7
		c0,0,4.4-3.1,6-4.1l3.2-3.1C568,251.1,564.9,254.6,566.8,256.5z"/>
	<path id="Path_9564" class="st48" d="M581.8,330.6c0.4,3-0.3,5.4-2.5,5.6l0.5-0.2c-2.1,0.2-4.2-2.1-4.5-5.1c0,0-2.2-11.1-4.3-41.8
		l15.2-1.1c2.1-0.2-3.4,8.5-3,11.4L581.8,330.6z"/>
	<path id="Path_9565" class="st4" d="M632.7,347.6c1.9,1.9,0.1,5.2-2,7.1s-6.2,7.2-7.7,5.7c-1.9-1.9,1-4.3,0.4-10.1
		c-0.2-2,0.4-6.4,3-6.6C627.8,343.7,632,346.9,632.7,347.6z"/>
	<path id="Path_9566" class="st3" d="M626,358.2c0.2-0.2,1.1-1.2,1.1-1.2c0.7-0.6,1.3-1.4,1.9-2.1c0.8-1.1,2-2.5,2.7-3.6
		s0.6-2.5,0.6-3.9l0.3,0.3c1.9,1.9,0.1,5.2-2,7.1s-6.2,7.2-7.7,5.7l-0.1-0.1C624.1,359.9,625.1,359.1,626,358.2z"/>
	<path id="Path_9567" class="st48" d="M580.6,363.7c0.4,0.1,0.9,0.1,1.4,0.1c0.8,0,1.6-0.3,2.2-1l-0.5-23.1l-2-8.3
		c-0.1-3,0.1-5.9-2-6.1l-1-0.1c-2.2-0.1-3.8,2.2-3.7,5.2l5.3,30.6C580.3,362,580.4,362.9,580.6,363.7L580.6,363.7z"/>
	<path id="Path_9568" class="st48" d="M593.1,328.1c0.5,3,1.2,5.4,3.3,5l1-0.2c2.1-0.4,3.6-2.9,3.1-5.9l-4.6-30.7
		c-0.5-3-1.5-12.3-3.6-11.9l-7.4,3.8c-2.1,0.4-8,12.1,0,11.5L593.1,328.1z"/>
	<path id="Path_9569" class="st48" d="M624.6,348.3c0.8-0.1,1.6-0.2,2.3-0.5c0.7-0.3,1.7-1,1.3-1.9c-0.2-0.3-0.4-0.6-0.6-1
		l-19.4-13.3c0,0-12.7-4-13.6-3.6l-0.6,0.8c-1.3,1.7,0.6,4.2,3.1,5.8l27.4,13.6L624.6,348.3z"/>
	<path id="Path_9570" class="st48" d="M627.8,345.2c-1.9,5.8-31-12.7-31.5-14.4c-2.5-7.3-4.3-11.8,2.9-12.6l-3.3-21.8
		c-0.5-3-1.5-12.3-3.6-11.9l-7.4,3.8c-2.1,0.4-8,12.1,0,11.5l8.3,28.3c0.1,0.8,0.3,1.5,0.5,2.3c0.1,1.5,1.6,3.1,3.5,4.3l27.4,13.6
		l0.1,0.1c0.8-0.1,1.6-0.2,2.3-0.5c0.7-0.3,1.7-1,1.3-1.9C628.1,345.6,627.9,345.4,627.8,345.2L627.8,345.2z"/>
	<path id="Path_9571" class="st48" d="M579.9,363.5c0.7,0.3,1.4,0.4,2.1,0.4h0.3c0.1-0.5,0-1-0.3-1.5c-1.5-3-3.3-15.9-5.2-34.1
		c-0.5-4.8,0.2-7.2,4.5-7.8c6.3-1,11.6-29.1,13.5-30.4c-0.6-3.2-1.3-5.7-2.6-5.5l-6.9,3.6l-14.4,1c1.7,24.9,3.5,36.9,4.1,40.6v0.8
		l4.4,30.8C579.5,362,579.6,362.8,579.9,363.5L579.9,363.5z"/>
	<path id="Path_9572" class="st4" d="M569.5,318.7c-0.5,4.4,34.5-1.3,32.9-5.3c-7-17.6-11-56-15.1-67.6c-0.8-2.2-4.1-2.4-8-3.7
		c-2.3-0.8-6.1,0.1-8.4,1.1c-4.7,2.1-7.8,2.2-7.8,6.6C563.1,272.2,572.5,292,569.5,318.7z"/>
	<g id="Group_7389" transform="translate(570.908 241.728)">
		<path id="Path_9573" class="st50" d="M31.5,71.7c-7-17.6-11-56-15.1-67.6c-0.8-2.2-4.1-2.4-8-3.7C6.7-0.3,4.3,0,2.3,0.6
			c0,0.3,0.1,0.6,0.1,1c2.7,0,3.8,3.1,7.3,3.1c1,0,5.7,0.6,6.8,2.6c1.4,2.5,1.6,7.2,2.4,11.9c3.1,19.2,8.3,47.7,7.1,50.3
			C22.2,77.4,8,75.3,0,78.2C6.5,79.9,32.9,75.2,31.5,71.7z"/>
	</g>
	<path id="Path_9574" class="st48" d="M579,247.6c0.4,1.3-1,3-3,3.6l0,0c-2.1,0.7-4.1,0.1-4.6-1.2l-3.2-10.1c-0.4-1.3,1-3,3-3.6l0,0
		c2.1-0.7,4.1-0.1,4.6,1.2L579,247.6z"/>
	<path id="Path_9575" class="st51" d="M578.2,245.2l-2.5-7.8c-0.4-1.3-2.5-1.9-4.6-1.2s-3.4,2.3-3,3.6l3.4,10.5
		C576.5,250.2,578.3,245.4,578.2,245.2z"/>
	<path id="Path_9576" class="st52" d="M573.4,262.2c-15.8,0.1-15.1-38.2-12.2-40.3c1.2-2.2,6.1-9.3,15.6-3.9
		c4.6,2.6,15.6,26.2,5.7,30.6C573.4,252.6,579,262.1,573.4,262.2z"/>
	<path id="Path_9577" class="st53" d="M576.9,217.9c-4.6-2.6-8.1-2.3-10.7-1c8.6-1.6,15.2,7.1,16.3,16.8c0.7,5.1-0.9,10.1-4.2,14
		c-1.3,1.3-2.4,2.7-3.2,4.3c0.3-0.1-0.1,4-0.2,4.8c-0.1,2-1,3.9-2.4,5.2c0.3,0,0.6,0.1,1,0.1c5.6,0,0-9.5,9.2-13.7
		C592.4,244.1,581.5,220.5,576.9,217.9z"/>
	<path id="Path_9578" class="st8" d="M602.9,370.2c0,0.8-0.6,1.4-1.4,1.4c0,0,0,0,0,0h-33.9c-0.8,0-1.4-0.6-1.4-1.4c0,0,0,0,0,0l0,0
		c0-0.8,0.6-1.4,1.4-1.4l0,0h33.9C602.3,368.8,602.9,369.4,602.9,370.2L602.9,370.2L602.9,370.2z"/>
	<path id="Path_9580" class="st2" d="M475.6,493.5c0,3.4,2.1,1,4.5,1.5l1.8,4.2c2.4,0.5,3.8-5.6,4.5-8.7l14.2-31.5
		c0.8-3.1-3.2-8.5-5.6-9l-4.5,2.2c-2.4-0.5-8.9,0.6-9.7,3.7L475.6,493.5z"/>
	<path id="Path_9581" class="st48" d="M477.1,538.4l3.6-0.1l0-5.6l-3.6,0.1L477.1,538.4z"/>
	<path id="Path_9582" class="st48" d="M480.7,532.8v1.9c-0.2-0.1-0.5-0.1-0.7,0c-1,0.2-1.8,0.3-2,1.3c-0.1,0.6,0.1,1.2,0.3,1.7
		c0.1,0.2,0.2,0.5,0.3,0.7h-1.5v-5.6L480.7,532.8z"/>
	<path id="Path_9583" class="st52" d="M464.6,537.7c0-0.1,0-0.2,0-0.7c0-0.6,4.4-1.4,7.1-1.8c0.7-0.1,1.4-0.3,2-0.7
		c0.4-0.3,0.1-0.3,0.4-0.2c0.7,0.3,1.4,0,2,0l-0.3,4.7c-3.6-0.1-9.2-0.4-10.4-0.4c-0.7,0-0.7-0.3-0.7-0.7
		C464.5,537.9,464.6,537.8,464.6,537.7L464.6,537.7z"/>
	<path id="Path_9584" class="st53" d="M464.6,537.7c0-0.1,0-0.2,0-0.7c0-0.6,4.4-1.4,7.1-1.8c0.7-0.1,1.4-0.3,2-0.7
		c0.4-0.3,0.1-0.3,0.4-0.2c0.7,0.3,1.2,0,2,0l-0.3,4.7c-3.6-0.1-9.2-0.4-10.4-0.4c-0.7,0-0.7-0.3-0.7-0.7
		C464.5,537.9,464.6,537.8,464.6,537.7L464.6,537.7z"/>
	<path id="Path_9585" class="st52" d="M475.7,538.2l-0.1,0.9c-3.6-0.1-9.2-0.4-10.4-0.4c-0.7,0-0.7-0.3-0.7-0.7v-0.1L475.7,538.2z"
		/>
	<path id="Path_9586" class="st53" d="M475.7,538.2l-0.1,0.8c-3.6-0.1-9.2-0.4-10.4-0.4c-0.7,0-0.7-0.3-0.7-0.7v-0.1L475.7,538.2z"
		/>
	<path id="Path_9587" class="st52" d="M466.6,538c0,0.4,0,0.7,0.7,0.7c1.8,0.1,13,0.5,13.6,0.5c0.4,0,0.7-0.3,0.8-0.6l0,0
		c0-0.4-0.3-0.7-0.7-0.7l-13.6-0.5C467,537.3,466.6,537.6,466.6,538L466.6,538z"/>
	<path id="Path_9588" class="st52" d="M481.6,538.2c0,0.2-4.6,0-14.8-0.4c-0.2,0-0.2,0-0.2-0.7s4.4-1.4,7.1-1.8
		c0.7-0.1,1.4-0.4,2-0.7c0.4-0.3,0.1-0.3,0.4-0.2c4.5,2.1,4.3-0.4,5-0.1S481.6,537.8,481.6,538.2z"/>
	<path id="Path_9589" class="st52" d="M473.9,536.5c0.1,0,0.1,0,0.2,0l0,0c0.1,0,0.1-0.1,0.1-0.1c0,0,0,0,0,0l-0.5-1.1
		c-0.1,0-0.1,0-0.2,0l0,0c-0.1,0-0.1,0.1-0.1,0.1c0,0,0,0,0,0L473.9,536.5z"/>
	<path id="Path_9590" class="st52" d="M472.9,536.5h0.2c0.1,0,0.1-0.1,0.1-0.1l-0.3-1c0,0-0.1,0-0.2,0l0,0c-0.1,0-0.1,0.1-0.1,0.1
		l0,0L472.9,536.5z"/>
	<path id="Path_9591" class="st52" d="M472,536.3h0.2c0.1,0,0.1,0,0.1-0.1l-0.2-0.6h-0.2c-0.1,0-0.1,0.1-0.1,0.1L472,536.3z"/>
	<path id="Path_9592" class="st2" d="M480.1,489l1.1-0.1c2.5-0.2,3.9,1.4,3.9,4.9l-3.6,37.1l-0.4,3.1l-4.8-0.5l-1-38.8
		C475.5,491.3,477.7,489.2,480.1,489z"/>
	<path id="Path_9593" class="st4" d="M492.5,460.1l2.6,11.2l-8.8,19.2c-0.3,1.3-0.7,3-1.3,4.6c-0.1-1.5,2.3-12.5,5.2-21.2
		C492.6,466.5,491.3,460.9,492.5,460.1z"/>
	<path id="Path_9594" class="st4" d="M494.3,494.8c0.6,3.1,5-0.4,7.6-0.8l1.2-0.2c2.6-0.5,3.6-3.3,3.1-6.4l-4.2-32.4
		c-0.6-3.1-2-8.7-4.6-8.2l-3.4,3.8c-2.6,0.5-9.5,6.1-8.9,9.3L494.3,494.8z"/>
	<path id="Path_9595" class="st48" d="M508.4,535.6l3.6-0.5l-0.7-5.5l-3.6,0.5L508.4,535.6z"/>
	<path id="Path_9596" class="st48" d="M511.3,529.6l0.2,1.9c-0.2-0.1-0.4-0.1-0.7,0c-1,0.3-1.7,0.5-1.9,1.5c0,0.6,0.2,1.2,0.6,1.6
		c0.1,0.2,0.2,0.4,0.3,0.7l-1.5,0.2l-0.7-5.5L511.3,529.6z"/>
	<path id="Path_9597" class="st52" d="M500.3,538.8c-0.1-0.2-0.1-0.4-0.1-0.6c-0.1-0.6,3.5-1.8,5.7-2.4c0.6-0.2,1.1-0.5,1.5-0.9
		c0.2-0.3,0.1-0.3,0.3-0.2c0.7,0.3,1.1-0.1,1.6-0.2l0.4,4.6c-3.1,0.2-7.8,0.4-8.8,0.4c-0.6,0-0.6-0.3-0.7-0.6
		C500.3,538.9,500.3,538.9,500.3,538.8z"/>
	<path id="Path_9598" class="st53" d="M500.3,538.8c-0.1-0.2-0.1-0.4-0.1-0.6c-0.1-0.6,3.5-1.8,5.7-2.4c0.6-0.2,1.1-0.5,1.5-0.9
		c0.2-0.3,0.1-0.3,0.3-0.2c0.7,0.3,1-0.1,1.6-0.2l0.4,4.6c-3.1,0.2-7.8,0.4-8.8,0.4c-0.6,0-0.6-0.3-0.7-0.6
		C500.3,538.9,500.3,538.9,500.3,538.8z"/>
	<path id="Path_9599" class="st52" d="M509.7,538.3l0.1,0.9c-3.1,0.2-7.8,0.4-8.8,0.4c-0.6,0-0.6-0.3-0.7-0.6c0,0,0-0.1,0-0.1
		L509.7,538.3z"/>
	<path id="Path_9600" class="st53" d="M509.7,538.4l0.1,0.8c-3.1,0.2-7.8,0.4-8.8,0.4c-0.6,0-0.6-0.3-0.7-0.6v-0.1L509.7,538.4z"/>
	<path id="Path_9601" class="st52" d="M503.2,538.8c0,0.4,0.1,0.7,0.6,0.6c1.3-0.1,9.4-0.4,9.8-0.5c0.3-0.1,0.5-0.4,0.4-0.7l0,0
		c0-0.3-0.3-0.6-0.6-0.6l-9.8,0.5C503.4,538.1,503.2,538.5,503.2,538.8z"/>
	<path id="Path_9602" class="st52" d="M514,538c0,0.2-3.3,0.3-10.7,0.7c-0.2,0-0.1,0-0.2-0.7s2.9-1.7,4.8-2.3
		c0.5-0.2,0.9-0.5,1.3-0.8c0.2-0.3,0.1-0.3,0.2-0.2c3.5,1.7,3-0.7,3.6-0.4S514,537.6,514,538z"/>
	<path id="Path_9603" class="st52" d="M509.2,536.4c0,0,0.1,0,0.1,0c0,0,0,0,0,0l0,0c0,0,0-0.1,0-0.1l-0.5-1.1c0,0-0.1,0-0.1,0l0,0
		c0,0-0.1,0.1,0,0.1L509.2,536.4z"/>
	<path id="Path_9604" class="st52" d="M508.1,536.6c0,0,0.1,0,0.1,0l0,0c0,0,0.1-0.1,0.1-0.1l-0.3-1c0,0-0.1,0-0.1,0l0,0
		c0,0-0.1,0.1-0.1,0.1L508.1,536.6z"/>
	<path id="Path_9605" class="st52" d="M507.2,536.7L507.2,536.7c0.2,0,0.2-0.1,0.2-0.1l-0.2-0.6h-0.1c0,0-0.1,0-0.1,0.1L507.2,536.7
		z"/>
	<path id="Path_9606" class="st52" d="M508.7,535.3C508.8,535.3,508.8,535.2,508.7,535.3C508.8,535.2,508.8,535.2,508.7,535.3
		L508.7,535.3c0.1-0.2,0-0.2,0-0.2l-1.5-0.1c0,0-0.1,0-0.1,0c0,0,0,0,0,0l0,0c0,0.1,0.1,0.1,0.1,0.1L508.7,535.3z"/>
	<path id="Path_9607" class="st52" d="M507.9,535.7C507.9,535.7,508,535.7,507.9,535.7C508,535.6,508,535.6,507.9,535.7L507.9,535.7
		c0.1-0.1,0-0.2,0-0.2l-1.3-0.2c0,0-0.1,0-0.1,0.1c0,0,0,0,0,0l0,0c0,0.1,0,0.1,0.1,0.1L507.9,535.7z"/>
	<path id="Path_9608" class="st52" d="M507.1,536.2C507.2,536.2,507.2,536.1,507.1,536.2C507.2,536.1,507.2,536.1,507.1,536.2
		L507.1,536.2c0.1-0.1,0.1-0.2,0-0.2l-1.2-0.3c0,0-0.1,0-0.1,0.1l0,0c0,0.1,0,0.1,0.1,0.1L507.1,536.2z"/>
	<path id="Path_9609" class="st4" d="M500.2,487.5l1.1-0.3c2.5-0.8,4.4,0.5,5.2,3.9l4.9,37l0.3,3.1l-5.1,0.6l-12.3-36.9
		C493.5,491.4,497.7,488.2,500.2,487.5z"/>
	<path id="Path_9610" class="st4" d="M485.4,461.9c0.3,0.1,8.3,23.5,8.8,25.8c0.9,3.7,11.7,38,13.6,43.8l-1.3,0.2l-11.5-34.9
		c-0.3-0.6-0.6-1.3-0.8-2l-7.1-26.2L485.4,461.9z"/>
	<path id="Path_9611" class="st2" d="M475.5,494.8c0-0.4,0-0.9,0.1-1.3l0,0l5.2-37.5c0.8-3.1,7.3-4.3,9.7-3.7l4.5-2.2
		c0.9,0.3,1.6,1,1.9,1.9c1.1-0.5,2.3-0.8,3.6-0.9h1.2c1.8,0,4.8,3.9,6,5.9l-0.1,1c0,0-8.7,0.8-14.1-1.5c0,0-0.2,0.8-5.6,2.4
		c-3.7,1.1-8.5,31.2-8.9,34.2c-1.5,11.4-0.7,30.7-0.3,40.6l-2.2-0.1L475.5,494.8z"/>
	<path id="Path_9612" class="st52" d="M432,421.7l26.8-6.3c0.3,2.1,1.4,3.9,3.1,5.2c1.1,4.2-6.7,5.4-9.5,5.3l-19.9,3
		c-1,0-1.8-3.8-1.5-6C431.2,421.3,432,421.7,432,421.7z"/>
	<path id="Path_9613" class="st52" d="M463.2,406.5l10.6-0.6c3.1-0.4,11.6-3.1,14.3-1.2l-5.5,16.3c-2.1-3.9-9.6-5.1-12.6-4.8
		l-11.2,0.1c-0.8,0.1-1.7,0.1-2.5,0.1l-1-9.7C457.9,406.8,460.5,406.7,463.2,406.5L463.2,406.5z"/>
	<path id="Path_9614" class="st54" d="M473.5,407.1c-6.4,0.3-13.8,1.6-15.6,0.6s-7.1-8.1-7.1-8.2l7.3,7.2l15.7-0.8
		c0.9-0.2,3.8-0.7,5.6-1.1c6.7-1.4,8.3-0.2,8.3-0.2C488.9,406.1,475.6,406.9,473.5,407.1z"/>
	<path id="Path_9615" class="st55" d="M487.5,404.3l-0.9,14.9l7.8,12.6l6.9-12.6v-15.4L487.5,404.3z"/>
	<path id="Path_9616" class="st56" d="M500.5,403.6L500.5,403.6c1,2.3,1.5,4.9,1.6,7.4c0,1.7-7.8,20.8-7.8,20.8
		c-1.1,0.2-2.3-9-3.1-9.5c-1.6-1.1-0.6-5.8-2-7.1c-2.9-2.8-1.2-7.9-2-11.6l0,0c-7.7,0.5-8,1.7-9,2.9c-1.1,1.3-1.7,3-1.5,4.8
		l2.9,40.8c0.2,2.2,0.5,8.3,0.5,8.3c0.4,0.9,13.1-1.2,15.5-3.5c0,0,1.4,3.5,13,4.8c1.5,0.2,0.8-7.7,1-9.1l0.1-40.9
		C508.3,407.4,504.8,403.6,500.5,403.6z"/>
	<path id="Path_9617" class="st56" d="M478.8,405.9c1-1,1-1.7,8.4-2.3c0.1,0.4,0.1,0.9,0.2,1.3c-0.6,0.5-2,0.1-2.9,0.2
		c-2.6,0.3-5.4,0.1-5.3,3.2c0.2,4.2-0.1,13.7,0.3,17.9c0.8,8.2,2.2,24.7,2.3,26.5c0,1.6,0.1,3.7,1.5,4.8c2.4,1.9,10.6-0.5,11.6-0.1
		c-3.4,2.1-14.5,3.9-14.9,3.1c0,0-0.3-6.1-0.5-8.3l-2.9-40.8C476.8,408.5,477.4,407.3,478.8,405.9z"/>
	<path id="Path_9618" class="st48" d="M495.5,456.8c0,0,0,0.1,0,0.1C495.5,456.9,495.5,456.9,495.5,456.8z"/>
	<path id="Path_9619" class="st48" d="M500.2,405.1c-0.2,1.8-2.4,2.5-5.4,2.3l-0.3,0.5c-3-0.3-5.2-1.9-5.1-3.7l1.6-13.6
		c0.2-1.8,2.2-3.1,5.2-2.9l0,0c3,0.3,4.3,1.9,4.1,3.7L500.2,405.1z"/>
	<path id="Path_9620" class="st56" d="M484.2,404.7c0.6-1.2,1.8-2,3.2-2c1.4,5.9,6.9,28.4,7.1,28.2c0,0-8.6-22.1-7.2-27.8
		c0-0.2,16.1,0.4,16.6,1.2c0,0,1.7,2.2,1.2,2.9c-0.6,0.4-1.3,0.8-2,1.1c0,0,1.6,2,1.4,2.5c-0.7,1.8-5,8-9.5,21.2
		c0.1,6.6,0.4,23.2,0.5,24.9c-0.1-1.9-1.7-24.5-1.7-24.7c-2.9-11.8-8.9-18.6-9.7-20.6c-0.2-0.5,1.4-2.5,1.4-2.5
		c-0.7-0.3-1.4-0.6-2.1-1.1C483.1,407.3,484.2,404.7,484.2,404.7z"/>
	<path id="Path_9621" class="st54" d="M496.4,443.5c0,0.3-0.2,0.6-0.6,0.7c-0.3,0-0.6-0.2-0.7-0.6c0-0.3,0.2-0.6,0.6-0.7
		c0,0,0,0,0,0C496.1,442.9,496.4,443.2,496.4,443.5C496.4,443.5,496.4,443.5,496.4,443.5z"/>
	<path id="Path_9622" class="st54" d="M493.1,435.1c0,0.3-0.2,0.6-0.6,0.7c-0.3,0-0.6-0.2-0.7-0.6s0.2-0.6,0.6-0.7c0,0,0,0,0.1,0
		C492.8,434.5,493.1,434.8,493.1,435.1z"/>
	<path id="Path_9623" class="st54" d="M494.3,451c0,0.3-0.3,0.6-0.6,0.6c-0.3,0-0.6-0.3-0.6-0.6s0.3-0.6,0.6-0.6l0,0
		C494.1,450.3,494.3,450.6,494.3,451z"/>
	<path id="Path_9624" class="st48" d="M484.8,393.3c0,3,2,6.3,3.8,6.7c2,0.4,10.1-1.5,11.1-3.2c2.6-4.9,4.4-18.1-5.3-18.5
		c-2.6-0.1-7-1.6-8.4,3.1C485.1,384.4,484.8,390.3,484.8,393.3z"/>
	<path id="Path_9625" class="st52" d="M491,375.4c-0.7-0.8,0.4,3.7-1.6,2.3c-0.9-0.6-3.1,0-4.2,2l9,2.4h1.7
		c1.3,0.1-2.7,10.1-2.6,11.5c10.1,13.6,9.7-7.6,10.5-8.1C503.5,377.6,493.4,378.3,491,375.4z"/>
	<path id="Path_9626" class="st52" d="M485.7,375.6c-0.3,1,0.6,2.4,1.9,3s3.8-0.6,4.1-1.6s-1.3-0.2-2.7-1.5
		C487.9,374.4,486,374.6,485.7,375.6z"/>
	<path id="Path_9627" class="st52" d="M479.4,380.2c-0.3,1.5,0.1,3.1,2.5,4.1c4.2,1.7,2.3-1.1,8.1,0.4c0.5,0.1-0.9,3.3,1.2,2.8
		c5.1-1.4,2.1,6.2,2.1,6.2c0.9,0,3.2-8.3,3.3-8.9c0.6-3.2-2.9-6.8-7.6-8S480,377.1,479.4,380.2z"/>
	<path id="Path_9628" class="st57" d="M398,396c-0.3,0.9,1.4,2.4,2.3,2.7s16.3,9.2,16.6,8.3s4.6-8,3.7-8.4S398.4,395.1,398,396z"/>
	<path id="Path_9629" class="st58" d="M415.5,401.5c-0.5,1.3-1.7,3.1-0.7,4.2c9.4,10.5,11.8,23.4,26.8,29.4l59.5,19.1
		c19.1-3.2,4.3-26.5,6.7-32.5l-50.2-26.4c-13.3-5.3-23.3,0.5-40,3.1C416.3,398.5,416,400.3,415.5,401.5z"/>
	<path id="Path_9630" class="st3" d="M444,393.2c-7.8,0.5-15.8,3.5-26.4,5.1c-0.2,0-0.5,0.2-0.7,0.3c1.6,0.2,3.1,0.7,4.4,1.5
		c2.5,1.5,7.5,0.3,10.2,0.1c3.2-0.2,6.3-0.1,9.4,0.3L444,393.2z"/>
	<path id="Path_9631" class="st59" d="M507.8,421.7l-24.2-12.8c3,6.3-2.9,15.7-11,12.2c-9.3-4-18.4-8.4-27.4-12.9
		c0.2,1.5,0,3-0.6,4.4c-1.7,4.2-7.2,7-11.4,4.9c-4.1-2.1-7.8-4.9-10.8-8.4c-2-2.1-3.4-4.2-6.2-4.5c-0.6-0.1-1.1-0.2-1.7-0.4
		c-0.2,0.5-0.1,1.1,0.3,1.6c9.4,10.5,11.8,23.4,26.8,29.4l59.5,19.1C520.2,451,505.4,427.7,507.8,421.7z"/>
	<path id="Path_9632" class="st60" d="M429.6,407.2c-4.7,11.8,0.2,23.2,12,27.9l71.4,30.2c19.1-3.2,9.2-38.7,11.6-44.8l-67.1-25.3
		C445.3,390.8,434.3,395.4,429.6,407.2z"/>
	<path id="Path_9633" class="st51" d="M525.1,444.9c-1.8,3.8-5.9,6.4-10.9,4.4l-86.2-34.5c-0.5,8.8,4.5,16.6,13.7,20.3l71.4,30.2
		C522.3,463.8,524.7,454.6,525.1,444.9z"/>
	<path id="Path_9634" class="st61" d="M520.7,433c1.8,0.7,3.3,1.9,4.3,3.5c-0.4-7.3-1.2-13.7-0.3-16l-67.1-25.3
		c-8.7-3.2-16.7-1.7-22.3,3.5L520.7,433z"/>
	<path id="Path_9635" class="st62" d="M527.3,421.6l-2.6-1c-11.7-4.8-25.1,0.9-29.9,12.6s0.9,25.1,12.6,29.9c0.1,0,0.1,0.1,0.2,0.1
		l2.6,1L527.3,421.6z"/>
	<circle id="Ellipse_211" class="st55" cx="519.8" cy="443.3" r="23"/>
	<path id="Path_9636" class="st62" d="M532.7,423.7l-2.6-1c-11.7-4.8-25.1,0.9-29.9,12.6c-4.8,11.7,0.9,25.1,12.6,29.9
		c0.1,0,0.1,0.1,0.2,0.1l2.6,1L532.7,423.7z"/>
	<path id="Path_9637" class="st55" d="M504,437c-4.7,11.8,1,25.1,12.8,29.8c11.8,4.7,25.1-1,29.8-12.8c4.7-11.8-1-25.1-12.8-29.8
		c0,0,0,0,0,0C522.1,419.5,508.7,425.2,504,437z"/>
	<path id="Path_9638" class="st49" d="M508.7,438.9c-3.8,9.4,0.8,20.2,10.3,24c0,0,0,0,0,0l9.5,3.8c5.6-7.2,11.3-28.3,13.7-34.2
		l-9.5-3.8C523.3,424.8,512.5,429.4,508.7,438.9z"/>
	<path id="Path_9639" class="st49" d="M508.7,438.9c-3.8,9.4,0.8,20.2,10.3,24c0,0,0,0,0,0l9.5,3.8c5.6-7.2,11.3-28.3,13.7-34.2
		l-9.5-3.8C523.3,424.8,512.5,429.4,508.7,438.9z"/>
	<path id="Path_9640" class="st2" d="M508.7,438.9c-3.8,9.4,0.8,20.2,10.3,24c0,0,0,0,0,0l9.5,3.8c5.6-7.2,11.3-28.3,13.7-34.2
		l-9.5-3.8C523.3,424.8,512.5,429.4,508.7,438.9z"/>
	<circle id="Ellipse_212" class="st4" cx="535.4" cy="449.6" r="18.4"/>
	<path id="Path_9641" class="st48" d="M467.4,443.7c-5.4-3-6.4,4.6-2.7,6c1.4,0.5,10.3-1,10.3-1l0.1-5
		C475.2,443.7,469.2,444.6,467.4,443.7z"/>
	<path id="Path_9642" class="st56" d="M507,406.4c5,6.8,1.6,13.6,0.8,16l-3.4,10.3c-0.9,3.2-3.4,7.2-4.3,9.9l-9.3,0.4
		c2.3-2.3,1.5-2.4,1.7-3.5l4.1-23.5c1.2-5.5-3.2-7.4-3.2-7.4L507,406.4z"/>
	<path id="Path_9643" class="st56" d="M472.4,443.5l22.1-6.4c0.4,3.7,5.9,2.9,5.9,2.9c1.2,4.8-6.7,6.3-9.3,6.3l-19.1,3.4
		c-1,0-0.8-2.3-0.5-4.9C471.6,443.1,472.4,443.5,472.4,443.5z"/>
	<path id="Path_9645" class="st48" d="M223.5,519.5c0,0-3,2.4-3,1c0.1-13.2,0.7-29.9,0.5-39.2c-0.1-2.5-0.7-40.8,7.3-41.8
		c7.3-1,4.3-0.1,6.4,4.3c1.7,3.7-4.1,35.3-5.4,38.3c-0.4,1-1.3,6.3-1.6,7.4C224.7,504.9,223.5,519.5,223.5,519.5z"/>
	
		<linearGradient id="Path_9646_1_" gradientUnits="userSpaceOnUse" x1="-113.1126" y1="736.4333" x2="-112.9956" y2="735.7823" gradientTransform="matrix(21.342 0 0 -20.3753 2654.1655 15466.6924)">
		<stop  offset="0" style="stop-color:#E83F3E"/>
		<stop  offset="5.000000e-02" style="stop-color:#E94645"/>
		<stop  offset="0.7" style="stop-color:#F99E95"/>
		<stop  offset="1" style="stop-color:#FFC1B5"/>
	</linearGradient>
	<path id="Path_9646" class="st63" d="M222.5,420.5l2.1,12.4c1.4,3.1,1.4,4.5-0.1,7c-0.9,1.4,18.6,1.2,17.9-0.2
		c-1.6-3.3,1.2-6.5,1.2-7.9l0.2-11.3H222.5z"/>
	<path id="Path_9647" class="st48" d="M275.2,421.5c0.6,0.2,5,0.4,5,0.4c0.2-2.2-0.7-2.3-0.7-2.3l-18.8-6.3
		c-2.9-0.7-5.4,0.5-5.6,2.7l0,0c-0.2,2.2,2.7,3.1,5.6,3.8L275.2,421.5z"/>
	<path id="Path_9648" class="st2" d="M253.4,415.6c0.5,0.4,3,3.8,5.3,1.8l-0.3,0.2c1.4-1.1,2.1-2.8,2-4.5L246,399.4
		c-2.4-2-5.8-2-8.2,0l0,0c-2.3,2-0.4,4.1,1.8,6.1L253.4,415.6z"/>
	<path id="Path_9649" class="st48" d="M239.2,518.9c0,0-2.8,2.7-2.9,1.2c-1.1-13.1-0.4-29.9-1.5-39.1c-0.3-2.5-9.5-40.2-1.6-41.9
		c7.2-1.6,8.1-0.8,10.5,3.4c2,3.5,0.6,35.3-0.5,38.5c-0.4,1-0.8,6.4-1,7.5C240.6,504.2,239.2,518.9,239.2,518.9z"/>
	<path id="Path_9650" class="st48" d="M220.8,502.6c0.5-0.5,1-1,1.4-1.4c1.3-1.2,2.7-2.4,4-3.5c0.4-2.7,1-5.4,1.5-8.2
		c0.2-1.1,1.1-6.4,1.6-7.4c1.3-3.1,7.1-34.6,5.4-38.3c-2-4.4,1-5.3-6.4-4.3c-8,1-7.4,39.3-7.3,41.8
		C221.1,486.5,220.9,494.4,220.8,502.6z"/>
	<path id="Path_9651" class="st48" d="M235.4,490.8l0.6-0.4c2.2-1.5,4.4-3,6.5-4.6c0.1-1.6,0.3-3.2,0.6-4.8c1.1-3.2,2.5-35,0.5-38.5
		c-2.4-4.2-3.3-5-10.5-3.4c-7.9,1.7,1.4,39.4,1.6,41.9C235.1,483.8,235.3,487.1,235.4,490.8z"/>
	<path id="Path_9652" class="st52" d="M235.6,520.8c0.1,1.2-3.3,5.5-0.1,5.2c7.8-0.7,8.3-0.8,7.8-1.8c-1.2-2.5-2.5-1.3-3.1-5
		C239.7,517,235.5,519.7,235.6,520.8z"/>
	<path id="Path_9653" class="st4" d="M244.1,437.8c-1.3-5.7-0.2-11.3,0.8-15.9c1.3-6.2,2.1-10.5,2.1-10.5c0-7.4-1.5-13.6-12.1-13.6
		s-15.8,6.1-15.8,13.5c0,0,5.4,19.7,5.3,23c-0.1,9.4-6.8,20.9-5.1,46.9c0.3,4.2,18.8-0.8,24.9-1C244.8,480.2,247.5,452,244.1,437.8z
		"/>
	<path id="Path_9654" class="st2" d="M226.6,400.9c-3-1-6.3,0.6-7.3,3.7l-5.2,22.7c2.2,0.1,4.4,0.7,6.4,1.8c0.5-1.5,1.2-3,2-4.4
		l5.4-16.7C228.9,405,229.6,402,226.6,400.9z"/>
	<path id="Path_9655" class="st48" d="M203.8,449.9c-1.6,1-3.7,0.9-5.1-0.4c-0.7-0.8,4-2.4,5.8-3.7s3-0.7,3.7,0.2
		S206.7,448.1,203.8,449.9z"/>
	<path id="Path_9656" class="st48" d="M209.7,444.8c-0.8,1.1-1.8,2.1-2.7,3.1c-1.8-1.7-1.8-2-1.8-2l8.8-19c1.5-2.7,4.2-3.5,6-1.8
		l0,0c1.8,1.7,0.5,4.4-1,7.1L209.7,444.8z"/>
	<path id="Path_9657" class="st52" d="M219.7,521.1c0,1.2-3.7,5.2-0.6,5.2c7.8,0,8.3-0.1,7.9-1.2c-1-2.6-2.4-1.5-2.7-5.3
		C224.2,517.5,219.7,519.8,219.7,521.1z"/>
	<path id="Path_9658" class="st48" d="M227.5,399.3c-4.2,1.5,2.6,2,5.5,2s10.6-1.3,6.8-3.1c-6.4-3.1-0.1-11-6.4-10.9
		C227.9,387.3,234.5,396.8,227.5,399.3z"/>
	<path id="Path_9659" class="st48" d="M227.8,400.9c0.1-0.1,0.1-0.2,0.2-0.2c2.3-2.1,4.8-3.9,7.2-5.8c0.5-0.5,1-0.9,1.5-1.2
		c-0.4-3.2,0.8-6.5-3.3-6.5c-5.6,0.1,1.1,9.6-5.9,12.1C225.3,400.1,226.1,400.6,227.8,400.9z"/>
	<path id="Path_9660" class="st52" d="M240.6,377c0,1.6-1.3,3-2.9,3s-3-1.3-3-2.9c0-1.6,1.3-3,2.9-3c0.8,0,1.5,0.3,2.1,0.8
		C240.2,375.4,240.6,376.2,240.6,377z"/>
	<path id="Path_9661" class="st48" d="M225.5,384.4c0,3.2,6.9,8,8.4,8c3.7-0.2,6.5-3.3,6.3-7c0-0.2,0-0.4-0.1-0.6
		c-0.6-5.6-0.9-12.1-5.1-12.1S225.4,378.5,225.5,384.4z"/>
	<path id="Path_9662" class="st52" d="M235.4,375.5c-6.7,0.1-6.2,11.8-11.5,11.8s-2.1-14.4,6.3-16
		C235.4,370.3,235.4,375.5,235.4,375.5z"/>
	<path id="Path_9663" class="st52" d="M239,374c0,1.6-1.9,2.9-4.3,2.9s-4.4-1.2-4.4-2.9s1.9-2.9,4.3-2.9S239,372.5,239,374z"/>
	<path id="Path_9664" class="st4" d="M241.2,519.8c-0.4,2.8,1,5.2,3.1,5.6l18.3,2.7c2.1,0.3,4.2-1.7,4.5-4.5l2.7-18.6
		c0.4-2.8-1-5.2-3.1-5.6l-18.3-2.7c-2.1-0.3-4.2,1.7-4.6,4.4L241.2,519.8z"/>
	<path id="Path_9665" class="st64" d="M284.4,409.6l-12,82.2l-27.2-3.9l12-82.2L284.4,409.6z"/>
	<path id="Path_9666" class="st56" d="M284.4,409.6l-12,82.2l-8-1.2l12-82.2L284.4,409.6z"/>
	<path id="Path_9667" class="st60" d="M283.1,419c-0.1-0.2,0.4-0.7,0.2-0.7c-1,0-0.5,1.7-2.7,1.5c-0.9-0.1-1,0.5-0.9,1.6
		c0.1,0.4,0.2,1.1,2.5,0.6c0.2,0,0.3-0.1,0.5-0.1L283.1,419z"/>
	<path id="Path_9668" class="st48" d="M282.2,421.2c2.4-0.5,2.2-3.7,1.1-3.7c-1,0-0.5,1.7-2.7,1.5c-0.9-0.1-1,0.5-0.9,1.6
		C279.8,421,279.9,421.7,282.2,421.2z"/>
	<path id="Path_9669" class="st48" d="M283.5,417.5c0,0.1,0.1,0.2,0.1,0.3c0.2,1.5-0.9,2.9-2.4,3c-0.4,0-0.8,0-1.1-0.1
		c-0.1,0-0.2-0.1-0.4-0.2c0.1,0.4,0.3,1,2.5,0.6S284.4,417.8,283.5,417.5z"/>
	<path id="Path_9670" class="st56" d="M265.6,406.9l-12,82.2l-8.3-1.2l12-82.2L265.6,406.9z"/>
	<path id="Path_9671" class="st65" d="M274.9,379.9l9.5,29.7l-27.2-4L274.9,379.9z"/>
	<path id="Path_9672" class="st64" d="M274.9,379.9l9.5,29.7l-27.2-4L274.9,379.9z"/>
	<path id="Path_9673" class="st3" d="M274.9,379.9l9.5,29.7l-8-1.2L274.9,379.9z"/>
	<path id="Path_9674" class="st56" d="M265.6,406.9l9.3-27l1.5,28.6"/>
	<path id="Path_9675" class="st56" d="M241.8,491.6c-0.4,2.2,1.1,4.3,3.2,4.7l25.2,3.7c2.2,0.2,4.2-1.3,4.4-3.5c0,0,0,0,0-0.1l0,0
		c0.4-2.2-1-4.3-3.2-4.7l-25.2-3.7C244,487.8,242.1,489.3,241.8,491.6C241.8,491.6,241.8,491.6,241.8,491.6L241.8,491.6z"/>
	<path id="Path_9676" class="st56" d="M240.6,499.8c-0.4,2.2,1.1,4.3,3.2,4.7l25.3,3.7c2.2,0.2,4.2-1.3,4.4-3.5l0,0
		c0.4-2.2-1-4.3-3.2-4.7l-25.2-3.7C242.8,496,240.9,497.6,240.6,499.8L240.6,499.8z"/>
	<path id="Path_9677" class="st57" d="M274.4,367.6c0.8-0.3,1.6-0.5,2.4-0.6l0,0c0.3,0,2.1,0.6,2.1,1.5l-1.5,18.5
		c-0.3,1.9-2.1,3.2-4,2.9l0,0c-1.9-0.3-3.2-2-2.9-3.9c0,0,0,0,0,0L274.4,367.6z"/>
	<g id="Group_7390" transform="translate(328.493 114.245)" class="st66">
		<path id="Path_9678" class="st50" d="M0,0"/>
	</g>
	<g id="Group_7391" transform="translate(330.158 115.234)">
		<path id="Path_9679" class="st67" d="M0,0"/>
		<path id="Path_9680" class="st68" d="M0,0"/>
	</g>
	<path id="Path_9681" class="st48" d="M343.9,167.3h3.3c0.4-5.3,1.2-14.6,2.7-24.4c0.2-1.1,0.8-6.1,1.2-7.1c0.7-2.6,1.2-5.3,1.6-8
		h-9.8c0.1,3.9,0.2,6.8,0.3,7.4C343.5,142.9,343.6,155.8,343.9,167.3z"/>
	<path id="Path_9682" class="st48" d="M357.3,103.9c0.6,0.2,4.8,0.4,4.8,0.4c0.1-2.1-0.6-2.3-0.6-2.3l-18-6.1
		c-2.9-0.7-5.2,0.4-5.3,2.5l0,0c-0.1,2.1,2.6,2.9,5.4,3.6L357.3,103.9z"/>
	<path id="Path_9683" class="st2" d="M336.4,98.3c0.4,0.4,2.9,3.7,5.1,1.8l-0.3,0.2c1.3-1.1,2-2.7,1.9-4.3l-13.9-13.2
		c-2.3-1.9-5.6-1.9-7.8,0l0,0c-2.2,1.9-0.4,3.9,1.7,5.8L336.4,98.3z"/>
	<path id="Path_9684" class="st48" d="M395.9,152.7c0,0,1,3.6-0.3,3c-11.6-5.1-25.4-13.2-33.7-16.6c-2.2-0.9-38.3-10.2-36.1-17.7
		c2-6.8,3-7.2,7.7-7.3c3.9-0.1,30.1,15.6,32.3,17.9c0.7,0.8,5,3.6,5.9,4.2C384.1,144.8,395.9,152.7,395.9,152.7z"/>
	<path id="Path_9685" class="st48" d="M342.8,127.8c0.1,3.9,0.2,6.8,0.3,7.4c0.3,5.1,0.5,12.7,0.6,20.5c0.4-0.5,0.9-1,1.3-1.4
		c1.2-1.2,2.5-2.4,3.7-3.5c0.3-2.6,0.7-5.2,1.1-7.9c0.2-1.1,0.8-6.1,1.2-7.1c0.7-2.6,1.2-5.3,1.6-8H342.8z"/>
	<path id="Path_9686" class="st48" d="M370.4,143.1l-0.1-0.7c-0.3-2.5-0.6-5.1-0.9-7.6c-1.3-0.8-2.5-1.7-3.7-2.7
		c-2.2-2.3-28.4-18.1-32.3-17.9c-4.6,0.1-5.7,0.5-7.7,7.3c-2.1,7.4,33.9,16.8,36.1,17.7C364.3,140.1,367.2,141.5,370.4,143.1z"/>
	<path id="Path_9687" class="st52" d="M395.8,156.6c1.1,0.5,3.2,5.3,4.4,2.5c3-6.9,3.1-7.4,2-7.4c-2.6-0.2-2.2,1.5-5.7,0.4
		C394.4,151.3,394.7,156.2,395.8,156.6z"/>
	<path id="Path_9688" class="st4" d="M315.3,110.6c5.3,0.2,8.4-0.4,13.6-1.2c-0.3-2.5-0.4-5-0.4-7.5c-0.1-6.1,2.3-7.1,2.3-7.1
		c-1.6-6.9-4.8-15.6-14.6-13.3s-13.5,9-11.9,15.9c0,0,3.8,7.1,6.7,13C312.4,110.5,313.8,110.6,315.3,110.6z"/>
	<path id="Path_9689" class="st4" d="M328.7,107.7c0-0.9-3.8-1.9-4.6-2.2c-2.1,3.4-4.1-4.3-6.7-1.2c-1.4,1.7-5.4,3.3-7,5
		c1.4,9.7-0.7,9,0,14.5c1.1,8.3,6.1-0.4,33.1,20.4c3.2,2.5,16.3-13.5,18.8-18.7C362.5,125,328.7,115.3,328.7,107.7z"/>
	<path id="Path_9690" class="st2" d="M310.7,84.2c-2.9-1-6.1,0.6-7,3.5c0,0,0,0,0,0l-4.9,21.8c2.2,0.1,4.3,0.7,6.2,1.7
		c0.5-1.5,1.1-2.8,1.9-4.2l5.1-16C312.9,88.1,313.6,85.2,310.7,84.2z"/>
	<path id="Path_9691" class="st48" d="M288.9,131.2c-1.6,1-3.6,0.8-4.9-0.4c-0.6-0.8,3.9-2.3,5.5-3.5s2.9-0.6,3.5,0.2
		S291.6,129.4,288.9,131.2z"/>
	<path id="Path_9692" class="st48" d="M365.3,100.6c1.8-0.3,3.6,0.7,4.3,2.4c0.2,1-4.5,0.5-6.5,1s-2.9-0.6-3.1-1.6
		S362.1,101.1,365.3,100.6z"/>
	<path id="Path_9693" class="st48" d="M294.5,126.3c-0.8,1-1.7,2-2.6,2.9c-1.7-1.6-1.8-1.9-1.8-1.9l8.4-18.2c1.4-2.6,4-3.3,5.8-1.7
		l0,0c1.7,1.6,0.5,4.2-1,6.8L294.5,126.3z"/>
	<path id="Path_9694" class="st48" d="M311.6,82.6c-4,1.4,2.5,1.9,5.3,1.9s10.2-1.2,6.5-3c-6.1-3-0.1-10.6-6.1-10.5
		C311.9,71.1,318.3,80.3,311.6,82.6z"/>
	<path id="Path_9695" class="st48" d="M311.9,84.2c0.1-0.1,0.1-0.2,0.2-0.2c2.2-2,4.5-3.8,6.9-5.6c0.5-0.4,0.9-0.8,1.5-1.2
		c-0.4-3.1,0.8-6.3-3.1-6.2c-5.3,0.1,1,9.2-5.7,11.6C309.5,83.4,310.3,83.9,311.9,84.2z"/>
	<path id="Path_9696" class="st52" d="M324.1,61.2c0,1.6-1.2,2.9-2.8,2.9c-1.6,0-2.9-1.2-2.9-2.8c0-1.6,1.2-2.9,2.8-2.9
		c0,0,0.1,0,0.1,0C322.8,58.5,324.1,59.7,324.1,61.2z"/>
	<path id="Path_9697" class="st48" d="M309.7,68.3c0,3,6.6,7.7,8.1,7.7c3.5-0.2,6.2-3.2,6-6.8c0-0.2,0-0.3,0-0.5
		c-0.6-5.4-0.8-11.6-4.9-11.6S309.6,62.6,309.7,68.3z"/>
	<path id="Path_9698" class="st52" d="M319.2,59.8c-6.4,0.1,3.4,35.2-10.8,34.2c-5.1-0.3-12-33.9,5.8-38.2
		C319.1,54.6,319.2,59.8,319.2,59.8z"/>
	<path id="Path_9699" class="st52" d="M322.6,58.4c0,1.5-1.8,2.8-4.2,2.9s-4.2-1.2-4.2-2.7s1.8-2.8,4.2-2.8S322.6,56.9,322.6,58.4z"
		/>
	<path id="Path_9700" class="st46" d="M461.4,167.1v-20.9c0,0-1,17-27.2,17L272.8,164c-8.1,0-22.6,1.5-26.7,3.6L461.4,167.1z"/>
	<path id="Path_9701" class="st4" d="M542.1,255.6l-38-40.1c-0.1,0.2-0.2,0.5-0.3,0.7c-1.1,2.3-3.1,4.1-5.5,4.9
		c-1,1-2.1,1.9-3.4,2.4l38.3,40.5c1,1.1,2.7,1.1,3.8,0.1c0,0,0,0,0,0l5-4.8C543.1,258.3,543.1,256.6,542.1,255.6L542.1,255.6z"/>
	<path id="Path_9702" class="st4" d="M530.2,255.9c-5.2-4.7-17.6-17.5-19.9-21.6c-2.4-4.3,0.2-6,2.9-9.4l-8.9-9.4
		c-0.1,0.2-0.2,0.5-0.3,0.7c-1.1,2.3-3.1,4.1-5.5,4.9c-1,1-2.1,1.9-3.4,2.4l38.3,40.5c1,1.1,2.7,1.1,3.8,0.1c0,0,0,0,0,0l5-4.8
		c0.5-0.5,0.8-1.1,0.8-1.8C535.4,261.4,536,261,530.2,255.9z"/>
	<path id="Path_9703" class="st69" d="M509.4,205.9c-0.1,2.5-1.1,4.9-2.8,6.8c-5.8,6.4-12.6,11.7-21.4,12.1c6,6.1,15.8,6.2,21.9,0.3
		C512.2,220,513.2,212.1,509.4,205.9L509.4,205.9z"/>
	<path id="Path_9704" class="st4" d="M509.5,206c-0.1,2.5-1.1,4.9-2.8,6.8c-5.8,6.4-12.6,11.7-21.4,12.1c1.1,1.2,2.4,2.1,3.9,2.9
		c7.6,4,16.9,1,20.9-6.5C512.5,216.4,512.3,210.6,509.5,206L509.5,206z"/>
	<path id="Path_9705" class="st4" d="M516.8,179.7c-4.9-21.8-26.6-35.6-48.4-30.7c-21.8,4.9-35.6,26.6-30.7,48.4
		s26.6,35.6,48.4,30.7c0,0,0,0,0,0C507.9,223.2,521.7,201.5,516.8,179.7z M485,223c-19,4.3-37.9-7.7-42.2-26.7
		c-4.3-19,7.7-37.9,26.7-42.2c19-4.3,37.9,7.7,42.2,26.7c0,0,0,0,0,0C516,199.9,504,218.8,485,223L485,223z"/>
	<circle id="Ellipse_213" class="st70" cx="477.2" cy="188.6" r="35.3"/>
	<path id="Path_9706" class="st71" d="M504.5,211c7.7-9.5,10-22.2,6-33.7C508.5,188.6,506.5,199.8,504.5,211z"/>
	<path id="Path_9707" class="st71" d="M497.5,159.9c-6.2-4.4-13.7-6.6-21.3-6.4c-4,22.7-8.1,45.4-12.2,68.1c7,2.8,14.8,3.3,22.1,1.4
		C490,201.9,493.7,180.9,497.5,159.9z"/>
	<path id="Path_9708" class="st71" d="M459.6,158.9c-0.7,0.4-1.4,0.9-2.1,1.4c-16,11.1-20,33.1-8.9,49.1c0,0,0,0,0,0
		c0.5,0.7,1,1.4,1.6,2.1C453.3,194,456.4,176.4,459.6,158.9z"/>
	<path id="Path_9709" class="st48" d="M539.6,264.4c-2.6,0.6-4.8,2-3.9,3.7h-0.6c0.8,1.7,3.6,2.1,6.2,1.5l20.2-4.6
		c2.6-0.6,4.1-2.4,3.2-4.1l0,0c-0.8-1.7-3.6-2.6-6.2-2L539.6,264.4z"/>
	<path id="Path_9710" class="st48" d="M536.8,266.8c0.7-0.8,1.7-1.2,2.7-1.3c-0.7-0.8-1.7-1.3-2.2-1.9l-14.1-13
		c-2.3-2-4.4-4.1-6.3-6.3c0,0-2.2,2.9-0.5,4.9l16.8,17.3c0.8,0.9,1.7,1.7,2.6,2.4C535.9,268.1,536.2,267.4,536.8,266.8L536.8,266.8z
		"/>
</g>
</svg>
