<svg id="Layer_1" data-name="Layer 1" xmlns="http://www.w3.org/2000/svg" xmlns:xlink="http://www.w3.org/1999/xlink" width="518.66" height="484.02" viewBox="0 0 518.66 484.02">
  <defs>
    <clipPath id="clip-path" transform="translate(0 0)">
      <path d="M234.82,412.34l4.9-.13a15.74,15.74,0,0,0,.45-3.62h138l46.41-1.21c25.85,0,26.76-9.93,26.76-9.93V222.55a29,29,0,0,0-29-29H406V123.61a12.18,12.18,0,0,0-12.19-12.18h0a11.42,11.42,0,0,0-2.18.21H346.72V86.73a12.18,12.18,0,0,0-12.15-12.18,13.07,13.07,0,0,0-2.17.2H72.25a11.56,11.56,0,0,1,1.9.5A12.18,12.18,0,0,1,82.3,86.73h0v13.5h.06V255.49c0,.63-.06,1.27-.06,1.9s0,1.27.06,1.9v.08h0c0,18.5,5.28,26.63,17.64,27h1c12.67,0,18.63-8.06,18.63-27.12V223.19h0V122.79s-.1-10.9,12-11.14a12.17,12.17,0,0,1,10,12h0v61.91h.07V340.8c0,.63-.07,1.26-.07,1.9a17.15,17.15,0,0,0,.07,1.9v.06h0c0,19,5.53,27,18.57,27,12.67,0,18.63-8.05,18.63-27.1v-122h0v-8.18c0-11,4.76-19.92,15.78-19.92s14.95,8.92,14.95,19.92v14.7l0,.07V407c0,.52-.09,1.07-.09,1.61A15.39,15.39,0,0,0,224.78,424C236.27,422.19,234.82,412.34,234.82,412.34Z" style="fill: none"/>
    </clipPath>
    <clipPath id="clip-path-2" transform="translate(0 0)">
      <path d="M107.71,364.84l2.15,12.43c1.43,3.15,1.43,4.51-.11,7-.89,1.42,18.56,1.22,17.85-.25-1.62-3.34,1.21-6.46,1.21-7.85l.25-11.31Z" style="fill: none"/>
    </clipPath>
  </defs>
  <g>
    <g id="Path_9402" data-name="Path 9402">
      <path d="M49.19,418.38c2.43,1.49,5.89,1.9,6.66-.46s-1.68-5.71-4.15-7.08a12.4,12.4,0,0,0-11.24-.12C43.47,412.54,46.78,417,49.19,418.38Z" transform="translate(0 0)" style="fill: #b3deff"/>
    </g>
    <g id="Path_9403" data-name="Path 9403">
      <path d="M55.87,417.9c.75-2.25-1.68-5.71-4.15-7.08a12.4,12.4,0,0,0-11.24-.12C50.68,411.9,55.87,417.9,55.87,417.9Z" transform="translate(0 0)" style="fill: #8fc7ea"/>
    </g>
    <g id="Path_9404" data-name="Path 9404">
      <path d="M54.87,416.83l-.43-.37-.52-.43c-.21-.16-.43-.34-.69-.52l-.41-.29a4.53,4.53,0,0,0-.46-.3,11.73,11.73,0,0,0-1-.62c-.76-.43-1.55-.82-2.36-1.18-1.42-.59-2.87-1.11-4.34-1.56L42.84,411s.68.15,1.8.45A30.2,30.2,0,0,1,49,413a23.35,23.35,0,0,1,2.39,1.22c.35.22.7.42,1,.65l.45.31.41.3c.26.19.49.39.69.56s.34.29.5.45Z" transform="translate(0 0)" style="fill: #8fc7ea"/>
    </g>
    <g id="Path_9405" data-name="Path 9405">
      <path d="M38.78,391.62c2.7,7.43,10.12,14.89,17.12,12,6.57-2.73,8.13-13.93,5-21.17-7.36-17-26.82-21.88-26.82-21.88C37.39,369.71,36.08,384.19,38.78,391.62Z" transform="translate(0 0)" style="fill: #b3deff"/>
    </g>
    <g id="Path_9406" data-name="Path 9406">
      <path d="M71.31,413.29c-2.89,3.95-8.14,6.91-11,3.63-2.67-3.09-1.09-10.28,2-14,7.22-8.82,17.86-7.61,17.86-7.61C76.61,400.19,74.22,409.34,71.31,413.29Z" transform="translate(0 0)" style="fill: #b3deff"/>
    </g>
    <g id="Path_9407" data-name="Path 9407">
      <path d="M60.35,417c-2.67-3.09-1.09-10.28,2-14,7.22-8.82,17.86-7.61,17.86-7.61C64.69,403.9,60.35,417,60.35,417Z" transform="translate(0 0)" style="fill: #8fc7ea"/>
    </g>
    <g id="Path_9408" data-name="Path 9408">
      <path d="M61.23,414.54l.45-.88c.14-.29.31-.63.54-1s.47-.84.77-1.3l.46-.73.53-.77c.36-.54.78-1.08,1.21-1.66.89-1.11,1.9-2.28,3-3.42a73.38,73.38,0,0,1,5.92-5.36l2.53-2s-1,.68-2.59,1.9a53.17,53.17,0,0,0-6,5.23,38.56,38.56,0,0,0-3,3.5c-.43.59-.84,1.14-1.19,1.69l-.51.8-.45.76c-.29.49-.52.95-.74,1.35s-.38.75-.51,1Z" transform="translate(0 0)" style="fill: #8fc7ea"/>
    </g>
    <g id="Path_9409" data-name="Path 9409">
      <path d="M55.87,403.63c6.57-2.73,8.13-13.93,5-21.17-7.36-17-26.82-21.87-26.82-21.87C56.12,382.41,55.87,403.63,55.87,403.63Z" transform="translate(0 0)" style="fill: #8fc7ea"/>
    </g>
    <g id="Path_9410" data-name="Path 9410">
      <path d="M55.87,403.63c6.57-2.73,8.13-13.93,5-21.17-7.36-17-26.82-21.87-26.82-21.87C56.12,382.41,55.87,403.63,55.87,403.63Z" transform="translate(0 0)" style="fill: #8fc7ea"/>
    </g>
    <g id="Path_9411" data-name="Path 9411">
      <path d="M55.75,399.68s-.1-.55-.25-1.53c-.08-.49-.17-1.1-.34-1.78s-.3-1.49-.56-2.33c-.12-.42-.24-.87-.37-1.34s-.3-.95-.46-1.42c-.3-.95-.72-2-1.13-3.09a69.31,69.31,0,0,0-3.19-6.75,120.81,120.81,0,0,0-7.17-11.29c-2-2.77-3.21-4.48-3.21-4.48s1.34,1.61,3.4,4.31a88.52,88.52,0,0,1,7.38,11.18A58.69,58.69,0,0,1,53,388c.39,1.1.79,2.14,1.06,3.15.15.5.3.95.43,1.46s.22.95.32,1.36c.23.86.35,1.67.48,2.36s.22,1.32.27,1.81C55.69,399.13,55.75,399.68,55.75,399.68Z" transform="translate(0 0)" style="fill: #8fc7ea"/>
    </g>
    <g id="Path_9412" data-name="Path 9412">
      <path d="M53.94,454.59h6.91c4.64,0,8.45-.36,8.45-6.26l3.52-18.59c0-5.9-3.8-5.35-8.45-5.35H49.72c-4.65,0-8.45-.55-8.45,5.35l3.52,18.59C44.79,454.23,49.3,454.59,53.94,454.59Z" transform="translate(0 0)" style="fill: #b3deff"/>
    </g>
    <g id="Path_9413" data-name="Path 9413">
      <path d="M64.37,424.39H58.66c3.55.38,7,1.42,8.56,4.91s.7,9.18.33,12.89c-.54,5.41-3.68,9.51-9.51,9.32-3-.1-5.88-.66-8.89-.67h-4c1.15,3.5,4.92,3.8,8.79,3.8h6.91c4.64,0,8.45-.36,8.45-6.25l3.52-18.6C72.82,423.84,69,424.39,64.37,424.39Z" transform="translate(0 0)" style="fill: #8fc7ea"/>
    </g>
    <g id="Path_9415" data-name="Path 9415">
      <path d="M98.14,125.27,85,143.82l-.12-.24c-1.23-2.79-2.18-5.64-3.21-8.42a.86.86,0,0,0,0-.45,13.69,13.69,0,0,1-1-7.1c.37-1.75,1.08-3.4,1.41-5.17,1-5.32-.22-10.83-4.58-14.26-.82-.66-1.9.61-1,1.26,4.75,3.8,5,10,3.34,15.42a16.3,16.3,0,0,0-.79,4.32,24.78,24.78,0,0,0-4.86-6.59c-.77-.72-1.81.55-1,1.28,6.14,5.81,7.33,14.17,10.73,21.55h0a16.81,16.81,0,0,0-4.43-1.71c-3.88-1-9.2-.07-11.35-4.25-.48-1-2-.37-1.54.56,1.79,3.47,5.08,4.32,8.71,4.75a22.45,22.45,0,0,1,7.61,2.08l-11.39,16c-4-3.8-10.89-2.62-14.67-19-1.7-7.36-4.95-24.52-8-28.38-3.12-3.47-9-12-6-16.07,5-6.81,13.8,1.44,19.17.65,19.45-2.86,30.34,13.25,33.28,20.12a29.26,29.26,0,0,0,2.87,5.16Z" transform="translate(0 0)" style="fill: #3198ff"/>
    </g>
    <g id="Path_9416" data-name="Path 9416">
      <path d="M83.87,145.42l-1,1.43a22.45,22.45,0,0,0-7.61-2.08c-3.63-.43-6.92-1.28-8.71-4.75-.49-1,1.06-1.48,1.54-.56,2.15,4.18,7.47,3.35,11.35,4.25a16.47,16.47,0,0,1,4.45,1.71Z" transform="translate(0 0)" style="fill: #fff"/>
    </g>
    <g id="Path_9417" data-name="Path 9417">
      <path d="M82.11,122.44c-.32,1.77-1,3.41-1.41,5.16-.51,2.45.13,4.76,1,7.11a.86.86,0,0,1,0,.45c1,2.78,2,5.63,3.21,8.42l.12.24-1.11,1.56c-3.4-7.38-4.59-15.74-10.73-21.55-.76-.74.28-2,1-1.28a24.74,24.74,0,0,1,4.86,6.58,16.64,16.64,0,0,1,.79-4.31c1.7-5.43,1.37-11.66-3.34-15.42-.83-.66.21-1.9,1-1.27C81.89,111.65,83.1,117.12,82.11,122.44Z" transform="translate(0 0)" style="fill: #fff"/>
    </g>
    <g id="Path_9418" data-name="Path 9418">
      <path d="M20.15,112.73c19.55-2.1,29.78,14.48,32.43,21.45,6.09,16.07,18.77,14.41,23.78,13.19,2.52-.61,6.37-.18,10.46,1.25v40.95c-1.16-.95-2.32-2-3.49-2.91a44.69,44.69,0,0,0-10.14-6,25.87,25.87,0,0,0-2.54-1,.88.88,0,0,0-.39-.21c-.32-.07-.63-.15-1-.24l-.46-.14c-9.92-3.21-10.59-15.28-5-23.14.61-.85-.61-2-1.23-1.1-3.11,4.39-4.87,10-3.75,15.39a13.69,13.69,0,0,0,3.87,7.14c-.76-.21-1.52-.43-2.27-.67-4.15-1.27-7.76-4.88-10.92-7.75a39.34,39.34,0,0,1-4.25-4.5v-.09A16.31,16.31,0,0,0,43.6,162a26.44,26.44,0,0,1-2.47-4.75c-1.12-2.85-1.9-5.71-2.86-8.56a.72.72,0,0,0,0-.46c-.69-2.35-1.23-4.71-.63-7.13.45-1.74,1.22-3.36,1.62-5.11,1.2-5.29.22-10.83-4-14.47a.82.82,0,1,0-1.09,1.23h0c4.56,3.94,4.63,10.18,2.72,15.53a16,16,0,0,0-.95,4.28,24.59,24.59,0,0,0-4.59-6.78c-.74-.75-1.83.48-1.09,1.24,5.9,6.06,6.75,14.46,9.85,22v.06a16.84,16.84,0,0,0-4.4-1.9c-3.8-1.06-9.18-.44-11.17-4.76-.44-1-2-.46-1.56.5,1.65,3.54,4.9,4.52,8.56,5.1,4.15.67,7.9,1.9,10.67,4.82A41.2,41.2,0,0,0,47,168.6a53.88,53.88,0,0,0,9.26,7.78c3.44,2.2,7.69,3,11.62,4a17,17,0,0,0,2,.57,41.91,41.91,0,0,1,10.23,5.29,55.05,55.05,0,0,1,5.33,4.3,18.24,18.24,0,0,0-12.6,1.94,16.9,16.9,0,0,0-4.07,3.17c-1.76,1.81-2.85,4.16-4.91,5.7-4.46,3.46-9.23-.82-13-3-1-.53-1.65,1-.74,1.46,3.24,1.9,6.17,4.46,10.11,4.43,4.91,0,6.93-4.36,9.8-7.52a15.69,15.69,0,0,1,16.91-4v13.71c-7.51,5.11-16.25,7.89-24.6,7.16-31-2.67-28.65-24.64-33.63-35.48-3.16-6.9-11.84-2.73-15.46-21.88-1.4-7.42-3.95-24.73-6.85-28.67-3-3.6-8.56-12.37-5.36-16.31C6.24,104.71,14.7,113.31,20.15,112.73Z" transform="translate(0 0)" style="fill: #178bff"/>
    </g>
    <g id="Path_9419" data-name="Path 9419">
      <path d="M39.25,136c-.4,1.75-1.17,3.37-1.61,5.11-.61,2.43-.07,4.76.62,7.13a.72.72,0,0,1,0,.46c1,2.85,1.75,5.71,2.86,8.56A26.52,26.52,0,0,0,43.59,162a15.77,15.77,0,0,1,1.71,2.34.11.11,0,0,1,0,.08,39.34,39.34,0,0,0,4.25,4.5c3.16,2.85,6.77,6.48,10.92,7.75.75.24,1.52.46,2.28.67a13.56,13.56,0,0,1-3.87-7.13c-1.13-5.38.63-11,3.74-15.39.62-.86,1.84.24,1.23,1.09-5.59,7.87-4.93,20,5,23.14l.46.14a9.42,9.42,0,0,0,1,.24.92.92,0,0,1,.39.21c.86.3,1.7.62,2.54.95a45.06,45.06,0,0,1,10.14,6.05c1.17.95,2.33,1.9,3.49,2.91v3.22a15.69,15.69,0,0,0-16.91,4c-2.85,3.16-4.89,7.49-9.8,7.52-3.94,0-6.87-2.55-10.11-4.43-1-.52-.18-2,.74-1.46,3.8,2.18,8.56,6.46,13,3,2-1.57,3.15-3.92,4.91-5.7a16.9,16.9,0,0,1,4.07-3.17,18.19,18.19,0,0,1,12.66-1.94,56.29,56.29,0,0,0-5.33-4.3A41.66,41.66,0,0,0,69.81,181a16.47,16.47,0,0,1-2-.57c-3.93-1-8.18-1.81-11.62-4A53.88,53.88,0,0,1,47,168.66a41.12,41.12,0,0,1-4.76-5.77c-2.77-2.93-6.52-4.16-10.67-4.82-3.61-.58-6.87-1.56-8.56-5.1-.45-.95,1.12-1.45,1.56-.5,2,4.27,7.33,3.65,11.17,4.75a17.54,17.54,0,0,1,4.4,1.9v-.05c-3.1-7.52-4-15.92-9.85-22-.74-.77.35-2,1.09-1.24a24.39,24.39,0,0,1,4.59,6.77,17,17,0,0,1,1-4.28c1.9-5.34,1.84-11.58-2.72-15.53a.82.82,0,0,1,0-1.16.83.83,0,0,1,1.12-.07C39.47,125.16,40.45,130.67,39.25,136Z" transform="translate(0 0)" style="fill: #fff"/>
    </g>
    <g id="Path_9420" data-name="Path 9420">
      <path d="M94.84,183.54a6.76,6.76,0,1,0-4.8-2A6.78,6.78,0,0,0,94.84,183.54Z" transform="translate(0 0)" style="fill: none"/>
    </g>
    <g id="Group_7386" data-name="Group 7386">
      <g id="Path_9421" data-name="Path 9421">
        <path d="M93.38,178.29a4.85,4.85,0,0,1-5.12.13,6.79,6.79,0,0,0,6.58,5.12,6.71,6.71,0,0,0,3.07-.74,17.89,17.89,0,0,0-1.57-2.54,8.11,8.11,0,0,0-1.8-2.07c-.32-.21-.3-.4-.25-.5A7.16,7.16,0,0,1,93.38,178.29Z" transform="translate(0 0)" style="fill: none"/>
      </g>
    </g>
    <g id="Path_9422" data-name="Path 9422">
      <path d="M79.53,102.65V210.22a21.69,21.69,0,0,1,6.52-1.28V104.61A21.36,21.36,0,0,1,79.53,102.65Z" transform="translate(0 0)" style="fill: #7189ad"/>
    </g>
    <g id="Path_9423" data-name="Path 9423">
      <path d="M370.94,145.08l2.34-22.51.23.15c2.42,1.82,4.63,3.8,6.88,5.71a.87.87,0,0,0,.25.38,13.37,13.37,0,0,1,4.26,5.7c.53,1.7.71,3.47,1.29,5.17,1.75,5.1,5.48,9.28,11,10.17a.81.81,0,0,0,.28-1.6c-5.93-.95-9.25-6.21-10.46-11.74a16.36,16.36,0,0,0-1.42-4.14,24.46,24.46,0,0,0,7.44,3.34c1,.25,1.29-1.35.27-1.61-8.17-2-13.31-8.73-19.82-13.47h0a16.8,16.8,0,0,0,4.67-.68c3.8-1.1,8-4.43,11.93-1.9.86.57,1.9-.65,1.06-1.23-3.24-2.14-6.51-1.28-9.88.12a22.48,22.48,0,0,1-7.61,1.9l2-19.36c5.32,1.3,10.72-3,22,9.34,5.07,5.57,16.26,18.87,20.8,20.72,4.4,1.49,13.67,6,13.06,11-1,8.35-12.69,5.48-16.95,8.8-15.48,12-32.8,3.3-38.69-1.22a29.72,29.72,0,0,0-4.92-3.06Z" transform="translate(0 0)" style="fill: #3198ff"/>
    </g>
    <g id="Path_9424" data-name="Path 9424">
      <path d="M373.48,120.63l.18-1.73a22.31,22.31,0,0,0,7.61-1.9c3.36-1.4,6.66-2.26,9.88-.12.86.58-.2,1.81-1.07,1.24-3.91-2.58-8.12.75-11.92,1.9a16.8,16.8,0,0,1-4.68.61Z" transform="translate(0 0)" style="fill: #fff"/>
    </g>
    <g id="Path_9425" data-name="Path 9425">
      <path d="M386.19,139.72c-.58-1.69-.76-3.46-1.29-5.16a13,13,0,0,0-4.26-5.71.82.82,0,0,1-.25-.38c-2.25-1.9-4.46-3.92-6.88-5.71l-.23-.15.2-1.9c6.54,4.76,11.65,11.42,19.82,13.48,1,.26.74,1.9-.27,1.61a24.46,24.46,0,0,1-7.44-3.34A16,16,0,0,1,387,136.6c1.18,5.52,4.5,10.77,10.47,11.73a.82.82,0,0,1-.28,1.61C391.67,149,387.94,144.83,386.19,139.72Z" transform="translate(0 0)" style="fill: #fff"/>
    </g>
    <g id="Path_9426" data-name="Path 9426">
      <path d="M439.78,76.91c-7.17,18.23-26.51,19.59-33.89,18.72-17-2-21.37,9.91-22.63,14.92-.62,2.51-2.77,5.71-5.93,8.7l-58.19,2.69c1.41-.55,24.86-22.72,26.23-23.32a44.49,44.49,0,0,0,10-6.16c.7-.56,1.38-1.17,2-1.79a.74.74,0,0,0,.36-.24c.21-.25.43-.49.64-.71l.35-.35c7.4-7.27,18.35-2.29,22.71,6.27.47,1,2,.36,1.53-.57-2.43-4.76-6.59-8.93-11.85-10.42a13.63,13.63,0,0,0-8.07.14c.53-.57,1.08-1.15,1.64-1.7,3-3.08,7.88-4.6,11.87-6.06a38.09,38.09,0,0,1,5.93-1.66h.09a16.22,16.22,0,0,0,2.85-.43,26.47,26.47,0,0,1,5.34,0c3,.32,5.94,1,8.85,1.41a.7.7,0,0,0,.4.2c2.4.48,4.76,1.09,6.59,2.74,1.32,1.19,2.39,2.63,3.8,3.8,4.11,3.49,9.46,5.19,14.61,3.15a.82.82,0,0,0-.58-1.52c-5.58,2.2-11.12-.62-15-4.76a16.58,16.58,0,0,0-3.34-2.85,24.39,24.39,0,0,0,8.1-1c1-.29.42-1.83-.58-1.52-8.07,2.41-15.88-.72-23.93-1.46h-.06a17,17,0,0,0,3.71-3c2.71-2.85,4.63-7.9,9.31-7.69,1,.06,1.33-1.55.28-1.6-3.88-.17-6.25,2.23-8.42,5.15-2.51,3.36-5.32,6.11-9.18,7.2a40.38,40.38,0,0,0-7.3,1.56A54.93,54.93,0,0,0,367,79.37c-3.53,2-6.18,5.42-8.89,8.41a17.89,17.89,0,0,0-1.42,1.47,41.43,41.43,0,0,1-9.37,6.66,54.7,54.7,0,0,1-6.24,2.71,18.22,18.22,0,0,0,4.09-12,17.5,17.5,0,0,0-1-5.06c-.78-2.39-2.34-4.45-2.78-7-1-5.54,5-7.77,8.66-10.11.9-.56-.07-1.9-.95-1.32-3.15,2-6.78,3.38-8.56,6.87-2.23,4.35.66,8.13,2.11,12.11a15.57,15.57,0,0,1-4.28,16.75l-12.1-6.32c-1-9,.54-18,5-25,16.66-26.11,35-13.9,46.82-13.31,7.54.39,7.87-9.2,26.43-3.55,7.2,2.19,23.61,7.9,28.46,7.18,4.55-.95,14.81-1.84,16.86,2.8C453.25,68.39,441.76,71.88,439.78,76.91Z" transform="translate(0 0)" style="fill: #178bff"/>
    </g>
    <g id="Path_9427" data-name="Path 9427">
      <path d="M374.59,77.76c-3.52,1.26-7.32,2.75-9.86,5.33-.55.55-1.1,1.13-1.64,1.69a13.74,13.74,0,0,1,8.08-.13,16.89,16.89,0,0,1,2.73,1.09c.06-.38.13-.79.21-1.27a34.34,34.34,0,0,0,.48-6.71Z" transform="translate(0 0)" style="fill: #225d6b"/>
    </g>
    <g id="Path_9428" data-name="Path 9428">
      <path d="M365.15,101c-2.09,2.93-16.79,23.35-18.2,26.48l-26.26-10.23c1.41-.55,23.33-18.07,24.73-18.67a44.49,44.49,0,0,0,10-6.16c.7-.56,1.37-1.17,2-1.78a.84.84,0,0,0,.36-.25c.21-.25.43-.49.64-.71l.35-.35c4.37-4.3,10-4.3,14.76-1.81a13,13,0,0,1-1.84,4.3C369.83,95.1,367.29,98,365.15,101Z" transform="translate(0 0)" style="fill: #225d6b"/>
    </g>
    <g id="Path_9429" data-name="Path 9429">
      <path d="M358,87.8a19.85,19.85,0,0,0-1.42,1.48,41.56,41.56,0,0,1-9.36,6.65A55.7,55.7,0,0,1,341,98.65a18.21,18.21,0,0,0,4.09-12,17.83,17.83,0,0,0-1-5.06c-.79-2.38-2.34-4.45-2.79-7-1-5.53,5-7.77,8.66-10.11.9-.56-.06-1.9-.95-1.32-3.14,2-6.78,3.39-8.56,6.88-2.23,4.34.66,8.12,2.11,12.1a15.57,15.57,0,0,1-4.28,16.75l-12.1-6.32c-1-9,.55-18,5-25C343.7,48.1,357,49.93,367.91,52.35c2.09,6.3,4.24,12.59,5.79,19a31.43,31.43,0,0,1,.76,4.61,49,49,0,0,0-7.55,3.38C363.41,81.43,360.75,84.81,358,87.8Z" transform="translate(0 0)" style="fill: #225d6b"/>
    </g>
    <g id="Path_9430" data-name="Path 9430">
      <path d="M410.42,83.11c-1.37-1.16-2.44-2.6-3.8-3.8A13.62,13.62,0,0,0,400,76.57a.7.7,0,0,1-.4-.2c-2.91-.49-5.84-1.09-8.86-1.41a26.37,26.37,0,0,0-5.33,0,15.3,15.3,0,0,1-2.86.42h-.06a39.38,39.38,0,0,0-5.94,1.67c-4,1.46-8.84,3-11.87,6.06-.55.55-1.1,1.13-1.64,1.7a13.58,13.58,0,0,1,8.08-.13c5.26,1.48,9.42,5.64,11.84,10.41.48,1-1.06,1.5-1.52.57-4.37-8.56-15.31-13.54-22.71-6.27l-.35.34c-.21.23-.43.47-.64.72a.79.79,0,0,1-.36.24c-.66.62-1.33,1.23-2,1.79a44.33,44.33,0,0,1-9.95,6.14c-1.37.6-2.76,1.18-4.17,1.73l-2.85-1.49a15.59,15.59,0,0,0,4.28-16.74c-1.46-4-4.35-7.77-2.11-12.11,1.78-3.49,5.42-4.88,8.56-6.88.88-.56,1.84.76.95,1.32-3.68,2.34-9.67,4.58-8.67,10.11.45,2.52,2,4.59,2.79,7a17.1,17.1,0,0,1,.95,5.06,18.13,18.13,0,0,1-4.09,12,54.85,54.85,0,0,0,6.25-2.71,42,42,0,0,0,9.37-6.66,16.32,16.32,0,0,1,1.41-1.47c2.72-3,5.37-6.38,8.9-8.41a54.64,54.64,0,0,1,11.14-4.58,41.44,41.44,0,0,1,7.3-1.56c3.87-1.09,6.66-3.8,9.18-7.2,2.18-2.92,4.55-5.32,8.43-5.15,1,0,.75,1.66-.29,1.6-4.67-.21-6.6,4.76-9.31,7.69a17.11,17.11,0,0,1-3.71,3h.06c8.06.73,15.87,3.87,23.93,1.45,1-.3,1.59,1.23.58,1.52a24.3,24.3,0,0,1-8.09.95A16.86,16.86,0,0,1,409.55,80c3.8,4.15,9.36,7,14.95,4.75a.82.82,0,0,1,1,.57.81.81,0,0,1-.42,1C419.87,88.27,414.53,86.57,410.42,83.11Z" transform="translate(0 0)" style="fill: #fff"/>
    </g>
    <g id="Path_9431" data-name="Path 9431">
      <path d="M331,123.28l-.83-28.67L333.62,92a.94.94,0,0,0,.42-.16,13.26,13.26,0,0,1,6.46-3c1.78-.18,3.56,0,5.33-.22,5.35-.67,10.2-3.49,12.19-8.66a.82.82,0,0,0-1.52-.6c-2.15,5.6-8,7.79-13.61,7.82a16.35,16.35,0,0,0-4.34.55,24.42,24.42,0,0,0,4.76-6.6c.46-1-1.06-1.54-1.52-.6-2.86,5.93-8.13,9.46-13.14,13.31l-3.9-2c-.49-3.8-2.45-8.26.68-11.42.73-.73-.25-2-.95-1.29-2.75,2.74-2.56,6.12-1.9,9.69.12.67.22,1.33.31,2l-16.25-8.5C307.93,79,310.74,75.32,318,71c6.47-3.8,21.77-12.1,24.5-16.17,2.35-4,8.63-12.18,13.44-10.56,8,2.7,2.8,13.54,5.18,18.39,8.61,17.57-3.42,32.78-9,37.63C350.62,101.62,332,122,331,123.28Z" transform="translate(0 0)" style="fill: #3198ff"/>
    </g>
    <g id="Path_9432" data-name="Path 9432">
      <path d="M324.8,91.78l-1.9-1c-.09-.66-.19-1.33-.31-2-.69-3.58-.88-7,1.9-9.69.75-.75,1.73.56.95,1.29C322.35,83.52,324.31,88,324.8,91.78Z" transform="translate(0 0)" style="fill: #fff"/>
    </g>
    <g id="Path_9433" data-name="Path 9433">
      <path d="M345.86,88.58c-1.77.22-3.55,0-5.33.22a13.34,13.34,0,0,0-6.47,3,.86.86,0,0,1-.41.16l-3.45,2.63-1.53-.8c5-3.86,10.27-7.39,13.14-13.31.46-1,2-.34,1.52.6a24.42,24.42,0,0,1-4.76,6.6,16.35,16.35,0,0,1,4.34-.55c5.65,0,11.46-2.22,13.61-7.82a.82.82,0,0,1,1.52.6C356.06,85.09,351.21,87.87,345.86,88.58Z" transform="translate(0 0)" style="fill: #fff"/>
    </g>
    <g id="Path_9434" data-name="Path 9434">
      <path d="M491.56,336.65a1.61,1.61,0,0,1-1.55,1.63h0a1.59,1.59,0,0,1-1.84-1.29l-15.3-151.22a1.59,1.59,0,0,1,1.54-1.63h0a1.59,1.59,0,0,1,1.84,1.29Z" transform="translate(0 0)" style="fill: #23575d"/>
    </g>
    <g id="Path_9435" data-name="Path 9435">
      <path d="M475.89,196.78a1.38,1.38,0,0,1-1.38,1.38H440.58a1.38,1.38,0,0,1-1.38-1.38h0a1.36,1.36,0,0,1,1.36-1.38h33.95a1.36,1.36,0,0,1,1.38,1.36Z" transform="translate(0 0)" style="fill: #23575d"/>
    </g>
    <g id="Path_9436" data-name="Path 9436">
      <path d="M477.41,213.77a1.37,1.37,0,0,1-1.38,1.38H442.1a1.37,1.37,0,0,1-1.38-1.37h0a1.37,1.37,0,0,1,1.38-1.37H476a1.37,1.37,0,0,1,1.38,1.37Z" transform="translate(0 0)" style="fill: #23575d"/>
    </g>
    <g id="Path_9437" data-name="Path 9437">
      <path d="M479.7,230.05a1.38,1.38,0,0,1-1.38,1.38H444.39a1.38,1.38,0,0,1-1.38-1.38h0a1.39,1.39,0,0,1,1.37-1.39h33.94A1.38,1.38,0,0,1,479.7,230.05Z" transform="translate(0 0)" style="fill: #23575d"/>
    </g>
    <g id="Path_9438" data-name="Path 9438">
      <path d="M481.23,247a1.38,1.38,0,0,1-1.37,1.39H445.91a1.37,1.37,0,0,1-1.38-1.37v0h0a1.39,1.39,0,0,1,1.38-1.37h33.94a1.39,1.39,0,0,1,1.38,1.37Z" transform="translate(0 0)" style="fill: #23575d"/>
    </g>
    <g id="Path_9439" data-name="Path 9439">
      <path d="M483.52,264.33a1.4,1.4,0,0,1-1.39,1.38H448.21a1.38,1.38,0,0,1-1.39-1.37h0a1.39,1.39,0,0,1,1.39-1.39h33.92A1.39,1.39,0,0,1,483.52,264.33Z" transform="translate(0 0)" style="fill: #23575d"/>
    </g>
    <g id="Path_9440" data-name="Path 9440">
      <path d="M485,281.32a1.38,1.38,0,0,1-1.38,1.38H449.73a1.38,1.38,0,0,1-1.38-1.38h0a1.37,1.37,0,0,1,1.36-1.38h34A1.37,1.37,0,0,1,485,281.3v0Z" transform="translate(0 0)" style="fill: #23575d"/>
    </g>
    <g id="Path_9441" data-name="Path 9441">
      <path d="M486.56,297.59a1.37,1.37,0,0,1-1.33,1.42h-34a1.38,1.38,0,0,1-1.38-1.38h0a1.38,1.38,0,0,1,1.38-1.38h34a1.38,1.38,0,0,1,1.38,1.38h0Z" transform="translate(0 0)" style="fill: #23575d"/>
    </g>
    <g id="Path_9442" data-name="Path 9442">
      <path d="M475.89,196.78a1.38,1.38,0,0,1-1.38,1.38H440.58a1.38,1.38,0,0,1-1.38-1.38h0a1.36,1.36,0,0,1,1.36-1.38h33.95a1.36,1.36,0,0,1,1.38,1.36Z" transform="translate(0 0)" style="fill: #23575d"/>
    </g>
    <g id="Path_9443" data-name="Path 9443">
      <path d="M477.41,213.77a1.37,1.37,0,0,1-1.38,1.38H442.1a1.37,1.37,0,0,1-1.38-1.37h0a1.37,1.37,0,0,1,1.38-1.37H476a1.37,1.37,0,0,1,1.38,1.37Z" transform="translate(0 0)" style="fill: #23575d"/>
    </g>
    <g id="Path_9444" data-name="Path 9444">
      <path d="M479.7,230.05a1.38,1.38,0,0,1-1.38,1.38H444.39a1.38,1.38,0,0,1-1.38-1.38h0a1.39,1.39,0,0,1,1.37-1.39h33.94A1.38,1.38,0,0,1,479.7,230.05Z" transform="translate(0 0)" style="fill: #23575d"/>
    </g>
    <g id="Path_9445" data-name="Path 9445">
      <path d="M481.23,247a1.38,1.38,0,0,1-1.37,1.39H445.91a1.37,1.37,0,0,1-1.38-1.37v0h0a1.39,1.39,0,0,1,1.38-1.37h33.94a1.39,1.39,0,0,1,1.38,1.37Z" transform="translate(0 0)" style="fill: #23575d"/>
    </g>
    <g id="Path_9446" data-name="Path 9446">
      <path d="M483.52,264.33a1.4,1.4,0,0,1-1.39,1.38H448.21a1.38,1.38,0,0,1-1.39-1.37h0a1.39,1.39,0,0,1,1.39-1.39h33.92A1.39,1.39,0,0,1,483.52,264.33Z" transform="translate(0 0)" style="fill: #23575d"/>
    </g>
    <g id="Path_9447" data-name="Path 9447">
      <path d="M485,281.32a1.38,1.38,0,0,1-1.38,1.38H449.73a1.38,1.38,0,0,1-1.38-1.38h0a1.37,1.37,0,0,1,1.36-1.38h34A1.37,1.37,0,0,1,485,281.3v0Z" transform="translate(0 0)" style="fill: #23575d"/>
    </g>
    <g id="Path_9448" data-name="Path 9448">
      <path d="M486.56,297.59a1.37,1.37,0,0,1-1.33,1.42h-34a1.38,1.38,0,0,1-1.38-1.38h0a1.38,1.38,0,0,1,1.38-1.38h34a1.38,1.38,0,0,1,1.38,1.38h0Z" transform="translate(0 0)" style="fill: #23575d"/>
    </g>
    <g id="Path_9449" data-name="Path 9449">
      <path d="M456.39,336.65a1.61,1.61,0,0,1-1.55,1.63h0A1.59,1.59,0,0,1,453,337L437.68,185.77a1.6,1.6,0,0,1,1.55-1.63h0a1.58,1.58,0,0,1,1.83,1.29Z" transform="translate(0 0)" style="fill: #23575d"/>
    </g>
    <g id="Path_9450" data-name="Path 9450">
      <path d="M493.65,357.31,483.08,253.12a1.72,1.72,0,0,0-3.38.34l10.53,103.85Z" transform="translate(0 0)" style="fill: #23575d"/>
    </g>
    <g id="Path_9451" data-name="Path 9451">
      <path d="M490.38,332A1.38,1.38,0,0,1,489,333.4H455.06a1.38,1.38,0,0,1-1.38-1.39h0a1.37,1.37,0,0,1,1.38-1.37h34a1.37,1.37,0,0,1,1.38,1.37h0Z" transform="translate(0 0)" style="fill: #23575d"/>
    </g>
    <g id="Path_9452" data-name="Path 9452">
      <path d="M491.89,349a1.38,1.38,0,0,1-1.38,1.38H456.59a1.38,1.38,0,0,1-1.38-1.38h0a1.38,1.38,0,0,1,1.38-1.38h33.93A1.38,1.38,0,0,1,491.9,349h0Z" transform="translate(0 0)" style="fill: #23575d"/>
    </g>
    <g id="Path_9453" data-name="Path 9453">
      <path d="M475.48,463.83v-.37a6.81,6.81,0,1,0-13.61-.53v.9Z" transform="translate(0 0)" style="fill: #23575d"/>
    </g>
    <g id="Path_9454" data-name="Path 9454">
      <path d="M458.48,357.31,447.91,253.12a1.72,1.72,0,0,0-3.38.34l10.52,103.85Z" transform="translate(0 0)" style="fill: #23575d"/>
    </g>
    <g id="Path_9455" data-name="Path 9455">
      <path d="M493.89,357.31l-2-19.84a1.72,1.72,0,0,0-3.39.34l2,19.5Z" transform="translate(0 0)" style="fill: #23575d"/>
    </g>
    <g id="Path_9456" data-name="Path 9456">
      <path d="M490.13,355,495,403a1.59,1.59,0,0,0,1.84,1.29,1.63,1.63,0,0,0,1.56-1.64L493.56,355Z" transform="translate(0 0)" style="fill: #23575d"/>
    </g>
    <g id="Path_9457" data-name="Path 9457">
      <path d="M491.54,348.82a1.38,1.38,0,0,1-1.38,1.38H456.22a1.38,1.38,0,0,1-1.38-1.38h0a1.39,1.39,0,0,1,1.37-1.39h34a1.38,1.38,0,0,1,1.38,1.38Z" transform="translate(0 0)" style="fill: #23575d"/>
    </g>
    <g id="Path_9458" data-name="Path 9458">
      <path d="M493.38,363.44a1.39,1.39,0,0,1-1.39,1.39H458a1.38,1.38,0,0,1-1.38-1.38h0a1.38,1.38,0,0,1,1.38-1.38h34a1.37,1.37,0,0,1,1.38,1.37Z" transform="translate(0 0)" style="fill: #23575d"/>
    </g>
    <g id="Path_9459" data-name="Path 9459">
      <path d="M494.91,380.49a1.37,1.37,0,0,1-1.37,1.38H459.49a1.38,1.38,0,0,1-1.38-1.38h0a1.37,1.37,0,0,1,1.36-1.38h34.06a1.39,1.39,0,0,1,1.39,1.37h0Z" transform="translate(0 0)" style="fill: #23575d"/>
    </g>
    <g id="Path_9460" data-name="Path 9460">
      <path d="M491.54,348.82a1.38,1.38,0,0,1-1.38,1.38H456.22a1.38,1.38,0,0,1-1.38-1.38h0a1.39,1.39,0,0,1,1.37-1.39h34a1.38,1.38,0,0,1,1.38,1.38Z" transform="translate(0 0)" style="fill: #23575d"/>
    </g>
    <g id="Path_9461" data-name="Path 9461">
      <path d="M493.38,363.44a1.39,1.39,0,0,1-1.39,1.39H458a1.38,1.38,0,0,1-1.38-1.38h0a1.38,1.38,0,0,1,1.38-1.38h34a1.37,1.37,0,0,1,1.38,1.37Z" transform="translate(0 0)" style="fill: #23575d"/>
    </g>
    <g id="Path_9462" data-name="Path 9462">
      <path d="M494.91,380.49a1.37,1.37,0,0,1-1.37,1.38H459.49a1.38,1.38,0,0,1-1.38-1.38h0a1.37,1.37,0,0,1,1.36-1.38h34.06a1.39,1.39,0,0,1,1.39,1.37h0Z" transform="translate(0 0)" style="fill: #23575d"/>
    </g>
    <g id="Path_9463" data-name="Path 9463">
      <path d="M458.71,357.31l-2-19.84a1.72,1.72,0,0,0-3.39.34l2,19.5Z" transform="translate(0 0)" style="fill: #23575d"/>
    </g>
    <g id="Path_9464" data-name="Path 9464">
      <path d="M454.85,355l4.86,48a1.72,1.72,0,0,0,3.4-.35L458.28,355Z" transform="translate(0 0)" style="fill: #23575d"/>
    </g>
    <g id="Path_9465" data-name="Path 9465">
      <path d="M490.12,355l10.6,104.52h3.44L493.56,355Z" transform="translate(0 0)" style="fill: #23575d"/>
    </g>
    <g id="Path_9466" data-name="Path 9466">
      <path d="M494.91,380.65a1.38,1.38,0,0,1-1.38,1.38h-34a1.38,1.38,0,0,1-1.39-1.38h0a1.38,1.38,0,0,1,1.38-1.39h34a1.39,1.39,0,0,1,1.39,1.39Z" transform="translate(0 0)" style="fill: #23575d"/>
    </g>
    <g id="Path_9467" data-name="Path 9467">
      <path d="M497.21,398a1.39,1.39,0,0,1-1.39,1.39h-34A1.39,1.39,0,0,1,460.4,398h0a1.38,1.38,0,0,1,1.38-1.38h34a1.37,1.37,0,0,1,1.39,1.36Z" transform="translate(0 0)" style="fill: #23575d"/>
    </g>
    <g id="Path_9468" data-name="Path 9468">
      <path d="M498.73,415.05a1.36,1.36,0,0,1-1.36,1.37h-34a1.38,1.38,0,0,1-1.43-1.33v0h0a1.37,1.37,0,0,1,1.37-1.39h34.05a1.38,1.38,0,0,1,1.38,1.38Z" transform="translate(0 0)" style="fill: #23575d"/>
    </g>
    <g id="Path_9469" data-name="Path 9469">
      <path d="M500.26,431.35a1.38,1.38,0,0,1-1.36,1.38H464.84a1.38,1.38,0,0,1-1.38-1.38h0a1.38,1.38,0,0,1,1.37-1.39h34.05a1.38,1.38,0,0,1,1.38,1.38Z" transform="translate(0 0)" style="fill: #23575d"/>
    </g>
    <g id="Path_9470" data-name="Path 9470">
      <path d="M501.79,448.39a1.38,1.38,0,0,1-1.37,1.39H466.37A1.38,1.38,0,0,1,465,448.4h0a1.38,1.38,0,0,1,1.38-1.38h34.08a1.38,1.38,0,0,1,1.38,1.38h0Z" transform="translate(0 0)" style="fill: #23575d"/>
    </g>
    <g id="Path_9471" data-name="Path 9471">
      <path d="M454.84,355l10.6,104.52h3.43L458.27,355Z" transform="translate(0 0)" style="fill: #23575d"/>
    </g>
    <g id="Path_9472" data-name="Path 9472">
      <path d="M512.08,463.83v-.37a6.81,6.81,0,1,0-13.61-.53v.9Z" transform="translate(0 0)" style="fill: #23575d"/>
    </g>
    <g id="Path_9473" data-name="Path 9473">
      <path d="M209.5,229.16l.06-.07v-14.7c0-11-3.95-19.92-14.95-19.92s-15.82,8.92-15.82,19.9v8.16h0V344.59c0,19-6,27.1-18.63,27.1h49.35V229.16Z" transform="translate(0 0)" style="fill: #7189ad"/>
    </g>
    <g id="Path_9474" data-name="Path 9474">
      <path d="M82.26,86.73a12.17,12.17,0,0,0-8.15-11.48h-3.8C57.79,75.25,57.9,86.4,57.9,86.4v1.53H82.23v-1.2Z" transform="translate(0 0)" style="fill: #7189ad"/>
    </g>
    <g id="Path_9475" data-name="Path 9475">
      <path d="M100,286.39Z" transform="translate(0 0)" style="fill: #7189ad"/>
    </g>
    <g id="Path_9476" data-name="Path 9476">
      <path d="M141.56,185.52h-.07V123.61h0a12.16,12.16,0,0,0-10-12c-12.1.23-12,11.14-12,11.14v100.4h0v36.09c0,19-6,27.11-18.63,27.11h40.66Z" transform="translate(0 0)" style="fill: #7189ad"/>
    </g>
    <g style="clip-path: url(#clip-path)">
      <g id="Group_7387" data-name="Group 7387">
        <g id="Rectangle_19265" data-name="Rectangle 19265">
          <rect x="72.25" y="74.54" width="379.03" height="349.42" style="fill: #c7e2fc"/>
        </g>
        <g id="Path_9477" data-name="Path 9477">
          <path d="M452.24,122.72v302.2H252.51v4.59q-2.7-3.3-5.38-6.66-5.37-6.75-10.66-13.77c-28.2-37.47-54.67-80.85-77.62-128.68s-40.24-95.63-51.8-141.08A604.22,604.22,0,0,1,94,73.2v.4H452.24Z" transform="translate(0 0)" style="fill: #c7e2fc"/>
        </g>
        <g id="Path_9478" data-name="Path 9478">
          <path d="M452.24,124.2V424.92H253.82v.28q-2.65-3.22-5.28-6.54-5.26-6.66-10.46-13.51c-27.68-36.75-53.64-79.31-76.15-126.24s-39.46-93.82-50.82-138.4A594.43,594.43,0,0,1,98.28,75.62q-.54-3.91-1-7.78V73.6h355Z" transform="translate(0 0)" style="fill: #cae3fc"/>
        </g>
        <g id="Path_9479" data-name="Path 9479">
          <path d="M452.24,125.69V424.92H260.36v2.26q-10.46-12.36-20.64-25.94c-27.14-36.06-52.6-77.79-74.69-123.83s-38.7-92-49.83-135.74a578.83,578.83,0,0,1-12.59-63.62c-.36-2.56-.69-5.1-1-7.61V73.6H450.52V67.9q2.31,3.93,4.6,7.93h-2.86Z" transform="translate(0 0)" style="fill: #cde5fc"/>
        </g>
        <g id="Path_9480" data-name="Path 9480">
          <path d="M452.24,127.18V424.87H266.78v3.86c-1.73-2-3.44-4-5.15-6q-10.24-12.18-20.23-25.44c-26.63-35.34-51.58-76.26-73.23-121.39a721.42,721.42,0,0,1-48.86-133.07,570.6,570.6,0,0,1-12.37-62.39c-.34-2.51-.67-5-1-7.48v.66H448V70.48q2.26,3.87,4.51,7.78h-.29Z" transform="translate(0 0)" style="fill: #cfe6fc"/>
        </g>
        <g id="Path_9481" data-name="Path 9481">
          <path d="M452.24,128.66V424.92H272.92V430q-5.06-5.72-10.09-11.66-10-12-19.83-24.94a705.72,705.72,0,0,1-71.76-118.95A707.46,707.46,0,0,1,123.36,144a552.31,552.31,0,0,1-12.1-61.13q-1-7.36-1.79-14.59v5.3h336v-.49q2.24,3.8,4.43,7.61,4.38,7.66,8.65,15.57h-6.36Z" transform="translate(0 0)" style="fill: #d2e7fc"/>
        </g>
        <g id="Path_9482" data-name="Path 9482">
          <path d="M452.24,130.16V424.92H274v.42q-5-5.58-9.89-11.42-9.83-11.7-19.43-24.42A694.31,694.31,0,0,1,174.33,273a692.39,692.39,0,0,1-46.9-127.75,547.55,547.55,0,0,1-11.85-59.92q-1-7.22-1.75-14.26V73.6h324.8V68.37q8.85,14.61,17.2,30.08h-3.6Z" transform="translate(0 0)" style="fill: #d5e9fc"/>
        </g>
        <g id="Path_9483" data-name="Path 9483">
          <path d="M452.24,131.62v293.3H284.74v6.4a533.31,533.31,0,0,1-38.47-45.76,675.05,675.05,0,0,1-68.83-114.13c-20.33-42.45-35.67-84.8-45.93-125.1a533.92,533.92,0,0,1-11.6-58.63c-.65-4.76-1.23-9.39-1.72-14l-.36-3.46V73.6H436.22V71.15q8.65,14.26,16.86,29.48h-.84Z" transform="translate(0 0)" style="fill: #d7eafc"/>
        </g>
        <g id="Path_9484" data-name="Path 9484">
          <path d="M452.24,133.12v291.8H285.56v1.54a522,522,0,0,1-37.65-44.77A662.75,662.75,0,0,1,180.54,270a663,663,0,0,1-44.95-122.44,525.45,525.45,0,0,1-11.36-57.39q-.95-6.92-1.68-13.7c-.24-2.25-.46-4.5-.66-6.73V73.6H429.56V67c1.43,2.29,2.86,4.61,4.26,6.94q8.46,14,16.49,28.83,4,7.4,7.87,15h-5.94Z" transform="translate(0 0)" style="fill: #d9ebfc"/>
        </g>
        <g id="Path_9485" data-name="Path 9485">
          <path d="M452.24,134.62v290.3H295.8v6.3q-4.76-4.71-9.42-9.67a509.82,509.82,0,0,1-36.84-43.8,649.47,649.47,0,0,1-65.9-109.26,649.58,649.58,0,0,1-44-119.75,514.49,514.49,0,0,1-11.1-56.12q-.94-6.77-1.63-13.4-.36-3.3-.66-6.59v1H427.22V69.89c1.39,2.25,2.79,4.51,4.17,6.8q8.28,13.69,16.17,28.2,3.93,7.23,7.71,14.67h-3Z" transform="translate(0 0)" style="fill: #dbecfc"/>
        </g>
        <g id="Path_9486" data-name="Path 9486">
          <path d="M452.24,136.1V424.92H296.41v1.19q-4.62-4.59-9.22-9.46a500.37,500.37,0,0,1-36-42.8A634.1,634.1,0,0,1,186.74,267a635,635,0,0,1-43-117.14A499.76,499.76,0,0,1,132.93,95q-1.83-13.24-2.77-25.91V73.6H425v-.78q2.06,3.3,4.08,6.66,8.1,13.38,15.77,27.58,3.79,7.09,7.53,14.36h-.07Z" transform="translate(0 0)" style="fill: #deedfc"/>
        </g>
        <g id="Path_9487" data-name="Path 9487">
          <path d="M452.24,137.59V424.92H306.07v4.8q-9.06-8.46-18.07-18a491.31,491.31,0,0,1-35.19-41.84,620.3,620.3,0,0,1-63-104.4,620.94,620.94,0,0,1-42-114.44,488.18,488.18,0,0,1-10.61-53.7c-1.19-8.63-2.1-17.12-2.71-25.32V73.6H418.59V69.36q4.05,6.33,8,12.89c10.55,17.44,20.57,35.94,29.88,55.35Z" transform="translate(0 0)" style="fill: #e0eefc"/>
        </g>
        <g id="Path_9488" data-name="Path 9488">
          <path d="M452.24,139.08V424.92H310.91v3.57c-1.49-1.34-3-2.7-4.45-4.07q-8.86-8.28-17.63-17.54A480.8,480.8,0,0,1,254.45,366a606.33,606.33,0,0,1-61.51-102,605.89,605.89,0,0,1-41-111.79,478.65,478.65,0,0,1-10.37-52.4q-1.75-12.64-2.64-24.73c-.15-2-.29-4-.4-6V73.6H416.37V72.44q3.94,6.18,7.83,12.58c10.31,17,20.1,35.11,29.19,54.07Z" transform="translate(0 0)" style="fill: #e1effc"/>
        </g>
        <g id="Path_9489" data-name="Path 9489">
          <path d="M450.29,140.56q3.33,7,6.46,13.88h-4.51V424.92H315.53v2q-4.33-3.8-8.67-7.81-8.64-8.06-17.21-17.12A465.51,465.51,0,0,1,256.08,362a592,592,0,0,1-60-99.54A591.91,591.91,0,0,1,156,153.38a465.93,465.93,0,0,1-10.13-51.16q-1.69-12.36-2.57-24.13-.21-3-.39-5.86v1.38H410.27v-4.1c1.3,2,2.59,4,3.89,6q3.87,6,7.61,12.28C431.86,104.41,441.42,122.11,450.29,140.56Z" transform="translate(0 0)" style="fill: #e3f0fc"/>
        </g>
        <g id="Path_9490" data-name="Path 9490">
          <path d="M447.19,142.08q3.26,6.76,6.3,13.54h-1.25v269.3H324.17v3.61C279,392,233.78,333.25,199.14,261.05a578.05,578.05,0,0,1-39.09-106.46,455.61,455.61,0,0,1-9.87-49.9q-1.63-12.06-2.52-23.56c-.29-3.81-.5-7.59-.66-11.36v3.8H404.31V66.92q7.71,11.42,15.08,23.6C429.2,106.79,438.53,124,447.19,142.08Z" transform="translate(0 0)" style="fill: #e5f1fc"/>
        </g>
        <g id="Path_9491" data-name="Path 9491">
          <path d="M444.09,143.54q6.33,13.2,11.89,26.37h-3.74v255H332.4v4.39q-4.12-3.07-8.25-6.42c-44-35.64-88.14-92.89-121.91-163.3A562.09,562.09,0,0,1,164.13,155.8a442.43,442.43,0,0,1-9.63-48.66q-1.62-11.73-2.45-23-.44-5.61-.64-11.08v.52H402.28V70.34q7.52,11.13,14.7,23C426.56,109.16,435.64,125.91,444.09,143.54Z" transform="translate(0 0)" style="fill: #e7f2fc"/>
        </g>
        <g id="Path_9492" data-name="Path 9492">
          <path d="M441,145q6.17,12.85,11.58,25.68h-.33V424.92h-112v4.29q-8-5.5-16.06-12c-42.89-34.73-85.88-90.51-118.79-159.08A548.15,548.15,0,0,1,168.25,157a433.77,433.77,0,0,1-9.39-47.41c-1-7.61-1.84-15.09-2.38-22.38-.28-3.64-.49-7.24-.62-10.78-.08-1.78-.13-3.54-.17-5.29V73.6H396.57V68.32c1.27,1.79,2.49,3.58,3.68,5.39q7.32,10.85,14.33,22.41C423.91,111.52,432.76,127.87,441,145Z" transform="translate(0 0)" style="fill: #e8f2fc"/>
        </g>
        <g id="Path_9493" data-name="Path 9493">
          <path d="M437.89,146.52q6,12.53,11.28,25,2.63,6.24,5.06,12.46h-2V424.92H347.51v3.44q-3.86-2.43-7.77-5.1-7.8-5.37-15.64-11.71c-41.76-33.81-83.61-88.12-115.66-154.91s-48.22-133.42-48.5-187.16V73.6h234.7V71.83c1.2,1.74,2.39,3.48,3.58,5.24q7.13,10.55,13.95,21.87C421.25,113.9,429.88,129.82,437.89,146.52Z" transform="translate(0 0)" style="fill: #eaf3fc"/>
        </g>
        <g id="Path_9494" data-name="Path 9494">
          <path d="M434.83,148c7.8,16.25,14.63,32.49,20.49,48.5h-3V421.33h4a65.71,65.71,0,0,1-9.41,8.93V425H354.38v1.73a220.1,220.1,0,0,1-30.3-20.81c-40.63-32.95-81.38-85.8-112.53-150.79S164.63,125.29,164.4,73v.6H389.17V70.34q3.54,4.95,7,10.09,6.93,10.27,13.57,21.24Q423,123.57,434.83,148Z" transform="translate(0 0)" style="fill: #ebf4fc"/>
        </g>
        <g id="Path_9495" data-name="Path 9495">
          <path d="M431.69,149.49c7.6,15.8,14.21,31.58,19.92,47.18q2.13,5.84,4.1,11.65h-3.47V415.23h.34a61.1,61.1,0,0,1-19.66,15.14v-5.45H368v2.64a152.74,152.74,0,0,1-14.45-7.16A213.51,213.51,0,0,1,324,400.16c-39.5-32-79.09-83.36-109.38-146.54S169,127.4,168.82,76.57c0-3.17.05-6.3.13-9.39V73.6h215V69.21q1.73,2.37,3.44,4.75,3.44,4.83,6.81,9.82,6.77,10,13.2,20.65Q420.25,125.75,431.69,149.49Z" transform="translate(0 0)" style="fill: #edf4fc"/>
        </g>
        <g id="Path_9496" data-name="Path 9496">
          <path d="M428.58,151c7.37,15.36,13.81,30.69,19.36,45.83q4.15,11.35,7.61,22.55h-3.32V398.79h4.12a73.59,73.59,0,0,1-7.48,10.33,59.07,59.07,0,0,1-19.08,14.7c-14.55,7-31.38,7.42-49.45,2.23S343.16,410,324,394.48c-38.36-31.07-76.82-81-106.27-142.36s-44.31-122.6-44.53-172c0-3.09,0-6.13.13-9.12V73.6H378.73V68.44A490.72,490.72,0,0,1,428.58,151Z" transform="translate(0 0)" style="fill: #eef5fc"/>
        </g>
        <g id="Path_9497" data-name="Path 9497">
          <path d="M425.48,152.47a476.52,476.52,0,0,1,32.26,87.82h-5.5V381.22h6.12c-7,16.8-17.57,29.29-31.7,36.07C398.41,430.84,361.24,419,324,388.81s-74.58-78.6-103.18-138.17-43-119-43.2-166.93c0-3,0-5.95.13-8.84.05-1.46.11-2.85.19-4.32v3H377.16V72.36a476.2,476.2,0,0,1,48.32,80.11Z" transform="translate(0 0)" style="fill: #eff6fc"/>
        </g>
        <g id="Path_9498" data-name="Path 9498">
          <path d="M422.38,154a462,462,0,0,1,31.28,85.14h-1.42v136.7h2c-6.79,16.28-17,28.4-30.72,35-27.41,13.14-63.44,1.62-99.57-27.58s-72.28-76.22-100-134S182.25,133.79,182,87.32c0-5.8.16-11.42.56-16.89V73.6H369.09V68q3.26,4.08,6.43,8.32A462,462,0,0,1,422.38,154Z" transform="translate(0 0)" style="fill: #f0f6fc"/>
        </g>
        <g id="Path_9499" data-name="Path 9499">
          <path d="M419.28,155.4a445.64,445.64,0,0,1,30.29,82.51,350.6,350.6,0,0,1,7.61,38.68h-5v67.19h5.29a120.06,120.06,0,0,1-7.31,26.57c-6.58,15.77-16.5,27.51-29.77,33.87-53.1,25.46-139.65-44.62-193.35-156.56-26.85-56-40.4-111.8-40.6-156.81q0-8.44.55-16.36c.1-1.32.21-2.62.33-3.91v3H367.66V72.13q3.13,4,6.23,8.05a447.74,447.74,0,0,1,45.4,75.22Z" transform="translate(0 0)" style="fill: #f1f7fc"/>
        </g>
        <g id="Path_9500" data-name="Path 9500">
          <path d="M416.18,156.93c26,54.15,39.1,108.19,39.29,151.75s-12.52,76.67-38.21,89c-51.36,24.64-135.14-43.18-187.11-151.5C204.16,192,191.06,138,190.86,94.42c0-5.44.15-10.73.53-15.83q.29-3.8.72-7.5V73.6h168V68.85q6.13,7.29,12.14,15.22a433,433,0,0,1,43.93,72.86Z" transform="translate(0 0)" style="fill: #f2f7fc"/>
        </g>
        <g id="Path_9501" data-name="Path 9501">
          <path d="M413.08,158.41c25.12,52.36,37.8,104.62,38,146.7s-12.11,74.12-36.94,86C364.44,415,283.49,349.42,233.25,244.69c-25.12-52.31-37.79-104.57-38-146.69a175.85,175.85,0,0,1,2.2-29.53v5.14H358.88v-.35q5.94,7.08,11.74,14.77a418.37,418.37,0,0,1,42.46,70.39Z" transform="translate(0 0)" style="fill: #f3f8fc"/>
        </g>
        <g id="Path_9502" data-name="Path 9502">
          <path d="M410,159.91c24.25,50.54,36.49,101,36.67,141.62S435,373.1,411,384.6c-48,23-126.15-40.3-174.64-141.4-24.25-50.55-36.45-101-36.67-141.63A170.26,170.26,0,0,1,201.81,73v.57H351.88V71q2.85,3.24,5.76,6.65Q363.36,84.51,369,92a403.74,403.74,0,0,1,41,68Z" transform="translate(0 0)" style="fill: #f4f8fc"/>
        </g>
        <g id="Path_9503" data-name="Path 9503">
          <path d="M406.88,161.39c46.78,97.49,47.2,194.5.95,216.68S286.22,339.2,239.45,241.72c-23.39-48.75-35.19-97.38-35.36-136.58a163.34,163.34,0,0,1,2-27.5c.36-2.12.75-4.19,1.19-6.23V73.6H345.24v-4a306.27,306.27,0,0,1,22.1,26.28,390,390,0,0,1,39.54,65.54Z" transform="translate(0 0)" style="fill: #f5f9fc"/>
        </g>
        <g id="Path_9504" data-name="Path 9504">
          <path d="M403.78,162.87c45,93.88,45.45,187.3,1,208.65S287.6,334.1,242.57,240.27c-22.52-46.93-33.88-93.76-34-131.52a159.59,159.59,0,0,1,2-26.47,113.45,113.45,0,0,1,2.57-11.7v3H339V68.85c1.83,1.82,3.64,3.68,5.45,5.59a293.81,293.81,0,0,1,21.29,25.31A375.4,375.4,0,0,1,403.78,162.87Z" transform="translate(0 0)" style="fill: #f6f9fc"/>
        </g>
        <g id="Path_9505" data-name="Path 9505">
          <path d="M400.68,164.36c43.3,90.26,43.7,180.09.89,200.63S289,329,245.65,238.74c-21.66-45.13-32.58-90.15-32.74-126.5a151.84,151.84,0,0,1,1.9-25.46,111.35,111.35,0,0,1,2.47-11.26q.74-2.67,1.61-5.21V73.6H333.1V68.9q5.28,4.92,10.47,10.46A285.89,285.89,0,0,1,364,103.69a360.54,360.54,0,0,1,36.65,60.67Z" transform="translate(0 0)" style="fill: #f6f9fc"/>
        </g>
        <g id="Path_9506" data-name="Path 9506">
          <path d="M397.58,165.86c41.57,86.65,42,172.89.86,192.61S290.32,323.91,248.75,237.25c-20.78-43.32-31.27-86.55-31.43-121.4-.08-17.42,2.43-32.77,7.52-45V73.6h102.8v-4c1.69,1.47,3.38,3,5.06,4.57q5.07,4.76,10.09,10a275.86,275.86,0,0,1,19.65,23.36,345.82,345.82,0,0,1,35.14,58.26Z" transform="translate(0 0)" style="fill: #f7fafc"/>
        </g>
        <g id="Path_9507" data-name="Path 9507">
          <path d="M394.48,167.34c39.84,83,40.21,165.68.83,184.57s-103.62-33.1-143.46-116.14c-19.91-41.53-30-83-30.12-116.34-.07-16.7,2.33-31.39,7.21-43.1a60.5,60.5,0,0,1,4.13-8.2v5.48H322.6V71C348.54,92.06,374.56,125.82,394.48,167.34Z" transform="translate(0 0)" style="fill: #f8fafc"/>
        </g>
        <g id="Path_9508" data-name="Path 9508">
          <path d="M391.38,168.83c38.11,79.44,38.46,158.48.79,176.55S293.11,313.71,255,234.28c-19-39.72-28.66-79.34-28.81-111.28-.07-16,2.23-30,6.9-41.23a53.28,53.28,0,0,1,8.78-14.52V73.6h71.5V69.8q4.64,3.2,9.3,7C347.44,96.82,372.33,129.11,391.38,168.83Z" transform="translate(0 0)" style="fill: #f8fafc"/>
        </g>
        <g id="Path_9509" data-name="Path 9509">
          <path d="M388.28,170.31c36.38,75.82,36.71,151.28.75,168.53s-94.6-30.23-131-106c-18.18-37.91-27.36-75.73-27.5-106.23-.07-15.22,2.13-28.67,6.58-39.35a50.92,50.92,0,0,1,8.43-13.87v.26H305V70.25a127.37,127.37,0,0,1,17.6,12.14C346.37,101.58,370.09,132.4,388.28,170.31Z" transform="translate(0 0)" style="fill: #f9fafc"/>
        </g>
        <g id="Path_9510" data-name="Path 9510">
          <path d="M385.18,171.8c34.64,72.21,35,144.08.71,160.5s-90.1-28.79-124.74-101-35-144.07-.71-160.5v2.8H289.5V69.5c10.61,3.07,21.88,9.43,33.16,18.57C345.23,106.34,367.86,135.7,385.18,171.8Z" transform="translate(0 0)" style="fill: #f9fbfc"/>
        </g>
        <g id="Path_9511" data-name="Path 9511">
          <path d="M382.07,173.29c32.92,68.6,33.23,136.87.69,152.48s-85.6-27.36-118.51-96S231,93,263.58,77.34c16.26-7.81,37.66-1,59.11,16.4S365.62,139,382.07,173.29Z" transform="translate(0 0)" style="fill: #fafbfc"/>
        </g>
        <g id="Ellipse_196" data-name="Ellipse 196">
          <ellipse cx="323.17" cy="201.55" rx="61.9" ry="130.52" transform="translate(-55.38 159.62) rotate(-25.63)" style="fill: #fafbfc"/>
        </g>
        <g id="Ellipse_197" data-name="Ellipse 197">
          <ellipse cx="323.17" cy="201.55" rx="58.46" ry="123.26" transform="translate(-55.38 159.62) rotate(-25.63)" style="fill: #fafbfc"/>
        </g>
        <g id="Ellipse_198" data-name="Ellipse 198">
          <ellipse cx="323.17" cy="201.55" rx="55.02" ry="116.01" transform="translate(-55.38 159.62) rotate(-25.63)" style="fill: #fbfbfc"/>
        </g>
        <g id="Ellipse_199" data-name="Ellipse 199">
          <ellipse cx="323.17" cy="201.55" rx="51.59" ry="108.77" transform="translate(-55.38 159.62) rotate(-25.63)" style="fill: #fbfbfc"/>
        </g>
        <g id="Ellipse_200" data-name="Ellipse 200">
          <ellipse cx="323.17" cy="201.55" rx="48.14" ry="101.51" transform="translate(-55.38 159.62) rotate(-25.63)" style="fill: #fbfcfc"/>
        </g>
        <g id="Ellipse_201" data-name="Ellipse 201">
          <ellipse cx="323.17" cy="201.55" rx="44.71" ry="94.26" transform="translate(-55.38 159.62) rotate(-25.63)" style="fill: #fbfcfc"/>
        </g>
        <g id="Ellipse_202" data-name="Ellipse 202">
          <ellipse cx="323.17" cy="201.55" rx="41.27" ry="87.01" transform="translate(-55.38 159.62) rotate(-25.63)" style="fill: #fbfcfc"/>
        </g>
        <g id="Ellipse_203" data-name="Ellipse 203">
          <ellipse cx="323.17" cy="201.55" rx="37.82" ry="79.76" transform="translate(-55.38 159.62) rotate(-25.63)" style="fill: #fcfcfc"/>
        </g>
        <g id="Ellipse_204" data-name="Ellipse 204">
          <ellipse cx="323.17" cy="201.55" rx="34.39" ry="72.51" transform="translate(-55.38 159.62) rotate(-25.63)" style="fill: #fcfcfc"/>
        </g>
        <g id="Ellipse_205" data-name="Ellipse 205">
          <ellipse cx="323.17" cy="201.55" rx="30.95" ry="65.25" transform="translate(-55.38 159.62) rotate(-25.63)" style="fill: #fcfcfc"/>
        </g>
        <g id="Ellipse_206" data-name="Ellipse 206">
          <ellipse cx="323.17" cy="201.55" rx="27.51" ry="58.01" transform="translate(-55.38 159.62) rotate(-25.63)" style="fill: #fcfcfc"/>
        </g>
        <g id="Ellipse_207" data-name="Ellipse 207">
          <ellipse cx="323.17" cy="201.55" rx="24.07" ry="50.76" transform="translate(-55.38 159.62) rotate(-25.63)" style="fill: #fcfcfc"/>
        </g>
        <g id="Ellipse_208" data-name="Ellipse 208">
          <ellipse cx="323.17" cy="201.55" rx="20.63" ry="43.5" transform="translate(-55.38 159.62) rotate(-25.63)" style="fill: #fcfcfc"/>
        </g>
        <g id="Ellipse_209" data-name="Ellipse 209">
          <ellipse cx="323.17" cy="201.55" rx="17.2" ry="36.26" transform="translate(-55.38 159.62) rotate(-25.63)" style="fill: #fcfcfc"/>
        </g>
        <g id="Ellipse_210" data-name="Ellipse 210">
          <ellipse cx="323.17" cy="201.55" rx="13.75" ry="29.01" transform="translate(-55.38 159.62) rotate(-25.63)" style="fill: #fcfcfc"/>
        </g>
        <g id="Path_9512" data-name="Path 9512">
          <path d="M332.47,197.09c5.19,10.84,5.25,21.61.1,24.08s-13.52-4.32-18.71-15.16-5.24-21.6-.1-24.07S327.27,186.26,332.47,197.09Z" transform="translate(0 0)" style="fill: #fcfcfc"/>
        </g>
        <g id="Path_9513" data-name="Path 9513">
          <path d="M329.37,198.58c3.46,7.22,3.5,14.41.07,16s-9-2.85-12.48-10.1-3.5-14.41-.06-16.05S325.9,191.36,329.37,198.58Z" transform="translate(0 0)" style="fill: #fcfcfc"/>
        </g>
        <g id="Path_9514" data-name="Path 9514">
          <path d="M326.27,200.1c1.73,3.61,1.75,7.21,0,8s-4.51-1.44-6.24-5-1.75-7.2,0-8S324.49,196.46,326.27,200.1Z" transform="translate(0 0)" style="fill: #fcfcfc"/>
        </g>
      </g>
    </g>
    <g id="Path_9516" data-name="Path 9516">
      <path d="M424.53,407.38l-46.41,1.21h18.34v-.17h30.75l24.1.1V397.45S450.38,407.38,424.53,407.38Z" transform="translate(0 0)" style="fill: #fff"/>
    </g>
    <g id="Path_9517" data-name="Path 9517">
      <path d="M424.53,407.38l-46.41,1.21h18.34v-.17h30.75l24.1.1V397.45S450.38,407.38,424.53,407.38Z" transform="translate(0 0)" style="fill: #ccd9f2"/>
    </g>
    <g id="Path_9518" data-name="Path 9518">
      <path d="M239.72,412.19l-4.9.14s1.45,9.84-10,11.62A15.37,15.37,0,0,0,239.72,412.19Z" transform="translate(0 0)" style="fill: #fff"/>
    </g>
    <g id="Path_9519" data-name="Path 9519">
      <path d="M239.72,412.19l-4.9.14s1.45,9.84-10,11.62A15.37,15.37,0,0,0,239.72,412.19Z" transform="translate(0 0)" style="fill: #ccd9f2"/>
    </g>
    <g id="Path_9520" data-name="Path 9520">
      <path d="M451.29,408.52c-11.08,0-24.09-.06-24.09-.1H396.47v.17H240.16A15.41,15.41,0,0,1,224.79,424h226.5a15.38,15.38,0,0,0,15.37-15.38S459.55,408.54,451.29,408.52Z" transform="translate(0 0)" style="fill: #7189ad"/>
    </g>
    <g id="Path_9521" data-name="Path 9521">
      <path d="M406.46,193.94v-12.1s-.89,9.93-26.75,9.93H213.07c-7.94,0-14.37.61-18.5,2.7Z" transform="translate(0 0)" style="fill: #ccd9f2"/>
    </g>
    <g id="Path_9522" data-name="Path 9522">
      <path d="M389.74,427l.42.17.43-.17Z" transform="translate(0 0)" style="fill: none"/>
    </g>
    <g id="Path_9523" data-name="Path 9523">
      <path d="M356.59,427l.42.17.42-.17Z" transform="translate(0 0)" style="fill: none"/>
    </g>
    <g id="Path_9524" data-name="Path 9524">
      <path d="M423.32,427.23l.41-.17h-.83Z" transform="translate(0 0)" style="fill: none"/>
    </g>
    <g id="Path_9525" data-name="Path 9525">
      <path d="M289.8,386.42a2.23,2.23,0,0,1-2.21,2.22h0l-51.1-.08a2.23,2.23,0,0,1-2.21-2.23h0a2.2,2.2,0,0,1,2.21-2.2l51.12.07a2.21,2.21,0,0,1,2.2,2.21Z" transform="translate(0 0)" style="fill: #b3deff"/>
    </g>
    <g id="Path_9526" data-name="Path 9526">
      <path d="M270,396.87a2.23,2.23,0,0,1-2.22,2.22h0l-31.38,0a2.21,2.21,0,0,1-2.22-2.22h0a2.22,2.22,0,0,1,2.23-2.21l31.33,0a2.22,2.22,0,0,1,2.22,2.22h0Z" transform="translate(0 0)" style="fill: #b3deff"/>
    </g>
    <g id="Path_9527" data-name="Path 9527">
      <path d="M241.66,225h-6.47a1,1,0,1,1-.19-2h6.66a1,1,0,0,1,1.12.93,1,1,0,0,1-.93,1.12Z" transform="translate(0 0)" style="fill: #b3deff"/>
    </g>
    <g id="Path_9528" data-name="Path 9528">
      <path d="M414.43,225.24H402.07a1,1,0,1,1-.19-2.05h12.55a1,1,0,0,1,1.12.93,1,1,0,0,1-.93,1.12Zm-24.68,0H377.39a1,1,0,0,1-1.12-.93,1,1,0,0,1,.92-1.12h12.56a1,1,0,0,1,0,2Zm-24.68,0H352.71a1,1,0,0,1-1.12-.93,1,1,0,0,1,.92-1.12h12.56a1,1,0,0,1,.93,1.12,1,1,0,0,1-.93.93Zm-24.73,0H328a1,1,0,0,1-1.05-1,1,1,0,0,1,1-1.05h12.43a1,1,0,0,1,.93,1.12,1,1,0,0,1-.93.93Zm-24.68,0H303.3a1,1,0,0,1,0-2.05h12.36a1,1,0,0,1,.93,1.12,1,1,0,0,1-.93.93Zm-24.73,0H278.57a1,1,0,0,1,0-2.05h12.36a1,1,0,0,1,.93,1.12,1,1,0,0,1-.93.93Zm-24.68,0H253.89a1,1,0,0,1-1.12-.93,1,1,0,0,1,.92-1.12h12.56a1,1,0,0,1,.93,1.12,1,1,0,0,1-.93.93Z" transform="translate(0 0)" style="fill: #b3deff"/>
    </g>
    <g id="Path_9529" data-name="Path 9529">
      <path d="M433.25,225.27h-6.47a1,1,0,0,1-.19-2.05h6.67a1,1,0,0,1,0,2.05Z" transform="translate(0 0)" style="fill: #b3deff"/>
    </g>
    <g id="Path_9530" data-name="Path 9530">
      <path d="M241.5,331.05H235a1,1,0,0,1,0-2.05h6.47a1,1,0,0,1,0,2.05Z" transform="translate(0 0)" style="fill: #b3deff"/>
    </g>
    <g id="Path_9531" data-name="Path 9531">
      <path d="M414.28,331.29H401.92a1,1,0,0,1-.2-2h12.56a1,1,0,0,1,0,2Zm-24.68,0H377.23a1,1,0,0,1-1-1.05,1,1,0,0,1,1-1H389.6a1,1,0,0,1,1,1,1,1,0,0,1-1,1Zm-24.73,0H352.51a1,1,0,0,1,0-2h12.36a1,1,0,0,1,0,2Zm-24.68,0H327.83a1,1,0,0,1,0-2h12.36a1,1,0,1,1,.19,2Zm-24.73,0H303.1a1,1,0,1,1-.19-2h12.55a1,1,0,1,1,.19,2Zm-24.68,0H278.42a1,1,0,1,1-.19-2h12.55a1,1,0,1,1,.19,2Zm-24.68,0H253.74a1,1,0,0,1-1.05-1,1,1,0,0,1,1-1.05H266.1a1,1,0,1,1,.19,2h-.19Z" transform="translate(0 0)" style="fill: #b3deff"/>
    </g>
    <g id="Path_9532" data-name="Path 9532">
      <path d="M433.09,331.35h-6.47a1,1,0,0,1-.93-1.12,1,1,0,0,1,.93-.93h6.46a1,1,0,1,1,0,2.05Z" transform="translate(0 0)" style="fill: #b3deff"/>
    </g>
    <g id="Path_9533" data-name="Path 9533">
      <path d="M241.44,373.3H235a1,1,0,1,1-.19-2.05h6.67a1,1,0,0,1,.19,2.05h-.2Z" transform="translate(0 0)" style="fill: #b3deff"/>
    </g>
    <g id="Path_9534" data-name="Path 9534">
      <path d="M414.21,373.55H401.85a1,1,0,0,1-1-1,1,1,0,0,1,1-1h12.37a1,1,0,0,1,1,1,1,1,0,0,1-1,1Zm-24.72,0H377.12a1,1,0,1,1-.19-2.05h12.56a1,1,0,0,1,1.12.93,1,1,0,0,1-.93,1.12Zm-24.69,0H352.44a1,1,0,1,1-.19-2.05H364.8a1,1,0,0,1,.13,2h-.08Zm-24.68,0H327.76a1,1,0,0,1-1.12-.93,1,1,0,0,1,.93-1.12h12.55a1,1,0,0,1,0,2.05Zm-24.73,0H303a1,1,0,0,1-.93-1.12,1,1,0,0,1,.93-.93H315.4a1,1,0,0,1,.92,1.12,1,1,0,0,1-.92.93Zm-24.68,0H278.35a1,1,0,0,1-1-1,1,1,0,0,1,.75-1.21,1,1,0,0,1,.38,0h12.37a1,1,0,0,1,1,1,1,1,0,0,1-1,1.05h-.07Zm-24.72,0H253.62a1,1,0,0,1-.93-1.12,1,1,0,0,1,.93-.93H266a1,1,0,0,1,0,2.05Z" transform="translate(0 0)" style="fill: #b3deff"/>
    </g>
    <g id="Path_9535" data-name="Path 9535">
      <path d="M433,373.58h-6.47a1,1,0,0,1-.93-1.12,1,1,0,0,1,.93-.93H433a1,1,0,0,1,1.12.93,1,1,0,0,1-.93,1.12H433Z" transform="translate(0 0)" style="fill: #b3deff"/>
    </g>
    <g id="Path_9536" data-name="Path 9536">
      <path d="M335.72,287.6a4.37,4.37,0,0,1-4.36,4.37H239.47a4.37,4.37,0,0,1-4.38-4.37h0a4.36,4.36,0,0,1,4.34-4.38h91.91a4.36,4.36,0,0,1,4.38,4.34v0Z" transform="translate(0 0)" style="fill: #b3deff"/>
    </g>
    <g id="Path_9537" data-name="Path 9537">
      <path d="M335.62,350.59a4.38,4.38,0,0,1-4.35,4.39h-91.9a4.37,4.37,0,0,1-4.37-4.37h0a4.38,4.38,0,0,1,4.35-4.38h91.9a4.36,4.36,0,0,1,4.37,4.34v0Z" transform="translate(0 0)" style="fill: #b3deff"/>
    </g>
    <g id="Path_9538" data-name="Path 9538">
      <path d="M433.08,287.32a4.37,4.37,0,0,1-4.35,4.38l-21.54.06a4.36,4.36,0,0,1-4.37-4.34v0h0a4.36,4.36,0,0,1,4.34-4.38h0l21.52,0A4.37,4.37,0,0,1,433.08,287.32Z" transform="translate(0 0)" style="fill: #b3deff"/>
    </g>
    <g id="Path_9539" data-name="Path 9539">
      <path d="M354.63,306.19a4.38,4.38,0,0,1-4.36,4.39H239.52a4.36,4.36,0,0,1-4.38-4.34v0h0a4.37,4.37,0,0,1,4.36-4.37H350.25a4.36,4.36,0,0,1,4.38,4.33Z" transform="translate(0 0)" style="fill: #b3deff"/>
    </g>
    <g id="Path_9540" data-name="Path 9540">
      <path d="M433.13,306a4.38,4.38,0,0,1-4.36,4.38l-21.53.06a4.36,4.36,0,0,1-4.37-4.34h0a4.37,4.37,0,0,1,4.34-4.39h0l21.53-.06a4.39,4.39,0,0,1,4.38,4.37Z" transform="translate(0 0)" style="fill: #b3deff"/>
    </g>
    <g id="Path_9541" data-name="Path 9541">
      <path d="M335.78,248.28a4.36,4.36,0,0,1-4.34,4.38H239.53a4.36,4.36,0,0,1-4.38-4.34v0h0a4.35,4.35,0,0,1,4.34-4.37H331.4a4.35,4.35,0,0,1,4.37,4.33v0Z" transform="translate(0 0)" style="fill: #b3deff"/>
    </g>
    <g id="Path_9542" data-name="Path 9542">
      <path d="M433.14,248a4.39,4.39,0,0,1-4.36,4.39l-21.53.06a4.37,4.37,0,0,1-4.37-4.36h0a4.36,4.36,0,0,1,4.34-4.38h0l21.53-.06A4.37,4.37,0,0,1,433.14,248Z" transform="translate(0 0)" style="fill: #b3deff"/>
    </g>
    <g id="Path_9543" data-name="Path 9543">
      <path d="M354.69,266.89a4.36,4.36,0,0,1-4.34,4.38h0l-110.75.06A4.38,4.38,0,0,1,235.2,267h0a4.35,4.35,0,0,1,4.34-4.37h0l110.75-.06A4.38,4.38,0,0,1,354.69,266.89Z" transform="translate(0 0)" style="fill: #b3deff"/>
    </g>
    <g id="Path_9544" data-name="Path 9544">
      <path d="M433.19,266.68a4.38,4.38,0,0,1-4.36,4.37l-21.53.06a4.36,4.36,0,0,1-4.38-4.34v0h0a4.38,4.38,0,0,1,4.36-4.38l21.52-.05a4.37,4.37,0,0,1,4.39,4.34v0Z" transform="translate(0 0)" style="fill: #b3deff"/>
    </g>
    <g id="Path_9545" data-name="Path 9545">
      <path d="M271.24,187.19a4.38,4.38,0,0,1-4.36,4.38H175a4.38,4.38,0,0,1-4.37-4.36h0a4.36,4.36,0,0,1,4.34-4.37h91.91a4.36,4.36,0,0,1,4.38,4.33v0Z" transform="translate(0 0)" style="fill: #b3deff"/>
    </g>
    <g id="Path_9546" data-name="Path 9546">
      <path d="M368.58,186.94a4.37,4.37,0,0,1-4.36,4.37l-21.53.06a4.37,4.37,0,0,1-4.37-4.36h0a4.36,4.36,0,0,1,4.35-4.37l21.54-.06A4.36,4.36,0,0,1,368.58,186.94Z" transform="translate(0 0)" style="fill: #b3deff"/>
    </g>
    <g id="Path_9547" data-name="Path 9547">
      <path d="M181.83,201.5H175a4.37,4.37,0,1,0-.13,8.73H179A20.47,20.47,0,0,1,181.83,201.5Z" transform="translate(0 0)" style="fill: #b3deff"/>
    </g>
    <g id="Path_9548" data-name="Path 9548">
      <path d="M271.28,147.89a4.37,4.37,0,0,1-4.36,4.38H175a4.37,4.37,0,0,1-4.37-4.36h0a4.35,4.35,0,0,1,4.35-4.37h91.9a4.37,4.37,0,0,1,4.38,4.35Z" transform="translate(0 0)" style="fill: #b3deff"/>
    </g>
    <g id="Path_9549" data-name="Path 9549">
      <path d="M368.64,147.64a4.37,4.37,0,0,1-4.35,4.38h0l-21.53.06a4.37,4.37,0,0,1-4.37-4.36h0a4.37,4.37,0,0,1,4.35-4.38l21.53-.06a4.38,4.38,0,0,1,4.38,4.36Z" transform="translate(0 0)" style="fill: #b3deff"/>
    </g>
    <g id="Path_9550" data-name="Path 9550">
      <path d="M290.18,166.51a4.36,4.36,0,0,1-4.34,4.37h0l-110.76.06a4.37,4.37,0,0,1-4.37-4.36h0a4.36,4.36,0,0,1,4.35-4.37l110.75-.06a4.38,4.38,0,0,1,4.38,4.36Z" transform="translate(0 0)" style="fill: #b3deff"/>
    </g>
    <g id="Path_9551" data-name="Path 9551">
      <path d="M368.68,166.31a4.38,4.38,0,0,1-4.35,4.37l-21.53.06a4.37,4.37,0,0,1-4.38-4.35h0a4.38,4.38,0,0,1,4.36-4.38l21.53-.05a4.35,4.35,0,0,1,4.37,4.36Z" transform="translate(0 0)" style="fill: #b3deff"/>
    </g>
    <g id="Path_9552" data-name="Path 9552">
      <path d="M179,264.69h-4a4.37,4.37,0,0,0,0,8.74h4Z" transform="translate(0 0)" style="fill: #b3deff"/>
    </g>
    <g id="Path_9553" data-name="Path 9553">
      <path d="M179,283.35h-4a4.37,4.37,0,1,0-.14,8.73H179Z" transform="translate(0 0)" style="fill: #b3deff"/>
    </g>
    <g id="Path_9554" data-name="Path 9554">
      <path d="M179,225.4h-4a4.37,4.37,0,0,0-.13,8.73H179Z" transform="translate(0 0)" style="fill: #b3deff"/>
    </g>
    <g id="Path_9555" data-name="Path 9555">
      <path d="M179,244.07h-3.93a4.37,4.37,0,0,0-.13,8.73H179Z" transform="translate(0 0)" style="fill: #b3deff"/>
    </g>
    <g id="Path_9556" data-name="Path 9556">
      <path d="M179,347.52h-4a4.37,4.37,0,0,0,0,8.74h4Z" transform="translate(0 0)" style="fill: #b3deff"/>
    </g>
    <g id="Path_9557" data-name="Path 9557">
      <path d="M179,308.19h-4a4.37,4.37,0,0,0,0,8.73h4Z" transform="translate(0 0)" style="fill: #b3deff"/>
    </g>
    <g id="Path_9558" data-name="Path 9558">
      <path d="M179,326.85h-3.93a4.37,4.37,0,0,0-.42,8.72H179Z" transform="translate(0 0)" style="fill: #b3deff"/>
    </g>
    <g id="Path_9559" data-name="Path 9559">
      <path d="M472.23,312c.24,2.65-3.22,4.06-6.1,4.25s-9.38,1.51-9.57-.53c-.24-2.64,3.45-2.69,6.75-7.53,1.12-1.64,4.43-4.64,6.52-3.13C471,305.88,472.14,311.09,472.23,312Z" transform="translate(0 0)" style="fill: #178bff"/>
    </g>
    <g id="Path_9560" data-name="Path 9560">
      <path d="M460.28,315.9c.26,0,1.61-.22,1.65-.23a13.09,13.09,0,0,0,2.85-.43c1.3-.37,3.13-.65,4.42-1s2-1.52,3-2.64a1.7,1.7,0,0,0,.08.45c.24,2.65-3.23,4.06-6.1,4.25s-9.38,1.51-9.57-.53v-.08A7.78,7.78,0,0,0,460.28,315.9Z" transform="translate(0 0)" style="fill: #fff"/>
    </g>
    <g id="Group_7388" data-name="Group 7388">
      <g id="Path_9561" data-name="Path 9561">
        <path d="M428,208.71l-32.33-34.16.11-.21a15.31,15.31,0,0,0,1.31-10.83,40.51,40.51,0,1,0-25.22,17.67c.84-.19,1.66-.41,2.46-.65l.59.35A15.47,15.47,0,0,0,386,182.13l32.12,34Zm-57.28-32.62a35.33,35.33,0,1,1,26.7-42.22h0A35.33,35.33,0,0,1,370.73,176.09Z" transform="translate(0 0)" style="fill: #83a1b7"/>
      </g>
    </g>
    <g id="Path_9562" data-name="Path 9562">
      <path d="M432.59,201.48s18.48.78,24.5-.74c4-1,4.62-3.76,4.39-6.1s-2.23-2.5-5.19-2.35l-20,3.45c-.67,0-1.3,0-1.9,0A17.2,17.2,0,0,1,432,195l-16.18-9.21c-2.37-1.84-7.75-4-7.71-3.35a37.42,37.42,0,0,0,5,4.92l15.63,12.7A8.33,8.33,0,0,0,432.59,201.48Z" transform="translate(0 0)" style="fill: #fdc8a8"/>
    </g>
    <g id="Path_9563" data-name="Path 9563">
      <path d="M452,200.84l3.34,3.48c5.71,1.8,1.69,4.56,1.56,4.52-2.26-.52-9,2.44-9.15,2.61l-5.33-7.74s4.45-3.05,6-4.09l3.22-3.06C453.21,195.52,450,199,452,200.84Z" transform="translate(0 0)" style="fill: #2677c8"/>
    </g>
    <g id="Path_9564" data-name="Path 9564">
      <path d="M467,275c.37,3-.34,5.42-2.49,5.59l.47-.19c-2.14.17-4.18-2.12-4.54-5.11,0,0-2.22-11.06-4.32-41.85l15.22-1.09c2.14-.17-3.4,8.46-3,11.41Z" transform="translate(0 0)" style="fill: #fdc8a8"/>
    </g>
    <g id="Path_9565" data-name="Path 9565">
      <path d="M517.85,292c1.91,1.9.12,5.17-2,7.14s-6.25,7.17-7.7,5.71c-1.9-1.9.95-4.27.37-10.1-.2-2,.44-6.4,3-6.59C513,288.05,517.2,291.29,517.85,292Z" transform="translate(0 0)" style="fill: #178bff"/>
    </g>
    <g id="Path_9566" data-name="Path 9566">
      <path d="M511.15,302.57c.18-.2,1.1-1.2,1.12-1.24a12.88,12.88,0,0,0,1.9-2.14c.75-1.12,2-2.5,2.72-3.62s.61-2.48.6-3.94l.34.32c1.9,1.9.11,5.17-2,7.14s-6.25,7.17-7.69,5.71l-.06-.06A7.84,7.84,0,0,0,511.15,302.57Z" transform="translate(0 0)" style="fill: #fff"/>
    </g>
    <g id="Path_9567" data-name="Path 9567">
      <path d="M465.8,308.09a5.12,5.12,0,0,0,1.35.14,2.87,2.87,0,0,0,2.2-1l-.48-23.15-2-8.34c-.14-3,.14-5.94-2-6.08l-.95-.06c-2.17-.13-3.8,2.19-3.66,5.18l5.28,30.65a9.56,9.56,0,0,0,.3,2.61Z" transform="translate(0 0)" style="fill: #fdc8a8"/>
    </g>
    <g id="Path_9568" data-name="Path 9568">
      <path d="M478.32,272.48c.53,3,1.23,5.37,3.35,5l.95-.15c2.11-.37,3.6-2.86,3.06-5.88l-4.62-30.71c-.52-3-1.51-12.29-3.63-11.94l-7.41,3.8c-2.12.36-8,12.12,0,11.51Z" transform="translate(0 0)" style="fill: #fdc8a8"/>
    </g>
    <g id="Path_9569" data-name="Path 9569">
      <path d="M509.83,292.74a7.7,7.7,0,0,0,2.31-.54c.66-.3,1.73-1,1.26-1.9a8,8,0,0,0-.61-.95l-19.43-13.27s-12.7-4-13.55-3.58l-.58.79c-1.29,1.72.58,4.16,3.1,5.81l27.38,13.58Z" transform="translate(0 0)" style="fill: #fdc8a8"/>
    </g>
    <g id="Path_9570" data-name="Path 9570">
      <path d="M513,289.58c-1.9,5.75-31-12.72-31.54-14.38-2.5-7.3-4.26-11.82,2.94-12.64l-3.29-21.81c-.53-3-1.52-12.29-3.64-11.94l-7.41,3.8c-2.12.36-8,12.12,0,11.51l8.27,28.31a19.72,19.72,0,0,0,.5,2.28c.14,1.46,1.64,3.11,3.5,4.32l27.38,13.57.11.09a8,8,0,0,0,2.32-.53c.66-.3,1.73-1,1.26-1.9a5.9,5.9,0,0,0-.4-.69Z" transform="translate(0 0)" style="fill: #fdc8a8"/>
    </g>
    <g id="Path_9571" data-name="Path 9571">
      <path d="M465.1,307.87a5.13,5.13,0,0,0,2,.36h.34a2.53,2.53,0,0,0-.28-1.48c-1.54-3-3.31-15.94-5.21-34.11-.5-4.76.24-7.18,4.52-7.82,6.27-.95,11.61-29.12,13.5-30.44-.6-3.23-1.33-5.7-2.58-5.5l-6.94,3.6-14.37,1c1.7,24.87,3.46,36.85,4.08,40.55v.83l4.44,30.77a5.77,5.77,0,0,0,.45,2.2Z" transform="translate(0 0)" style="fill: #fdc8a8"/>
    </g>
    <g id="Path_9572" data-name="Path 9572">
      <path d="M454.66,263.08c-.5,4.4,34.5-1.27,32.9-5.28-7-17.6-11-56-15.09-67.64-.76-2.18-4.14-2.41-8-3.75-2.27-.78-6.06.09-8.4,1.12-4.71,2.11-7.76,2.2-7.76,6.59C448.3,216.64,457.73,236.41,454.66,263.08Z" transform="translate(0 0)" style="fill: #178bff"/>
    </g>
    <g id="Group_7389" data-name="Group 7389">
      <g id="Path_9573" data-name="Path 9573">
        <path d="M487.56,257.8c-7-17.6-11-56-15.09-67.64-.76-2.18-4.14-2.41-8-3.75-1.62-.55-4-.26-6.08.3,0,.3.07.61.08.95,2.75,0,3.8,3.06,7.31,3.06,1,0,5.71.62,6.79,2.63,1.4,2.54,1.6,7.17,2.37,11.94C478,224.54,483.22,253,482,255.57c-3.74,7.93-17.88,5.85-25.93,8.77C462.6,266.05,489,261.29,487.56,257.8Z" transform="translate(0 0)" style="fill: #b5cee5"/>
      </g>
    </g>
    <g id="Path_9574" data-name="Path 9574">
      <path d="M464.18,192c.43,1.33-.95,2.95-3,3.62h0c-2.08.66-4.12.1-4.55-1.25l-3.25-10.11c-.43-1.33,1-2.95,3-3.61h0c2.09-.66,4.12-.11,4.56,1.23Z" transform="translate(0 0)" style="fill: #fdc8a8"/>
    </g>
    <g id="Path_9575" data-name="Path 9575">
      <path d="M463.42,189.64l-2.48-7.83c-.44-1.34-2.47-1.9-4.55-1.23s-3.44,2.29-3,3.62l3.38,10.53A7.53,7.53,0,0,0,463.42,189.64Z" transform="translate(0 0)" style="fill: #e5a67c"/>
    </g>
    <g id="Path_9576" data-name="Path 9576">
      <path d="M458.6,206.56c-15.83.1-15.1-38.17-12.15-40.34,1.2-2.24,6.13-9.28,15.6-3.93,4.58,2.59,15.59,26.2,5.7,30.6C458.6,197,464.2,206.52,458.6,206.56Z" transform="translate(0 0)" style="fill: #002169"/>
    </g>
    <g id="Path_9577" data-name="Path 9577">
      <path d="M462.06,162.29c-4.61-2.6-8.14-2.26-10.69-.95,8.61-1.59,15.22,7.12,16.34,16.83a17.78,17.78,0,0,1-4.2,14,19.72,19.72,0,0,0-3.23,4.32c.29-.12-.13,4-.21,4.8a7.48,7.48,0,0,1-2.44,5.23,7.46,7.46,0,0,0,.95.06c5.58,0,0-9.51,9.18-13.66C477.62,188.5,466.65,164.91,462.06,162.29Z" transform="translate(0 0)" style="fill: #001438"/>
    </g>
    <g id="Path_9578" data-name="Path 9578">
      <path d="M488.08,314.58a1.36,1.36,0,0,1-1.36,1.38h-34a1.37,1.37,0,0,1-1.38-1.36v0h0a1.38,1.38,0,0,1,1.38-1.38h33.94a1.38,1.38,0,0,1,1.38,1.38h0Z" transform="translate(0 0)" style="fill: #23575d"/>
    </g>
    <g id="Path_9580" data-name="Path 9580">
      <path d="M360.74,437.87c0,3.36,2.08.95,4.46,1.52l1.76,4.15c2.39.53,3.8-5.58,4.52-8.66l14.19-31.46c.75-3.08-3.16-8.45-5.55-9l-4.46,2.2c-2.4-.55-8.92.64-9.68,3.73Z" transform="translate(0 0)" style="fill: #3198ff"/>
    </g>
    <g id="Path_9581" data-name="Path 9581">
      <path d="M362.31,482.79l3.58-.06,0-5.58-3.58.07Z" transform="translate(0 0)" style="fill: #fdc8a8"/>
    </g>
    <g id="Path_9582" data-name="Path 9582">
      <path d="M365.91,477.15v1.9a1.56,1.56,0,0,0-.68,0c-1,.18-1.75.34-2,1.3a2.89,2.89,0,0,0,.34,1.68c.1.25.18.49.26.74h-1.5v-5.58Z" transform="translate(0 0)" style="fill: #fdc8a8"/>
    </g>
    <g id="Path_9583" data-name="Path 9583">
      <path d="M349.76,482.14c-.05-.06,0-.22,0-.66,0-.62,4.38-1.42,7.06-1.84a5.11,5.11,0,0,0,2-.7c.36-.32.14-.3.37-.19.73.34,1.36,0,1.95,0l-.31,4.65c-3.63-.12-9.21-.36-10.4-.4-.73,0-.7-.33-.69-.7a.49.49,0,0,1,.05-.16Z" transform="translate(0 0)" style="fill: #002169"/>
    </g>
    <g id="Path_9584" data-name="Path 9584">
      <path d="M349.76,482.14c-.05-.06,0-.22,0-.66,0-.62,4.38-1.42,7.06-1.84a5.11,5.11,0,0,0,2-.7c.36-.32.14-.3.37-.19.73.34,1.22,0,1.95,0l-.31,4.65c-3.63-.12-9.21-.36-10.4-.4-.73,0-.7-.33-.69-.7a.49.49,0,0,1,.05-.16Z" transform="translate(0 0)" style="fill: #001438"/>
    </g>
    <g id="Path_9585" data-name="Path 9585">
      <path d="M360.86,482.57l-.06.86c-3.63-.12-9.21-.36-10.4-.41-.73,0-.7-.32-.69-.69v-.15Z" transform="translate(0 0)" style="fill: #002169"/>
    </g>
    <g id="Path_9586" data-name="Path 9586">
      <path d="M360.86,482.57l-.06.82c-3.63-.12-9.21-.36-10.4-.41-.73,0-.7-.32-.69-.69v-.1Z" transform="translate(0 0)" style="fill: #001438"/>
    </g>
    <g id="Path_9587" data-name="Path 9587">
      <path d="M351.79,482.37c0,.38,0,.67.69.7,1.75.06,13,.54,13.58.46a.8.8,0,0,0,.76-.65h0a.69.69,0,0,0-.69-.69l-13.59-.48a.72.72,0,0,0-.75.65Z" transform="translate(0 0)" style="fill: #002169"/>
    </g>
    <g id="Path_9588" data-name="Path 9588">
      <path d="M366.83,482.62c0,.24-4.64,0-14.84-.36-.24,0-.2,0-.16-.71s4.39-1.42,7.07-1.83a5.62,5.62,0,0,0,2-.71c.35-.32.13-.3.37-.19,4.52,2.05,4.32-.38,5.05-.08S366.8,482.2,366.83,482.62Z" transform="translate(0 0)" style="fill: #002169"/>
    </g>
    <g id="Path_9589" data-name="Path 9589">
      <path d="M359.13,480.86a.17.17,0,0,0,.17,0h0c.06,0,.1-.05.1-.12h0l-.52-1.14a.14.14,0,0,0-.17,0h0a.11.11,0,0,0-.1.12v0Z" transform="translate(0 0)" style="fill: #002169"/>
    </g>
    <g id="Path_9590" data-name="Path 9590">
      <path d="M358.05,480.86h.15c.08,0,.14-.07.13-.11l-.3-.95a.12.12,0,0,0-.16,0h0a.11.11,0,0,0-.12.11h0Z" transform="translate(0 0)" style="fill: #002169"/>
    </g>
    <g id="Path_9591" data-name="Path 9591">
      <path d="M357.14,480.67h.15a.14.14,0,0,0,.13-.07l-.17-.6h-.15c-.07,0-.13.05-.12.08Z" transform="translate(0 0)" style="fill: #002169"/>
    </g>
    <g id="Path_9592" data-name="Path 9592">
      <path d="M365.31,433.43l1.12-.08c2.47-.19,3.89,1.4,3.88,4.91l-3.56,37.14-.38,3.11-4.78-.5-.95-38.83C360.64,435.67,362.84,433.61,365.31,433.43Z" transform="translate(0 0)" style="fill: #3198ff"/>
    </g>
    <g id="Path_9593" data-name="Path 9593">
      <path d="M377.67,404.45l2.65,11.19-8.84,19.25c-.31,1.26-.72,3-1.25,4.62-.12-1.5,2.32-12.47,5.15-21.15C377.82,410.89,376.48,405.32,377.67,404.45Z" transform="translate(0 0)" style="fill: #178bff"/>
    </g>
    <g id="Path_9594" data-name="Path 9594">
      <path d="M379.46,439.2c.59,3.14,5-.38,7.6-.84l1.17-.21c2.58-.46,3.65-3.3,3.06-6.44l-4.23-32.43c-.59-3.14-2.05-8.68-4.64-8.23l-3.44,3.8c-2.59.47-9.51,6.15-8.92,9.3Z" transform="translate(0 0)" style="fill: #178bff"/>
    </g>
    <g id="Path_9595" data-name="Path 9595">
      <path d="M393.61,480l3.56-.49-.69-5.52-3.56.48Z" transform="translate(0 0)" style="fill: #fdc8a8"/>
    </g>
    <g id="Path_9596" data-name="Path 9596">
      <path d="M396.48,474l.23,1.9a1.47,1.47,0,0,0-.66,0c-.95.29-1.7.54-1.9,1.54a3,3,0,0,0,.57,1.63c.11.22.24.45.34.69l-1.48.2-.7-5.53Z" transform="translate(0 0)" style="fill: #fdc8a8"/>
    </g>
    <g id="Path_9597" data-name="Path 9597">
      <path d="M385.51,483.22a2,2,0,0,1-.14-.65c-.07-.61,3.48-1.75,5.7-2.4a3.8,3.8,0,0,0,1.55-.85c.25-.34.07-.3.28-.22.66.27,1.13-.13,1.64-.16l.43,4.63c-3.07.17-7.8.39-8.8.45-.63,0-.64-.27-.69-.64A.9.9,0,0,1,385.51,483.22Z" transform="translate(0 0)" style="fill: #002169"/>
    </g>
    <g id="Path_9598" data-name="Path 9598">
      <path d="M385.51,483.22a2,2,0,0,1-.14-.65c-.07-.61,3.48-1.75,5.7-2.4a3.8,3.8,0,0,0,1.55-.85c.25-.34.07-.3.28-.22.66.27,1-.13,1.64-.16l.43,4.63c-3.07.17-7.8.39-8.8.45-.63,0-.64-.27-.69-.64A.9.9,0,0,1,385.51,483.22Z" transform="translate(0 0)" style="fill: #001438"/>
    </g>
    <g id="Path_9599" data-name="Path 9599">
      <path d="M394.88,482.72l.08.85c-3.08.17-7.8.39-8.8.45-.62,0-.64-.27-.69-.64v-.14Z" transform="translate(0 0)" style="fill: #002169"/>
    </g>
    <g id="Path_9600" data-name="Path 9600">
      <path d="M394.88,482.76l.07.81c-3.07.17-7.8.39-8.8.45-.62,0-.64-.27-.69-.64v-.1Z" transform="translate(0 0)" style="fill: #001438"/>
    </g>
    <g id="Path_9601" data-name="Path 9601">
      <path d="M388.41,483.22c0,.37.06.67.59.64,1.27-.06,9.4-.38,9.8-.5a.66.66,0,0,0,.45-.7h0a.65.65,0,0,0-.59-.63l-9.8.5C388.57,482.53,388.37,482.85,388.41,483.22Z" transform="translate(0 0)" style="fill: #002169"/>
    </g>
    <g id="Path_9602" data-name="Path 9602">
      <path d="M399.22,482.39c0,.24-3.32.34-10.68.7-.18,0-.14,0-.22-.69s2.95-1.71,4.82-2.32a3,3,0,0,0,1.3-.84c.21-.34.05-.3.24-.22,3.52,1.72,3.05-.69,3.6-.43S399.14,482,399.22,482.39Z" transform="translate(0 0)" style="fill: #002169"/>
    </g>
    <g id="Path_9603" data-name="Path 9603">
      <path d="M394.35,480.75a.09.09,0,0,0,.11,0l0,0h0a.12.12,0,0,0,0-.14l-.52-1.1a.09.09,0,0,0-.13,0h0a.11.11,0,0,0-.05.14Z" transform="translate(0 0)" style="fill: #002169"/>
    </g>
    <g id="Path_9604" data-name="Path 9604">
      <path d="M393.3,481a.11.11,0,0,0,.11,0h0s.09-.08.07-.12l-.34-.95a.09.09,0,0,0-.12,0h0s-.08.08-.06.12Z" transform="translate(0 0)" style="fill: #002169"/>
    </g>
    <g id="Path_9605" data-name="Path 9605">
      <path d="M392.4,481.08h.1c.05,0,.1-.05.08-.07l-.19-.58h-.11a.09.09,0,0,0-.09.07Z" transform="translate(0 0)" style="fill: #002169"/>
    </g>
    <g id="Path_9606" data-name="Path 9606">
      <path d="M393.93,479.65a.09.09,0,0,0,.1-.07v0h0a.16.16,0,0,0-.13-.11l-1.46-.13a.07.07,0,0,0-.1,0v0h0a.13.13,0,0,0,.11.12Z" transform="translate(0 0)" style="fill: #002169"/>
    </g>
    <g id="Path_9607" data-name="Path 9607">
      <path d="M393.06,480.09a.08.08,0,0,0,.09-.08h0a.14.14,0,0,0-.1-.12l-1.27-.15a.09.09,0,0,0-.09.08v0h0a.11.11,0,0,0,.1.1Z" transform="translate(0 0)" style="fill: #002169"/>
    </g>
    <g id="Path_9608" data-name="Path 9608">
      <path d="M392.3,480.56a.09.09,0,0,0,.1-.07h0a.13.13,0,0,0-.08-.12L391.1,480s-.1,0-.1.08h0a.1.1,0,0,0,.07.11Z" transform="translate(0 0)" style="fill: #002169"/>
    </g>
    <g id="Path_9609" data-name="Path 9609">
      <path d="M385.37,431.87l1.14-.33c2.53-.75,4.36.47,5.16,3.89l4.89,37,.32,3.11-5.13.63-12.3-36.93C378.65,435.79,382.85,432.62,385.37,431.87Z" transform="translate(0 0)" style="fill: #178bff"/>
    </g>
    <g id="Path_9610" data-name="Path 9610">
      <path d="M370.61,406.32c.28.07,8.29,23.53,8.83,25.79.89,3.73,11.66,38.05,13.6,43.85l-1.28.16-11.48-34.91a13.5,13.5,0,0,1-.83-2L372.33,413Z" transform="translate(0 0)" style="fill: #178bff"/>
    </g>
    <g id="Path_9611" data-name="Path 9611">
      <path d="M360.64,439.19a7.06,7.06,0,0,1,.11-1.3h0l5.24-37.5c.75-3.09,7.28-4.28,9.68-3.74l4.46-2.2a3.09,3.09,0,0,1,1.9,1.9,10.61,10.61,0,0,1,3.55-.9h1.19c1.82,0,4.76,3.93,6,5.92l-.14,1s-8.7.75-14.12-1.54c0,0-.22.77-5.61,2.43-3.65,1.12-8.49,31.2-8.88,34.18-1.46,11.36-.66,30.75-.25,40.59l-2.16-.05Z" transform="translate(0 0)" style="fill: #3198ff"/>
    </g>
    <g id="Path_9612" data-name="Path 9612">
      <path d="M317.18,366.06,344,359.74a8.1,8.1,0,0,0,3.1,5.16c1.07,4.18-6.75,5.4-9.51,5.33l-19.88,3c-1,0-1.78-3.8-1.5-6C316.36,365.65,317.18,366.06,317.18,366.06Z" transform="translate(0 0)" style="fill: #002169"/>
    </g>
    <g id="Path_9613" data-name="Path 9613">
      <path d="M348.34,350.9l10.57-.59c3.15-.4,11.55-3.08,14.26-1.22l-5.5,16.35c-2.1-3.95-9.62-5.15-12.57-4.76l-11.15.08a23.55,23.55,0,0,1-2.52.05l-.95-9.72a76.4,76.4,0,0,0,7.86-.2Z" transform="translate(0 0)" style="fill: #002169"/>
    </g>
    <g id="Path_9614" data-name="Path 9614">
      <path d="M358.65,351.46c-6.44.34-13.78,1.55-15.62.58S336,344,336,343.87l7.27,7.24,15.69-.8c.85-.19,3.8-.75,5.65-1.15,6.66-1.4,8.32-.21,8.32-.21C374.11,350.48,360.8,351.32,358.65,351.46Z" transform="translate(0 0)" style="fill: #1e1e1e"/>
    </g>
    <g id="Path_9615" data-name="Path 9615">
      <path d="M372.64,348.7l-.94,14.91,7.75,12.61,6.87-12.61V348.26Z" transform="translate(0 0)" style="fill: #f2ebdd"/>
    </g>
    <g id="Path_9616" data-name="Path 9616">
      <path d="M385.7,348h0a19.53,19.53,0,0,1,1.56,7.42c0,1.7-7.81,20.8-7.81,20.8-1.05.2-2.27-9-3.06-9.51-1.65-1-.64-5.76-2-7.13-2.85-2.8-1.17-7.89-2-11.6h0c-7.68.47-8,1.69-9,2.92a6.18,6.18,0,0,0-1.51,4.76l2.85,40.81c.17,2.22.47,8.29.47,8.29.4.85,13.06-1.2,15.48-3.5,0,0,1.44,3.5,13,4.75,1.48.16.8-7.68,1-9.06l.15-40.9C393.5,351.82,390,348,385.7,348Z" transform="translate(0 0)" style="fill: #e5e5e5"/>
    </g>
    <g id="Path_9617" data-name="Path 9617">
      <path d="M364,350.31c1-1,1-1.66,8.41-2.31a9.89,9.89,0,0,1,.18,1.33c-.64.46-2,.07-2.85.18-2.63.33-5.44.07-5.27,3.2.23,4.22-.07,13.7.33,17.88.8,8.21,2.21,24.66,2.27,26.46.05,1.6.08,3.72,1.45,4.8,2.45,1.9,10.62-.5,11.58-.1-3.4,2.12-14.52,3.86-14.9,3.06,0,0-.29-6.07-.46-8.28l-2.85-40.82C362,352.91,362.62,351.72,364,350.31Z" transform="translate(0 0)" style="fill: #e5e5e5"/>
    </g>
    <g id="Path_9618" data-name="Path 9618">
      <path d="M380.72,401.21v0Z" transform="translate(0 0)" style="fill: #fdc8a8"/>
    </g>
    <g id="Path_9619" data-name="Path 9619">
      <path d="M385.37,349.5c-.16,1.8-2.44,2.55-5.4,2.27l-.3.5c-3-.27-5.24-1.9-5.1-3.74L376.19,335c.15-1.8,2.2-3.07,5.17-2.85h0c3,.26,4.29,1.9,4.13,3.67Z" transform="translate(0 0)" style="fill: #fdc8a8"/>
    </g>
    <g id="Path_9620" data-name="Path 9620">
      <path d="M369.42,349.12a3.78,3.78,0,0,1,3.18-2c1.43,5.92,6.92,28.36,7.14,28.23,0,0-8.56-22.09-7.17-27.79,0-.16,16.09.35,16.59,1.16,0,0,1.69,2.16,1.22,2.85a9.71,9.71,0,0,1-2.05,1.06s1.6,2,1.41,2.46c-.69,1.77-5,8-9.51,21.23.12,6.59.44,23.18.51,24.92-.13-1.9-1.69-24.5-1.73-24.66-2.92-11.77-8.88-18.62-9.67-20.62-.2-.5,1.41-2.46,1.41-2.46a9.75,9.75,0,0,1-2.06-1.05C368.25,351.72,369.42,349.12,369.42,349.12Z" transform="translate(0 0)" style="fill: #e5e5e5"/>
    </g>
    <g id="Path_9621" data-name="Path 9621">
      <path d="M381.56,387.9a.63.63,0,0,1-.58.68.64.64,0,0,1-.67-.58.63.63,0,0,1,.58-.68h0a.6.6,0,0,1,.63.57Z" transform="translate(0 0)" style="fill: #1e1e1e"/>
    </g>
    <g id="Path_9622" data-name="Path 9622">
      <path d="M378.3,379.49a.63.63,0,1,1-1.25.1.61.61,0,0,1,.58-.67h.05A.6.6,0,0,1,378.3,379.49Z" transform="translate(0 0)" style="fill: #1e1e1e"/>
    </g>
    <g id="Path_9623" data-name="Path 9623">
      <path d="M379.52,395.35a.63.63,0,1,1-.63-.63h0A.63.63,0,0,1,379.52,395.35Z" transform="translate(0 0)" style="fill: #1e1e1e"/>
    </g>
    <g id="Path_9624" data-name="Path 9624">
      <path d="M370,337.73c0,3,2,6.29,3.8,6.66,2,.45,10.14-1.48,11.09-3.24,2.61-4.88,4.37-18.07-5.33-18.5-2.59-.13-7-1.64-8.43,3.11C370.26,328.8,370,334.66,370,337.73Z" transform="translate(0 0)" style="fill: #fdc8a8"/>
    </g>
    <g id="Path_9625" data-name="Path 9625">
      <path d="M376.22,319.79c-.7-.84.4,3.7-1.6,2.32-.9-.63-3.06,0-4.2,2l9,2.36h1.69c1.34.07-2.75,10.08-2.58,11.55,10.06,13.6,9.74-7.61,10.46-8.1C388.71,321.94,378.62,322.67,376.22,319.79Z" transform="translate(0 0)" style="fill: #002169"/>
    </g>
    <g id="Path_9626" data-name="Path 9626">
      <path d="M370.83,320c-.31,1,.57,2.37,1.9,3s3.8-.63,4.13-1.63-1.28-.15-2.67-1.5C373.09,318.79,371.16,319,370.83,320Z" transform="translate(0 0)" style="fill: #002169"/>
    </g>
    <g id="Path_9627" data-name="Path 9627">
      <path d="M364.6,324.64c-.25,1.47.15,3.12,2.5,4.08,4.24,1.71,2.26-1.14,8.14.37.5.13-.86,3.33,1.19,2.76,5.1-1.38,2.11,6.23,2.11,6.23.85,0,3.22-8.28,3.34-8.93.56-3.17-2.86-6.75-7.61-8S365.17,321.47,364.6,324.64Z" transform="translate(0 0)" style="fill: #002169"/>
    </g>
    <g id="Path_9628" data-name="Path 9628">
      <path d="M283.22,340.35c-.34.85,1.44,2.37,2.29,2.71s16.29,9.2,16.63,8.34,4.6-8,3.75-8.38S283.6,339.5,283.22,340.35Z" transform="translate(0 0)" style="fill: #3d5b69"/>
    </g>
    <g id="Path_9629" data-name="Path 9629">
      <path d="M300.72,345.92c-.54,1.33-1.7,3.1-.73,4.17,9.42,10.52,11.77,23.39,26.81,29.41l59.5,19.09c19.11-3.21,4.28-26.47,6.66-32.54l-50.23-26.43c-13.32-5.34-23.34.52-40,3.06C301.45,342.87,301.17,344.66,300.72,345.92Z" transform="translate(0 0)" style="fill: #f9ecd7"/>
    </g>
    <g id="Path_9630" data-name="Path 9630">
      <path d="M329.14,337.54c-7.82.54-15.76,3.51-26.41,5.14a1.35,1.35,0,0,0-.66.31,11.38,11.38,0,0,1,4.41,1.53c2.55,1.52,7.48.29,10.25.13a44.49,44.49,0,0,1,9.44.31Z" transform="translate(0 0)" style="fill: #fff"/>
    </g>
    <g id="Path_9631" data-name="Path 9631">
      <path d="M393,366.05,368.74,353.3c3,6.32-2.85,15.68-11,12.19-9.28-3.95-18.36-8.35-27.36-12.9a8.4,8.4,0,0,1-.56,4.35c-1.67,4.19-7.16,7-11.41,4.9a35.42,35.42,0,0,1-10.84-8.41c-2-2.12-3.37-4.2-6.21-4.54a10.78,10.78,0,0,1-1.67-.35,1.72,1.72,0,0,0,.3,1.56c9.43,10.52,11.78,23.38,26.82,29.41l59.5,19.08C405.34,395.38,390.54,372.12,393,366.05Z" transform="translate(0 0)" style="fill: #e5caa3"/>
    </g>
    <g id="Path_9632" data-name="Path 9632">
      <path d="M314.8,351.58c-4.7,11.76.19,23.22,12,27.92l71.45,30.19c19.11-3.21,9.18-38.72,11.61-44.79l-67.09-25.28C330.47,335.15,319.51,339.81,314.8,351.58Z" transform="translate(0 0)" style="fill: #ffaa21"/>
    </g>
    <g id="Path_9633" data-name="Path 9633">
      <path d="M410.24,389.3c-1.79,3.8-5.9,6.45-10.91,4.44l-86.25-34.53c-.49,8.83,4.49,16.61,13.67,20.3l71.45,30.18C407.47,408.14,409.91,399,410.24,389.3Z" transform="translate(0 0)" style="fill: #e5a67c"/>
    </g>
    <g id="Path_9634" data-name="Path 9634">
      <path d="M405.87,377.4a8.43,8.43,0,0,1,4.25,3.51c-.39-7.3-1.21-13.73-.3-16l-67.09-25.28c-8.69-3.18-16.71-1.74-22.33,3.55Z" transform="translate(0 0)" style="fill: #ffd685"/>
    </g>
    <g id="Path_9635" data-name="Path 9635">
      <path d="M412.43,366l-2.61-1.05a23,23,0,0,0-17.28,42.53l.22.08,2.61,1.05Z" transform="translate(0 0)" style="fill: #cebfa3"/>
    </g>
    <g id="Ellipse_211" data-name="Ellipse 211">
      <circle cx="404.99" cy="387.68" r="22.95" style="fill: #f2ebdd"/>
    </g>
    <g id="Path_9636" data-name="Path 9636">
      <path d="M417.88,368.13l-2.61-1.05A23,23,0,1,0,398,409.61l.21.08,2.61,1.05Z" transform="translate(0 0)" style="fill: #cebfa3"/>
    </g>
    <g id="Path_9637" data-name="Path 9637">
      <path d="M389.17,381.34A22.95,22.95,0,1,0,419,368.57h0A22.94,22.94,0,0,0,389.17,381.34Z" transform="translate(0 0)" style="fill: #f2ebdd"/>
    </g>
    <g id="Path_9638" data-name="Path 9638">
      <path d="M393.93,383.26a18.43,18.43,0,0,0,10.25,24h0l9.51,3.8c5.57-7.16,11.34-28.33,13.71-34.24l-9.52-3.8A18.44,18.44,0,0,0,393.93,383.26Z" transform="translate(0 0)" style="fill: #2677c8"/>
    </g>
    <g id="Path_9639" data-name="Path 9639">
      <path d="M393.93,383.26a18.43,18.43,0,0,0,10.25,24h0l9.51,3.8c5.57-7.16,11.34-28.33,13.71-34.24l-9.52-3.8A18.44,18.44,0,0,0,393.93,383.26Z" transform="translate(0 0)" style="fill: #2677c8"/>
    </g>
    <g id="Path_9640" data-name="Path 9640">
      <path d="M393.93,383.26a18.43,18.43,0,0,0,10.25,24h0l9.51,3.8c5.57-7.16,11.34-28.33,13.71-34.24l-9.52-3.8A18.44,18.44,0,0,0,393.93,383.26Z" transform="translate(0 0)" style="fill: #3198ff"/>
    </g>
    <g id="Ellipse_212" data-name="Ellipse 212">
      <circle cx="420.56" cy="393.95" r="18.42" style="fill: #178bff"/>
    </g>
    <g id="Path_9641" data-name="Path 9641">
      <path d="M352.62,388.07c-5.43-3-6.43,4.59-2.73,6,1.37.52,10.35-1,10.35-1l.1-4.95S354.33,389,352.62,388.07Z" transform="translate(0 0)" style="fill: #fdc8a8"/>
    </g>
    <g id="Path_9642" data-name="Path 9642">
      <path d="M392.15,350.76c5,6.76,1.61,13.57.84,16l-3.41,10.3c-.89,3.21-3.36,7.24-4.34,9.92l-9.34.4c2.28-2.33,1.49-2.42,1.74-3.45l4.07-23.46c1.15-5.49-3.2-7.38-3.2-7.38Z" transform="translate(0 0)" style="fill: #e5e5e5"/>
    </g>
    <g id="Path_9643" data-name="Path 9643">
      <path d="M357.6,387.87l22.06-6.41c.41,3.69,5.94,2.91,5.94,2.91,1.15,4.76-6.65,6.34-9.31,6.3l-19.13,3.39c-1,0-.76-2.35-.53-4.93C356.77,387.46,357.6,387.87,357.6,387.87Z" transform="translate(0 0)" style="fill: #e5e5e5"/>
    </g>
    <g id="Path_9645" data-name="Path 9645">
      <path d="M108.66,463.84s-3,2.4-3,1c.1-13.17.7-29.93.48-39.22,0-2.52-.7-40.76,7.32-41.78,7.31-1,4.34-.06,6.38,4.34,1.71,3.68-4,35.26-5.38,38.33-.45,1-1.34,6.28-1.56,7.37C109.86,449.29,108.66,463.84,108.66,463.84Z" transform="translate(0 0)" style="fill: #fdc8a8"/>
    </g>
    <g id="Path_9646" data-name="Path 9646">
      <g style="clip-path: url(#clip-path-2)">
        <rect x="107.71" y="364.84" width="21.34" height="20.83" style="fill: #e83f3e"/>
      </g>
    </g>
    <g id="Path_9647" data-name="Path 9647">
      <path d="M160.35,365.89c.63.16,5,.39,5,.39.15-2.18-.67-2.35-.67-2.35l-18.78-6.32c-2.93-.72-5.43.47-5.57,2.65h0c-.16,2.19,2.67,3.06,5.61,3.8Z" transform="translate(0 0)" style="fill: #fdc8a8"/>
    </g>
    <g id="Path_9648" data-name="Path 9648">
      <path d="M138.62,360c.46.44,3,3.8,5.31,1.84l-.28.16a5.42,5.42,0,0,0,2-4.5l-14.52-13.76a6.36,6.36,0,0,0-8.19,0h0c-2.33,2-.39,4.06,1.8,6.06Z" transform="translate(0 0)" style="fill: #3198ff"/>
    </g>
    <g id="Path_9649" data-name="Path 9649">
      <path d="M124.37,463.33s-2.8,2.66-2.91,1.22c-1.06-13.13-.42-29.88-1.47-39.12-.27-2.49-9.51-40.2-1.62-41.92,7.2-1.57,8.06-.77,10.46,3.43,2,3.51.56,35.34-.5,38.52-.35,1.05-.79,6.37-1,7.48C125.78,448.63,124.37,463.33,124.37,463.33Z" transform="translate(0 0)" style="fill: #fdc8a8"/>
    </g>
    <g id="Path_9650" data-name="Path 9650">
      <path d="M106,447c.49-.47,1-.95,1.44-1.42q2-1.83,4-3.53c.43-2.66.95-5.42,1.47-8.22.22-1.09,1.11-6.35,1.56-7.37,1.33-3.07,7.1-34.65,5.38-38.33-2-4.4,1-5.27-6.38-4.34-8,1-7.37,39.26-7.32,41.77C106.27,430.93,106.13,438.82,106,447Z" transform="translate(0 0)" style="fill: #fdc8a8"/>
    </g>
    <g id="Path_9651" data-name="Path 9651">
      <path d="M120.56,435.22l.62-.44c2.17-1.52,4.37-3,6.52-4.57a38.08,38.08,0,0,1,.65-4.76c1.05-3.18,2.52-35,.49-38.52-2.41-4.2-3.28-5-10.46-3.43-7.9,1.72,1.35,39.43,1.63,41.92C120.31,428.14,120.46,431.5,120.56,435.22Z" transform="translate(0 0)" style="fill: #fdc8a8"/>
    </g>
    <g id="Path_9652" data-name="Path 9652">
      <path d="M120.76,465.22c.12,1.19-3.26,5.53-.11,5.25,7.78-.68,8.3-.8,7.81-1.83-1.16-2.47-2.48-1.28-3.15-5.05C124.92,461.34,120.66,464,120.76,465.22Z" transform="translate(0 0)" style="fill: #002169"/>
    </g>
    <g id="Path_9653" data-name="Path 9653">
      <path d="M129.31,382.17c-1.34-5.71-.15-11.3.82-15.86,1.3-6.19,2.07-10.46,2.07-10.46,0-7.42-1.46-13.6-12.08-13.6s-15.8,6.06-15.8,13.47c0,0,5.35,19.67,5.32,23-.07,9.37-6.75,20.92-5.08,46.88.28,4.23,18.84-.75,24.87-1C130,424.56,132.67,396.35,129.31,382.17Z" transform="translate(0 0)" style="fill: #178bff"/>
    </g>
    <g id="Path_9654" data-name="Path 9654">
      <path d="M111.76,345.32a5.8,5.8,0,0,0-7.34,3.65l-5.15,22.7a15.06,15.06,0,0,1,6.42,1.78,26.15,26.15,0,0,1,2-4.35L113,352.4C114.05,349.36,114.8,346.35,111.76,345.32Z" transform="translate(0 0)" style="fill: #3198ff"/>
    </g>
    <g id="Path_9655" data-name="Path 9655">
      <path d="M89,394.3a4.23,4.23,0,0,1-5.14-.43c-.66-.84,4-2.35,5.77-3.7s3-.66,3.66.19S91.87,392.46,89,394.3Z" transform="translate(0 0)" style="fill: #fdc8a8"/>
    </g>
    <g id="Path_9656" data-name="Path 9656">
      <path d="M94.87,389.2a33.09,33.09,0,0,1-2.72,3.08c-1.81-1.7-1.84-2-1.84-2l8.82-18.95c1.5-2.68,4.2-3.47,6-1.77h0c1.82,1.71.5,4.43-1,7.11Z" transform="translate(0 0)" style="fill: #fdc8a8"/>
    </g>
    <g id="Path_9657" data-name="Path 9657">
      <path d="M104.91,465.45c0,1.19-3.74,5.22-.58,5.22,7.82,0,8.34-.06,7.94-1.15-1-2.55-2.36-1.48-2.68-5.3C109.38,461.91,104.91,464.21,104.91,465.45Z" transform="translate(0 0)" style="fill: #002169"/>
    </g>
    <g id="Path_9658" data-name="Path 9658">
      <path d="M112.72,343.71c-4.2,1.5,2.58,2,5.48,2s10.62-1.29,6.81-3.15c-6.37-3.12-.1-11-6.39-10.94C113.06,331.64,119.71,341.21,112.72,343.71Z" transform="translate(0 0)" style="fill: #fdc8a8"/>
    </g>
    <g id="Path_9659" data-name="Path 9659">
      <path d="M113,345.29a1.61,1.61,0,0,0,.22-.23c2.27-2.06,4.76-3.91,7.18-5.78a11.68,11.68,0,0,1,1.51-1.22c-.4-3.2.84-6.54-3.27-6.48-5.56.06,1.09,9.63-5.9,12.11C110.5,344.47,111.32,345,113,345.29Z" transform="translate(0 0)" style="fill: #fdc8a8"/>
    </g>
    <g id="Path_9660" data-name="Path 9660">
      <path d="M125.76,321.34a2.92,2.92,0,1,1-.89-2.07A2.92,2.92,0,0,1,125.76,321.34Z" transform="translate(0 0)" style="fill: #002169"/>
    </g>
    <g id="Path_9661" data-name="Path 9661">
      <path d="M110.68,328.81c0,3.17,6.89,8,8.41,8a6.66,6.66,0,0,0,6.3-7c0-.2,0-.41-.06-.61-.57-5.6-.86-12.12-5.15-12.07S110.6,322.86,110.68,328.81Z" transform="translate(0 0)" style="fill: #fdc8a8"/>
    </g>
    <g id="Path_9662" data-name="Path 9662">
      <path d="M120.63,319.87c-6.66.09-6.17,11.76-11.52,11.83s-2.13-14.38,6.27-16C120.62,314.64,120.63,319.87,120.63,319.87Z" transform="translate(0 0)" style="fill: #002169"/>
    </g>
    <g id="Path_9663" data-name="Path 9663">
      <path d="M124.17,318.43c0,1.59-1.9,2.86-4.34,2.93s-4.39-1.23-4.41-2.85,1.9-2.85,4.33-2.93S124.15,316.84,124.17,318.43Z" transform="translate(0 0)" style="fill: #002169"/>
    </g>
    <g id="Path_9664" data-name="Path 9664">
      <path d="M126.41,464.16c-.41,2.77,1,5.24,3.08,5.56l18.29,2.67c2.11.29,4.16-1.69,4.55-4.45l2.72-18.6c.4-2.77-1-5.25-3.12-5.56l-18.25-2.66c-2.12-.32-4.16,1.68-4.56,4.44Z" transform="translate(0 0)" style="fill: #178bff"/>
    </g>
    <g id="Path_9665" data-name="Path 9665">
      <path d="M169.62,354l-12,82.18-27.16-3.94,12-82.2Z" transform="translate(0 0)" style="fill: #cecece"/>
    </g>
    <g id="Path_9666" data-name="Path 9666">
      <path d="M169.62,354l-12,82.19-8-1.16,12-82.19Z" transform="translate(0 0)" style="fill: #e5e5e5"/>
    </g>
    <g id="Path_9667" data-name="Path 9667">
      <path d="M168.25,363.36c-.12-.16.43-.65.23-.65-.95,0-.54,1.74-2.73,1.54-.9-.09-1.05.51-.88,1.56.06.4.24,1.09,2.5.62a.93.93,0,0,0,.46-.15Z" transform="translate(0 0)" style="fill: #ffaa21"/>
    </g>
    <g id="Path_9668" data-name="Path 9668">
      <path d="M167.38,365.59c2.38-.5,2.24-3.72,1.1-3.72-.95,0-.55,1.74-2.73,1.53-.9-.08-1.05.52-.88,1.57C164.93,365.38,165.11,366.07,167.38,365.59Z" transform="translate(0 0)" style="fill: #fdc8a8"/>
    </g>
    <g id="Path_9669" data-name="Path 9669">
      <path d="M168.64,361.91c0,.11.05.22.07.33a2.73,2.73,0,0,1-2.36,3,2.61,2.61,0,0,1-1.11-.09,2.48,2.48,0,0,1-.37-.17c.08.4.3,1,2.5.58S169.63,362.2,168.64,361.91Z" transform="translate(0 0)" style="fill: #fdc8a8"/>
    </g>
    <g id="Path_9670" data-name="Path 9670">
      <path d="M150.78,351.27l-12,82.22-8.3-1.23,12-82.2Z" transform="translate(0 0)" style="fill: #e5e5e5"/>
    </g>
    <g id="Path_9671" data-name="Path 9671">
      <path d="M160.08,324.29,169.61,354l-27.15-4Z" transform="translate(0 0)" style="fill: #f9dcc3"/>
    </g>
    <g id="Path_9672" data-name="Path 9672">
      <path d="M160.08,324.29,169.61,354l-27.15-4Z" transform="translate(0 0)" style="fill: #cecece"/>
    </g>
    <g id="Path_9673" data-name="Path 9673">
      <path d="M160.08,324.29,169.61,354l-8-1.16Z" transform="translate(0 0)" style="fill: #fff"/>
    </g>
    <g id="Path_9674" data-name="Path 9674">
      <path d="M150.78,351.27l9.3-27,1.55,28.56" transform="translate(0 0)" style="fill: #e5e5e5"/>
    </g>
    <g id="Path_9675" data-name="Path 9675">
      <path d="M127,436a4,4,0,0,0,3.24,4.66l25.24,3.68a4,4,0,0,0,4.42-3.53v0h0a4,4,0,0,0-3.22-4.67l-25.22-3.67a4,4,0,0,0-4.43,3.55h0Z" transform="translate(0 0)" style="fill: #e5e5e5"/>
    </g>
    <g id="Path_9676" data-name="Path 9676">
      <path d="M125.77,444.15a4,4,0,0,0,3.23,4.66l25.25,3.68a4,4,0,0,0,4.43-3.54h0a4,4,0,0,0-3.22-4.67l-25.24-3.68a4,4,0,0,0-4.43,3.55Z" transform="translate(0 0)" style="fill: #e5e5e5"/>
    </g>
    <g id="Path_9677" data-name="Path 9677">
      <path d="M159.57,312a10,10,0,0,1,2.41-.65h0c.35,0,2.15.65,2.11,1.46l-1.5,18.5a3.48,3.48,0,0,1-4,2.94h0a3.46,3.46,0,0,1-2.94-3.93h0Z" transform="translate(0 0)" style="fill: #3d5b69"/>
    </g>
    <g id="Group_7390" data-name="Group 7390" style="opacity: 0.8999999761581421">
      <g id="Path_9678" data-name="Path 9678">
        <path d="M213.68,58.63" transform="translate(0 0)" style="fill: #b5cee5"/>
      </g>
    </g>
    <g id="Group_7391" data-name="Group 7391">
      <g id="Path_9679" data-name="Path 9679">
        <path d="M215.34,59.62" transform="translate(0 0)" style="fill: #74ecf3"/>
      </g>
      <g id="Path_9680" data-name="Path 9680">
        <path d="M215.37,59.62" transform="translate(0 0)" style="fill: #a5c6e5"/>
      </g>
    </g>
    <g id="Path_9681" data-name="Path 9681">
      <path d="M229.06,111.65h3.27c.37-5.31,1.17-14.63,2.71-24.36.16-1.06.84-6.13,1.23-7.13a63.09,63.09,0,0,0,1.56-8H228c.08,3.93.24,6.78.27,7.4C228.73,87.24,228.82,100.16,229.06,111.65Z" transform="translate(0 0)" style="fill: #fdc8a8"/>
    </g>
    <g id="Path_9682" data-name="Path 9682">
      <path d="M242.45,48.31c.6.17,4.81.38,4.81.38.14-2.09-.64-2.25-.64-2.25l-18-6.06c-2.85-.69-5.21.45-5.34,2.54h0c-.15,2.09,2.56,2.93,5.38,3.62Z" transform="translate(0 0)" style="fill: #fdc8a8"/>
    </g>
    <g id="Path_9683" data-name="Path 9683">
      <path d="M221.62,42.68c.44.43,2.85,3.67,5.1,1.77l-.29.16a5.2,5.2,0,0,0,1.9-4.32L214.45,27.1a6.12,6.12,0,0,0-7.85,0h0c-2.24,1.9-.37,3.9,1.73,5.81Z" transform="translate(0 0)" style="fill: #3198ff"/>
    </g>
    <g id="Path_9684" data-name="Path 9684">
      <path d="M281,97.09s1,3.56-.3,3c-11.55-5.08-25.4-13.24-33.67-16.57-2.23-.89-38.26-10.24-36.14-17.69,2-6.79,3-7.15,7.66-7.28,3.89-.1,30.08,15.6,32.28,17.94.72.78,5,3.56,5.9,4.16C269.27,89.21,281,97.09,281,97.09Z" transform="translate(0 0)" style="fill: #fdc8a8"/>
    </g>
    <g id="Path_9685" data-name="Path 9685">
      <path d="M228,72.21c.08,3.93.24,6.79.27,7.4.32,5.14.46,12.66.59,20.55.44-.48.88-1,1.33-1.41,1.2-1.23,2.45-2.4,3.74-3.54.32-2.56.69-5.22,1.12-7.92.16-1.06.83-6.13,1.22-7.13a63.09,63.09,0,0,0,1.56-8Z" transform="translate(0 0)" style="fill: #fdc8a8"/>
    </g>
    <g id="Path_9686" data-name="Path 9686">
      <path d="M255.57,87.51l-.09-.71c-.29-2.53-.56-5.07-.89-7.61a35.13,35.13,0,0,1-3.71-2.7c-2.2-2.33-28.39-18.07-32.28-17.94-4.64.13-5.71.49-7.65,7.28-2.15,7.45,33.87,16.8,36.14,17.69S252.38,85.9,255.57,87.51Z" transform="translate(0 0)" style="fill: #fdc8a8"/>
    </g>
    <g id="Path_9687" data-name="Path 9687">
      <path d="M281,101c1.06.46,3.18,5.28,4.38,2.5,3-6.88,3.1-7.37,2-7.42-2.61-.15-2.2,1.5-5.71.35C279.59,95.72,279.93,100.54,281,101Z" transform="translate(0 0)" style="fill: #002169"/>
    </g>
    <g id="Path_9688" data-name="Path 9688">
      <path d="M200.53,55c5.33.16,8.39-.37,13.58-1.19a64.43,64.43,0,0,1-.43-7.48c-.08-6.06,2.33-7.06,2.33-7.06-1.56-6.94-4.75-15.56-14.64-13.32s-13.49,9-11.93,15.93c0,0,3.8,7.09,6.66,13C197.53,54.87,199,54.94,200.53,55Z" transform="translate(0 0)" style="fill: #178bff"/>
    </g>
    <g id="Path_9689" data-name="Path 9689">
      <path d="M213.84,52.05c0-.86-3.8-1.9-4.6-2.17-2.12,3.44-4.13-4.32-6.7-1.19-1.43,1.73-5.42,3.28-7,5,1.4,9.68-.69,9,0,14.49,1.07,8.34,6.12-.43,33.13,20.4,3.21,2.48,16.3-13.47,18.82-18.67C247.68,69.39,213.84,59.68,213.84,52.05Z" transform="translate(0 0)" style="fill: #178bff"/>
    </g>
    <g id="Path_9690" data-name="Path 9690">
      <path d="M195.88,28.61a5.56,5.56,0,0,0-7,3.48h0L183.9,53.85a14.34,14.34,0,0,1,6.16,1.72,23.13,23.13,0,0,1,1.9-4.18l5.09-16C198.06,32.48,198.79,29.59,195.88,28.61Z" transform="translate(0 0)" style="fill: #3198ff"/>
    </g>
    <g id="Path_9691" data-name="Path 9691">
      <path d="M174.07,75.55a4.07,4.07,0,0,1-4.93-.42c-.63-.8,3.87-2.25,5.53-3.53s2.85-.64,3.51.17S176.81,73.79,174.07,75.55Z" transform="translate(0 0)" style="fill: #fdc8a8"/>
    </g>
    <g id="Path_9692" data-name="Path 9692">
      <path d="M250.49,45a4.08,4.08,0,0,1,4.33,2.4c.25,1-4.45.48-6.5,1s-2.85-.6-3.13-1.58S247.28,45.5,250.49,45Z" transform="translate(0 0)" style="fill: #fdc8a8"/>
    </g>
    <g id="Path_9693" data-name="Path 9693">
      <path d="M179.69,70.66a36.52,36.52,0,0,1-2.61,2.94c-1.74-1.63-1.77-1.9-1.77-1.9l8.43-18.16c1.44-2.57,4-3.32,5.78-1.69h0c1.74,1.63.47,4.24-1,6.81Z" transform="translate(0 0)" style="fill: #fdc8a8"/>
    </g>
    <g id="Path_9694" data-name="Path 9694">
      <path d="M196.79,27c-4,1.44,2.48,1.9,5.26,1.9s10.17-1.24,6.53-3c-6.12-3-.09-10.57-6.13-10.46C197.12,15.49,203.49,24.66,196.79,27Z" transform="translate(0 0)" style="fill: #fdc8a8"/>
    </g>
    <g id="Path_9695" data-name="Path 9695">
      <path d="M197.05,28.58c.08-.08.13-.15.21-.22,2.19-2,4.54-3.8,6.88-5.56a12.71,12.71,0,0,1,1.47-1.16c-.38-3.06.81-6.26-3.13-6.22-5.34.07,1,9.24-5.66,11.62C194.69,27.79,195.44,28.28,197.05,28.58Z" transform="translate(0 0)" style="fill: #fdc8a8"/>
    </g>
    <g id="Path_9696" data-name="Path 9696">
      <path d="M209.3,5.61a2.85,2.85,0,1,1-2.94-2.77h.09A2.86,2.86,0,0,1,209.3,5.61Z" transform="translate(0 0)" style="fill: #002169"/>
    </g>
    <g id="Path_9697" data-name="Path 9697">
      <path d="M194.83,12.73c0,3,6.6,7.7,8.07,7.68a6.42,6.42,0,0,0,6-6.79c0-.17,0-.33-.05-.5-.55-5.36-.83-11.61-4.93-11.56S194.76,7,194.83,12.73Z" transform="translate(0 0)" style="fill: #fdc8a8"/>
    </g>
    <g id="Path_9698" data-name="Path 9698">
      <path d="M204.37,4.17c-6.37.12,3.4,35.19-10.79,34.24-5.12-.34-12-33.89,5.76-38.22C204.32-1,204.37,4.17,204.37,4.17Z" transform="translate(0 0)" style="fill: #002169"/>
    </g>
    <g id="Path_9699" data-name="Path 9699">
      <path d="M207.77,2.82c0,1.52-1.85,2.78-4.17,2.86S199.39,4.5,199.37,3,201.22.2,203.54.17,207.75,1.32,207.77,2.82Z" transform="translate(0 0)" style="fill: #002169"/>
    </g>
    <g id="Path_9700" data-name="Path 9700">
      <path d="M346.55,111.45V90.52s-.95,17-27.18,17L158,108.41c-8.07,0-22.56,1.48-26.75,3.58Z" transform="translate(0 0)" style="fill: #ccd9f2"/>
    </g>
    <g id="Path_9701" data-name="Path 9701">
      <path d="M427.3,200l-38-40.13c-.1.23-.18.46-.28.69a9.8,9.8,0,0,1-5.48,4.93,10.15,10.15,0,0,1-3.43,2.44l38.27,40.46a2.67,2.67,0,0,0,3.78.12l0,0,5-4.75a2.67,2.67,0,0,0,.06-3.75Z" transform="translate(0 0)" style="fill: #178bff"/>
    </g>
    <g id="Path_9702" data-name="Path 9702">
      <path d="M415.37,200.3c-5.24-4.68-17.55-17.48-19.9-21.64-2.44-4.32.19-6,2.85-9.41l-8.93-9.43c-.1.23-.18.47-.28.69a9.76,9.76,0,0,1-5.48,4.93,10.36,10.36,0,0,1-3.44,2.45l38.28,40.45a2.66,2.66,0,0,0,3.77.13l0,0,5-4.76a2.68,2.68,0,0,0,.82-1.82C420.6,205.8,421.13,205.42,415.37,200.3Z" transform="translate(0 0)" style="fill: #178bff"/>
    </g>
    <g id="Path_9703" data-name="Path 9703">
      <path d="M394.56,150.3a11.31,11.31,0,0,1-2.8,6.84c-5.78,6.37-12.64,11.71-21.4,12.08a15.45,15.45,0,0,0,24.2-18.92Z" transform="translate(0 0)" style="fill: #22a2ff"/>
    </g>
    <g id="Path_9704" data-name="Path 9704">
      <path d="M394.65,150.39a11.31,11.31,0,0,1-2.8,6.84c-5.77,6.37-12.63,11.72-21.4,12.09a15.13,15.13,0,0,0,3.88,2.85,15.45,15.45,0,0,0,20.31-21.81Z" transform="translate(0 0)" style="fill: #178bff"/>
    </g>
    <g id="Path_9705" data-name="Path 9705">
      <path d="M401.93,124.08a40.53,40.53,0,1,0-30.66,48.44h0A40.54,40.54,0,0,0,401.93,124.08Zm-31.78,43.35a35.33,35.33,0,1,1,26.7-42.22h0a35.32,35.32,0,0,1-26.7,42.21Z" transform="translate(0 0)" style="fill: #178bff"/>
    </g>
    <g id="Ellipse_213" data-name="Ellipse 213" style="opacity: 0.3400000035762787;isolation: isolate">
      <circle cx="362.39" cy="133.02" r="35.33" style="fill: #a9e1ea"/>
    </g>
    <g id="Path_9706" data-name="Path 9706" style="opacity: 0.1899999976158142;isolation: isolate">
      <path d="M389.68,155.4a35.34,35.34,0,0,0,6-33.73Q392.73,138.57,389.68,155.4Z" transform="translate(0 0)" style="fill: #fff"/>
    </g>
    <g id="Path_9707" data-name="Path 9707" style="opacity: 0.1899999976158142;isolation: isolate">
      <path d="M382.65,104.27a35.41,35.41,0,0,0-21.28-6.44q-6,34.05-12.2,68.09a35.54,35.54,0,0,0,22.13,1.36C375.19,146.29,378.87,125.28,382.65,104.27Z" transform="translate(0 0)" style="fill: #fff"/>
    </g>
    <g id="Path_9708" data-name="Path 9708" style="opacity: 0.1899999976158142;isolation: isolate">
      <path d="M344.74,103.29c-.72.42-1.44.87-2.13,1.36a35.31,35.31,0,0,0-8.91,49.14h0c.51.73,1,1.43,1.6,2.11Q340.07,129.6,344.74,103.29Z" transform="translate(0 0)" style="fill: #fff"/>
    </g>
    <g id="Path_9709" data-name="Path 9709">
      <path d="M424.81,208.81c-2.61.59-4.76,2-3.9,3.68h-.65c.82,1.68,3.59,2.09,6.19,1.49l20.16-4.59c2.61-.6,4.05-2.44,3.23-4.13h0c-.82-1.67-3.6-2.56-6.22-2Z" transform="translate(0 0)" style="fill: #fdc8a8"/>
    </g>
    <g id="Path_9710" data-name="Path 9710">
      <path d="M422,211.14a4.14,4.14,0,0,1,2.69-1.31c-.69-.85-1.7-1.29-2.24-1.9l-14.14-13a60.14,60.14,0,0,1-6.33-6.34s-2.23,2.86-.47,4.95l16.81,17.35a24.26,24.26,0,0,0,2.57,2.4,5.15,5.15,0,0,1,1.1-2.14Z" transform="translate(0 0)" style="fill: #fdc8a8"/>
    </g>
  </g>
</svg>
