<?xml version="1.0" encoding="utf-8"?>
<!-- Generator: Adobe Illustrator 25.0.1, SVG Export Plug-In . SVG Version: 6.00 Build 0)  -->
<svg version="1.1" id="Layer_1" xmlns="http://www.w3.org/2000/svg" xmlns:xlink="http://www.w3.org/1999/xlink" x="0px" y="0px"
	 width="505px" height="335.9px" viewBox="0 0 505 335.9" style="enable-background:new 0 0 505 335.9;" xml:space="preserve">
<style type="text/css">
	.st0{fill:#178BFF;}
	.st1{fill:#3198FF;}
	.st2{fill:#D9ECFF;}
	.st3{fill:#2677C8;}
	.st4{fill:#BBDEFB;}
	.st5{fill:#E3F2FD;}
	.st6{fill:#90CAF9;}
	.st7{fill:#1976D2;}
	.st8{fill:#56AAFF;}
	.st9{fill:#0078CC;}
	.st10{fill:#92C9FF;}
	.st11{fill:#FFFFFF;}
	.st12{fill:#E7F3FF;}
</style>
<g id="Email" transform="translate(-51.56 -122.91)">
	<path id="Path_9368" class="st0" d="M310.2,444.8h-59.4l8.6-52.7h59.4L310.2,444.8z"/>
	<path id="Path_9369" class="st1" d="M318.6,444.8h-59.4l8.6-52.7h59.4L318.6,444.8z"/>
	<path id="Rectangle_19259" class="st0" d="M145.7,181.5h279c2.1,0,3.8,1.7,3.8,3.8v214.2c0,2.1-1.7,3.8-3.8,3.8h-279
		c-2.1,0-3.8-1.7-3.8-3.8V185.3C141.9,183.2,143.6,181.5,145.7,181.5z"/>
	<path id="Rectangle_19260" class="st2" d="M155.6,181.5h279c2.1,0,3.8,1.7,3.8,3.8v214.2c0,2.1-1.7,3.8-3.8,3.8h-279
		c-2.1,0-3.8-1.7-3.8-3.8V185.3C151.8,183.2,153.5,181.5,155.6,181.5z"/>
	<path id="Path_9399" class="st0" d="M163.8,190.8h262.6c2.1,0,3.8,1.7,3.8,3.8v195.5c0,2.1-1.7,3.8-3.8,3.8H163.8
		c-2.1,0-3.8-1.7-3.8-3.8c0,0,0,0,0,0V194.6C160,192.5,161.7,190.8,163.8,190.8z"/>
	<path id="Rectangle_19262" class="st3" d="M233.9,444.8h104.9c0.5,0,1,0.4,1,1v12.2c0,0.5-0.4,0.9-1,0.9H233.9
		c-0.5,0-0.9-0.4-0.9-0.9v-12.2C232.9,445.2,233.3,444.8,233.9,444.8z"/>
	<path id="Rectangle_19263" class="st0" d="M239.2,444.8h104.9c0.5,0,0.9,0.4,0.9,1v12.2c0,0.5-0.4,0.9-0.9,0.9H239.2
		c-0.5,0-0.9-0.4-0.9-0.9v-12.2C238.2,445.2,238.6,444.8,239.2,444.8z"/>
	<path id="Path_9370" class="st4" d="M241.3,270.8h-0.1c-2.3-0.3-4.6-0.6-6.8-1.1c-0.4-0.1-0.7-0.5-0.6-0.9c0,0,0,0,0,0
		c0.1-0.4,0.5-0.7,0.9-0.6c0,0,0,0,0,0c2.1,0.4,4.4,0.7,6.7,1c0.4,0.1,0.7,0.5,0.7,0.9C242,270.5,241.7,270.7,241.3,270.8
		L241.3,270.8z M228,268.2c-0.1,0-0.1,0-0.2,0c-2.2-0.6-4.4-1.3-6.5-2.1c-0.4-0.1-0.6-0.6-0.5-1c0,0,0,0,0-0.1
		c0.2-0.4,0.6-0.6,1-0.5c0,0,0,0,0.1,0c2.1,0.8,4.2,1.5,6.4,2.1c0.4,0.1,0.7,0.5,0.6,1C228.8,268.1,228.5,268.3,228,268.2L228,268.2
		z M215.4,263.2c-0.1,0-0.3,0-0.4-0.1c-2-1.1-4-2.4-5.8-3.7c-0.3-0.3-0.4-0.7-0.2-1.1c0.3-0.3,0.7-0.4,1.1-0.2
		c1.8,1.3,3.6,2.6,5.6,3.6c0.4,0.2,0.5,0.7,0.3,1.1C215.9,263.1,215.6,263.2,215.4,263.2L215.4,263.2z M204.6,255
		c-0.2,0-0.4-0.1-0.6-0.2c-1.6-1.7-3.1-3.5-4.4-5.4c-0.2-0.4-0.1-0.8,0.2-1.1c0.4-0.2,0.8-0.1,1.1,0.2c1.3,1.8,2.7,3.5,4.2,5.2
		c0.3,0.3,0.3,0.8,0,1.1c0,0,0,0,0,0C205,255,204.8,255,204.6,255L204.6,255z M196.9,243.9c-0.3,0-0.6-0.2-0.7-0.4
		c-1-2.1-1.9-4.2-2.6-6.4c-0.1-0.4,0.1-0.9,0.5-1c0.4-0.1,0.9,0.1,1,0.5c0.7,2.1,1.6,4.2,2.5,6.2c0.2,0.4,0,0.9-0.4,1.1c0,0,0,0,0,0
		C197.1,243.9,197,243.9,196.9,243.9L196.9,243.9z M192.5,231.1c-0.4,0-0.7-0.3-0.8-0.6c-0.5-2.1-0.9-4.4-1.1-6.8
		c0-0.4,0.3-0.8,0.7-0.9c0.4,0,0.8,0.3,0.9,0.7c0.3,2.3,0.7,4.5,1.1,6.6c0.1,0.4-0.2,0.8-0.6,0.9c0,0,0,0,0,0L192.5,231.1z
		 M190.8,217.6c-0.4,0-0.8-0.3-0.8-0.8c-0.1-1.5-0.1-3-0.1-4.6V210c0-0.4,0.3-0.8,0.8-0.8c0.4,0,0.8,0.3,0.8,0.8c0,0,0,0,0,0.1v2.3
		c0,1.5,0,3.1,0.1,4.5C191.6,217.2,191.2,217.6,190.8,217.6L190.8,217.6z M191.1,204L191.1,204c-0.5,0-0.8-0.4-0.8-0.9
		c0.2-2.3,0.5-4.6,0.9-6.8c0.1-0.4,0.5-0.7,0.9-0.6c0,0,0,0,0,0c0.4,0.1,0.7,0.5,0.6,0.9c0,0,0,0,0,0c-0.4,2.1-0.7,4.4-0.9,6.7
		C191.8,203.7,191.5,204.1,191.1,204L191.1,204z M193.5,190.7c-0.1,0-0.1,0-0.2,0c-0.4-0.1-0.7-0.5-0.6-1c0,0,0,0,0,0
		c0.6-2.2,1.3-4.4,2.1-6.5c0.1-0.4,0.6-0.6,1-0.5c0,0,0,0,0.1,0c0.4,0.2,0.6,0.6,0.5,1.1c0,0,0,0,0,0c-0.8,2-1.5,4.2-2.1,6.4
		C194.1,190.5,193.8,190.7,193.5,190.7L193.5,190.7z M470.1,178.4L470.1,178.4c-2.3,0-4.6-0.1-6.9-0.3c-0.4-0.1-0.7-0.4-0.7-0.9
		c0-0.4,0.4-0.8,0.9-0.7c0,0,0,0,0,0c2.2,0.2,4.5,0.3,6.7,0.3c0.4,0,0.8,0.4,0.8,0.8c0,0,0,0,0,0C470.9,178,470.6,178.4,470.1,178.4
		C470.1,178.4,470.1,178.4,470.1,178.4L470.1,178.4z M476.9,178.1c-0.4,0-0.8-0.3-0.8-0.7c0-0.4,0.3-0.8,0.7-0.9
		c2.2-0.2,4.5-0.5,6.7-0.8c0.4-0.1,0.8,0.2,0.9,0.6c0.1,0.4-0.2,0.8-0.6,0.9l0,0C481.5,177.6,479.3,177.9,476.9,178.1L476.9,178.1z
		 M198.4,178.1c-0.1,0-0.3,0-0.4-0.1c-0.4-0.2-0.5-0.7-0.3-1.1c1.1-2,2.2-4,3.5-5.9c0.2-0.3,0.7-0.4,1.1-0.2
		c0.3,0.2,0.4,0.7,0.2,1.1c-1.2,1.8-2.3,3.8-3.4,5.7C199,177.9,198.7,178.1,198.4,178.1L198.4,178.1z M456.6,177.2h-0.1
		c-1.2-0.2-2.4-0.5-3.7-0.8c-1.1-0.2-2-0.5-3-0.8c-0.4-0.1-0.7-0.5-0.6-1c0.1-0.4,0.5-0.7,1-0.6c0,0,0,0,0.1,0c1,0.3,2,0.5,3,0.8
		c1.2,0.3,2.4,0.5,3.6,0.8c0.4,0.1,0.7,0.5,0.6,0.9C457.3,176.9,457,177.1,456.6,177.2L456.6,177.2z M490.3,175.9
		c-0.4,0-0.7-0.3-0.8-0.6c-0.1-0.4,0.2-0.9,0.6-1c2.1-0.5,4.3-1.1,6.5-1.8c0.4-0.1,0.9,0.1,1,0.5c0,0,0,0,0,0c0.1,0.4-0.1,0.9-0.5,1
		c-2.1,0.7-4.4,1.3-6.6,1.9L490.3,175.9z M443.5,173.5c-0.1,0-0.2,0-0.3,0c-2-0.7-4.1-1.6-6.4-2.5c-0.4-0.2-0.5-0.7-0.3-1.1
		c0.2-0.3,0.6-0.5,0.9-0.4c2.3,1,4.3,1.8,6.3,2.5c0.4,0.2,0.6,0.6,0.5,1C444.1,173.3,443.9,173.5,443.5,173.5L443.5,173.5z
		 M431,168.3c-0.1,0-0.2,0-0.3-0.1l-4.4-2l-1.7-0.8c-0.4-0.2-0.5-0.7-0.3-1.1c0.2-0.3,0.6-0.5,0.9-0.3l1.7,0.8l4.4,2
		c0.4,0.2,0.6,0.7,0.4,1.1c0,0,0,0,0,0C431.6,168.1,431.3,168.2,431,168.3L431,168.3z M205.9,166.9c-0.2,0-0.4-0.1-0.5-0.2
		c-0.3-0.3-0.4-0.8-0.1-1.1c0,0,0,0,0,0c1.5-1.7,3.1-3.4,4.7-5c0.3-0.3,0.8-0.4,1.1-0.1c0.3,0.3,0.4,0.8,0.1,1.1
		c0,0-0.1,0.1-0.1,0.1c-1.6,1.5-3.2,3.1-4.6,4.8C206.4,166.8,206.2,166.9,205.9,166.9L205.9,166.9z M418.6,162.6
		c-0.1,0-0.2,0-0.3-0.1c-2.1-0.9-4.1-1.8-6.2-2.7c-0.4-0.1-0.6-0.6-0.5-1c0.1-0.4,0.6-0.6,1-0.5c0,0,0.1,0,0.1,0
		c2.1,0.9,4.2,1.8,6.3,2.7c0.4,0.2,0.6,0.7,0.4,1.1C419.2,162.4,418.9,162.6,418.6,162.6L418.6,162.6z M215.8,157.5
		c-0.2,0-0.5-0.1-0.6-0.3c-0.2-0.3-0.2-0.8,0.1-1.1c1.8-1.4,3.7-2.7,5.6-3.9c0.4-0.2,0.8-0.1,1.1,0.2c0.2,0.4,0.1,0.8-0.3,1.1
		c-1.9,1.2-3.8,2.5-5.5,3.8C216.1,157.5,216,157.6,215.8,157.5L215.8,157.5z M406.1,157.2c-0.1,0-0.2,0-0.3,0
		c-2.1-0.8-4.2-1.7-6.3-2.5c-0.4-0.2-0.6-0.6-0.4-1c0.2-0.4,0.6-0.6,1-0.4c2.1,0.8,4.3,1.6,6.3,2.5c0.4,0.2,0.6,0.6,0.4,1
		C406.7,157.1,406.4,157.3,406.1,157.2L406.1,157.2z M393.4,152.4c-0.1,0-0.2,0-0.3,0c-2.1-0.8-4.3-1.5-6.4-2.2
		c-0.4-0.1-0.7-0.5-0.6-1c0.1-0.4,0.5-0.7,1-0.6c0,0,0.1,0,0.1,0c2.1,0.7,4.3,1.5,6.4,2.3c0.4,0.2,0.6,0.6,0.4,1
		C394,152.2,393.7,152.4,393.4,152.4L393.4,152.4z M227.3,150.3c-0.4,0-0.8-0.3-0.8-0.8c0-0.3,0.2-0.6,0.4-0.7c2-1.1,4.1-2,6.2-2.9
		c0.4-0.2,0.9,0,1.1,0.4c0,0,0,0,0,0c0.2,0.4,0,0.9-0.4,1c0,0,0,0-0.1,0c-2.1,0.9-4.2,1.9-6.1,2.9
		C227.6,150.3,227.4,150.4,227.3,150.3L227.3,150.3z M380.5,148c-0.1,0-0.2,0-0.2,0c-2.1-0.7-4.4-1.3-6.5-2c-0.4-0.1-0.7-0.6-0.5-1
		c0.1-0.4,0.6-0.7,1-0.5c0,0,0,0,0,0c2.1,0.6,4.3,1.3,6.5,2c0.4,0.1,0.7,0.6,0.5,1C381.2,147.8,380.9,148,380.5,148L380.5,148z
		 M239.8,145c-0.4,0-0.8-0.3-0.8-0.8c0-0.3,0.2-0.7,0.5-0.8c2.1-0.7,4.3-1.4,6.5-2.1c0.4-0.1,0.9,0.1,1,0.5c0.1,0.4-0.1,0.9-0.5,1
		c0,0,0,0-0.1,0c-2.1,0.6-4.4,1.3-6.4,2C240,145,239.9,145,239.8,145L239.8,145z M367.5,144.2h-0.2c-2.2-0.6-4.4-1.1-6.6-1.6
		c-0.4-0.1-0.7-0.5-0.6-1c0.1-0.4,0.5-0.7,1-0.6c0,0,0,0,0,0c2.1,0.5,4.4,1.1,6.6,1.7c0.4,0.1,0.7,0.5,0.6,0.9
		C368.2,144,367.9,144.2,367.5,144.2L367.5,144.2z M252.9,141.2c-0.4,0-0.8-0.3-0.8-0.8c0-0.4,0.3-0.7,0.6-0.8
		c2.1-0.5,4.4-1,6.7-1.4c0.4-0.1,0.8,0.2,0.9,0.6c0.1,0.4-0.2,0.8-0.6,0.9c-2.3,0.4-4.5,0.9-6.6,1.4
		C253,141.2,252.9,141.2,252.9,141.2L252.9,141.2z M354.3,141h-0.2c-2.2-0.5-4.5-0.9-6.7-1.3c-0.4-0.1-0.7-0.5-0.6-0.9c0,0,0,0,0,0
		c0.1-0.4,0.5-0.7,0.9-0.6c0,0,0,0,0,0c2.2,0.4,4.5,0.8,6.7,1.3c0.4,0.1,0.7,0.5,0.7,0.9C355.1,140.8,354.7,141.1,354.3,141
		L354.3,141z M266.3,138.7c-0.4,0-0.8-0.4-0.8-0.8c0-0.4,0.3-0.7,0.7-0.8c2.1-0.3,4.5-0.6,6.8-0.9c0.4,0,0.8,0.3,0.9,0.7
		c0,0,0,0,0,0c0,0.4-0.3,0.8-0.7,0.9c0,0,0,0,0,0c-2.3,0.3-4.6,0.6-6.7,0.9L266.3,138.7z M340.9,138.6h-0.1
		c-2.2-0.3-4.5-0.6-6.7-0.9c-0.4-0.1-0.7-0.4-0.7-0.9c0.1-0.4,0.4-0.7,0.9-0.7c2.2,0.3,4.5,0.6,6.8,0.9c0.4,0.1,0.7,0.5,0.7,0.9
		C341.6,138.4,341.3,138.6,340.9,138.6L340.9,138.6z M279.8,137.2c-0.4,0-0.8-0.3-0.8-0.8c0-0.4,0.3-0.8,0.8-0.8
		c2.2-0.2,4.5-0.3,6.8-0.5c0.4,0,0.8,0.3,0.9,0.7c0,0.4-0.3,0.8-0.7,0.9c0,0,0,0,0,0C284.3,136.8,282.1,137,279.8,137.2L279.8,137.2
		z M327.4,137L327.4,137c-2.3-0.2-4.6-0.4-6.8-0.5c-0.4,0-0.8-0.4-0.8-0.8c0-0.4,0.4-0.8,0.8-0.8c0,0,0,0,0,0
		c2.2,0.1,4.5,0.3,6.8,0.5c0.4,0,0.8,0.4,0.7,0.9C328.2,136.7,327.8,137.1,327.4,137L327.4,137z M293.4,136.4
		c-0.4,0-0.8-0.4-0.8-0.8s0.4-0.8,0.8-0.8l0,0c2.3-0.1,4.6-0.1,6.8-0.1l0,0c0.4,0,0.8,0.3,0.8,0.8c0,0,0,0,0,0
		c0,0.4-0.3,0.8-0.8,0.8C298,136.3,295.8,136.3,293.4,136.4L293.4,136.4z M313.8,136.3L313.8,136.3c-2.1,0-4.4-0.1-6.8-0.1
		c-0.4,0-0.8-0.4-0.8-0.8s0.4-0.8,0.8-0.8l0,0l0,0l6.8,0.1c0.4,0,0.8,0.4,0.8,0.8C314.5,136,314.2,136.4,313.8,136.3L313.8,136.3z"
		/>
	<path id="Path_9371" class="st4" d="M498.4,158.4l2,13.9l56.1-34.7L498.4,158.4z"/>
	<path id="Path_9372" class="st5" d="M556.6,137.6l-58.2,20.8l-16-14.3L556.6,137.6z"/>
	<path id="Path_9373" class="st6" d="M504.8,164.1l-4.3,8.2l56.1-34.7L504.8,164.1z"/>
	<path id="Path_9374" class="st5" d="M556.6,137.6l-51.8,26.5l20.1,17.8L556.6,137.6z"/>
	<path id="Path_9375" class="st7" d="M292.2,222.1l-82.6,62.8l82.6,61.8l82.6-61.8L292.2,222.1z"/>
	<path id="Path_9376" class="st6" d="M233.5,201.5h128.4v147.3H221.4V213.6C221.4,206.9,226.8,201.5,233.5,201.5z"/>
	<path id="Path_9377" class="st8" d="M374.8,377.8H209.7v-92.9L374.8,377.8z"/>
	<path id="Path_9378" class="st9" d="M209.7,377.8h165.1v-92.9L209.7,377.8z"/>
	<path id="Path_9379" class="st1" d="M374.8,377.7l-82.6-69.4l-82.6,69.4H374.8z"/>
	<path id="Path_9380" class="st5" d="M245.6,201.5h140.6v151.7H257.7c-6.7,0-12.2-5.4-12.2-12.2V201.5z"/>
	<path id="Path_9381" class="st5" d="M250.1,201.5V226h-4.3v-12.3c0-6.7-5.4-12.2-12.2-12.2H250.1z"/>
	<path id="Path_9382" class="st10" d="M281.9,122.9h128.4V341c0,6.7-5.4,12.2-12.2,12.2H269.8V135.1
		C269.8,128.4,275.2,122.9,281.9,122.9z"/>
	<path id="Path_9383" class="st6" d="M274.3,353.1v-24.5h-4.3v12.3c0,6.7-5.4,12.2-12.1,12.2L274.3,353.1z"/>
	<path id="Path_9384" class="st11" d="M399.8,229.2h-119c-0.6,0-1.1-0.5-1.1-1.1c0-0.6,0.5-1.1,1.1-1.1c0,0,0,0,0,0h119
		c0.6,0,1.1,0.5,1.1,1.1C400.9,228.7,400.4,229.2,399.8,229.2C399.8,229.2,399.8,229.2,399.8,229.2z"/>
	<path id="Path_9385" class="st11" d="M376.1,244.3h-95.5c-0.6,0-1.1-0.5-1.1-1.1c0-0.6,0.5-1.1,1.1-1.1c0,0,0,0,0,0h95.5
		c0.6,0,1.1,0.5,1.1,1.1C377.2,243.8,376.7,244.3,376.1,244.3C376.1,244.3,376.1,244.3,376.1,244.3z"/>
	<path id="Path_9386" class="st11" d="M388.7,214.2h-90c-0.6,0-1.1-0.5-1.1-1.1c0-0.6,0.5-1.1,1.1-1.1c0,0,0,0,0,0h90
		c0.6,0,1.1,0.5,1.1,1.1C389.8,213.7,389.3,214.2,388.7,214.2C388.7,214.2,388.7,214.2,388.7,214.2z"/>
	<path id="Path_9387" class="st11" d="M344.4,259.3h-64c-0.6,0-1.1-0.5-1.1-1.1c0-0.6,0.5-1.1,1.1-1.1c0,0,0,0,0,0h64
		c0.6,0,1.1,0.5,1.1,1.1C345.5,258.8,345,259.3,344.4,259.3z"/>
	<path id="Path_9388" class="st11" d="M397.4,259.3h-43c-0.6,0-1.1-0.5-1.1-1.1c0-0.6,0.5-1.1,1.1-1.1h43c0.6,0,1.1,0.5,1.1,1.1
		C398.5,258.8,398,259.3,397.4,259.3z"/>
	<path id="Path_9389" class="st11" d="M399.8,274.3h-119c-0.6,0-1.1-0.5-1.1-1.1c0-0.6,0.5-1.1,1.1-1.1c0,0,0,0,0,0h119
		c0.6,0,1.1,0.5,1.1,1.1C400.9,273.9,400.4,274.3,399.8,274.3C399.8,274.3,399.8,274.3,399.8,274.3z"/>
	<path id="Path_9390" class="st11" d="M388.3,289.4H292c-0.6,0-1.1-0.5-1.1-1.1c0-0.6,0.5-1.1,1.1-1.1c0,0,0,0,0,0h96.3
		c0.6,0,1.1,0.5,1.1,1.1C389.3,288.9,388.8,289.4,388.3,289.4L388.3,289.4z"/>
	<path id="Path_9391" class="st12" d="M293.6,122.9H422c6.7,0,12.2,5.4,12.2,12.2v0V206H293.6V122.9z"/>
	<path id="Path_9392" class="st12" d="M298.2,122.9v24.5h-4.3v-12.3c0-6.7-5.5-12.1-12.2-12.2H298.2z"/>
	<path id="Path_9394" class="st4" d="M412.2,379.6c-1.2,0-2.3,0-3.5-0.1c-0.4,0-0.8-0.4-0.8-0.8c0,0,0,0,0,0c0-0.4,0.4-0.8,0.8-0.8
		l0,0c2.2,0.1,4.5,0.1,6.8,0l0,0c0.4,0,0.8,0.4,0.8,0.8c0,0.4-0.4,0.8-0.8,0.8C414.4,379.6,413.3,379.6,412.2,379.6z M401.9,379.1
		L401.9,379.1c-2.3-0.2-4.6-0.5-6.9-0.9c-0.4-0.1-0.7-0.5-0.7-0.9c0,0,0,0,0,0c0.1-0.4,0.5-0.7,0.9-0.7c2.2,0.4,4.5,0.7,6.7,0.9
		c0.4,0,0.8,0.4,0.7,0.9C402.7,378.8,402.3,379.1,401.9,379.1L401.9,379.1z M422.4,379.1c-0.4,0-0.8-0.4-0.8-0.8
		c0-0.2,0.1-0.3,0.2-0.5c0.1-0.2,0.3-0.3,0.5-0.3c2.2-0.2,4.5-0.5,6.7-0.9c0.4-0.1,0.8,0.2,0.9,0.6c0.1,0.4-0.2,0.8-0.6,0.9
		C427,378.6,424.7,378.9,422.4,379.1L422.4,379.1z M388.5,377h-0.2c-2.2-0.5-4.4-1.1-6.7-1.7c-0.4-0.1-0.7-0.6-0.6-1
		c0.1-0.4,0.6-0.7,1-0.6c2.2,0.6,4.4,1.2,6.6,1.7c0.4,0.1,0.7,0.5,0.6,1C389.1,376.7,388.8,377,388.5,377L388.5,377z M435.8,376.8
		c-0.4,0-0.8-0.4-0.8-0.8c0-0.3,0.2-0.6,0.6-0.7c2.1-0.5,4.4-1.2,6.5-1.9c0.4-0.1,0.9,0.1,1,0.5c0.1,0.2,0,0.4,0,0.6
		c-0.1,0.2-0.3,0.3-0.5,0.4c-2.2,0.7-4.4,1.3-6.6,1.9C435.9,376.8,435.9,376.7,435.8,376.8L435.8,376.8z M375.3,373.3
		c-0.1,0-0.2,0-0.2,0c-2.1-0.7-4.3-1.5-6.5-2.3c-0.4-0.1-0.6-0.6-0.5-1s0.6-0.6,1-0.5c0,0,0,0,0.1,0c2.1,0.8,4.3,1.6,6.4,2.3
		c0.4,0.1,0.6,0.6,0.5,1C376,373.1,375.7,373.3,375.3,373.3L375.3,373.3z M448.8,372.5c-0.5,0-0.8-0.4-0.8-0.8c0-0.1,0-0.2,0.1-0.3
		c0.1-0.2,0.2-0.4,0.4-0.4c2.1-0.9,4.1-1.9,6-3c0.4-0.2,0.9-0.2,1.1,0.2c0.2,0.4,0.2,0.9-0.2,1.1c0,0-0.1,0-0.1,0.1
		c-2,1.2-4.1,2.2-6.2,3.1C449,372.5,448.9,372.5,448.8,372.5L448.8,372.5z M362.5,368.4c-0.1,0-0.2,0-0.3-0.1
		c-2-0.9-4.1-1.8-6.3-2.8c-0.4-0.2-0.6-0.7-0.4-1.1c0,0,0,0,0,0c0.2-0.4,0.6-0.6,1-0.4c0,0,0,0,0,0c2.1,1,4.2,1.9,6.2,2.8
		c0.4,0.2,0.6,0.6,0.4,1c0,0,0,0,0,0C363.2,368.2,362.9,368.4,362.5,368.4L362.5,368.4z M460.5,365.6c-0.2,0-0.5-0.1-0.6-0.3
		c-0.2-0.3-0.2-0.8,0.1-1.1c1.8-1.4,3.5-2.9,5.1-4.5c0.3-0.3,0.8-0.3,1.1,0c0.3,0.3,0.3,0.8,0,1.1c-1.6,1.6-3.4,3.2-5.2,4.6
		C460.8,365.5,460.7,365.6,460.5,365.6L460.5,365.6z M350.1,362.7c-0.1,0-0.2,0-0.4-0.1c-2-1-4-2-6.1-3.1c-0.4-0.2-0.5-0.7-0.3-1.1
		c0.2-0.3,0.6-0.5,1-0.3c2.1,1.1,4.1,2.1,6.1,3.1c0.4,0.2,0.6,0.6,0.4,1c0,0,0,0,0,0C350.7,362.5,350.4,362.7,350.1,362.7
		L350.1,362.7z M338,356.3c-0.1,0-0.3,0-0.4-0.1c-2.1-1.1-4.1-2.2-6-3.3c-0.4-0.2-0.5-0.7-0.3-1.1c0.2-0.4,0.7-0.5,1-0.3
		c1.9,1.1,3.9,2.2,6,3.3c0.4,0.2,0.5,0.7,0.3,1.1C338.6,356.1,338.3,356.3,338,356.3L338,356.3z M470.2,356c-0.2,0-0.4-0.1-0.5-0.2
		c-0.3-0.3-0.4-0.7-0.1-1.1c1.4-1.8,2.7-3.6,3.9-5.5c0.2-0.4,0.7-0.5,1.1-0.3c0.4,0.2,0.5,0.7,0.3,1.1c-1.2,2-2.6,3.9-4,5.7
		C470.6,355.9,470.4,356,470.2,356L470.2,356z M326.1,349.6c-0.1,0-0.3,0-0.4-0.1c-2.1-1.2-4.1-2.3-6-3.3c-0.4-0.2-0.6-0.6-0.4-1
		c0.2-0.4,0.6-0.6,1-0.4c0,0,0.1,0,0.1,0.1c1.9,1,3.9,2.1,6,3.3c0.4,0.2,0.5,0.7,0.3,1.1C326.7,349.4,326.4,349.6,326.1,349.6
		L326.1,349.6z M477.4,344.4c-0.4,0-0.8-0.3-0.8-0.8c0-0.1,0-0.3,0.1-0.4c0.9-2,1.8-4.1,2.5-6.3c0.1-0.4,0.5-0.7,1-0.6
		s0.7,0.5,0.6,1c0,0,0,0.1,0,0.1c-0.7,2.2-1.5,4.3-2.5,6.4C478,344.2,477.7,344.4,477.4,344.4L477.4,344.4z M314,343.2
		c-0.1,0-0.2,0-0.3-0.1c-0.7-0.3-1.3-0.6-2-0.9c-1.4-0.6-2.8-1.2-4.3-1.8c-0.4-0.2-0.6-0.6-0.4-1c0,0,0,0,0,0c0.2-0.4,0.6-0.6,1-0.4
		c0,0,0,0,0,0c1.4,0.6,2.9,1.2,4.3,1.8c0.6,0.3,1.3,0.6,2,0.9c0.4,0.2,0.6,0.7,0.4,1.1c0,0,0,0,0,0C314.6,343,314.4,343.2,314,343.2
		L314,343.2z M301.5,337.9c-0.1,0-0.2,0-0.3-0.1c-2.1-0.8-4.3-1.6-6.4-2.3c-0.4-0.1-0.6-0.6-0.5-1c0.1-0.4,0.6-0.6,1-0.5
		c2.1,0.8,4.3,1.6,6.4,2.4c0.4,0.2,0.6,0.6,0.4,1C302,337.7,301.7,337.9,301.5,337.9L301.5,337.9z M288.6,333.4c-0.1,0-0.2,0-0.2,0
		c-2.1-0.7-4.3-1.4-6.5-2c-0.4-0.1-0.7-0.6-0.5-1c0.1-0.4,0.5-0.7,1-0.5c0,0,0,0,0,0c2.2,0.7,4.4,1.3,6.5,2c0.4,0.1,0.7,0.6,0.5,1
		C289.2,333.2,288.9,333.4,288.6,333.4L288.6,333.4z M481.5,331.4h-0.1c-0.4-0.1-0.7-0.5-0.6-0.9c0.4-2.2,0.6-4.5,0.6-6.7
		c0-0.4,0.4-0.8,0.8-0.8l0,0c0.4,0,0.8,0.4,0.8,0.8c0,2.3-0.3,4.6-0.6,6.9C482.2,331.1,481.9,331.3,481.5,331.4L481.5,331.4z
		 M275.5,329.5c-0.1,0-0.1,0-0.2,0c-2.1-0.6-4.4-1.2-6.6-1.7c-0.4-0.1-0.7-0.5-0.7-0.9c0.1-0.4,0.5-0.7,0.9-0.7c0.1,0,0.1,0,0.2,0
		c2.2,0.5,4.4,1.1,6.6,1.7c0.4,0.1,0.7,0.5,0.6,1C276.2,329.3,275.9,329.5,275.5,329.5L275.5,329.5z M262.3,326.2h-0.2
		c-2.2-0.5-4.4-1-6.7-1.4c-0.4-0.1-0.7-0.5-0.6-0.9c0,0,0,0,0,0c0.1-0.4,0.5-0.7,0.9-0.6c2.2,0.5,4.5,0.9,6.7,1.4
		c0.4,0.1,0.7,0.5,0.6,1C262.9,326,262.6,326.2,262.3,326.2L262.3,326.2z M248.9,323.5h-0.1c-2.2-0.4-4.5-0.8-6.7-1.2
		c-0.4-0.1-0.7-0.5-0.6-0.9c0.1-0.4,0.5-0.7,0.9-0.7c0,0,0,0,0,0c2.2,0.4,4.5,0.7,6.8,1.2c0.4,0.1,0.7,0.5,0.6,0.9
		C249.6,323.2,249.3,323.5,248.9,323.5L248.9,323.5z M119.9,323.2c-0.4,0-0.7-0.2-0.8-0.6c-0.1-0.4,0.2-0.9,0.6-1
		c2.1-0.5,4.3-1,6.7-1.4c0.4-0.1,0.8,0.2,0.9,0.6c0,0,0,0,0,0c0.1,0.4-0.2,0.8-0.6,0.9c-2.4,0.5-4.6,0.9-6.6,1.4
		C120,323.1,119.9,323.1,119.9,323.2L119.9,323.2z M235.4,321.3h-0.1c-2.2-0.3-4.5-0.6-6.7-0.9c-0.4-0.1-0.7-0.5-0.7-0.9
		c0.1-0.4,0.4-0.7,0.9-0.7c2.2,0.3,4.5,0.6,6.8,0.9c0.4,0,0.8,0.4,0.7,0.8C236.2,321,235.8,321.4,235.4,321.3L235.4,321.3z
		 M133.3,320.6c-0.4,0-0.8-0.3-0.8-0.8c0-0.4,0.3-0.8,0.7-0.8c2.1-0.3,4.5-0.6,6.8-0.9c0.4,0,0.8,0.3,0.9,0.7
		c0.1,0.4-0.2,0.8-0.7,0.9c0,0,0,0,0,0c-2.3,0.3-4.6,0.6-6.7,0.9L133.3,320.6z M221.8,319.6L221.8,319.6c-2.4-0.2-4.6-0.5-6.9-0.7
		c-0.4-0.1-0.7-0.5-0.6-0.9c0.1-0.4,0.4-0.6,0.8-0.6c2.2,0.2,4.5,0.4,6.8,0.7c0.4,0,0.8,0.4,0.8,0.8
		C222.6,319.3,222.3,319.7,221.8,319.6L221.8,319.6z M146.8,318.9c-0.4,0-0.8-0.3-0.8-0.8c0-0.4,0.3-0.8,0.8-0.8
		c2.2-0.2,4.5-0.4,6.8-0.6c0.4,0,0.8,0.3,0.8,0.7c0,0.4-0.3,0.8-0.7,0.8c0,0,0,0,0,0C151.4,318.5,149.1,318.7,146.8,318.9
		L146.8,318.9z M208.2,318.4L208.2,318.4c-2.3-0.2-4.6-0.3-6.8-0.4c-0.4,0-0.8-0.4-0.8-0.8c0-0.4,0.4-0.8,0.8-0.8
		c2.3,0.1,4.5,0.3,6.8,0.4c0.4,0,0.8,0.4,0.7,0.8c0,0,0,0,0,0C209,318.1,208.6,318.4,208.2,318.4L208.2,318.4z M160.5,317.9
		c-0.4,0-0.8-0.4-0.8-0.8c0-0.4,0.4-0.8,0.8-0.8l0,0c2.2-0.1,4.5-0.2,6.8-0.3c0.4,0,0.8,0.3,0.8,0.7c0,0,0,0,0,0.1
		c0,0.4-0.3,0.8-0.8,0.8C165,317.7,162.8,317.8,160.5,317.9L160.5,317.9z M481.7,317.7c-0.4,0-0.7-0.3-0.8-0.7
		c-0.3-2.2-0.8-4.4-1.5-6.5c-0.1-0.4,0.1-0.9,0.5-1c0,0,0,0,0,0c0.4-0.1,0.9,0.1,1,0.5c0.7,2.2,1.3,4.5,1.6,6.8
		c0.1,0.4-0.2,0.8-0.7,0.9L481.7,317.7z M194.6,317.7L194.6,317.7c-2.3-0.1-4.6-0.1-6.8-0.2c-0.4,0-0.8-0.4-0.8-0.8
		c0-0.4,0.4-0.8,0.8-0.8c2.2,0,4.5,0.1,6.8,0.2c0.4,0,0.8,0.4,0.8,0.8C195.4,317.4,195.1,317.7,194.6,317.7L194.6,317.7z
		 M174.1,317.5c-0.4,0-0.8-0.3-0.8-0.8c0-0.4,0.3-0.8,0.8-0.8h6.8c0.4,0,0.8,0.4,0.8,0.8c0,0.4-0.3,0.7-0.8,0.8L174.1,317.5
		L174.1,317.5z M477.5,304.8c-0.3,0-0.6-0.2-0.7-0.4c-1-2-2.2-3.9-3.6-5.7c-0.3-0.4-0.2-0.8,0.2-1.1c0.3-0.3,0.8-0.2,1.1,0.2
		c0,0,0,0,0,0c1.4,1.9,2.6,3.8,3.7,5.9c0.2,0.4,0.1,0.9-0.3,1.1c0,0,0,0,0,0C477.7,304.8,477.6,304.8,477.5,304.8L477.5,304.8z
		 M469.4,293.8c-0.2,0-0.4-0.1-0.6-0.2c-1.6-1.6-3.3-3.1-5-4.5c-0.3-0.3-0.4-0.8-0.1-1.1c0.3-0.3,0.8-0.4,1.1-0.1c0,0,0,0,0,0
		c1.8,1.4,3.5,3,5.2,4.6c0.3,0.3,0.3,0.8,0,1.1C469.8,293.7,469.6,293.8,469.4,293.8L469.4,293.8z M458.7,285.3
		c-0.2,0-0.3,0-0.4-0.1c-1.4-0.9-2.8-1.7-4.4-2.6l-1.5-0.8c-0.4-0.2-0.6-0.6-0.4-1c0.2-0.4,0.6-0.6,1-0.4c0.1,0,0.1,0,0.2,0.1
		l1.5,0.8c1.5,0.8,3,1.7,4.5,2.6c0.3,0.2,0.5,0.7,0.2,1.1C459.2,285.1,459,285.3,458.7,285.3L458.7,285.3z M446.7,278.7
		c-0.1,0-0.2,0-0.4-0.1c-2.1-1.1-4.2-2-6.2-2.8c-0.4-0.2-0.6-0.6-0.4-1c0.2-0.4,0.6-0.6,1-0.4c2,0.9,4.1,1.8,6.2,2.9
		c0.4,0.2,0.6,0.7,0.4,1.1C447.3,278.5,447.1,278.7,446.7,278.7L446.7,278.7z M434.2,273.3c-0.1,0-0.2,0-0.3-0.1
		c-2.1-0.8-4.4-1.5-6.5-2c-0.4-0.1-0.7-0.6-0.6-1c0.1-0.4,0.6-0.7,1-0.6c2.1,0.6,4.3,1.3,6.6,2.1c0.4,0.1,0.6,0.6,0.5,1c0,0,0,0,0,0
		C434.8,273.1,434.5,273.3,434.2,273.3L434.2,273.3z M421,269.8h-0.1c-2.2-0.4-4.4-0.6-6.7-0.8c-0.4,0-0.8-0.4-0.7-0.8
		s0.4-0.8,0.8-0.7c2.3,0.1,4.6,0.4,6.9,0.8c0.4,0.1,0.7,0.5,0.6,0.9c0,0,0,0,0,0C421.7,269.5,421.4,269.8,421,269.8L421,269.8z"/>
	<path id="Path_9395" class="st4" d="M110.1,326.2c-0.4,0-0.8-0.3-0.8-0.8c0-0.3,0.2-0.6,0.5-0.7c1-0.4,2-0.8,3.2-1.2
		c0.4-0.2,0.9,0.1,1,0.5c0.2,0.4-0.1,0.9-0.5,1c0,0,0,0,0,0c-1.1,0.4-2.1,0.8-3.1,1.2C110.3,326.2,110.2,326.2,110.1,326.2
		L110.1,326.2z"/>
	<path id="Path_9396" class="st4" d="M112.9,314.8v15.3l-61.3,14.6L112.9,314.8z"/>
	<path id="Path_9397" class="st5" d="M51.6,344.8l61.3-30l-18.2-11.9L51.6,344.8z"/>
	<path id="Path_9398" class="st5" d="M51.6,344.8l65.5-22.8l16.3,17.7L51.6,344.8z"/>
</g>
</svg>
